<svg xmlns="http://www.w3.org/2000/svg" viewBox="0 0 128 128"><defs><style>.cls-1{fill:#a0aec0;}</style></defs><title>Aids</title><g id="Aids"><path class="cls-1" d="M50.1,80.72a197.32,197.32,0,0,1-36.91,34.09H31.48L37.58,127A218.91,218.91,0,0,0,62.75,99.36,195.67,195.67,0,0,1,50.1,80.72Z"/><path class="cls-1" d="M65.2,60.5A201.56,201.56,0,0,0,77.62,77.26C84.34,65.61,90,52.57,92.86,38.9c1.4-6.81,1.62-13.51-2.44-21.64a30.75,30.75,0,0,0-5.52-8C87.2,23.11,72.93,48.73,65.2,60.5Z"/><path class="cls-1" d="M46.83,23.69A44.32,44.32,0,0,1,64,19.29a44.32,44.32,0,0,1,17.17,4.4c1.39-4.62,3.08-12.36,1-16.7C73.67-.94,54.42-1,45.83,7,43.75,11.33,45.44,19.07,46.83,23.69Z"/><path class="cls-1" d="M43.1,9.2a31.53,31.53,0,0,0-5.52,8.06c-4.06,8.13-3.84,14.83-2.44,21.64C39.49,60,50.94,80.49,64,97.72A220.33,220.33,0,0,0,90.42,127l6.1-12.19h18.29C68.87,82.59,39.93,28,43.1,9.2Z"/></g></svg>