<svg xmlns="http://www.w3.org/2000/svg" viewBox="0 0 128 128"><defs><style>.cls-1{fill:#a0aec0;}</style></defs><title>Ambulance</title><g id="Ambulance"><circle class="cls-1" cx="102.61" cy="94.48" r="4"/><path class="cls-1" d="M102.61,82.29a12.2,12.2,0,1,0,12.2,12.19A12.19,12.19,0,0,0,102.61,82.29Zm0,18.19a6,6,0,1,1,6-6A6,6,0,0,1,102.61,100.48Z"/><circle class="cls-1" cx="25.39" cy="94.48" r="4"/><path class="cls-1" d="M25.39,82.29A12.2,12.2,0,1,0,37.58,94.48,12.2,12.2,0,0,0,25.39,82.29Zm0,18.19a6,6,0,1,1,6-6A6,6,0,0,1,25.39,100.48Z"/><path class="cls-1" d="M5.06,85.35H1V75.16H5.06a3.08,3.08,0,0,1,3.07,3.07v4.06A3.07,3.07,0,0,1,5.06,85.35Z"/><path class="cls-1" d="M44.71,61h-31L23.92,40.5c.32.16-1,.11,20.79.11Z"/><path class="cls-1" d="M54.84,71.1V94.48H88.42a14.2,14.2,0,0,1,28.39,0H127V71.1Zm70.55-34a8.13,8.13,0,0,0-8.1-7.68H54.84V69.1H127C127,64.79,127.24,70.27,125.39,37.13ZM113.77,53.84a1,1,0,0,1-1,1h-7.12V62a1,1,0,0,1-1,1H96.52a1,1,0,0,1-1-1V54.84H88.39a1,1,0,0,1-1-1V45.71a1,1,0,0,1,1-1h7.13V37.58a1,1,0,0,1,1-1h8.13a1,1,0,0,1,1,1v7.13h7.12a1,1,0,0,1,1,1Zm-10.12-8.13V38.58H97.52v7.13a1,1,0,0,1-1,1H89.39v6.13h7.13a1,1,0,0,1,1,1V61h6.13V53.84a1,1,0,0,1,1-1h7.12V46.71h-7.12A1,1,0,0,1,103.65,45.71ZM34.47,29.45a8.16,8.16,0,0,0-7.27,4.49l-2.33,4.67H45.71a1,1,0,0,1,1,1V62a1,1,0,0,1-1,1H10.19L6.57,64.18A8.12,8.12,0,0,0,1,71.89v1.27H5.06a5.07,5.07,0,0,1,5.07,5.07v4.06a5.07,5.07,0,0,1-5.07,5.06H1v7.13H11.19a14.2,14.2,0,0,1,28.39,0H52.84v-65ZM45.71,71.1H41.65a1,1,0,0,1,0-2h4.06A1,1,0,0,1,45.71,71.1Z"/><polygon class="cls-1" points="65.03 27.45 42.65 27.45 45.71 21.32 61.97 21.32 65.03 27.45"/></g></svg>