<svg xmlns="http://www.w3.org/2000/svg" viewBox="0 0 128 128"><defs><style>.cls-1{fill:#a0aec0;}</style></defs><title>Bacteria</title><g id="Bacteria"><path class="cls-1" d="M76.19,58.9A3.07,3.07,0,0,0,73.13,62V74.16a3.07,3.07,0,1,0,6.13,0V62A3.08,3.08,0,0,0,76.19,58.9Z"/><path class="cls-1" d="M40,70.48a9.16,9.16,0,1,0-13,0A9.17,9.17,0,0,0,40,70.48Zm-3.22-6.1a1.5,1.5,0,0,1,2.12,2.12A1.5,1.5,0,0,1,36.77,64.38ZM31,58.63a1.5,1.5,0,0,1,2.12,2.12A1.5,1.5,0,0,1,31,58.63Zm-1.44,7.18a1.5,1.5,0,0,1,2.12,2.12A1.5,1.5,0,0,1,29.58,65.81Z"/><circle class="cls-1" cx="93.47" cy="91.44" r="6.11"/><path class="cls-1" d="M61.39,101.81c-3.47-.38-9.74-2.49-12.74-12.34a3,3,0,0,0-2.86-2.06,3.06,3.06,0,0,0-3,4c3.76,12.34,11.85,15.75,18,16.43a3,3,0,0,0,.6-6Z"/><circle class="cls-1" cx="59.94" cy="78.23" r="2"/><circle class="cls-1" cx="74.16" cy="27.42" r="2"/><path class="cls-1" d="M64,1a63,63,0,1,0,63,63A63,63,0,0,0,64,1Zm0,118.87A55.87,55.87,0,1,1,119.87,64,55.93,55.93,0,0,1,64,119.87Z"/><path class="cls-1" d="M64,10.13A53.87,53.87,0,1,0,117.87,64,53.93,53.93,0,0,0,64,10.13Zm-28.21,20,8.62-8.62a5.06,5.06,0,0,1,7.16,7.16L43,37.34a5.06,5.06,0,1,1-7.16-7.16ZM32.52,80.26V75.11a11.1,11.1,0,0,1-6.15-2.55L22.73,76.2a1,1,0,0,1-1.42-1.41L25,71.15A11,11,0,0,1,22.41,65H17.26a1,1,0,0,1,0-2h5.15A11,11,0,0,1,25,56.85l-3.64-3.64a1,1,0,0,1,1.42-1.41l3.64,3.64a11.1,11.1,0,0,1,6.15-2.55V47.74a1,1,0,0,1,2,0v5.15a11.16,11.16,0,0,1,6.15,2.55l3.64-3.64a1,1,0,0,1,1.41,1.41l-3.64,3.64A11,11,0,0,1,44.62,63h5.15a1,1,0,0,1,0,2H44.62a11,11,0,0,1-2.54,6.15l3.64,3.64a1,1,0,0,1-1.41,1.41l-3.64-3.64a11.16,11.16,0,0,1-6.15,2.55v5.15A1,1,0,0,1,32.52,80.26Zm32.18,28a4.87,4.87,0,0,1-4.13,1.54c-5.5-.61-15.37-3.75-19.66-17.83a5.07,5.07,0,0,1,9.66-3.08c.19,0,2.07,10,11,10.93A5,5,0,0,1,64.7,108.26Zm-8.76-30a4,4,0,1,1,4,4A4,4,0,0,1,55.94,78.23Zm4-25.42A7.1,7.1,0,1,1,67,45.71,7.11,7.11,0,0,1,59.94,52.81ZM74.16,23.42a4,4,0,1,1-4,4A4,4,0,0,1,74.16,23.42Zm7.1,50.74a5.07,5.07,0,1,1-10.13,0V62a5.07,5.07,0,1,1,10.13,0ZM93.47,99.55a8.12,8.12,0,1,1,8.11-8.11A8.12,8.12,0,0,1,93.47,99.55Zm-1-29.45a4,4,0,1,1,4,4A4,4,0,0,1,92.52,70.1Zm12.15-11.18a5,5,0,0,1-5.81-3.37c-2.53-8.32-7.4-10.54-11-10.94a5,5,0,0,1,1-10c5.5.62,15.37,3.75,19.66,17.84A5.05,5.05,0,0,1,104.67,58.92Z"/><circle class="cls-1" cx="59.94" cy="45.71" r="5.1"/><circle class="cls-1" cx="96.52" cy="70.1" r="2"/><path class="cls-1" d="M41.53,35.93c9.26-9.25,9.52-9.08,9.52-10.79A3.05,3.05,0,0,0,48,22.08c-1.7,0-1.43.15-10.79,9.52a3.06,3.06,0,0,0,4.33,4.33Z"/><path class="cls-1" d="M88.64,36.62a3,3,0,0,0-.6,6c3.47.37,9.74,2.48,12.74,12.33a3.07,3.07,0,0,0,5.52.59,3.13,3.13,0,0,0,.31-2.5C102.85,40.71,94.76,37.31,88.64,36.62Z"/></g></svg>