<svg xmlns="http://www.w3.org/2000/svg" viewBox="0 0 128 128"><defs><style>.cls-1{fill:#a0aec0;}</style></defs><title>Band Aids</title><g id="Band_Aids" data-name="Band Aids"><path class="cls-1" d="M102.57,1A24.38,24.38,0,0,0,85.3,8.16L8.16,85.3A24.38,24.38,0,0,0,1,102.57H1c0,21.83,26.45,32.52,41.7,17.27L119.84,42.7C135.1,27.45,124.4,1,102.57,1ZM78.23,32a1.5,1.5,0,0,1,0,3A1.5,1.5,0,0,1,78.23,32Zm-61,64a1.5,1.5,0,0,1,0-3A1.5,1.5,0,0,1,17.26,96Zm8.13,8.13a1.5,1.5,0,0,1,0-3A1.5,1.5,0,0,1,25.39,104.11Zm4.06-12.19a1.5,1.5,0,0,1,0-3A1.5,1.5,0,0,1,29.45,91.92Zm4.07,20.32a1.5,1.5,0,0,1,0-3A1.5,1.5,0,0,1,33.52,112.24Zm0-32.51a1.5,1.5,0,0,1,0-3A1.5,1.5,0,0,1,33.52,79.73Zm4.06,20.32a1.5,1.5,0,0,1,0-3A1.5,1.5,0,0,1,37.58,100.05Zm4.07-12.2a1.5,1.5,0,0,1,0-3A1.5,1.5,0,0,1,41.65,87.85ZM49.77,96a1.5,1.5,0,0,1,0-3A1.5,1.5,0,0,1,49.77,96ZM84.07,67.7,67.7,84.07a9.56,9.56,0,0,1-13.5,0L43.93,73.8a9.56,9.56,0,0,1,0-13.5L60.3,43.93a9.56,9.56,0,0,1,13.5,0L84.07,54.2A9.56,9.56,0,0,1,84.07,67.7Zm2.28-24.55a1.5,1.5,0,0,1,0-3A1.5,1.5,0,0,1,86.35,43.15ZM90.42,31a1.5,1.5,0,0,1,0-3A1.5,1.5,0,0,1,90.42,31Zm4.06,20.32a1.5,1.5,0,0,1,0-3A1.5,1.5,0,0,1,94.48,51.27Zm0-32.51a1.5,1.5,0,0,1,0-3A1.5,1.5,0,0,1,94.48,18.76Zm4.07,20.32a1.5,1.5,0,0,1,0-3A1.5,1.5,0,0,1,98.55,39.08Zm4.06-12.19a1.5,1.5,0,0,1,0-3A1.5,1.5,0,0,1,102.61,26.89ZM110.74,35a1.5,1.5,0,0,1,0-3A1.5,1.5,0,0,1,110.74,35Z"/><path class="cls-1" d="M72.38,45.35a7.54,7.54,0,0,0-10.67,0L45.35,61.71a7.54,7.54,0,0,0,0,10.67L55.62,82.65a7.55,7.55,0,0,0,10.67,0L82.65,66.29a7.54,7.54,0,0,0,0-10.67Z"/><path class="cls-1" d="M42.7,8.15A24.42,24.42,0,0,0,2.87,34.78c2.48,6,4.06,6.7,25.17,27.81L62.59,28ZM17.26,35a1.5,1.5,0,0,1,0-3A1.5,1.5,0,0,1,17.26,35Zm8.13-8.13a1.5,1.5,0,0,1,0-3A1.5,1.5,0,0,1,25.39,26.89Zm4.06,12.19a1.5,1.5,0,0,1,0-3A1.5,1.5,0,0,1,29.45,39.08Zm4.07,12.19a1.5,1.5,0,0,1,0-3A1.5,1.5,0,0,1,33.52,51.27Zm0-32.51a1.5,1.5,0,0,1,0-3A1.5,1.5,0,0,1,33.52,18.76ZM37.58,31a1.5,1.5,0,0,1,0-3A1.5,1.5,0,0,1,37.58,31Zm4.07,12.2a1.5,1.5,0,0,1,0-3A1.5,1.5,0,0,1,41.65,43.15ZM49.77,35a1.5,1.5,0,0,1,0-3A1.5,1.5,0,0,1,49.77,35Z"/><path class="cls-1" d="M125.13,93.22c-2.48-6-4-6.69-25.16-27.8L65.42,100,85.3,119.85c15.24,15.24,41.7,4.55,41.7-17.28A24.31,24.31,0,0,0,125.13,93.22ZM78.23,96a1.5,1.5,0,0,1,0-3A1.5,1.5,0,0,1,78.23,96Zm8.12-8.13a1.5,1.5,0,0,1,0-3A1.5,1.5,0,0,1,86.35,87.85Zm4.07,12.2a1.5,1.5,0,0,1,0-3A1.5,1.5,0,0,1,90.42,100.05Zm4.06,12.19a1.5,1.5,0,0,1,0-3A1.5,1.5,0,0,1,94.48,112.24Zm0-32.51a1.5,1.5,0,0,1,0-3A1.5,1.5,0,0,1,94.48,79.73Zm4.07,12.19a1.5,1.5,0,0,1,0-3A1.5,1.5,0,0,1,98.55,91.92Zm4.06,12.19a1.5,1.5,0,0,1,0-3A1.5,1.5,0,0,1,102.61,104.11ZM110.74,96a1.5,1.5,0,0,1,0-3A1.5,1.5,0,0,1,110.74,96Z"/></g></svg>