<svg xmlns="http://www.w3.org/2000/svg" viewBox="0 0 128 128"><defs><style>.cls-1{fill:#a0aec0;}</style></defs><title>Blood Transfusion</title><g id="Blood_Transfusion" data-name="Blood Transfusion"><path class="cls-1" d="M98.52,98.43c3.7-.14,7.12-.4,10.22-.76V91.43a102,102,0,0,1-10.22.87Z"/><path class="cls-1" d="M92.45,9.13c-20.2,0-34.55,3.64-34.55,8.13V90.42c0,2.78,5.35,5.22,14.26,6.68V90.76A53.62,53.62,0,0,1,64,88.46V26.8c11.14,3.19,16.48,4,26.8-.36,9.37-3.94,15.42-4.6,30,1.69V88.46a50.2,50.2,0,0,1-8.13,2.3v-2a45.44,45.44,0,0,0,6.13-1.67V29.45c-28.45-12.19-24.39,8.13-52.84,0v57.6a45.44,45.44,0,0,0,6.13,1.67V86.35a1,1,0,0,1,2,0v14.23a1,1,0,0,0,2,0V97.67c3.1.36,6.53.62,10.23.76V92.3a102,102,0,0,1-10.23-.87v-2a105.74,105.74,0,0,0,12.23,1v16.32h3.06A19.35,19.35,0,0,1,72.13,126H59.94a19.35,19.35,0,0,1-19.33-19.32c0-31.09,0-28.28,0-28.58a4.06,4.06,0,0,0,3.09-3.94V64a4,4,0,0,0-3.09-3.93c0-.3,0-4.29,0-19.44a18.28,18.28,0,1,0-36.55,0V96.52H1v14.22l3.18,1.59c-.16.33-.12-1-.12,14.67a1,1,0,0,0,2,0c0-15.46.06-14.34-.11-14.67l3.18-1.59V96.52H6.06V40.63a16.28,16.28,0,1,1,32.55,0c0,15.18,0,19.14,0,19.44A4,4,0,0,0,35.55,64V74.16a4.06,4.06,0,0,0,3.09,3.94c0,.3,0-2.66,0,28.58A21.35,21.35,0,0,0,59.94,128H72.13a21.34,21.34,0,0,0,21.32-21.32h3.07V90.36a105.73,105.73,0,0,0,12.22-1V86.35a1,1,0,0,1,2,0v14.23a1,1,0,0,0,2,0V97.1c8.92-1.46,14.26-3.9,14.26-6.68V17.26C127,12.77,112.65,9.13,92.45,9.13Zm0,68.06A13.21,13.21,0,0,1,79.26,64c0-12.52,12-22.7,12.55-23.12a1,1,0,0,1,1.28,0c.51.42,12.56,10.6,12.56,23.12A13.21,13.21,0,0,1,92.45,77.19Z"/><path class="cls-1" d="M99.33,7.28l2.08.1a9.13,9.13,0,0,0-17.92,0l2.08-.1A7.13,7.13,0,0,1,99.33,7.28Z"/><path class="cls-1" d="M92.45,43C90,45.26,81.26,54,81.26,64a11.2,11.2,0,0,0,22.39,0C103.65,54,94.92,45.26,92.45,43Z"/></g></svg>