<svg xmlns="http://www.w3.org/2000/svg" viewBox="0 0 128 128"><defs><style>.cls-1{fill:#a0aec0;}</style></defs><title>Blood</title><g id="Blood"><path class="cls-1" d="M67.06,74.16V63H60.94V74.16a1,1,0,0,1-1,1H48.74v6.13h11.2a1,1,0,0,1,1,1V93.48h6.12V82.29a1,1,0,0,1,1-1h11.2V75.16H68.06A1,1,0,0,1,67.06,74.16Z"/><path class="cls-1" d="M64,50.77A27.46,27.46,0,1,0,91.45,78.23,27.48,27.48,0,0,0,64,50.77ZM81.26,82.29a1,1,0,0,1-1,1H69.06V94.48a1,1,0,0,1-1,1H59.94a1,1,0,0,1-1-1V83.29H47.74a1,1,0,0,1-1-1V74.16a1,1,0,0,1,1-1h11.2V62a1,1,0,0,1,1-1h8.12a1,1,0,0,1,1,1V73.16h11.2a1,1,0,0,1,1,1Z"/><path class="cls-1" d="M64,1S15.23,37.58,15.23,78.23a48.77,48.77,0,0,0,97.54,0C112.77,37.58,64,1,64,1Zm0,106.68A29.46,29.46,0,1,1,93.45,78.23,29.48,29.48,0,0,1,64,107.68Z"/></g></svg>