<svg xmlns="http://www.w3.org/2000/svg" viewBox="0 0 128 128"><defs><style>.cls-1{fill:#a0aec0;}</style></defs><title>Caduceus</title><g id="Caduceus"><path class="cls-1" d="M64,29.45A14.23,14.23,0,1,0,49.77,15.23,14.23,14.23,0,0,0,64,29.45ZM57.9,14.23H63V9.13a1,1,0,0,1,2,0v5.1h5.1a1,1,0,0,1,0,2H65v5.09a1,1,0,0,1-2,0V16.23H57.9A1,1,0,0,1,57.9,14.23Z"/><path class="cls-1" d="M61.87,125a2.13,2.13,0,0,0,4.26,0c0-.57.67-.27-4.29-.61Z"/><path class="cls-1" d="M57.9,35.55c0,9.27-.24.44,1.85,45.25.1,0,6.23.92,8.42,1.29C70.37,35.3,70.1,45,70.1,35.55a6.1,6.1,0,1,0-12.2,0Z"/><path class="cls-1" d="M95.44,29.45a14.72,14.72,0,0,0-13.15,8.13,14.65,14.65,0,0,1-10.37,7.85l-.39,8.41h31.08a8.13,8.13,0,0,0,7.88-6.13H88.39a1,1,0,0,1,0-2h22.35a8.13,8.13,0,0,0,7.88-6.13H96.52a1,1,0,0,1,0-2h22.35A8.13,8.13,0,0,0,127,29.45Z"/><path class="cls-1" d="M56.08,45.44a14.69,14.69,0,0,1-10.37-7.86,14.72,14.72,0,0,0-13.15-8.13H1a8.13,8.13,0,0,0,8.13,8.13H31.48a1,1,0,0,1,0,2H9.38a8.13,8.13,0,0,0,7.88,6.13H39.61a1,1,0,0,1,0,2H17.51a8.13,8.13,0,0,0,7.88,6.13H56.48Z"/><path class="cls-1" d="M86.23,61.62a3.85,3.85,0,0,0-2.56.45c-2.22,1.17-7.81,2-12.65,2.59,0,.48,0-.51-.41,8.26C77.67,72.09,84,71.19,88,69A4,4,0,0,0,86.23,61.62Z"/><path class="cls-1" d="M70.07,84.49C63.07,83,47.74,82,47.74,78.23c0-1.55,4.67-2.74,9.73-3.61l-.39-8.2C47.45,68,39.61,70.73,39.61,78.23c0,12,17.58,12,28.07,14.08,1.35.26,5.77,1.07,6.48,2.17,0,1.65-2,2.91-4.75,3.92,0,.92,0-.67-.42,8.64,6.9-2,13.3-5.15,13.3-12.56C82.29,88.35,76.68,85.89,70.07,84.49Z"/><path class="cls-1" d="M61.43,115.77c1,.42,2.41,1,5.05,2.11,1.25-26.23,1.23-23.53.82-23.61-2.06-.41-4.78-.8-6.95-1.11C60.92,105.34,61,106.65,61.43,115.77Z"/><path class="cls-1" d="M51.81,112.77c0-1.15,3.9-2.38,7.33-3.29,0-.61,0,.62-.41-8.26-7.47,1.78-15,4.22-15,11.55,0,10.79,21.2,9.41,30.18,10.15C71.65,122.09,52.74,114.91,51.81,112.77Z"/></g></svg>