<svg xmlns="http://www.w3.org/2000/svg" viewBox="0 0 128 128"><defs><style>.cls-1{fill:#a0aec0;}</style></defs><title>Capsule</title><g id="Capsule"><path class="cls-1" d="M56.9,16.91a4.71,4.71,0,0,1-1.39,3.36l-8.82,8.82A4.75,4.75,0,1,1,40,22.38l8.83-8.83A4.75,4.75,0,0,1,56.9,16.91Z"/><path class="cls-1" d="M84.67,40.61A4.75,4.75,0,0,0,81.31,42l-8.82,8.83a4.76,4.76,0,0,0,3.35,8.11,4.7,4.7,0,0,0,3.36-1.4L88,48.72A4.76,4.76,0,0,0,84.67,40.61Zm0-28.45a4.75,4.75,0,0,0-3.36,1.39l-8.82,8.83a4.75,4.75,0,0,0,3.35,8.1,4.69,4.69,0,0,0,3.36-1.39L88,20.27A4.76,4.76,0,0,0,84.67,12.16Zm0,0a4.75,4.75,0,0,0-3.36,1.39l-8.82,8.83a4.75,4.75,0,0,0,3.35,8.1,4.69,4.69,0,0,0,3.36-1.39L88,20.27A4.76,4.76,0,0,0,84.67,12.16Zm0,28.45A4.75,4.75,0,0,0,81.31,42l-8.82,8.83a4.76,4.76,0,0,0,3.35,8.11,4.7,4.7,0,0,0,3.36-1.4L88,48.72A4.76,4.76,0,0,0,84.67,40.61ZM52.16,69.06a4.7,4.7,0,0,0-3.36,1.4L40,79.28A4.75,4.75,0,0,0,46.69,86l8.82-8.83A4.76,4.76,0,0,0,52.16,69.06Zm0-28.45A4.74,4.74,0,0,0,48.8,42L40,50.83a4.76,4.76,0,0,0,3.36,8.11c2.6,0,2.84-.88,12.18-10.22A4.76,4.76,0,0,0,52.16,40.61Zm32.51,0A4.75,4.75,0,0,0,81.31,42l-8.82,8.83a4.76,4.76,0,0,0,3.35,8.11,4.7,4.7,0,0,0,3.36-1.4L88,48.72A4.76,4.76,0,0,0,84.67,40.61Zm0-28.45a4.75,4.75,0,0,0-3.36,1.39l-8.82,8.83a4.75,4.75,0,0,0,3.35,8.1,4.69,4.69,0,0,0,3.36-1.39L88,20.27A4.76,4.76,0,0,0,84.67,12.16Zm0,0a4.75,4.75,0,0,0-3.36,1.39l-8.82,8.83a4.75,4.75,0,0,0,3.35,8.1,4.69,4.69,0,0,0,3.36-1.39L88,20.27A4.76,4.76,0,0,0,84.67,12.16Zm0,28.45A4.75,4.75,0,0,0,81.31,42l-8.82,8.83a4.76,4.76,0,0,0,3.35,8.11,4.7,4.7,0,0,0,3.36-1.4L88,48.72A4.76,4.76,0,0,0,84.67,40.61Zm-32.51,0A4.74,4.74,0,0,0,48.8,42L40,50.83a4.76,4.76,0,0,0,3.36,8.11c2.6,0,2.84-.88,12.18-10.22A4.76,4.76,0,0,0,52.16,40.61Zm0,28.45a4.7,4.7,0,0,0-3.36,1.4L40,79.28A4.75,4.75,0,0,0,46.69,86l8.82-8.83A4.76,4.76,0,0,0,52.16,69.06Zm0,28.46a4.69,4.69,0,0,0-3.36,1.39L40,107.73a4.75,4.75,0,0,0,6.72,6.72l8.82-8.83A4.75,4.75,0,0,0,52.16,97.52Zm0-28.46a4.7,4.7,0,0,0-3.36,1.4L40,79.28A4.75,4.75,0,0,0,46.69,86l8.82-8.83A4.76,4.76,0,0,0,52.16,69.06Zm0-28.45A4.74,4.74,0,0,0,48.8,42L40,50.83a4.76,4.76,0,0,0,3.36,8.11c2.6,0,2.84-.88,12.18-10.22A4.76,4.76,0,0,0,52.16,40.61ZM84.67,69.06c-2.6,0-2.84.88-12.18,10.22A4.75,4.75,0,1,0,79.2,86L88,77.17A4.76,4.76,0,0,0,84.67,69.06Zm0-28.45A4.75,4.75,0,0,0,81.31,42l-8.82,8.83a4.76,4.76,0,0,0,3.35,8.11,4.7,4.7,0,0,0,3.36-1.4L88,48.72A4.76,4.76,0,0,0,84.67,40.61Zm0-28.45a4.75,4.75,0,0,0-3.36,1.39l-8.82,8.83a4.75,4.75,0,0,0,3.35,8.1,4.69,4.69,0,0,0,3.36-1.39L88,20.27A4.76,4.76,0,0,0,84.67,12.16Zm0,0a4.75,4.75,0,0,0-3.36,1.39l-8.82,8.83a4.75,4.75,0,0,0,3.35,8.1,4.69,4.69,0,0,0,3.36-1.39L88,20.27A4.76,4.76,0,0,0,84.67,12.16Zm0,28.45A4.75,4.75,0,0,0,81.31,42l-8.82,8.83a4.76,4.76,0,0,0,3.35,8.11,4.7,4.7,0,0,0,3.36-1.4L88,48.72A4.76,4.76,0,0,0,84.67,40.61Zm0,28.45c-2.6,0-2.84.88-12.18,10.22A4.75,4.75,0,1,0,79.2,86L88,77.17A4.76,4.76,0,0,0,84.67,69.06ZM52.16,40.61A4.74,4.74,0,0,0,48.8,42L40,50.83a4.76,4.76,0,0,0,3.36,8.11c2.6,0,2.84-.88,12.18-10.22A4.76,4.76,0,0,0,52.16,40.61Zm0,28.45a4.7,4.7,0,0,0-3.36,1.4L40,79.28A4.75,4.75,0,0,0,46.69,86l8.82-8.83A4.76,4.76,0,0,0,52.16,69.06Zm0,28.46a4.69,4.69,0,0,0-3.36,1.39L40,107.73a4.75,4.75,0,0,0,6.72,6.72l8.82-8.83A4.75,4.75,0,0,0,52.16,97.52ZM92.45,1H35.55a8.13,8.13,0,0,0-8.13,8.13V118.87A8.13,8.13,0,0,0,35.55,127h56.9a8.13,8.13,0,0,0,8.13-8.13V9.13A8.13,8.13,0,0,0,92.45,1ZM56.93,107l-8.83,8.82a6.68,6.68,0,0,1-4.77,2,6.76,6.76,0,0,1-4.77-11.52l8.82-8.83A6.75,6.75,0,0,1,56.93,107Zm0-28.46L48.1,87.41a6.68,6.68,0,0,1-4.77,2,6.76,6.76,0,0,1-4.77-11.52L47.38,69a6.75,6.75,0,1,1,9.55,9.54Zm0-28.45L48.1,59a6.75,6.75,0,1,1-9.54-9.54l8.82-8.83a6.75,6.75,0,1,1,9.55,9.54Zm0-28.45L48.1,30.51A6.75,6.75,0,0,1,38.56,21l8.82-8.82a6.75,6.75,0,1,1,9.55,9.54ZM89.44,107l-8.82,8.82a6.75,6.75,0,1,1-9.55-9.54l8.83-8.83A6.75,6.75,0,0,1,89.44,107Zm0-28.46-8.82,8.83a6.75,6.75,0,1,1-9.55-9.54L79.9,69a6.75,6.75,0,1,1,9.54,9.54Zm0-28.45L80.62,59a6.75,6.75,0,1,1-9.55-9.54l8.83-8.83a6.68,6.68,0,0,1,4.77-2A6.76,6.76,0,0,1,89.44,50.13Zm0-28.45-8.82,8.83A6.75,6.75,0,0,1,71.07,21l8.83-8.82a6.68,6.68,0,0,1,4.77-2A6.76,6.76,0,0,1,89.44,21.68Zm-4.77-9.52a4.75,4.75,0,0,0-3.36,1.39l-8.82,8.83a4.75,4.75,0,0,0,3.35,8.1,4.69,4.69,0,0,0,3.36-1.39L88,20.27A4.76,4.76,0,0,0,84.67,12.16Zm0,28.45A4.75,4.75,0,0,0,81.31,42l-8.82,8.83a4.76,4.76,0,0,0,3.35,8.11,4.7,4.7,0,0,0,3.36-1.4L88,48.72A4.76,4.76,0,0,0,84.67,40.61Zm0,28.45c-2.6,0-2.84.88-12.18,10.22A4.75,4.75,0,1,0,79.2,86L88,77.17A4.76,4.76,0,0,0,84.67,69.06Zm0,28.46a4.71,4.71,0,0,0-3.36,1.39l-8.82,8.82a4.75,4.75,0,1,0,6.71,6.72L88,105.62A4.75,4.75,0,0,0,84.67,97.52ZM52.16,40.61A4.74,4.74,0,0,0,48.8,42L40,50.83a4.76,4.76,0,0,0,3.36,8.11c2.6,0,2.84-.88,12.18-10.22A4.76,4.76,0,0,0,52.16,40.61Zm0,28.45a4.7,4.7,0,0,0-3.36,1.4L40,79.28A4.75,4.75,0,0,0,46.69,86l8.82-8.83A4.76,4.76,0,0,0,52.16,69.06Zm0,28.46a4.69,4.69,0,0,0-3.36,1.39L40,107.73a4.75,4.75,0,0,0,6.72,6.72l8.82-8.83A4.75,4.75,0,0,0,52.16,97.52Zm0-28.46a4.7,4.7,0,0,0-3.36,1.4L40,79.28A4.75,4.75,0,0,0,46.69,86l8.82-8.83A4.76,4.76,0,0,0,52.16,69.06Zm0-28.45A4.74,4.74,0,0,0,48.8,42L40,50.83a4.76,4.76,0,0,0,3.36,8.11c2.6,0,2.84-.88,12.18-10.22A4.76,4.76,0,0,0,52.16,40.61ZM84.67,69.06c-2.6,0-2.84.88-12.18,10.22A4.75,4.75,0,1,0,79.2,86L88,77.17A4.76,4.76,0,0,0,84.67,69.06Zm0-28.45A4.75,4.75,0,0,0,81.31,42l-8.82,8.83a4.76,4.76,0,0,0,3.35,8.11,4.7,4.7,0,0,0,3.36-1.4L88,48.72A4.76,4.76,0,0,0,84.67,40.61Zm0-28.45a4.75,4.75,0,0,0-3.36,1.39l-8.82,8.83a4.75,4.75,0,0,0,3.35,8.1,4.69,4.69,0,0,0,3.36-1.39L88,20.27A4.76,4.76,0,0,0,84.67,12.16Zm0,0a4.75,4.75,0,0,0-3.36,1.39l-8.82,8.83a4.75,4.75,0,0,0,3.35,8.1,4.69,4.69,0,0,0,3.36-1.39L88,20.27A4.76,4.76,0,0,0,84.67,12.16Zm0,28.45A4.75,4.75,0,0,0,81.31,42l-8.82,8.83a4.76,4.76,0,0,0,3.35,8.11,4.7,4.7,0,0,0,3.36-1.4L88,48.72A4.76,4.76,0,0,0,84.67,40.61Zm0,28.45c-2.6,0-2.84.88-12.18,10.22A4.75,4.75,0,1,0,79.2,86L88,77.17A4.76,4.76,0,0,0,84.67,69.06ZM52.16,40.61A4.74,4.74,0,0,0,48.8,42L40,50.83a4.76,4.76,0,0,0,3.36,8.11c2.6,0,2.84-.88,12.18-10.22A4.76,4.76,0,0,0,52.16,40.61Zm0,28.45a4.7,4.7,0,0,0-3.36,1.4L40,79.28A4.75,4.75,0,0,0,46.69,86l8.82-8.83A4.76,4.76,0,0,0,52.16,69.06Zm0-28.45A4.74,4.74,0,0,0,48.8,42L40,50.83a4.76,4.76,0,0,0,3.36,8.11c2.6,0,2.84-.88,12.18-10.22A4.76,4.76,0,0,0,52.16,40.61Zm32.51,0A4.75,4.75,0,0,0,81.31,42l-8.82,8.83a4.76,4.76,0,0,0,3.35,8.11,4.7,4.7,0,0,0,3.36-1.4L88,48.72A4.76,4.76,0,0,0,84.67,40.61Zm0-28.45a4.75,4.75,0,0,0-3.36,1.39l-8.82,8.83a4.75,4.75,0,0,0,3.35,8.1,4.69,4.69,0,0,0,3.36-1.39L88,20.27A4.76,4.76,0,0,0,84.67,12.16Zm0,0a4.75,4.75,0,0,0-3.36,1.39l-8.82,8.83a4.75,4.75,0,0,0,3.35,8.1,4.69,4.69,0,0,0,3.36-1.39L88,20.27A4.76,4.76,0,0,0,84.67,12.16Zm0,28.45A4.75,4.75,0,0,0,81.31,42l-8.82,8.83a4.76,4.76,0,0,0,3.35,8.11,4.7,4.7,0,0,0,3.36-1.4L88,48.72A4.76,4.76,0,0,0,84.67,40.61Zm-32.51,0A4.74,4.74,0,0,0,48.8,42L40,50.83a4.76,4.76,0,0,0,3.36,8.11c2.6,0,2.84-.88,12.18-10.22A4.76,4.76,0,0,0,52.16,40.61ZM84.67,12.16a4.75,4.75,0,0,0-3.36,1.39l-8.82,8.83a4.75,4.75,0,0,0,3.35,8.1,4.69,4.69,0,0,0,3.36-1.39L88,20.27A4.76,4.76,0,0,0,84.67,12.16Zm0,0a4.75,4.75,0,0,0-3.36,1.39l-8.82,8.83a4.75,4.75,0,0,0,3.35,8.1,4.69,4.69,0,0,0,3.36-1.39L88,20.27A4.76,4.76,0,0,0,84.67,12.16Z"/></g></svg>