<svg xmlns="http://www.w3.org/2000/svg" viewBox="0 0 128 128"><defs><style>.cls-1{fill:#a0aec0;}</style></defs><title>Cardiogram</title><g id="Cardiogram"><rect class="cls-1" x="9.13" y="120.87" width="109.74" height="6.13"/><circle class="cls-1" cx="108.71" cy="104.65" r="5.1"/><rect class="cls-1" x="87.35" y="20.29" width="6.13" height="6.13"/><rect class="cls-1" x="103.61" y="28.42" width="6.13" height="6.13"/><circle class="cls-1" cx="49.77" cy="106.68" r="3.06"/><rect class="cls-1" x="14.19" y="99.55" width="8.16" height="10.19"/><rect class="cls-1" x="24.35" y="99.55" width="8.16" height="10.19"/><circle class="cls-1" cx="68.06" cy="106.68" r="3.06"/><path class="cls-1" d="M10.13,47.76H20.76l5.8-9.68a1,1,0,0,1,1.86.52V56.72l4.2-8.41c.36-.72.77-.55,4.39-.55l5.81-9.68a1,1,0,0,1,1.86.52V56.71c4.52-9.05,4.25-9,5.09-9h3.5l5.81-9.68a1,1,0,0,1,1.86.52V56.71l4.2-8.4c.39-.79.16-.55,13.09-.55a1,1,0,0,1,0,2H66.65L60.83,61.4A1,1,0,0,1,58.94,61V42.21c-4.6,7.65-4.29,7.45-5,7.53-.26,0,.77,0-3.56,0C44,62.51,44.53,62,43.68,62a1,1,0,0,1-1-1V42.21c-4.35,7.25-4.31,7.55-5.1,7.55H34.13L28.31,61.4A1,1,0,0,1,26.42,61V42.21c-4.51,7.52-4.32,7.55-5.1,7.55H10.13V89.42H117.87V10.13H10.13Zm91.48-28.47a1,1,0,0,1,1-1h8.13a1,1,0,0,1,0,2h-7.13v6.13h7.13a1,1,0,0,1,1,1v8.13a1,1,0,0,1-1,1h-8.13a1,1,0,0,1-1-1Zm1,35.58h8.13a1,1,0,0,1,0,2h-8.13A1,1,0,0,1,102.61,54.87ZM86.35,28.42a1,1,0,0,1-1-1V19.29a1,1,0,0,1,1-1h8.13a1,1,0,0,1,1,1V35.55a1,1,0,0,1-1,1H86.35a1,1,0,0,1,0-2h7.13V28.42Zm0,26.45h8.13a1,1,0,0,1,0,2H86.35A1,1,0,0,1,86.35,54.87Zm0,10.16h24.39a1,1,0,0,1,0,2H86.35A1,1,0,0,1,86.35,65Zm0,10.16h16.26a1,1,0,0,1,0,2H86.35A1,1,0,0,1,86.35,75.19Z"/><path class="cls-1" d="M122.94,1H5.06A4.06,4.06,0,0,0,1,5.06V114.81a4.06,4.06,0,0,0,4.06,4.06H122.94a4.06,4.06,0,0,0,4.06-4.06V5.06A4.06,4.06,0,0,0,122.94,1ZM34.52,110.74a1,1,0,0,1-1,1H13.19a1,1,0,0,1-1-1V98.55a1,1,0,0,1,1-1H33.52a1,1,0,0,1,1,1Zm15.25,1a5.07,5.07,0,1,1,5.07-5.06A5.07,5.07,0,0,1,49.77,111.74Zm18.29,0a5.07,5.07,0,1,1,5.07-5.06A5.07,5.07,0,0,1,68.06,111.74Zm22.36,0h-6.1a1,1,0,0,1,0-2h6.1A1,1,0,0,1,90.42,111.74Zm0-8.13h-6.1a1,1,0,0,1,0-2h6.1A1,1,0,0,1,90.42,103.61Zm18.29,8.13a7.1,7.1,0,1,1,7.1-7.09A7.11,7.11,0,0,1,108.71,111.74Zm11.16-21.32a1,1,0,0,1-1,1H9.13a1,1,0,0,1-1-1V9.13a1,1,0,0,1,1-1H118.87a1,1,0,0,1,1,1Z"/></g></svg>