<svg xmlns="http://www.w3.org/2000/svg" viewBox="0 0 128 128"><defs><style>.cls-1{fill:#a0aec0;}</style></defs><title>Crutches</title><g id="Crutches"><path class="cls-1" d="M49.77,1H17.26c-6.87,0-4.64,12.19,4.06,12.19H45.71C54.33,13.19,56.73,1,49.77,1Z"/><path class="cls-1" d="M46.74,15.14V46c0,20-10.16,31.9-10.16,34.24V94.48a3.07,3.07,0,1,1-6.13,0V80.26C30.45,77.87,20.29,66,20.29,46V15.14a10.14,10.14,0,0,1-2-.41c0,42.22-1.79,41.86,10.16,65.76v14a5.07,5.07,0,1,0,10.13,0v-14C50.41,56.83,48.74,58.1,48.74,14.73A10.14,10.14,0,0,1,46.74,15.14Z"/><path class="cls-1" d="M34.52,98.55V117a5.6,5.6,0,0,0-2,0V98.55A1,1,0,0,1,34.52,98.55Z"/><path class="cls-1" d="M39.61,83.29H27.42a1,1,0,0,1,0-2H39.61A1,1,0,0,1,39.61,83.29Z"/><path class="cls-1" d="M33.52,118.87a4.07,4.07,0,0,1,4.06,4.07V127H29.45v-4.06A4.07,4.07,0,0,1,33.52,118.87Z"/><rect class="cls-1" x="22.29" y="37.58" width="22.45" height="8.13"/><path class="cls-1" d="M110.74,1H78.23c-6.87,0-4.65,12.19,4.06,12.19h24.39C115.3,13.19,117.7,1,110.74,1Z"/><path class="cls-1" d="M107.71,15.14V46c0,20-10.16,31.87-10.16,34.24V94.48a3.07,3.07,0,1,1-6.13,0V80.26C91.42,77.92,81.26,66,81.26,46V15.14a10.14,10.14,0,0,1-2-.41c0,42.22-1.79,41.86,10.16,65.76v14a5.07,5.07,0,1,0,10.13,0v-14c11.83-23.66,10.16-22.39,10.16-65.76A10.14,10.14,0,0,1,107.71,15.14Z"/><path class="cls-1" d="M95.48,98.55V117a5.6,5.6,0,0,0-2,0V98.55A1,1,0,0,1,95.48,98.55Z"/><path class="cls-1" d="M100.58,83.29H88.39a1,1,0,0,1,0-2h12.19A1,1,0,0,1,100.58,83.29Z"/><path class="cls-1" d="M94.48,118.87a4.07,4.07,0,0,1,4.07,4.07V127H90.42v-4.06A4.07,4.07,0,0,1,94.48,118.87Z"/><rect class="cls-1" x="83.26" y="37.58" width="22.45" height="8.13"/></g></svg>