<svg xmlns="http://www.w3.org/2000/svg" viewBox="0 0 128 128"><defs><style>.cls-1{fill:#a0aec0;}</style></defs><title>Dental</title><g id="Dental"><path class="cls-1" d="M97.55,25.39V16.23H91.42v9.16a1,1,0,0,1-1,1H81.26v6.13h9.16a1,1,0,0,1,1,1v9.16h6.13V33.52a1,1,0,0,1,1-1h9.16V26.39H98.55A1,1,0,0,1,97.55,25.39Z"/><path class="cls-1" d="M122.94,33.52c0-23.72-13.65-34.81-37.36-32.17C67.09,4,56.84,20.65,56.73,20.84a1,1,0,0,1-1.72-1,50.89,50.89,0,0,1,12.41-13A20.54,20.54,0,0,1,64,7.1C53.84,7.1,53.84,1,35.55,1,19.29,1,5.06,9.13,5.06,33.52c0,16.25,16.79,32.78,14.23,44.71C13.19,106.68,21.16,127,33.52,127,47.74,127,43.68,80.26,64,80.26S80.26,127,94.48,127c12.36,0,20.33-20.32,14.23-48.77C106.15,66.3,122.94,49.77,122.94,33.52Zm-23.39,1v9.16a1,1,0,0,1-1,1H90.42a1,1,0,0,1-1-1V34.52H80.26a1,1,0,0,1-1-1V25.39a1,1,0,0,1,1-1h9.16V15.23a1,1,0,0,1,1-1h8.13a1,1,0,0,1,1,1v9.16h9.16a1,1,0,0,1,1,1v8.13a1,1,0,0,1-1,1Z"/></g></svg>