<svg xmlns="http://www.w3.org/2000/svg" viewBox="0 0 128 128"><defs><style>.cls-1{fill:#a0aec0;}</style></defs><title>DNA</title><g id="DNA"><path class="cls-1" d="M54.75,62.78C58.08,60.43,60.57,59,62.16,58,28,35.21,27.42,2.44,27.42,1H19.29C19.29,2.56,19.73,37.6,54.75,62.78Z"/><path class="cls-1" d="M73.25,65.22c-3.17,2.24-5.45,3.55-7.4,4.76,34.16,22.81,34.73,55.58,34.73,57h8.13C108.71,125.44,108.27,90.4,73.25,65.22Z"/><path class="cls-1" d="M66.09,67.48C108.22,42.2,108.71,2.67,108.71,1h-8.13c0,1.48-.62,36.68-38.67,59.51C19.78,85.79,19.29,125.32,19.29,127h8.13C27.43,125.52,28,90.31,66.09,67.48Z"/><circle class="cls-1" cx="78.22" cy="5.07" r="4.06"/><path class="cls-1" d="M55.87,21.32a4.07,4.07,0,1,0-4.06,4.07A4.06,4.06,0,0,0,55.87,21.32Z"/><circle class="cls-1" cx="64" cy="37.58" r="4.06"/><path class="cls-1" d="M72.25,6.07a5.6,5.6,0,0,1,0-2H29.61c.06.59.14,1.26.25,2Z"/><path class="cls-1" d="M98.12,6.07c.11-.74.2-1.41.26-2H84.2a5.6,5.6,0,0,1,0,2Z"/><path class="cls-1" d="M94.34,20.32H57.78a5.6,5.6,0,0,1,0,2H93.53C93.82,21.64,94.09,21,94.34,20.32Z"/><path class="cls-1" d="M33.6,20.32c.26.66.53,1.33.81,2H45.83a5.6,5.6,0,0,1,0-2Z"/><path class="cls-1" d="M42.45,36.58c.48.67,1,1.33,1.5,2H58a5.6,5.6,0,0,1,0-2Z"/><path class="cls-1" d="M84,38.58c.52-.67,1-1.33,1.5-2H70a5.6,5.6,0,0,1,0,2Z"/><path class="cls-1" d="M49.78,118.86a4.07,4.07,0,1,0,4.06,4.07A4.07,4.07,0,0,0,49.78,118.86Z"/><circle class="cls-1" cx="76.19" cy="106.67" r="4.06"/><circle class="cls-1" cx="64" cy="90.41" r="4.06"/><path class="cls-1" d="M55.75,121.93a5.6,5.6,0,0,1,0,2H98.39c-.06-.59-.14-1.26-.24-2Z"/><path class="cls-1" d="M29.88,121.93c-.11.74-.2,1.41-.26,2H43.8a5.6,5.6,0,0,1,0-2Z"/><path class="cls-1" d="M33.66,107.67H70.22a5.6,5.6,0,0,1,0-2H34.46C34.18,106.35,33.91,107,33.66,107.67Z"/><path class="cls-1" d="M94.4,107.67c-.26-.65-.53-1.32-.81-2H82.17a5.6,5.6,0,0,1,0,2Z"/><path class="cls-1" d="M85.56,91.42c-.48-.66-1-1.33-1.5-2H70a5.6,5.6,0,0,1,0,2Z"/><path class="cls-1" d="M44,89.42c-.52.67-1,1.33-1.5,2H58a5.6,5.6,0,0,1,0-2Z"/></g></svg>