<svg xmlns="http://www.w3.org/2000/svg" viewBox="0 0 128 128"><defs><style>.cls-1{fill:#a0aec0;}</style></defs><title>Doctor</title><g id="Doctor"><path class="cls-1" d="M34.52,106.68a5.1,5.1,0,1,0,5.09-5.1A5.09,5.09,0,0,0,34.52,106.68Z"/><path class="cls-1" d="M60.42,102.7l-3,24.3H70.62l-3-24.3A3.61,3.61,0,0,0,60.42,102.7Z"/><path class="cls-1" d="M46.76,78.31a7.11,7.11,0,0,0-6.15,7V99.66a7.09,7.09,0,1,1-2,0V85.35a9.15,9.15,0,0,1,2.67-6.44A28.45,28.45,0,0,0,19.39,102l-4.16,25H54.85C46.5,76.83,46.73,78.41,46.76,78.31Z"/><path class="cls-1" d="M55,78.61c-.27-.54,1.13-.38-6.19-.38,2.54,15.23,2.29,14.37,2.39,14.32l11.22-6.41C54.46,78.23,55.06,78.88,55,78.61Z"/><path class="cls-1" d="M60.67,98.65c-2.66-1.53-3.05-3.89-4.06-6.92L51.5,94.66,56,121.81l2.42-19.36A5.55,5.55,0,0,1,60.67,98.65Z"/><path class="cls-1" d="M68.4,94.38l1.22-3.66L64,87.51l-5.62,3.21,1.22,3.66A4.64,4.64,0,0,0,68.4,94.38Z"/><path class="cls-1" d="M71.39,91.73c-1,3-1.4,5.39-4.06,6.92a5.55,5.55,0,0,1,2.23,3.8L72,121.81,76.5,94.66Z"/><path class="cls-1" d="M76.85,92.55c.1,0-.07.56,2.39-14.32-8.17,0-5.43-.18-6.4.7l-7.21,7.21Z"/><path class="cls-1" d="M108.61,102a28.45,28.45,0,0,0-20.8-22.82,11.11,11.11,0,0,1,3.61,8.21V97.61a9.13,9.13,0,0,1,8.13,9.07v10.16a1,1,0,0,1-1,1H94.48a1,1,0,0,1,0-2h3.07v-9.16a7.13,7.13,0,1,0-14.26,0v9.16h3.06a1,1,0,0,1,0,2H82.29a1,1,0,0,1-1-1V106.68a9.12,9.12,0,0,1,8.13-9.07V87.39a9.16,9.16,0,0,0-8.17-9.1c0,.1.39-2.33-8.1,48.71h39.62Z"/><path class="cls-1" d="M88.39,26c-3.7,1.78-6.1,1.21-6.1,1.42A12.2,12.2,0,0,0,94.48,39.61c0-17.87.09-17.15-.25-18.74A14.11,14.11,0,0,1,88.39,26Z"/><path class="cls-1" d="M45.71,27.42v-2H82.29A12.22,12.22,0,0,0,94.48,13.61C94.71,6.61,88.66,1,81.66,1H66.85A27.09,27.09,0,0,0,45.71,11.16,12.21,12.21,0,0,0,33.52,23.35V39.61A12.2,12.2,0,0,0,45.71,27.42Z"/><path class="cls-1" d="M37.58,49.77c.14,0,0,1,0-8.77a17,17,0,0,1-5.76.61A6.09,6.09,0,0,0,37.58,49.77Z"/><path class="cls-1" d="M90.39,41c0,6.34,0,7.22-.08,8.77a6.1,6.1,0,0,0,5.85-8.16A16.88,16.88,0,0,1,90.39,41Z"/><path class="cls-1" d="M71.13,73.14v4.67L64,84.94l-7.13-7.13V73.15A26.26,26.26,0,0,0,71.13,73.14Z"/><polygon class="cls-1" points="56.13 127.97 56.14 127.96 56.13 127.96 56.13 127.97"/><path class="cls-1" d="M88.39,47.74v-7.5a14.22,14.22,0,0,1-8.1-12.82c0-.1,1.43,0-32.58,0a14.21,14.21,0,0,1-8.1,12.85c0,8-1,16.67,7.14,24.76C62,80.21,88.39,69.51,88.39,47.74ZM52.81,43.68a1,1,0,0,1-2,0v-2a1,1,0,0,1,2,0Zm7.59,15.8a5.11,5.11,0,0,0,7.2,0A1,1,0,0,1,69,60.89a7.12,7.12,0,0,1-10,0A1,1,0,0,1,60.4,59.48Zm14.76-15.8a1,1,0,0,1-2,0v-2a1,1,0,0,1,2,0Z"/></g></svg>