<svg xmlns="http://www.w3.org/2000/svg" viewBox="0 0 128 128"><defs><style>.cls-1{fill:#a0aec0;}</style></defs><title>Droper</title><g id="Droper"><path class="cls-1" d="M19.29,35.52V49.77H59.94V35.52Zm9.13,9.16a1,1,0,0,1-2,0V40.61a1,1,0,0,1,2,0Zm8.13,0a1,1,0,0,1-2,0V40.61a1,1,0,0,1,2,0Zm8.13,0a1,1,0,0,1-2,0V40.61a1,1,0,0,1,2,0Zm8.13,0a1,1,0,0,1-2,0V40.61a1,1,0,0,1,2,0Z"/><path class="cls-1" d="M23.35,33.52c33.75,0,32.52-.1,32.52,0a8.13,8.13,0,0,0-8.13-8.13H31.48A8.13,8.13,0,0,0,23.35,33.52Z"/><path class="cls-1" d="M31.48,23.39H47.74V9.13a8.13,8.13,0,0,0-16.26,0Z"/><path class="cls-1" d="M112.77,11.16V35.58H92.45V11.16a10.16,10.16,0,0,1,20.32,0Z"/><path class="cls-1" d="M114.81,37.58H90.42a4.07,4.07,0,1,0,0,8.13h24.39a4.07,4.07,0,0,0,0-8.13Z"/><path class="cls-1" d="M106.68,60.94h4.06V69.1h-8.13a1,1,0,0,0,0,2h8.13v8.16h-4.06a1,1,0,0,0,0,2h4.06v8.16h-8.13a1,1,0,0,0,0,2h8.13v8.16h-4.06a1,1,0,0,0,0,2h4.06v7.13l-4.06,10.16V127l-8.13-4.06v-4.07l-4.07-10.16v-61h16.26V58.94h-4.06A1,1,0,0,0,106.68,60.94Z"/><path class="cls-1" d="M39.61,85.78c-1.92,2.09-7.13,8.18-7.13,12.77a7.13,7.13,0,1,0,14.26,0C46.74,94,41.54,87.87,39.61,85.78Z"/><path class="cls-1" d="M70.1,75.16h-61v38.65h61ZM39.61,107.68a9.15,9.15,0,0,1-9.13-9.13c0-6.44,8.08-14.59,8.43-14.93a1,1,0,0,1,1.41,0c.34.34,8.42,8.49,8.42,14.93A9.14,9.14,0,0,1,39.61,107.68Z"/><path class="cls-1" d="M70.1,73.16v-.91a8.13,8.13,0,0,0-3.41-6.62c-12-8.57-10.82-6.3-10.82-13.86H23.35c0,3.53.46,5.81-1.7,7.35l-9.12,6.51a8.15,8.15,0,0,0-3.4,6.62v.91Z"/><path class="cls-1" d="M9.13,115.81v7.13A4.06,4.06,0,0,0,13.19,127H66a4.07,4.07,0,0,0,4.07-4.06v-7.13Z"/></g></svg>