<svg xmlns="http://www.w3.org/2000/svg" viewBox="0 0 128 128"><defs><style>.cls-1{fill:#a0aec0;}</style></defs><title>Emergency Call</title><g id="Emergency_Call" data-name="Emergency Call"><path class="cls-1" d="M35.87,54.78,10,28.91l3.82-3.83a4.08,4.08,0,0,1,5.75,0L39.69,45.2a4.08,4.08,0,0,1,0,5.75Z"/><path class="cls-1" d="M71.82,93.55l25.86,25.87-3.39,3.38c-9.52,9.53-42.93,3-67.54-21.55S-4.33,43.23,5.2,33.71l3.38-3.39L34.45,56.19l-9.13,9.13C17.6,73,55,110.39,62.68,102.68,71.87,93.49,71.72,93.55,71.82,93.55Z"/><path class="cls-1" d="M102.92,114.18,99.09,118,73.23,92.14l3.82-3.83a4.08,4.08,0,0,1,5.75,0l20.12,20.12A4.08,4.08,0,0,1,102.92,114.18Z"/><path class="cls-1" d="M94.48,34.52h9.17v6.13H94.48a1,1,0,0,0-1,1v9.16H87.35V41.65a1,1,0,0,0-1-1H77.19V34.52h9.16a1,1,0,0,0,1-1V24.35h6.13v9.17A1,1,0,0,0,94.48,34.52Z"/><path class="cls-1" d="M90.42,14.19a23.39,23.39,0,1,0,23.39,23.39A23.42,23.42,0,0,0,90.42,14.19Zm15.23,27.46a1,1,0,0,1-1,1H95.48v9.16a1,1,0,0,1-1,1H86.35a1,1,0,0,1-1-1V42.65H76.19a1,1,0,0,1-1-1V33.52a1,1,0,0,1,1-1h9.16V23.35a1,1,0,0,1,1-1h8.13a1,1,0,0,1,1,1v9.17h9.17a1,1,0,0,1,1,1Z"/><path class="cls-1" d="M90.42,1C56.6,1,40.87,43.32,66.68,65.38L57.9,74.16H90.42A36.58,36.58,0,0,0,90.42,1Zm0,62a25.39,25.39,0,1,1,25.39-25.39A25.42,25.42,0,0,1,90.42,63Z"/></g></svg>