<svg xmlns="http://www.w3.org/2000/svg" viewBox="0 0 128 128"><defs><style>.cls-1{fill:#a0aec0;}</style></defs><title>Healthy Insurance</title><g id="Healthy_Insurance" data-name="Healthy Insurance"><path class="cls-1" d="M50.77,54.84V61h9.17a1,1,0,0,1,1,1v9.16h6.12V62a1,1,0,0,1,1-1h9.17V54.84H68.06a1,1,0,0,1-1-1V44.68H60.94v9.16a1,1,0,0,1-1,1Z"/><path class="cls-1" d="M22.32,20.08V55.46A63,63,0,0,0,64,115.23a63,63,0,0,0,41.68-59.77V20.08A169.29,169.29,0,0,1,64,12.72,169.21,169.21,0,0,1,22.32,20.08ZM89.39,57.9A25.39,25.39,0,1,1,64,32.52,25.42,25.42,0,0,1,89.39,57.9Z"/><path class="cls-1" d="M40.61,57.9A23.39,23.39,0,1,0,64,34.52,23.41,23.41,0,0,0,40.61,57.9ZM69.06,43.68v9.16h9.17a1,1,0,0,1,1,1V62a1,1,0,0,1-1,1H69.06v9.16a1,1,0,0,1-1,1H59.94a1,1,0,0,1-1-1V63H49.77a1,1,0,0,1-1-1V53.84a1,1,0,0,1,1-1h9.17V43.68a1,1,0,0,1,1-1h8.12A1,1,0,0,1,69.06,43.68Z"/><path class="cls-1" d="M64,1C45.31,7.23,29,9.13,11.16,9.13V55.46A74.84,74.84,0,0,0,64,127h0a74.84,74.84,0,0,0,52.84-71.54V9.13C99.08,9.13,82.71,7.24,64,1Zm43.68,54.46a65,65,0,0,1-43.34,61.77,1,1,0,0,1-.68,0A65,65,0,0,1,20.32,55.46V19.13a1,1,0,0,1,1-1C47.92,17,63,10.33,64.3,10.72a167.13,167.13,0,0,0,42.42,7.41,1,1,0,0,1,1,1Z"/></g></svg>