<svg xmlns="http://www.w3.org/2000/svg" viewBox="0 0 128 128"><defs><style>.cls-1{fill:#a0aec0;}</style></defs><title>Herbal</title><g id="Herbal"><path class="cls-1" d="M33.44,51.84H42L18.69,34.35a1,1,0,0,1,1.2-1.6C45.31,51.82,43.58,50.59,43.68,50.49L61.3,34.83a1,1,0,0,1,1.33,1.5L45.18,51.84h4.91a22,22,0,0,0,22-22V27.45H65.72a22,22,0,0,0-22,22.28A26.34,26.34,0,0,0,17.34,23.39H7.1V25.5A26.34,26.34,0,0,0,33.44,51.84Z"/><path class="cls-1" d="M67.06,82.29V73.13H60.94v9.16a1,1,0,0,1-1,1H50.77v6.13h9.17a1,1,0,0,1,1,1v9.16h6.12V90.42a1,1,0,0,1,1-1h9.17V83.29H68.06A1,1,0,0,1,67.06,82.29Z"/><path class="cls-1" d="M64,63A23.39,23.39,0,1,0,87.39,86.35,23.41,23.41,0,0,0,64,63ZM79.23,90.42a1,1,0,0,1-1,1H69.06v9.16a1,1,0,0,1-1,1H59.94a1,1,0,0,1-1-1V91.42H49.77a1,1,0,0,1-1-1V82.29a1,1,0,0,1,1-1h9.17V72.13a1,1,0,0,1,1-1h8.12a1,1,0,0,1,1,1v9.16h9.17a1,1,0,0,1,1,1Z"/><path class="cls-1" d="M127,53.84c-129.8,0-126-.07-126,0V76.19a42.68,42.68,0,0,0,42.68,42.68H84.32A42.68,42.68,0,0,0,127,76.19C127,53.5,127.07,53.84,127,53.84Zm-63,57.9A25.39,25.39,0,1,1,89.39,86.35,25.42,25.42,0,0,1,64,111.74Z"/><rect class="cls-1" x="43.68" y="120.87" width="40.64" height="6.13"/><path class="cls-1" d="M101.69,51.84,106.62,27c9.93-6.81,7.44-22.33-4.35-25.48A14.22,14.22,0,0,0,85.79,21.38L75.41,51.84Z"/></g></svg>