<svg xmlns="http://www.w3.org/2000/svg" viewBox="0 0 128 128"><defs><style>.cls-1{fill:#a0aec0;}</style></defs><title>Hospital</title><g id="Hospital"><rect class="cls-1" x="21.32" y="17.26" width="24.42" height="8.13"/><rect class="cls-1" x="82.26" y="17.26" width="24.42" height="8.13"/><path class="cls-1" d="M47.74,1V29.45H80.26V1ZM70.1,16.23H65v5.09a1,1,0,0,1-2,0V16.23H57.9a1,1,0,0,1,0-2H63V9.13a1,1,0,0,1,2,0v5.1h5.1A1,1,0,0,1,70.1,16.23Z"/><rect class="cls-1" x="36.55" y="40.61" width="10.19" height="10.2"/><path class="cls-1" d="M36.55,63V73.16H46.74V63Zm0,0V73.16H46.74V63Zm0,0V73.16H46.74V63ZM58.9,40.61v10.2H69.1V40.61ZM58.9,63V73.16H69.1V63ZM36.55,63V73.16H46.74V63ZM58.9,63V73.16H69.1V63Zm0-22.36v10.2H69.1V40.61ZM36.55,63V73.16H46.74V63ZM58.9,40.61v10.2H69.1V40.61ZM58.9,63V73.16H69.1V63ZM81.26,40.61v10.2H91.45V40.61Zm0,22.36V73.16H91.45V63Zm0-22.36v10.2H91.45V40.61Zm0,22.36V73.16H91.45V63ZM36.55,63V73.16H46.74V63ZM58.9,63V73.16H69.1V63Zm0-22.36v10.2H69.1V40.61ZM36.55,63V73.16H46.74V63ZM58.9,40.61v10.2H69.1V40.61ZM58.9,63V73.16H69.1V63ZM44.68,85.32v6.13H83.32V85.32ZM81.26,40.61v10.2H91.45V40.61Zm0,22.36V73.16H91.45V63Zm0-22.36v10.2H91.45V40.61Zm0,22.36V73.16H91.45V63ZM44.68,85.32v6.13H83.32V85.32Zm4.06,8.13v24.42H63V93.45ZM36.55,63V73.16H46.74V63ZM58.9,63V73.16H69.1V63Zm0-22.36v10.2H69.1V40.61ZM36.55,63V73.16H46.74V63ZM48.74,93.45v24.42H63V93.45ZM58.9,40.61v10.2H69.1V40.61ZM58.9,63V73.16H69.1V63ZM44.68,85.32v6.13H83.32V85.32ZM81.26,40.61v10.2H91.45V40.61Zm0,22.36V73.16H91.45V63Zm0-22.36v10.2H91.45V40.61Zm0,22.36V73.16H91.45V63ZM58.9,40.61v10.2H69.1V40.61ZM58.9,63V73.16H69.1V63ZM36.55,63V73.16H46.74V63Zm0,0V73.16H46.74V63ZM58.9,40.61v10.2H69.1V40.61ZM58.9,63V73.16H69.1V63ZM81.26,40.61v10.2H91.45V40.61Zm0,22.36V73.16H91.45V63Zm0-22.36v10.2H91.45V40.61Zm0,22.36V73.16H91.45V63ZM58.9,40.61v10.2H69.1V40.61ZM58.9,63V73.16H69.1V63ZM36.55,63V73.16H46.74V63ZM82.26,27.39v4.06H45.74V27.39H26.39v90.48H46.74V93.45H43.68a1,1,0,0,1-1-1V84.32a1,1,0,0,1,1-1H84.32a1,1,0,0,1,1,1v8.13a1,1,0,0,1-1,1H81.26v24.42h20.35V27.39ZM48.74,74.16a1,1,0,0,1-1,1H35.55a1,1,0,0,1-1-1V62a1,1,0,0,1,1-1H47.74a1,1,0,0,1,1,1Zm0-22.35a1,1,0,0,1-1,1H35.55a1,1,0,0,1-1-1V39.61a1,1,0,0,1,1-1H47.74a1,1,0,0,1,1,1ZM71.1,74.16a1,1,0,0,1-1,1H57.9a1,1,0,0,1-1-1V62a1,1,0,0,1,1-1H70.1a1,1,0,0,1,1,1Zm0-22.35a1,1,0,0,1-1,1H57.9a1,1,0,0,1-1-1V39.61a1,1,0,0,1,1-1H70.1a1,1,0,0,1,1,1ZM93.45,74.16a1,1,0,0,1-1,1H80.26a1,1,0,0,1-1-1V62a1,1,0,0,1,1-1H92.45a1,1,0,0,1,1,1Zm0-22.35a1,1,0,0,1-1,1H80.26a1,1,0,0,1-1-1V39.61a1,1,0,0,1,1-1H92.45a1,1,0,0,1,1,1ZM81.26,73.16H91.45V63H81.26Zm0-22.35H91.45V40.61H81.26ZM58.9,73.16H69.1V63H58.9Zm0-22.35H69.1V40.61H58.9ZM36.55,73.16H46.74V63H36.55Zm0-10.19V73.16H46.74V63ZM58.9,63V73.16H69.1V63Zm0-22.36v10.2H69.1V40.61ZM81.26,63V73.16H91.45V63Zm0-22.36v10.2H91.45V40.61Zm0,22.36V73.16H91.45V63Zm0-22.36v10.2H91.45V40.61ZM44.68,85.32v6.13H83.32V85.32ZM65,93.45v24.42H79.26V93.45ZM58.9,63V73.16H69.1V63Zm0-22.36v10.2H69.1V40.61ZM48.74,93.45v24.42H63V93.45ZM36.55,63V73.16H46.74V63Zm0,0V73.16H46.74V63ZM58.9,63V73.16H69.1V63Zm0-22.36v10.2H69.1V40.61ZM81.26,63V73.16H91.45V63Zm0-22.36v10.2H91.45V40.61Zm0,22.36V73.16H91.45V63Zm0-22.36v10.2H91.45V40.61ZM44.68,85.32v6.13H83.32V85.32ZM58.9,63V73.16H69.1V63Zm0-22.36v10.2H69.1V40.61ZM36.55,63V73.16H46.74V63ZM58.9,40.61v10.2H69.1V40.61ZM58.9,63V73.16H69.1V63ZM36.55,63V73.16H46.74V63ZM48.74,93.45v24.42H63V93.45Zm-4.06-8.13v6.13H83.32V85.32ZM81.26,63V73.16H91.45V63Zm0-22.36v10.2H91.45V40.61Zm0,22.36V73.16H91.45V63Zm0-22.36v10.2H91.45V40.61ZM58.9,63V73.16H69.1V63Zm0-22.36v10.2H69.1V40.61ZM36.55,63V73.16H46.74V63ZM58.9,40.61v10.2H69.1V40.61ZM58.9,63V73.16H69.1V63ZM36.55,63V73.16H46.74V63Zm44.71,0V73.16H91.45V63Zm0,0V73.16H91.45V63ZM58.9,63V73.16H69.1V63Zm0-22.36v10.2H69.1V40.61ZM36.55,63V73.16H46.74V63ZM58.9,63V73.16H69.1V63ZM36.55,63V73.16H46.74V63ZM58.9,63V73.16H69.1V63ZM36.55,63V73.16H46.74V63Z"/><rect class="cls-1" x="18.26" y="119.87" width="91.48" height="7.13"/><rect class="cls-1" x="111.74" y="52.81" width="6.13" height="6.13"/><path class="cls-1" d="M111.74,71.1v6.13h6.13V71.1Zm0,0v6.13h6.13V71.1Zm0,0v6.13h6.13V71.1Zm0,18.29v6.13h6.13V89.39Zm0-18.29v6.13h6.13V71.1Zm0,18.29v6.13h6.13V89.39Zm0-18.29v6.13h6.13V71.1Zm0,18.29v6.13h6.13V89.39Zm0-18.29v6.13h6.13V71.1Zm0,18.29v6.13h6.13V89.39Zm0-18.29v6.13h6.13V71.1Zm0,18.29v6.13h6.13V89.39Zm0-18.29v6.13h6.13V71.1Zm0,18.29v6.13h6.13V89.39Zm0-18.29v6.13h6.13V71.1Zm0,18.29v6.13h6.13V89.39Zm0-18.29v6.13h6.13V71.1Zm0,18.29v6.13h6.13V89.39Zm0-18.29v6.13h6.13V71.1Zm0,18.29v6.13h6.13V89.39Zm0-18.29v6.13h6.13V71.1Zm0,18.29v6.13h6.13V89.39Zm0-18.29v6.13h6.13V71.1Zm0,18.29v6.13h6.13V89.39Zm0-18.29v6.13h6.13V71.1Zm0,18.29v6.13h6.13V89.39Zm0-18.29v6.13h6.13V71.1Zm0,18.29v6.13h6.13V89.39Zm0-18.29v6.13h6.13V71.1Zm0,18.29v6.13h6.13V89.39Zm0-18.29v6.13h6.13V71.1Zm0,18.29v6.13h6.13V89.39Zm0-18.29v6.13h6.13V71.1Zm0,18.29v6.13h6.13V89.39Zm-8.13-47.74v76.22h8.13V127H127V41.65Zm16.26,54.87a1,1,0,0,1-1,1h-8.13a1,1,0,0,1-1-1V88.39a1,1,0,0,1,1-1h8.13a1,1,0,0,1,1,1Zm0-18.29a1,1,0,0,1-1,1h-8.13a1,1,0,0,1-1-1V70.1a1,1,0,0,1,1-1h8.13a1,1,0,0,1,1,1Zm0-18.29a1,1,0,0,1-1,1h-8.13a1,1,0,0,1-1-1V51.81a1,1,0,0,1,1-1h8.13a1,1,0,0,1,1,1Zm-8.13,35.58h6.13V89.39h-6.13Zm0-18.29h6.13V71.1h-6.13Zm0,12.16v6.13h6.13V89.39Zm0-18.29v6.13h6.13V71.1Zm0,18.29v6.13h6.13V89.39Zm0-18.29v6.13h6.13V71.1Zm0,18.29v6.13h6.13V89.39Zm0-18.29v6.13h6.13V71.1Zm0,18.29v6.13h6.13V89.39Zm0-18.29v6.13h6.13V71.1Zm0,18.29v6.13h6.13V89.39Zm0-18.29v6.13h6.13V71.1Zm0,18.29v6.13h6.13V89.39Zm0-18.29v6.13h6.13V71.1Zm0,18.29v6.13h6.13V89.39Zm0-18.29v6.13h6.13V71.1Zm0,18.29v6.13h6.13V89.39Zm0-18.29v6.13h6.13V71.1Zm0,18.29v6.13h6.13V89.39Zm0-18.29v6.13h6.13V71.1Zm0,18.29v6.13h6.13V89.39Zm0-18.29v6.13h6.13V71.1Zm0,18.29v6.13h6.13V89.39Zm0-18.29v6.13h6.13V71.1Zm0,18.29v6.13h6.13V89.39Zm0-18.29v6.13h6.13V71.1Zm0,18.29v6.13h6.13V89.39Zm0-18.29v6.13h6.13V71.1Zm0,18.29v6.13h6.13V89.39Zm0-18.29v6.13h6.13V71.1Zm0,18.29v6.13h6.13V89.39Zm0-18.29v6.13h6.13V71.1Zm0,18.29v6.13h6.13V89.39Zm0-18.29v6.13h6.13V71.1Z"/><rect class="cls-1" x="10.13" y="89.39" width="6.13" height="6.13"/><path class="cls-1" d="M10.13,52.81v6.13h6.13V52.81Zm0,18.29v6.13h6.13V71.1Zm0-18.29v6.13h6.13V52.81Zm0,18.29v6.13h6.13V71.1Zm0-18.29v6.13h6.13V52.81Zm0,18.29v6.13h6.13V71.1Zm0-18.29v6.13h6.13V52.81Zm0,18.29v6.13h6.13V71.1Zm0-18.29v6.13h6.13V52.81Zm0,18.29v6.13h6.13V71.1Zm0-18.29v6.13h6.13V52.81Zm0,18.29v6.13h6.13V71.1Zm0-18.29v6.13h6.13V52.81Zm0,18.29v6.13h6.13V71.1Zm0-18.29v6.13h6.13V52.81Zm0,18.29v6.13h6.13V71.1Zm0-18.29v6.13h6.13V52.81Zm0,18.29v6.13h6.13V71.1Zm0-18.29v6.13h6.13V52.81Zm0,18.29v6.13h6.13V71.1Zm0-18.29v6.13h6.13V52.81Zm0,18.29v6.13h6.13V71.1Zm0-18.29v6.13h6.13V52.81Zm0,18.29v6.13h6.13V71.1Zm0-18.29v6.13h6.13V52.81Zm0,18.29v6.13h6.13V71.1Zm0-18.29v6.13h6.13V52.81Zm0,18.29v6.13h6.13V71.1ZM1,41.65V127H16.26v-9.13h8.13V41.65ZM18.26,96.52a1,1,0,0,1-1,1H9.13a1,1,0,0,1-1-1V88.39a1,1,0,0,1,1-1h8.13a1,1,0,0,1,1,1Zm0-18.29a1,1,0,0,1-1,1H9.13a1,1,0,0,1-1-1V70.1a1,1,0,0,1,1-1h8.13a1,1,0,0,1,1,1Zm0-18.29a1,1,0,0,1-1,1H9.13a1,1,0,0,1-1-1V51.81a1,1,0,0,1,1-1h8.13a1,1,0,0,1,1,1ZM10.13,77.23h6.13V71.1H10.13Zm0-18.29h6.13V52.81H10.13Zm0,12.16v6.13h6.13V71.1Zm0-18.29v6.13h6.13V52.81Zm0,18.29v6.13h6.13V71.1Zm0-18.29v6.13h6.13V52.81Zm0,18.29v6.13h6.13V71.1Zm0-18.29v6.13h6.13V52.81Zm0,18.29v6.13h6.13V71.1Zm0-18.29v6.13h6.13V52.81Zm0,18.29v6.13h6.13V71.1Zm0-18.29v6.13h6.13V52.81Zm0,18.29v6.13h6.13V71.1Zm0-18.29v6.13h6.13V52.81Zm0,18.29v6.13h6.13V71.1Zm0-18.29v6.13h6.13V52.81Zm0,18.29v6.13h6.13V71.1Zm0-18.29v6.13h6.13V52.81Zm0,18.29v6.13h6.13V71.1Zm0-18.29v6.13h6.13V52.81Zm0,18.29v6.13h6.13V71.1Zm0-18.29v6.13h6.13V52.81Zm0,18.29v6.13h6.13V71.1Zm0-18.29v6.13h6.13V52.81Zm0,18.29v6.13h6.13V71.1Zm0-18.29v6.13h6.13V52.81Zm0,18.29v6.13h6.13V71.1Zm0,0v6.13h6.13V71.1Z"/></g></svg>