<svg xmlns="http://www.w3.org/2000/svg" viewBox="0 0 128 128"><defs><style>.cls-1{fill:#a0aec0;}</style></defs><title>Infusion</title><g id="Infusion"><path class="cls-1" d="M73.16,6V9.23a7.44,7.44,0,0,1,2,0V6a5.07,5.07,0,0,0,4-3.95h42.81V98.58h2V1a1,1,0,0,0-1-1H78.23a1,1,0,0,0-1,1A3.07,3.07,0,0,1,71.1,1a1,1,0,0,0-2,0A5.07,5.07,0,0,0,73.16,6Z"/><rect class="cls-1" x="118.87" y="100.58" width="8.13" height="26.42"/><path class="cls-1" d="M74.16,11.16a6.1,6.1,0,0,0-6.1,6.1H53.84V66c0,2.73,6,5,14.22,5.82v6.38h12.2V71.85a50.94,50.94,0,0,0,5.13-.74v-3a1,1,0,0,1,2,0v6.1a1,1,0,0,0,2,0v-4.1c3.16-1.07,5.09-2.48,5.09-4V56.87H88.39a1,1,0,0,1,0-2h6.09V48.74H86.35a1,1,0,0,1,0-2h8.13V40.61H88.39a1,1,0,0,1,0-2h6.09V32.48H86.35a1,1,0,0,1,0-2h8.13V17.26H80.26A6.1,6.1,0,0,0,74.16,11.16Z"/><path class="cls-1" d="M74.16,88.39a4.06,4.06,0,0,0-4.06,4.06v8.13a4.07,4.07,0,1,0,8.13,0V92.45A4.07,4.07,0,0,0,74.16,88.39Z"/><path class="cls-1" d="M75.16,80.23h-2v6.25a5.6,5.6,0,0,1,2,0Z"/><path class="cls-1" d="M73.16,106.56v3.17a16.28,16.28,0,0,1-32.55,0V40.63a18.28,18.28,0,1,0-36.55,0V94.52h2V40.63a16.28,16.28,0,1,1,32.55,0v69.1a18.28,18.28,0,0,0,36.55,0v-3.17A5.6,5.6,0,0,1,73.16,106.56Z"/><polygon class="cls-1" points="1 110.74 5.07 112.77 9.13 110.74 9.13 96.52 1 96.52 1 110.74"/><path class="cls-1" d="M4.06,114.51V127a1,1,0,0,0,2,0V114.51l-1,.5Z"/></g></svg>