<svg xmlns="http://www.w3.org/2000/svg" viewBox="0 0 128 128"><defs><style>.cls-1{fill:#a0aec0;}</style></defs><title>Masker</title><g id="Masker"><path class="cls-1" d="M29.64,87.3C15,86.81,1,81.92,1,55.87c0-16.51,9.16-20.64,21.89-14.16a4.07,4.07,0,0,0-2.41,1.08C8.61,37.61,3,42.86,3,55.87c0,22.41,9.89,28.5,25.15,29.35A16.34,16.34,0,0,0,29.64,87.3Z"/><path class="cls-1" d="M105.65,52.81C87,52.81,79.82,36.55,64,36.55S41,52.81,22.35,52.81c-.32,0-1.18,0-1.69,2.08,1.29,10.47,6.16,25.25,10,30.43a13.79,13.79,0,0,0,1.86,2c.75,0,10.9,13.23,31.52,13.23,20.82,0,30.65-13.23,31.52-13.23a14.5,14.5,0,0,0,1.86-2c3.8-5.18,8.67-20,10-30.43C106.83,52.81,106,52.81,105.65,52.81ZM86.5,85.31c-18.64,2.66-26.33,2.66-45,0a1,1,0,0,1,.29-2c.14,0,13.79,2,22.21,2s22.07-2,22.21-2A1,1,0,0,1,86.5,85.31ZM90.18,73.1c-.16,0-16.26-4-26.18-4s-26,4-26.18,4a1,1,0,0,1-.48-1.94C38,71,53.83,67.06,64,67.06S90,71,90.66,71.16A1,1,0,0,1,90.18,73.1Zm2.27-12.16C86,60.94,78.06,52.81,64,52.81s-22,8.13-28.45,8.13a1,1,0,0,1,0-2c5.66,0,14.06-8.13,28.45-8.13s22.8,8.13,28.45,8.13A1,1,0,0,1,92.45,60.94Z"/><path class="cls-1" d="M107.64,51.47a3.16,3.16,0,0,0-2-.66C87.83,50.81,80.59,34.55,64,34.55S40.22,50.81,22.35,50.81a3.16,3.16,0,0,0-2,.66c-.13-3,0-7.79,3-7.79,18.29,0,24.39-16.26,40.65-16.26s22.43,16.26,40.65,16.26C107.6,43.68,107.77,48.51,107.64,51.47Z"/><path class="cls-1" d="M127,55.87c0,26.05-14,30.93-28.63,31.43a17.79,17.79,0,0,0,1.47-2.08C115.1,84.37,125,78.29,125,55.87c0-14-6.5-17.91-17.47-13.08a4.09,4.09,0,0,0-2.42-1.08C117.74,35.32,127,39.21,127,55.87Z"/></g></svg>