<svg xmlns="http://www.w3.org/2000/svg" viewBox="0 0 128 128"><defs><style>.cls-1{fill:#a0aec0;}</style></defs><title>Medical Report</title><g id="Medical_Report" data-name="Medical Report"><path class="cls-1" d="M51.81,22.35H57A2.89,2.89,0,0,0,59.54,21a5.06,5.06,0,0,1,8.92,0A2.89,2.89,0,0,0,71,22.35h5.16a3.07,3.07,0,0,0,3.07-3.06V15.12c-1,.12-29.66.11-30.52,0v4.17A3.07,3.07,0,0,0,51.81,22.35Z"/><path class="cls-1" d="M102.61,5.06H86.06a8.06,8.06,0,0,1-1.55,7.13h16.07a1,1,0,0,1,1,1V116.84a1,1,0,0,1-1,1H27.42a1,1,0,0,1-1-1V13.19a1,1,0,0,1,1-1H43.49a8.07,8.07,0,0,1-1.55-7.13H25.39a8.13,8.13,0,0,0-8.13,8.13V118.87A8.13,8.13,0,0,0,25.39,127h77.22a8.13,8.13,0,0,0,8.13-8.13V13.19A8.13,8.13,0,0,0,102.61,5.06Z"/><path class="cls-1" d="M78.23,1H49.77a6.1,6.1,0,0,0,0,12.19H78.23A6.1,6.1,0,0,0,78.23,1ZM51.81,8.6a1.5,1.5,0,0,1,0-3A1.5,1.5,0,0,1,51.81,8.6Zm24.38,0a1.5,1.5,0,0,1,0-3A1.5,1.5,0,0,1,76.19,8.6Z"/><path class="cls-1" d="M58.8,53.39l2.85,5.71,3.41-13.63a1,1,0,0,1,1.87-.21l3.78,7.58H82.15C87.76,40,72.07,30.55,64.82,41.06a1,1,0,0,1-1.64,0C55.9,30.5,40.25,40,45.85,52.84,58.74,52.84,58.41,52.62,58.8,53.39Z"/><path class="cls-1" d="M69.2,54.29l-2.85-5.72L62.94,62.21A1,1,0,0,1,62,63c-.84,0-.55.14-4.68-8.13H46.87C51.4,62.65,61.59,69.42,64,71c2.41-1.53,12.6-8.3,17.13-16.11C69.47,54.84,69.59,55.07,69.2,54.29Z"/><path class="cls-1" d="M81.26,14.6v4.69a5.07,5.07,0,0,1-5.07,5.06H71a4.84,4.84,0,0,1-4.33-2.44,3.06,3.06,0,0,0-5.4,0A4.84,4.84,0,0,1,57,24.35H51.81a5.07,5.07,0,0,1-5.07-5.06V14.6c-1.42-.58,1.52-.41-18.32-.41V115.84H99.58V14.19C79.76,14.19,82.68,14,81.26,14.6Zm-3,91.05H39.61a1,1,0,0,1,0-2H78.23A1,1,0,0,1,78.23,105.65ZM88.39,95.48H39.61a1,1,0,0,1,0-2H88.39A1,1,0,0,1,88.39,95.48Zm0-10.16H39.61a1,1,0,0,1,0-2H88.39A1,1,0,0,1,88.39,85.32Zm0-30.48h-5c-5,9.72-18.21,17.73-18.9,18.15a1,1,0,0,1-1,0c-.69-.42-13.88-8.43-18.9-18.15h-5a1,1,0,0,1,0-2H43.7c-5.36-14,11.28-24.65,20.3-14,9-10.63,25.68,0,20.3,14h4.09A1,1,0,0,1,88.39,54.84Z"/></g></svg>