<svg xmlns="http://www.w3.org/2000/svg" viewBox="0 0 128 128"><defs><style>.cls-1{fill:#a0aec0;}</style></defs><title>Medical History</title><g id="Medical_History" data-name="Medical History"><path class="cls-1" d="M120.87,41.65v79.22h-8.05a7.11,7.11,0,0,0,6.64,6.11c3.27.5,7.54-2.53,7.54-7.11V41.65Z"/><path class="cls-1" d="M55.87,69.06A23.39,23.39,0,1,0,79.26,92.45,23.43,23.43,0,0,0,55.87,69.06ZM71.1,96.52a1,1,0,0,1-1,1H60.94v9.16a1,1,0,0,1-1,1H51.81a1,1,0,0,1-1-1V97.52H41.65a1,1,0,0,1-1-1V88.39a1,1,0,0,1,1-1h9.16V78.23a1,1,0,0,1,1-1h8.13a1,1,0,0,1,1,1v9.16H70.1a1,1,0,0,1,1,1Z"/><path class="cls-1" d="M58.94,88.39V79.23H52.81v9.16a1,1,0,0,1-1,1H42.65v6.13h9.16a1,1,0,0,1,1,1v9.16h6.13V96.52a1,1,0,0,1,1-1H69.1V89.39H59.94A1,1,0,0,1,58.94,88.39Z"/><path class="cls-1" d="M110.74,119.87v-62H41.65l-6.1-6.09H1v67.06A8.13,8.13,0,0,0,9.13,127H114.18A9.09,9.09,0,0,1,110.74,119.87Zm-54.87-2A25.39,25.39,0,1,1,81.26,92.45,25.42,25.42,0,0,1,55.87,117.84Z"/><polygon class="cls-1" points="112.74 118.87 118.87 118.87 118.87 9.13 106.65 9.13 106.65 55.9 112.74 55.9 112.74 118.87"/><path class="cls-1" d="M38.43,24.46V23a4.92,4.92,0,1,0-9.83,0v1.47a4.92,4.92,0,1,0,9.83,0Z"/><path class="cls-1" d="M42.47,55.9h62.18V1H7.1V49.81H36.38Zm50-7.16H74.16a1,1,0,0,1,0-2H92.45A1,1,0,0,1,92.45,48.74Zm0-8.13H74.16a1,1,0,0,1,0-2H92.45A1,1,0,0,1,92.45,40.61Zm0-8.13H74.16a1,1,0,0,1,0-2H92.45A1,1,0,0,1,92.45,32.48ZM58.94,13.19a1,1,0,0,1,1-1H92.45a1,1,0,0,1,1,1v8.13a1,1,0,0,1-1,1H59.94a1,1,0,0,1-1-1Zm1,17.29H66a1,1,0,0,1,0,2H59.94A1,1,0,0,1,59.94,30.48Zm0,8.13H66a1,1,0,0,1,0,2H59.94A1,1,0,0,1,59.94,38.61Zm0,8.13H66a1,1,0,0,1,0,2H59.94A1,1,0,0,1,59.94,46.74ZM33.52,44.68A17.26,17.26,0,1,1,50.77,27.42,17.24,17.24,0,0,1,33.52,44.68Z"/><path class="cls-1" d="M24.74,37.7l-.59,1.75a15.21,15.21,0,0,0,18.73,0l-.59-1.75A9.26,9.26,0,0,0,24.74,37.7Z"/><path class="cls-1" d="M33.52,12.16c-13.47,0-20.25,16.21-11,25.84l.31-.94a11.19,11.19,0,0,1,6.7-7,6.94,6.94,0,0,1-2.94-5.65V23a6.92,6.92,0,1,1,13.83,0v1.47a6.91,6.91,0,0,1-2.94,5.65,11.18,11.18,0,0,1,6.7,7l.31.93C53.77,28.37,47,12.16,33.52,12.16Z"/><rect class="cls-1" x="60.94" y="14.19" width="30.52" height="6.13"/></g></svg>