<svg xmlns="http://www.w3.org/2000/svg" viewBox="0 0 128 128"><defs><style>.cls-1{fill:#a0aec0;}</style></defs><title>Medical Kit</title><g id="Medical_Kit" data-name="Medical Kit"><path class="cls-1" d="M24.35,66V54.84H38.61V66a7.13,7.13,0,0,1-14.26,0Z"/><path class="cls-1" d="M68.06,89.39h9.17v6.13H68.06a1,1,0,0,0-1,1v9.16H60.94V96.52a1,1,0,0,0-1-1H50.77V89.39h9.17a1,1,0,0,0,1-1V79.23h6.12v9.16A1,1,0,0,0,68.06,89.39Z"/><path class="cls-1" d="M64,69.06A23.39,23.39,0,1,0,87.39,92.45,23.42,23.42,0,0,0,64,69.06ZM79.23,96.52a1,1,0,0,1-1,1H69.06v9.16a1,1,0,0,1-1,1H59.94a1,1,0,0,1-1-1V97.52H49.77a1,1,0,0,1-1-1V88.39a1,1,0,0,1,1-1h9.17V78.23a1,1,0,0,1,1-1h8.12a1,1,0,0,1,1,1v9.16h9.17a1,1,0,0,1,1,1Z"/><path class="cls-1" d="M89.39,54.84V66a7.13,7.13,0,1,0,14.26,0V54.84Zm18.29-4.07v3.07a1,1,0,0,1-1,1h-1V66a9.13,9.13,0,0,1-18.26,0V54.84h-1a1,1,0,0,1-1-1V50.77H42.65v3.07a1,1,0,0,1-1,1h-1V66a9.13,9.13,0,0,1-18.26,0V54.84h-1a1,1,0,0,1-1-1V50.77H5.06v68.1A8.13,8.13,0,0,0,13.19,127H114.81a8.13,8.13,0,0,0,8.13-8.13V50.77ZM64,117.84A25.39,25.39,0,1,1,89.39,92.45,25.42,25.42,0,0,1,64,117.84Z"/><path class="cls-1" d="M127,33.52V48.77H107.68V45.71a1,1,0,0,0-1-1H86.35a1,1,0,0,0-1,1v3.06H42.65V45.71a1,1,0,0,0-1-1H21.32a1,1,0,0,0-1,1v3.06H1V33.52a8.12,8.12,0,0,1,8.13-8.13H118.87A8.12,8.12,0,0,1,127,33.52Z"/><path class="cls-1" d="M82.29,9.13H45.71a4.07,4.07,0,0,1,0-8.13H82.29a4.07,4.07,0,0,1,0,8.13Z"/><rect class="cls-1" x="22.32" y="46.71" width="18.33" height="6.13"/><rect class="cls-1" x="87.35" y="46.71" width="18.33" height="6.13"/><path class="cls-1" d="M39.79,6.34a6.44,6.44,0,0,0-4.46,4.9L32.9,23.39h-2l2.51-12.54A8.46,8.46,0,0,1,39.7,4.3,5.9,5.9,0,0,0,39.79,6.34Z"/><path class="cls-1" d="M97.14,23.39h-2L92.67,11.24a6.44,6.44,0,0,0-4.46-4.9,5.9,5.9,0,0,0,.09-2,8.46,8.46,0,0,1,6.33,6.55Z"/></g></svg>