<svg xmlns="http://www.w3.org/2000/svg" viewBox="0 0 128 128"><defs><style>.cls-1{fill:#a0aec0;}</style></defs><title>Medical Checkup</title><g id="Medical_Checkup" data-name="Medical Checkup"><path class="cls-1" d="M51.81,22.35H57A2.89,2.89,0,0,0,59.54,21a5.06,5.06,0,0,1,8.92,0A2.89,2.89,0,0,0,71,22.35h5.16a3.07,3.07,0,0,0,3.07-3.06V15.12c-1,.12-29.66.11-30.52,0v4.17A3.07,3.07,0,0,0,51.81,22.35Z"/><path class="cls-1" d="M102.61,5.06H86.06a8.06,8.06,0,0,1-1.55,7.13h16.07a1,1,0,0,1,1,1V116.84a1,1,0,0,1-1,1H27.42a1,1,0,0,1-1-1V13.19a1,1,0,0,1,1-1H43.49a8.07,8.07,0,0,1-1.55-7.13H25.39a8.13,8.13,0,0,0-8.13,8.13V118.87A8.13,8.13,0,0,0,25.39,127h77.22a8.13,8.13,0,0,0,8.13-8.13V13.19A8.13,8.13,0,0,0,102.61,5.06Z"/><path class="cls-1" d="M78.23,1H49.77a6.1,6.1,0,0,0,0,12.19H78.23A6.1,6.1,0,0,0,78.23,1ZM51.81,8.6a1.5,1.5,0,0,1,0-3A1.5,1.5,0,0,1,51.81,8.6Zm24.38,0a1.5,1.5,0,0,1,0-3A1.5,1.5,0,0,1,76.19,8.6Z"/><path class="cls-1" d="M79.26,49.77A15.26,15.26,0,1,0,64,65,15.27,15.27,0,0,0,79.26,49.77ZM63,57.9V50.77H55.87a1,1,0,0,1,0-2H63V41.65a1,1,0,0,1,2,0v7.12h7.13a1,1,0,0,1,0,2H65V57.9A1,1,0,0,1,63,57.9Z"/><path class="cls-1" d="M81.26,14.6v4.69a5.07,5.07,0,0,1-5.07,5.06H71a4.84,4.84,0,0,1-4.33-2.44,3.06,3.06,0,0,0-5.4,0A4.84,4.84,0,0,1,57,24.35H51.81a5.07,5.07,0,0,1-5.07-5.06V14.6c-1.42-.58,1.52-.41-18.32-.41V115.84H99.58V14.19C79.76,14.19,82.68,14,81.26,14.6ZM46.42,101.29c-4.48,4.48-4.22,4.36-4.77,4.36s-.56-.14-2.74-2.33a1,1,0,1,1,1.41-1.41l1.33,1.32L45,99.87A1,1,0,0,1,46.42,101.29Zm0-12.2c-4.48,4.48-4.22,4.36-4.77,4.36s-.56-.14-2.74-2.32a1,1,0,0,1,1.41-1.42L41.65,91,45,87.68A1,1,0,0,1,46.42,89.09Zm0-12.19c-4.48,4.48-4.22,4.36-4.77,4.36s-.56-.14-2.74-2.33a1,1,0,0,1,1.41-1.41l1.33,1.32L45,75.49A1,1,0,0,1,46.42,76.9Zm.32-27.13A17.26,17.26,0,1,1,64,67,17.27,17.27,0,0,1,46.74,49.77Zm41.65,53.84H53.84a1,1,0,0,1,0-2H88.39A1,1,0,0,1,88.39,103.61Zm0-12.19H53.84a1,1,0,0,1,0-2H88.39A1,1,0,0,1,88.39,91.42Zm0-12.19H53.84a1,1,0,0,1,0-2H88.39A1,1,0,0,1,88.39,79.23Z"/></g></svg>