<svg xmlns="http://www.w3.org/2000/svg" viewBox="0 0 128 128"><defs><style>.cls-1{fill:#a0aec0;}</style></defs><title>Medicine</title><g id="Medicine"><rect class="cls-1" x="25.39" y="1" width="36.58" height="16.26"/><path class="cls-1" d="M11.16,58.9v46.78H70.47A14.16,14.16,0,0,1,76.19,91V58.9ZM43.68,99.55A17.26,17.26,0,1,1,60.94,82.29,17.28,17.28,0,0,1,43.68,99.55Z"/><path class="cls-1" d="M43.68,67A15.26,15.26,0,1,0,58.94,82.29,15.28,15.28,0,0,0,43.68,67Zm8.13,16.26H44.68v7.13a1,1,0,0,1-2,0V83.29H35.55a1,1,0,0,1,0-2h7.13V74.16a1,1,0,0,1,2,0v7.13h7.13A1,1,0,0,1,51.81,83.29Z"/><path class="cls-1" d="M76.19,114.24v8.7A4.08,4.08,0,0,1,72.13,127H15.23a4.08,4.08,0,0,1-4.07-4.06V107.68H71.07A14.21,14.21,0,0,0,76.19,114.24Z"/><path class="cls-1" d="M76.19,56.9V47.27A16.23,16.23,0,0,0,65.08,31.85l-7.18-2.4V19.26H29.45V29.45l-7.17,2.4A16.23,16.23,0,0,0,11.16,47.27V56.9Z"/><path class="cls-1" d="M107,118.56c-5.94,5.94-7.5,8.44-12,8.44a8.62,8.62,0,0,1-8.44-10.36,14.28,14.28,0,0,0,10.61-7.92Z"/><path class="cls-1" d="M114.32,111.23l-5.92,5.92L97.92,106.67a13.79,13.79,0,0,0,.6-4c3.36-3.35,5.33-6.12,9.7-6.12A8.63,8.63,0,0,1,114.32,111.23Z"/><path class="cls-1" d="M84.32,90.42a12.2,12.2,0,1,0,12.2,12.19A12.19,12.19,0,0,0,84.32,90.42Zm6.81,6.8c-13.3,13.29-12.31,12.49-12.9,12.49a1,1,0,0,1-.71-1.71L89.71,95.81A1,1,0,0,1,91.13,97.22Z"/></g></svg>