<svg xmlns="http://www.w3.org/2000/svg" viewBox="0 0 128 128"><defs><style>.cls-1{fill:#a0aec0;}</style></defs><title>Microscope</title><g id="Microscope"><path class="cls-1" d="M64,90.42v16.26a8.13,8.13,0,0,1-8.13,8.13H33.52a8.13,8.13,0,0,0-8.13,8.13V127H96.52V114.81L80.26,90.42Zm9.15,10.64a1.5,1.5,0,0,1,0-3A1.5,1.5,0,0,1,73.15,101.06Z"/><rect class="cls-1" x="25.39" y="92.45" width="36.61" height="8.13"/><path class="cls-1" d="M83.64,59.31a24.41,24.41,0,0,1,.46,33.27L91,102.92a36.57,36.57,0,0,0-.65-54A10.12,10.12,0,0,1,83.64,59.31Z"/><circle class="cls-1" cx="80.26" cy="49.77" r="2"/><path class="cls-1" d="M80.26,41.65a8.13,8.13,0,1,0,8.13,8.12A8.12,8.12,0,0,0,80.26,41.65Zm0,12.12a4,4,0,1,1,4-4A4,4,0,0,1,80.26,53.77Z"/><path class="cls-1" d="M74.38,63.51,76,59a10.12,10.12,0,0,1,6.91-19l1.87-5.15c-13.26-4.79-21.09-7.7-30.56-11.12L43.82,52.4C48.69,54.16,67.94,61.18,74.38,63.51Z"/><polygon class="cls-1" points="70.84 64.36 45.99 55.31 46.77 62.11 65.87 69.06 70.84 64.36"/><rect class="cls-1" x="51.52" y="64.25" width="6.13" height="12.2" transform="translate(-30.2 97.54) rotate(-69.97)"/><path class="cls-1" d="M83.58,32.29A6.1,6.1,0,0,0,80,24.44L64.67,18.88a6.1,6.1,0,0,0-7.82,3.65C56.8,22.63,83.48,32.25,83.58,32.29Z"/><path class="cls-1" d="M80.63,22.56,85.54,9.08l2.23.81A1,1,0,0,0,88.45,8L69.36,1.06a1,1,0,0,0-.69,1.88l1.59.58L65.35,17Z"/></g></svg>