<svg xmlns="http://www.w3.org/2000/svg" viewBox="0 0 128 128"><defs><style>.cls-1{fill:#a0aec0;}</style></defs><title>Mobile Apps</title><g id="Mobile_Apps" data-name="Mobile Apps"><rect class="cls-1" x="46.71" y="73.13" width="34.58" height="8.16"/><rect class="cls-1" x="46.71" y="93.45" width="34.58" height="8.16"/><path class="cls-1" d="M64,26.39A15.26,15.26,0,1,0,79.26,41.65,15.28,15.28,0,0,0,64,26.39Zm8.13,16.26H65v7.12a1,1,0,0,1-2,0V42.65H55.87a1,1,0,0,1,0-2H63V33.52a1,1,0,0,1,2,0v7.13h7.13A1,1,0,0,1,72.13,42.65Z"/><path class="cls-1" d="M76.19,14.19H51.81a5.08,5.08,0,0,1-5-4.06H34.52V117.87h59V10.13H81.16A5.08,5.08,0,0,1,76.19,14.19Zm7.1,88.42a1,1,0,0,1-1,1H45.71a1,1,0,0,1-1-1V92.45a1,1,0,0,1,1-1H82.29a1,1,0,0,1,1,1Zm0-30.48V82.29a1,1,0,0,1-1,1H45.71a1,1,0,0,1-1-1V72.13a1,1,0,0,1,1-1H82.29A1,1,0,0,1,83.29,72.13ZM64,58.9A17.26,17.26,0,1,1,81.26,41.65,17.27,17.27,0,0,1,64,58.9Z"/><path class="cls-1" d="M94.48,1h-61a8.12,8.12,0,0,0-8.13,8.13V118.87A8.12,8.12,0,0,0,33.52,127h61a8.12,8.12,0,0,0,8.13-8.13V9.13A8.12,8.12,0,0,0,94.48,1ZM72.13,5.6a1.5,1.5,0,0,1,0,3A1.5,1.5,0,0,1,72.13,5.6Zm-16.26,0a1.5,1.5,0,0,1,0,3A1.5,1.5,0,0,1,55.87,5.6ZM95.48,118.87a1,1,0,0,1-1,1h-61a1,1,0,0,1-1-1V9.13a1,1,0,0,1,1-1H47.74a1,1,0,0,1,1,1,3.08,3.08,0,0,0,3.07,3.06H76.19a3.07,3.07,0,0,0,3.07-3.06,1,1,0,0,1,1-1H94.48a1,1,0,0,1,1,1Z"/></g></svg>