<svg xmlns="http://www.w3.org/2000/svg" viewBox="0 0 128 128"><defs><style>.cls-1{fill:#a0aec0;}</style></defs><title>Mortar</title><g id="Mortar"><path class="cls-1" d="M68.06,83.29h9.17v6.13H68.06a1,1,0,0,0-1,1v9.16H60.94V90.42a1,1,0,0,0-1-1H50.77V83.29h9.17a1,1,0,0,0,1-1V73.13h6.12v9.16A1,1,0,0,0,68.06,83.29Z"/><path class="cls-1" d="M64,63A23.39,23.39,0,1,0,87.39,86.35,23.41,23.41,0,0,0,64,63ZM79.23,90.42a1,1,0,0,1-1,1H69.06v9.16a1,1,0,0,1-1,1H59.94a1,1,0,0,1-1-1V91.42H49.77a1,1,0,0,1-1-1V82.29a1,1,0,0,1,1-1h9.17V72.13a1,1,0,0,1,1-1h8.12a1,1,0,0,1,1,1v9.16h9.17a1,1,0,0,1,1,1Z"/><path class="cls-1" d="M127,53.84c-129.8,0-126-.07-126,0V76.19a42.68,42.68,0,0,0,42.68,42.68H84.32A42.68,42.68,0,0,0,127,76.19C127,53.5,127.07,53.84,127,53.84Zm-63,57.9A25.39,25.39,0,1,1,89.39,86.35,25.42,25.42,0,0,1,64,111.74Z"/><rect class="cls-1" x="43.68" y="120.87" width="40.64" height="6.13"/><path class="cls-1" d="M106.62,27l-4.93,24.87H75.41L85.79,21.38A14.22,14.22,0,0,1,102.27,1.49C114.05,4.64,116.56,20.16,106.62,27Z"/><path class="cls-1" d="M33.52,19.29a10.17,10.17,0,0,1-16.61,7.85C18.06,26,12.76,31.3,28.13,15.93a1,1,0,0,0-1.42-1.41C19.36,21.87,15.6,25.69,15.5,25.74a10.16,10.16,0,1,1,18-6.45Z"/><path class="cls-1" d="M46,29.14,56.18,39.3l-4.3,4.3A7.18,7.18,0,1,1,41.72,33.44Z"/><path class="cls-1" d="M64,28.51c0,3.84-2.53,5.51-6.41,9.38L47.43,27.73l4.3-4.3A7.19,7.19,0,0,1,64,28.51Z"/></g></svg>