<svg xmlns="http://www.w3.org/2000/svg" viewBox="0 0 128 128"><defs><style>.cls-1{fill:#a0aec0;}</style></defs><title>MRI</title><g id="MRI"><path class="cls-1" d="M32.54,52.84a31.48,31.48,0,0,1,62.92,0h17.29a48.79,48.79,0,0,0-32.49-45V5.06A4.08,4.08,0,0,0,76.19,1H51.81a4.08,4.08,0,0,0-4.07,4.06V7.85a48.78,48.78,0,0,0-32.49,45ZM55.87,12.19H72.13a1,1,0,0,1,0,2H55.87A1,1,0,0,1,55.87,12.19Z"/><path class="cls-1" d="M64,24.35c-23.13,0-37.06,25.5-25.19,44.8L43,64.1a23.36,23.36,0,1,1,42,0l4.21,5.05C101.05,49.87,87.15,24.35,64,24.35Z"/><path class="cls-1" d="M32.56,54.84H15.25A48.18,48.18,0,0,0,26.11,84.4L37.48,70.75A30.88,30.88,0,0,1,32.56,54.84Z"/><path class="cls-1" d="M64,32.48A21.38,21.38,0,0,0,44.44,62.4c.47-.57-3.89-.4,38.79-.4l.33.4A21.38,21.38,0,0,0,64,32.48Z"/><path class="cls-1" d="M95.44,54.84a30.88,30.88,0,0,1-4.92,15.91L102,84.47a48.55,48.55,0,0,0,10.8-29.63Z"/><rect class="cls-1" x="25.39" y="89.39" width="77.23" height="12.23"/><polygon class="cls-1" points="101.78 87.39 26.22 87.39 45.71 64 82.29 64 101.78 87.39"/><path class="cls-1" d="M98.55,103.61v1.24a10,10,0,0,1-10,10H39.41a10,10,0,0,1-10-10v-1.24Z"/><polyline class="cls-1" points="39.61 127 39.61 116.81 88.39 116.81 88.39 127"/></g></svg>