<svg xmlns="http://www.w3.org/2000/svg" viewBox="0 0 128 128"><defs><style>.cls-1{fill:#a0aec0;}</style></defs><title>Nurse</title><g id="Nurse"><path class="cls-1" d="M94.48,57.61A7.92,7.92,0,0,1,89.2,58.9,25.42,25.42,0,0,1,73.13,79.56v5.79H94.48Z"/><path class="cls-1" d="M38.8,58.9a8,8,0,0,1-5.28-1.29V85.35H54.87V79.57A25.3,25.3,0,0,1,38.8,58.9Z"/><path class="cls-1" d="M39.61,44.71a1,1,0,0,1,.4.09c2.94-1.51,12.83-7,12.83-13.32a1,1,0,0,1,1.78-.62c7.83,9.79,25.86,13.85,33.77,13.85,2.2,0,4-.2,6.09,1.28V36.24a23,23,0,0,0-13-20.76l-1.57,7.84H48.14l-1.57-7.84a23,23,0,0,0-13,20.76V46C35.6,44.52,37.37,44.71,39.61,44.71Z"/><path class="cls-1" d="M58.66,78.65c13,3.61,28.73-6.68,28.73-22.78V46.69c-7.57-.29-24-3.71-32.87-12.92-1.88,6.68-11.42,11.73-13.91,13v9.14A23.33,23.33,0,0,0,58.66,78.65Zm14.5-28.88a1,1,0,0,1,2,0v2a1,1,0,0,1-2,0ZM60.4,67.6a5.09,5.09,0,0,0,7.2,0A1,1,0,0,1,69,69a7.12,7.12,0,0,1-10,0A1,1,0,0,1,60.4,67.6ZM52.81,51.81a1,1,0,0,1-2,0v-2a1,1,0,0,1,2,0Z"/><path class="cls-1" d="M71.13,86.09V80.24a25.4,25.4,0,0,1-14.26,0v5.85L64,98.56Z"/><path class="cls-1" d="M55.87,103.65c4.27,0,6.28-2.15,7-3.09L55.29,87.35H46.74C46.92,91,48.11,103.65,55.87,103.65Z"/><path class="cls-1" d="M44.74,87.35a24.39,24.39,0,0,0-24.5,20.77l-3,18.88H63V103.28a10.76,10.76,0,0,1-7.13,2.37C46.18,105.65,44.9,91.35,44.74,87.35Z"/><path class="cls-1" d="M72.13,103.65c7.76,0,9-12.62,9.13-16.3H72.71l-7.54,13.21C65.85,101.5,67.86,103.65,72.13,103.65Z"/><path class="cls-1" d="M107.76,108.12a24.39,24.39,0,0,0-24.5-20.77c-.16,4-1.44,18.3-11.13,18.3A10.76,10.76,0,0,1,65,103.28V127h45.74Zm-13.28,9.72H80.26a1,1,0,0,1,0-2H94.48A1,1,0,0,1,94.48,117.84Z"/><path class="cls-1" d="M78.23,21.32,81.8,3.48a65.15,65.15,0,0,0-35.6,0l3.57,17.84ZM59.94,10.16H63V7.1a1,1,0,0,1,2,0v3.06h3.06a1,1,0,0,1,0,2H65v3.07a1,1,0,0,1-2,0V12.16H59.94A1,1,0,0,1,59.94,10.16Z"/><path class="cls-1" d="M37.58,56.9h1V46.71c-1.78,0-3.57,0-5.09,2A5.09,5.09,0,0,0,37.58,56.9Z"/><path class="cls-1" d="M90.42,46.71h-1V56.9c1.87,0,3.61-.07,5.09-2A5.1,5.1,0,0,0,90.42,46.71Z"/></g></svg>