<svg xmlns="http://www.w3.org/2000/svg" viewBox="0 0 128 128"><defs><style>.cls-1{fill:#a0aec0;}</style></defs><title>ophthalmologists</title><g id="ophthalmologists"><path class="cls-1" d="M2.23,64c30.41,42,93.1,42,123.54,0a76.48,76.48,0,0,0-48.5-30.35,29.45,29.45,0,1,1-26.54,0A76.48,76.48,0,0,0,2.23,64Z"/><path class="cls-1" d="M64,75.19A15.26,15.26,0,1,0,48.74,59.94,15.27,15.27,0,0,0,64,75.19ZM55.87,58.94H63V51.81a1,1,0,0,1,2,0v7.13h7.13a1,1,0,0,1,0,2H65v7.12a1,1,0,0,1-2,0V60.94H55.87A1,1,0,0,1,55.87,58.94Z"/><path class="cls-1" d="M123.81,58.27c-31-52-88.73-51.91-119.62,0A78.3,78.3,0,0,1,123.81,58.27Z"/><path class="cls-1" d="M64,87.39A27.46,27.46,0,1,0,36.55,59.94,27.48,27.48,0,0,0,64,87.39Zm0-44.71A17.26,17.26,0,1,1,46.74,59.94,17.28,17.28,0,0,1,64,42.68Z"/><path class="cls-1" d="M4.19,69.73c31,52,88.73,51.91,119.62,0A78.3,78.3,0,0,1,4.19,69.73Z"/></g></svg>