<svg xmlns="http://www.w3.org/2000/svg" viewBox="0 0 128 128"><defs><style>.cls-1{fill:#a0aec0;}</style></defs><title>Oxygen</title><g id="Oxygen"><rect class="cls-1" x="98.55" y="11.16" width="8.13" height="9.16"/><path class="cls-1" d="M96.52,6.06h5.09v3.1h2V6.06h5.1a1,1,0,0,0,0-2h-5.1V1a1,1,0,0,0-2,0V4.06H96.52A1,1,0,0,0,96.52,6.06Z"/><rect class="cls-1" x="82.26" y="14.23" width="14.29" height="2"/><path class="cls-1" d="M120.9,9.13a6.1,6.1,0,0,0-6,5.12c-.29,0,.86,0-6.21,0v2c7.44,0,5.94,0,6.21,0a6.1,6.1,0,1,0,6-7.08Z"/><rect class="cls-1" x="68.06" y="12.16" width="12.19" height="6.13"/><path class="cls-1" d="M70.1,35.55a4.07,4.07,0,0,0,8.13,0V20.29H70.1Z"/><path class="cls-1" d="M46.74,35.55v70.11a14.24,14.24,0,0,1-28.48,0V28.28a3.06,3.06,0,1,0-2,0v77.38a16.24,16.24,0,1,0,32.48,0V35.55A19.35,19.35,0,0,1,66.06,16.33v-2A21.33,21.33,0,0,0,46.74,35.55Z"/><path class="cls-1" d="M75.16,1a1,1,0,0,0-2,0v9.16h2Z"/><path class="cls-1" d="M17.26,20.32a5.07,5.07,0,0,1,3,9.14v5.9c6.41-.83,11.22-4.41,11.22-10.65A28.44,28.44,0,0,0,28.73,14l5.39-4a1,1,0,0,0-1.2-1.6l-8.09,6.06a1,1,0,0,1-1-1.68l3.07-2.3c-6-9.81-13.2-9.83-19.21,0l3.08,2.3a1,1,0,0,1-1.06,1.67L1.6,8.33A1,1,0,0,0,.4,9.93l5.39,4A28.47,28.47,0,0,0,3,24.71C3,31,7.84,34.53,14.26,35.36v-5.9A5.06,5.06,0,0,1,17.26,20.32Z"/><rect class="cls-1" x="84.32" y="109.71" width="36.58" height="17.29"/><rect class="cls-1" x="84.32" y="56.87" width="36.58" height="50.84"/><path class="cls-1" d="M108.71,26.45V22.32H96.52v4.13a18.29,18.29,0,0,0-12.2,17.23V54.87H120.9V43.68A18.28,18.28,0,0,0,108.71,26.45Z"/></g></svg>