<svg xmlns="http://www.w3.org/2000/svg" viewBox="0 0 128 128"><defs><style>.cls-1{fill:#a0aec0;}</style></defs><title>Pharmacy</title><g id="Pharmacy"><path class="cls-1" d="M68.06,104.27l-8.12,2v14.6L35.55,127h56.9l-24.39-6.1Z"/><path class="cls-1" d="M5.07,45.72c8.13,24.38,34,32.35,54.87,32.49V93.82c6.3-1.58,5.79-1.48,8.12-2.13V78.36c0-.5,43.42,1.63,54.87-32.64Z"/><path class="cls-1" d="M80.26,116.84c-3.8-.35-7.2-.76-10.26-1.22v1.6C75.88,117.17,80.26,116.84,80.26,116.84Z"/><path class="cls-1" d="M70.06,93.17c-13.2,4.2-30.44,5.33-30.44,15.54,0,5.27,8.9,7.39,18.38,8.15v-3.69c-6.51-1.76-9.6-3.55-10.19-4.44,1.46-2,12.17-4.52,14.61-5.1,11-2.78,26-6,26-17.27a11.59,11.59,0,0,0-3.24-8A79,79,0,0,1,73.49,80C84.28,85.41,81.48,89.58,70.06,93.17Z"/><path class="cls-1" d="M52.82,33.52c3.93,0,7.12-7.25,7.12-11.17a7.16,7.16,0,0,0-1.87-4.78c1.54-9.42,16.89-10.86,23-4.91a11.56,11.56,0,0,1,3.27,8.67c0,10.65-20.23,17-32,22.39H72.49c10.45-5.08,20-11.74,20-22.39,0-26-38.27-26.27-42.33-5.55a7.11,7.11,0,0,0-4.41,6.57C45.71,26.27,48.9,33.52,52.82,33.52Z"/></g></svg>