<svg xmlns="http://www.w3.org/2000/svg" viewBox="0 0 128 128"><defs><style>.cls-1{fill:#a0aec0;}</style></defs><title>Phonendoscope</title><g id="Phonendoscope"><path class="cls-1" d="M38.61,86.35V73.88A28.49,28.49,0,0,0,63,45.71H54.87c0,18.12-22,27.07-34.69,14.37a20.25,20.25,0,0,1-5.95-14.37H6.1A28.48,28.48,0,0,0,30.48,73.88V86.35Z"/><path class="cls-1" d="M22.35,5.06h2a2,2,0,1,0,0-4.06h-2a2,2,0,0,0,0,4.06Z"/><path class="cls-1" d="M44.71,5.06h2a2,2,0,1,0,0-4.06h-2a2,2,0,0,0,0,4.06Z"/><path class="cls-1" d="M57.94,13.19V43.71h2V13.19a11.17,11.17,0,0,0-9.26-11,4,4,0,0,1-.09,2A9.15,9.15,0,0,1,57.94,13.19Z"/><path class="cls-1" d="M11.16,13.48a9.16,9.16,0,0,1,7.44-9,3.91,3.91,0,0,1-.24-2,11.16,11.16,0,0,0-9.2,11V43.71h2Z"/><path class="cls-1" d="M107.71,38.58a3.07,3.07,0,0,0-1,6V90.42a35.58,35.58,0,1,1-71.16,0V88.35h-2v2.07a37.58,37.58,0,1,0,75.16,0V44.54A3.07,3.07,0,0,0,107.71,38.58Z"/><path class="cls-1" d="M107.71,29.45a12.2,12.2,0,0,0-3,24V45.72a5.06,5.06,0,1,1,6,0v7.75a12.2,12.2,0,0,0-3-24Z"/></g></svg>