<svg xmlns="http://www.w3.org/2000/svg" viewBox="0 0 128 128"><defs><style>.cls-1{fill:#a0aec0;}</style></defs><title>Place Holder</title><g id="Place_Holder" data-name="Place Holder"><path class="cls-1" d="M68.06,36.55h11.2v6.13H68.06a1,1,0,0,0-1,1V54.87H60.94V43.68a1,1,0,0,0-1-1H48.74V36.55h11.2a1,1,0,0,0,1-1V24.35h6.12v11.2A1,1,0,0,0,68.06,36.55Z"/><path class="cls-1" d="M64,12.16A27.45,27.45,0,1,0,91.45,39.61,27.48,27.48,0,0,0,64,12.16ZM81.26,43.68a1,1,0,0,1-1,1H69.06V55.87a1,1,0,0,1-1,1H59.94a1,1,0,0,1-1-1V44.68H47.74a1,1,0,0,1-1-1V35.55a1,1,0,0,1,1-1h11.2V23.35a1,1,0,0,1,1-1h8.12a1,1,0,0,1,1,1v11.2h11.2a1,1,0,0,1,1,1Z"/><path class="cls-1" d="M64,1A38.61,38.61,0,0,0,25.39,39.61C25.39,71.79,64,106.68,64,106.68s38.61-34.89,38.61-67.07A38.61,38.61,0,0,0,64,1Zm0,68.06A29.45,29.45,0,1,1,93.45,39.61,29.48,29.48,0,0,1,64,69.06Z"/><path class="cls-1" d="M127,127H1L23.35,84.32H41.48a167.3,167.3,0,0,0,21.85,24.44,1,1,0,0,0,1.34,0A171.6,171.6,0,0,0,86.52,84.32h16.09Z"/></g></svg>