<svg xmlns="http://www.w3.org/2000/svg" viewBox="0 0 128 128"><defs><style>.cls-1{fill:#a0aec0;}</style></defs><title>Prescription</title><g id="Prescription"><path class="cls-1" d="M119.87,72.13v42.68a12.2,12.2,0,0,1-24.39,0V72.13Z"/><rect class="cls-1" x="21.32" y="62.97" width="58.97" height="10.19"/><path class="cls-1" d="M93.48,114.81V1L84.94,5.06,76.39,1,67.85,5.06,59.32,1,50.79,5.06,42.25,1,33.72,5.06,25.19,1,16.66,5.06,8.13,1V114.81A12.21,12.21,0,0,0,20.32,127H100.4A14.16,14.16,0,0,1,93.48,114.81ZM50.81,18.29A17.26,17.26,0,1,1,33.55,35.55,17.27,17.27,0,0,1,50.81,18.29ZM20.32,112.24a1.5,1.5,0,0,1,0-3A1.5,1.5,0,0,1,20.32,112.24Zm0-12.19a1.5,1.5,0,0,1,0-3A1.5,1.5,0,0,1,20.32,100.05Zm0-12.2a1.5,1.5,0,0,1,0-3A1.5,1.5,0,0,1,20.32,87.85Zm61,23.89H30.48a1,1,0,0,1,0-2H81.29A1,1,0,0,1,81.29,111.74Zm0-12.19H30.48a1,1,0,0,1,0-2H81.29A1,1,0,0,1,81.29,99.55Zm0-12.2H30.48a1,1,0,0,1,0-2H81.29A1,1,0,0,1,81.29,87.35Zm1-13.19a1,1,0,0,1-1,1h-61a1,1,0,0,1-1-1V62a1,1,0,0,1,1-1h61a1,1,0,0,1,1,1Z"/><path class="cls-1" d="M50.81,50.81A15.26,15.26,0,1,0,35.55,35.55,15.27,15.27,0,0,0,50.81,50.81ZM42.68,34.55h7.13V27.42a1,1,0,0,1,2,0v7.13h7.13a1,1,0,0,1,0,2H51.81v7.13a1,1,0,0,1-2,0V36.55H42.68A1,1,0,0,1,42.68,34.55Z"/></g></svg>