<svg xmlns="http://www.w3.org/2000/svg" viewBox="0 0 128 128"><defs><style>.cls-1{fill:#a0aec0;}</style></defs><title>Radio Active</title><g id="Radio_Active" data-name="Radio Active"><path class="cls-1" d="M73.48,78.42l14.25,24.67a45.87,45.87,0,0,0,22-38.09H81.23A17.34,17.34,0,0,1,73.48,78.42Z"/><path class="cls-1" d="M46.77,65H18.27a45.87,45.87,0,0,0,22,38.09L54.52,78.42A17.34,17.34,0,0,1,46.77,65Z"/><circle class="cls-1" cx="64" cy="64" r="7.13"/><path class="cls-1" d="M71.75,48.57,86,23.91a45.65,45.65,0,0,0-44,0L56.25,48.57A17.33,17.33,0,0,1,71.75,48.57Z"/><path class="cls-1" d="M64,10.13A53.87,53.87,0,1,0,117.87,64,53.92,53.92,0,0,0,64,10.13ZM39.85,22.92c.41-.54,10.72-6.66,24.15-6.66,13,0,23.59,5.92,24.15,6.66A1.06,1.06,0,0,1,88.24,24C71.69,52.68,73,50.73,72.39,50.88a1,1,0,0,1-.76-.1,15.54,15.54,0,0,0-15.26,0,1,1,0,0,1-.76.1c-.58-.15.72,1.83-15.85-26.84A1,1,0,0,1,39.85,22.92ZM56.74,78.58c-15.57,27-15.39,27.41-16.58,26.76C26.67,98,16.26,82,16.26,64a1,1,0,0,1,1-1H47.74a1,1,0,0,1,1,1,15.32,15.32,0,0,0,7.63,13.22A1,1,0,0,1,56.74,78.58ZM64,73.13A9.13,9.13,0,1,1,73.13,64,9.15,9.15,0,0,1,64,73.13Zm23.87,32.2a1,1,0,0,1-1.42-.47C69.87,76.17,71,78.4,71.16,77.82a1,1,0,0,1,.47-.6A15.32,15.32,0,0,0,79.26,64a1,1,0,0,1,1-1h30.48a1,1,0,0,1,1,1A47.87,47.87,0,0,1,87.87,105.33Z"/><path class="cls-1" d="M64,1a63,63,0,1,0,63,63A63,63,0,0,0,64,1Zm0,118.87A55.87,55.87,0,1,1,119.87,64,55.93,55.93,0,0,1,64,119.87Z"/></g></svg>