<svg xmlns="http://www.w3.org/2000/svg" viewBox="0 0 128 128"><defs><style>.cls-1{fill:#a0aec0;}</style></defs><title>Sample Tube</title><g id="Sample_Tube" data-name="Sample Tube"><path class="cls-1" d="M1,41.65V127H127V41.65Zm117.87,77.22H9.13V49.77H118.87Z"/><path class="cls-1" d="M17.26,96.52a10.16,10.16,0,1,0,20.32,0V51.77H17.26Z"/><path class="cls-1" d="M90.42,51.77V96.52a10.16,10.16,0,0,0,20.32,0V51.77Z"/><path class="cls-1" d="M53.84,96.52a10.16,10.16,0,1,0,20.32,0V51.77H53.84Z"/><path class="cls-1" d="M37.58,9.13H17.26a4.07,4.07,0,1,1,0-8.13H37.58a4.07,4.07,0,1,1,0,8.13Z"/><path class="cls-1" d="M74.16,9.13H53.84a4.07,4.07,0,1,1,0-8.13H74.16a4.07,4.07,0,1,1,0,8.13Z"/><rect class="cls-1" x="17.26" y="11.13" width="20.32" height="28.52"/><rect class="cls-1" x="53.84" y="11.13" width="20.32" height="28.52"/><rect class="cls-1" x="90.42" y="11.13" width="20.32" height="28.52"/><path class="cls-1" d="M110.74,9.13H90.42a4.07,4.07,0,1,1,0-8.13h20.32a4.07,4.07,0,1,1,0,8.13Z"/></g></svg>