<svg id="Sex" xmlns="http://www.w3.org/2000/svg" viewBox="0 0 128 128"><defs><style>.cls-1{fill:#a0aec0;}</style></defs><title>Sex</title><path class="cls-1" d="M63.2,35.21a24.8,24.8,0,0,0-6.09,5.42c6.26,8.85,7.06,21.54-1.23,32.09-16,19.1-46.74,7.61-46.74-16.85C9.14,35.69,30.74,23.31,48,32.6a34.32,34.32,0,0,1,6.08-5.82C31.68,12.31,1,28.23,1,55.87A34.52,34.52,0,0,0,31.48,90.14v16.52H23.36v8.12h8.12v8.13h8.13v-8.13h8.12v-8.12H39.61V90.14C65.63,87.16,79.23,56.57,63.2,35.21Z"/><path class="cls-1" d="M127,5.09H108.67l6.16,6.16L97.26,28.57a34.51,34.51,0,0,0-48.74,48,24.71,24.71,0,0,0,6.09-5.43A26.39,26.39,0,0,1,62,33.63c17-11.06,40.78,1.06,40.63,22.43A26.44,26.44,0,0,1,63.66,79.14a36.27,36.27,0,0,1-6,5.83,34.14,34.14,0,0,0,18.56,5.44c28.9,0,44.74-33.31,27.2-55.76l17.55-17.31,6,6Z"/></svg>