<svg xmlns="http://www.w3.org/2000/svg" viewBox="0 0 128 128"><defs><style>.cls-1{fill:#a0aec0;}</style></defs><title>Skull</title><g id="Skull"><path class="cls-1" d="M108.71,37.58C108.71,9.13,86.35,1,64,1S19.29,9.13,19.29,37.58a110.31,110.31,0,0,0,6,34.24,7.27,7.27,0,0,0-1.94,4.37c0,5.65,5.38,7.9,10.17,10.16,4.06,2,8.13,2,8.13,6.1S64,98.55,64,98.55s22.35-2,22.35-6.1,4.07-4.06,8.13-6.1c4.88-2.3,10.17-4.54,10.17-10.16a7.27,7.27,0,0,0-1.94-4.37A110.31,110.31,0,0,0,108.71,37.58ZM41.65,72.13c-10.17,0-12.2-12.19-10.17-18.29s16.26-10.16,22.36-4.07S51.81,72.13,41.65,72.13ZM72.13,84.32c-2,4.07-8.13,0-8.13,0s-6.1,4.07-8.13,0S59.94,70.1,64,70.1,74.16,80.26,72.13,84.32ZM86.35,72.13c-10.16,0-18.29-16.26-12.19-22.36s20.32-2,22.36,4.07S96.52,72.13,86.35,72.13Z"/><path class="cls-1" d="M63,100.46c-1.16-.12-3.44-.37-6.13-.76v6.53a55.25,55.25,0,0,0,6.13.43Z"/><path class="cls-1" d="M71.13,108.26a58.65,58.65,0,0,1-6.13.41v6.12a51.21,51.21,0,0,0,6.13-.42Z"/><path class="cls-1" d="M63,108.67a58.65,58.65,0,0,1-6.13-.41v6.11a51.21,51.21,0,0,0,6.13.42Z"/><path class="cls-1" d="M73.13,105.93a37.62,37.62,0,0,0,6.13-1.6v-6.1c-2,.47-4.07.84-6.13,1.17Z"/><path class="cls-1" d="M85.35,96.22a21.51,21.51,0,0,1-4.09,1.5v5.8a18.65,18.65,0,0,0,4.09-2.39Z"/><path class="cls-1" d="M54.87,108a40.18,40.18,0,0,1-6.13-1.5v5.65a24.36,24.36,0,0,0,6.13,1.94Z"/><path class="cls-1" d="M46.74,97.72a21.51,21.51,0,0,1-4.09-1.5v4.91a18.39,18.39,0,0,0,4.09,2.39Z"/><path class="cls-1" d="M71.13,99.7c-2.69.39-5,.64-6.13.76v6.2a55.25,55.25,0,0,0,6.13-.43Z"/><path class="cls-1" d="M96.52,102.61c-1.26-2.49-1-9.64-.56-14.74-5.29,2.44-7.61,2.39-7.61,4.58a3.31,3.31,0,0,1-1,2.35v6.78c0,1.38-4.81,3.62-6.09,4.15V111a15.73,15.73,0,0,0,2.36-2A1,1,0,0,1,85,110.42c-3,3-8,6.39-21,6.39s-18-3.42-21-6.39A1,1,0,0,1,44.38,109a15.73,15.73,0,0,0,2.36,2v-5.23c-1.28-.53-6.09-2.77-6.09-4.15V94.8a3.31,3.31,0,0,1-1-2.35c0-2.23-2.41-2.16-7.61-4.58.42,5.1.7,12.25-.56,14.74-2,4.07-3.43,8.44,12.2,16.26,4.06,2,6.09,8.13,12.19,8.13H72.13c6.1,0,8.13-6.1,12.19-8.13C100,111.05,98.55,106.68,96.52,102.61Z"/><path class="cls-1" d="M48.74,104.33a36.7,36.7,0,0,0,6.13,1.59V99.4c-2.06-.33-4.1-.7-6.13-1.17Z"/><path class="cls-1" d="M79.26,106.47a40.18,40.18,0,0,1-6.13,1.5v6.09a24.36,24.36,0,0,0,6.13-1.94Z"/></g></svg>