<svg xmlns="http://www.w3.org/2000/svg" viewBox="0 0 128 128"><defs><style>.cls-1{fill:#a0aec0;}</style></defs><title>Sphygmomanometer</title><g id="Sphygmomanometer"><path class="cls-1" d="M46.77,8.13A7.13,7.13,0,0,0,39.65,1H1V62H39.65a7.13,7.13,0,0,0,7.12-7.13Z"/><path class="cls-1" d="M45.33,1a9.09,9.09,0,0,1,3.44,7.13V54.84A9.09,9.09,0,0,1,45.33,62H66V1Z"/><path class="cls-1" d="M116.84,37.87v9.87H100.58V37.87A20.18,20.18,0,0,0,116.84,37.87Z"/><path class="cls-1" d="M92.45,127h12.2a12.2,12.2,0,0,0,0-24.39H92.45a12.2,12.2,0,0,0,0,24.39Z"/><path class="cls-1" d="M79.63,120.9h-7.5V108.71h7.51A14.18,14.18,0,0,0,79.63,120.9Z"/><path class="cls-1" d="M108.71,1A18.29,18.29,0,1,0,127,19.29,18.29,18.29,0,0,0,108.71,1Zm0,28.42a2,2,0,0,1-1-3.72V17.26a1,1,0,0,1,2,0V25.7A2,2,0,0,1,108.71,29.42Z"/><path class="cls-1" d="M109.71,49.74V72.13A17.28,17.28,0,0,1,92.45,89.39H72.13A17.28,17.28,0,0,1,54.87,72.13V64h2v8.16A15.28,15.28,0,0,0,72.13,87.39H92.45a15.28,15.28,0,0,0,15.26-15.26V49.74Z"/><path class="cls-1" d="M70.13,113.72v2A25.42,25.42,0,0,1,46.74,90.42V64h2V90.42A23.4,23.4,0,0,0,70.13,113.72Z"/></g></svg>