<svg xmlns="http://www.w3.org/2000/svg" viewBox="0 0 128 128"><defs><style>.cls-1{fill:#a0aec0;}</style></defs><title>Stratcer</title><g id="Stratcer"><path class="cls-1" d="M7.1,82.29c18.43,0,17.29-.1,17.29,0V116.4a6.09,6.09,0,1,0,2,4.5v-9.46L64,97.58l37.61,13.86v5a6.09,6.09,0,1,0,2,4.5V82.29c0-.1-.67,0,17.29,0V76.16H7.1Zm19.29,27V83.72l34.72,12.8Zm1.89-27H99.72L64,95.45ZM66.89,96.52l34.72-12.8v25.59Z"/><path class="cls-1" d="M125,49.77V63.56A6,6,0,0,0,120.9,62H102.58v-6.1a7.11,7.11,0,0,0-7.1-7.1H50.77a7.12,7.12,0,0,0-7.09,7.1V74.16H55.9V62H45.68v-6.1a5.1,5.1,0,0,1,5.09-5.1H57.9V74.16H70.13V62H59.9V50.77H72.13V74.16H84.35V62H74.13V50.77H86.35V74.16H98.58V62H88.35V50.77h7.13a5.11,5.11,0,0,1,5.1,5.1V74.16H127V49.77A1,1,0,0,0,125,49.77Z"/><path class="cls-1" d="M41.68,62H7.1A6,6,0,0,0,3,63.56V49.77a1,1,0,0,0-2,0V74.16H41.68Z"/><path class="cls-1" d="M12.18,60H26.4a5.08,5.08,0,1,0,0-10.16H12.18a5.08,5.08,0,0,0,0,10.16Z"/><path class="cls-1" d="M12.16,3H26.42V7.1H19.29V21.32a6.1,6.1,0,0,0,6.1,6.1h1v6.1a1,1,0,0,0,2,0v-6.1h1a6.1,6.1,0,0,0,6.1-6.1V7.1H28.42V2a1,1,0,0,0-1-1H11.16a1,1,0,0,0-1,1V48.11a6.59,6.59,0,0,1,2-.3Z"/></g></svg>