<svg xmlns="http://www.w3.org/2000/svg" viewBox="0 0 128 128"><defs><style>.cls-1{fill:#a0aec0;}</style></defs><title>Surgery Room</title><g id="Surgery_Room" data-name="Surgery Room"><path class="cls-1" d="M37.58,118.87H90.42a6.1,6.1,0,0,1,6.1,6.1v2a0,0,0,0,1,0,0h-65a0,0,0,0,1,0,0v-2A6.1,6.1,0,0,1,37.58,118.87Z"/><rect class="cls-1" x="45.71" y="105.65" width="36.58" height="11.23"/><rect class="cls-1" x="55.87" y="87.35" width="16.26" height="16.29"/><rect class="cls-1" x="1" y="79.23" width="126" height="6.13"/><path class="cls-1" d="M1,72.13v5.1H36.58V66H7.1A6.1,6.1,0,0,0,1,72.13Z"/><rect class="cls-1" x="38.58" y="66.03" width="50.84" height="11.2"/><path class="cls-1" d="M120.9,66H91.42v11.2H127v-5.1A6.1,6.1,0,0,0,120.9,66Z"/><rect class="cls-1" x="33.52" y="17.23" width="60.97" height="6.13"/><path class="cls-1" d="M90.42,15.23c-54.45,0-52.84-.11-52.84,0A14.23,14.23,0,0,1,51.81,1H76.19A14.23,14.23,0,0,1,90.42,15.23Z"/><path class="cls-1" d="M45.71,31.45a6.1,6.1,0,0,1-6.1-6.1c0-.1-.67,0,12.2,0A6.1,6.1,0,0,1,45.71,31.45Z"/><path class="cls-1" d="M64,31.45a6.1,6.1,0,0,1-6.1-6.1c0-.1-.67,0,12.2,0A6.1,6.1,0,0,1,64,31.45Z"/><path class="cls-1" d="M82.29,31.45a6.1,6.1,0,0,1-6.1-6.1c0-.1-.67,0,12.2,0A6.1,6.1,0,0,1,82.29,31.45Z"/></g></svg>