<svg xmlns="http://www.w3.org/2000/svg" viewBox="0 0 128 128"><defs><style>.cls-1{fill:#a0aec0;}</style></defs><title>Syringe</title><g id="Syringe"><rect class="cls-1" x="34.4" y="78.02" width="9.89" height="21.27" transform="translate(-51.16 53.79) rotate(-45)"/><polygon class="cls-1" points="24.51 97.85 30.15 103.49 39.03 98.16 29.84 88.97 24.51 97.85"/><path class="cls-1" d="M126.71,20.1,107.9,1.29a1,1,0,0,0-1.41,1.42l3.76,3.76-14.1,14.1,11.28,11.28,14.1-14.1,3.76,3.76A1,1,0,0,0,126.71,20.1Z"/><path class="cls-1" d="M79.69,6.93a1,1,0,0,0-1.41,1.42l9.4,9.4L33,72.46,55.54,95l8.7-8.7c-.1,0,.08.09-5.65-5.64A1,1,0,0,1,60,79.28l5.64,5.64,6.11-6.11L68,75.05a1,1,0,0,1,1.42-1.41l3.76,3.76,6.11-6.11-5.64-5.64a1,1,0,0,1,1.41-1.42l5.64,5.65,6.11-6.11L83,60a1,1,0,0,1,1.41-1.42l3.76,3.76c0,.1,0,0,6.12-6.11-.1,0,.08.09-5.65-5.64a1,1,0,0,1,1.41-1.41l5.65,5.64,6.11-6.11c-.1,0,.05.06-3.77-3.76a1,1,0,0,1,1.42-1.41l3.76,3.76,7-7c10.19,10.19,9.52,9.7,10.11,9.7a1,1,0,0,0,.71-1.71Z"/><path class="cls-1" d="M1.29,125.29A1,1,0,0,0,2,127c.62,0-1.24,1.66,24.63-24.2l-1.42-1.42Z"/></g></svg>