<svg xmlns="http://www.w3.org/2000/svg" viewBox="0 0 128 128"><defs><style>.cls-1{fill:#a0aec0;}</style></defs><title>Syrup</title><g id="Syrup"><path class="cls-1" d="M22.32,45.71v-2h7.23a6.11,6.11,0,0,1,5.58,3.62l3.3,7.43A12.19,12.19,0,0,0,49.57,62H56.9V1H49.57A12.19,12.19,0,0,0,38.43,8.24l-3.3,7.43a6.11,6.11,0,0,1-5.58,3.62H22.32v-2a1,1,0,0,0-2,0V45.71A1,1,0,0,0,22.32,45.71Z"/><path class="cls-1" d="M21.32,84.32A10.16,10.16,0,0,0,31.48,74.16c0-10.16-10.16-18.29-10.16-18.29S11.16,64,11.16,74.16A10.16,10.16,0,0,0,21.32,84.32Z"/><path class="cls-1" d="M122.94,102.61H1S8.11,127,36.56,127c9.33,0,15.1-3.86,18.24-9.81a12.17,12.17,0,0,1,10.75-6.45h57.39a4.07,4.07,0,0,0,0-8.13Z"/><path class="cls-1" d="M105.68,1H58.9V62h46.78ZM82.29,48.74A17.26,17.26,0,1,1,99.55,31.48,17.28,17.28,0,0,1,82.29,48.74Z"/><path class="cls-1" d="M82.29,16.23A15.26,15.26,0,1,0,97.55,31.48,15.27,15.27,0,0,0,82.29,16.23Zm8.13,16.25H83.29v7.13a1,1,0,0,1-2,0V32.48H74.16a1,1,0,0,1,0-2h7.13V23.35a1,1,0,0,1,2,0v7.13h7.13A1,1,0,0,1,90.42,32.48Z"/><path class="cls-1" d="M122.94,1H107.68V62h15.26A4.07,4.07,0,0,0,127,57.9V5.06A4.06,4.06,0,0,0,122.94,1Z"/></g></svg>