<svg xmlns="http://www.w3.org/2000/svg" viewBox="0 0 128 128"><defs><style>.cls-1{fill:#a0aec0;}</style></defs><title>Thermometer</title><g id="Thermometer"><path class="cls-1" d="M8.42,113.48C2.06,119.84,1,120.33,1,122.69A4.31,4.31,0,0,0,5.31,127c2.38,0,2.89-1.1,9.21-7.42C14.42,119.58,8.54,113.48,8.42,113.48Z"/><path class="cls-1" d="M92.45,30.45a5.1,5.1,0,1,0,5.1,5.1A5.11,5.11,0,0,0,92.45,30.45Z"/><rect class="cls-1" x="58.16" y="51.72" width="23.87" height="12.37" transform="translate(-20.41 66.53) rotate(-45)"/><path class="cls-1" d="M109.75,1c-8.32,0-12.2,5.07-16.59,9.45l24.39,24.39C122.36,30,127,26.41,127,18.25A17.25,17.25,0,0,0,109.75,1Z"/><path class="cls-1" d="M91.74,11.87l-45.5,45.5C27.45,76.16,33.48,88.42,14.7,107.21c-4.77,4.77-5,4.86-4.86,4.86,6.79,6.8,6,6.09,6.09,6.09,7.26-7.25,14.56-15.18,29.78-20.63A67.42,67.42,0,0,0,70.63,81.76l45.5-45.5Zm-37.19,63C43.77,85.64,44.28,85.32,43.68,85.32a1,1,0,0,1-.71-1.7L53.13,73.45A1,1,0,0,1,54.55,74.87ZM85,54.55C65.1,74.47,66.63,73.13,66,73.13s.13.54-10.87-10.46a1,1,0,0,1,0-1.41L73.45,43a1,1,0,0,1,1.42,0L85,53.13A1,1,0,0,1,85,54.55Zm7.42-11.9a7.1,7.1,0,1,1,7.1-7.1A7.11,7.11,0,0,1,92.45,42.65Z"/></g></svg>