<svg xmlns="http://www.w3.org/2000/svg" viewBox="0 0 128 128"><defs><style>.cls-1{fill:#a0aec0;}</style></defs><title>USG</title><g id="USG"><path class="cls-1" d="M77,41.72c-10,14.91-48.59,14.85-58.53,0L33.54,22.89c5.19,4.71,23.21,4.71,28.4,0Z"/><path class="cls-1" d="M10.13,10.13V65H85.35V10.13Zm7.13,6.13h6.09a1,1,0,0,1,0,2H17.26A1,1,0,0,1,17.26,16.26Zm-.9,25.83c-.4-.82-1.24.64,16.38-21.39a1,1,0,0,1,1.67.18s2.14,3.51,13.33,3.51,13.32-3.48,13.33-3.51a1,1,0,0,1,1.68-.18c17.64,22,16.77,20.56,16.37,21.39-.26.52-6.66,12.75-31.38,12.75S16.62,42.61,16.36,42.09ZM78.23,58.9h-6.1a1,1,0,0,1,0-2h6.1A1,1,0,0,1,78.23,58.9Z"/><path class="cls-1" d="M1,1V74.16H94.48V1ZM87.35,66a1,1,0,0,1-1,1H9.13a1,1,0,0,1-1-1V9.13a1,1,0,0,1,1-1H86.35a1,1,0,0,1,1,1Z"/><rect class="cls-1" x="12.16" y="97.52" width="32.55" height="6.13"/><path class="cls-1" d="M1,86.35v28.46H94.48V86.35Zm45.71,18.3a1,1,0,0,1-1,1H11.16a1,1,0,0,1-1-1V96.52a1,1,0,0,1,1-1H45.71a1,1,0,0,1,1,1Zm13.23,1H55.87a1,1,0,0,1,0-2h4.07A1,1,0,0,1,59.94,105.65Zm0-8.13H55.87a1,1,0,0,1,0-2h4.07A1,1,0,0,1,59.94,97.52Zm12.19,8.13H68.06a1,1,0,0,1,0-2h4.07A1,1,0,0,1,72.13,105.65Zm0-8.13H68.06a1,1,0,0,1,0-2h4.07A1,1,0,0,1,72.13,97.52Zm12.19,8.13H80.26a1,1,0,0,1,0-2h4.06A1,1,0,0,1,84.32,105.65Zm0-8.13H80.26a1,1,0,0,1,0-2h4.06A1,1,0,0,1,84.32,97.52Z"/><rect class="cls-1" x="25.39" y="76.16" width="44.71" height="8.19"/><path class="cls-1" d="M127,35.55v3.81c0,1.63-5.28,5.6-12.19,5.6s-12.2-4-12.2-5.6V35.55c0-2.25,5.46-6.1,12.2-6.1S127,33.3,127,35.55Z"/><path class="cls-1" d="M127,42.81v7l-8.13,4.07V68.06a4.07,4.07,0,1,1-8.13,0V53.84l-8.13-4.07v-7C108.75,48.27,120.78,48.34,127,42.81Z"/><path class="cls-1" d="M115.81,74.05V120.9a7.1,7.1,0,0,1-14.2,0V108.71a7.13,7.13,0,0,0-5.13-6.84V99.81a9.13,9.13,0,0,1,7.13,8.9V120.9a5.1,5.1,0,1,0,10.2,0V74.05A6.39,6.39,0,0,0,115.81,74.05Z"/></g></svg>