<svg xmlns="http://www.w3.org/2000/svg" viewBox="0 0 128 128"><defs><style>.cls-1{fill:#a0aec0;}</style></defs><title>Weight Scale</title><g id="Weight_Scale" data-name="Weight Scale"><path class="cls-1" d="M64,51.77A26.4,26.4,0,0,1,38.6,18.26H20.33a10.2,10.2,0,0,0-10.2,10.2c0,.79-.53-4.58,8.31,80.27a10.15,10.15,0,0,0,10.14,9.14H99.42a10.15,10.15,0,0,0,10.14-9.14l8.26-79.22a10.21,10.21,0,0,0-10.15-11.25H89.4A26.4,26.4,0,0,1,64,51.77Z"/><path class="cls-1" d="M107.67,9.13H84.76a26.43,26.43,0,0,1,4,7.13h18.91A12.2,12.2,0,0,1,119.8,29.72l-8.25,79.22a12.15,12.15,0,0,1-12.13,10.93H28.58a12.15,12.15,0,0,1-12.13-10.94C7.61,24.11,8.13,29.38,8.13,28.46a12.21,12.21,0,0,1,12.2-12.2H39.24a26.43,26.43,0,0,1,4-7.13H20.33A19.33,19.33,0,0,0,1.1,30.45l8.25,79.24A19.34,19.34,0,0,0,28.58,127H99.42a19.34,19.34,0,0,0,19.23-17.31c8.85-85,8.35-79.75,8.35-81.23A19.34,19.34,0,0,0,107.67,9.13Z"/><path class="cls-1" d="M64,1A24.39,24.39,0,1,0,88.39,25.39,24.39,24.39,0,0,0,64,1Zm0,41.65A17.26,17.26,0,1,1,81.26,25.39,17.28,17.28,0,0,1,64,42.65Z"/><path class="cls-1" d="M64,10.13A15.26,15.26,0,1,0,79.26,25.39,15.28,15.28,0,0,0,64,10.13Zm0,25.39a2,2,0,0,1-.94-3.76c-.08-.27-.06.76-.06-10.44a1,1,0,0,1,2,0c0,11.07,0,10.17-.06,10.44A2,2,0,0,1,64,35.52Z"/></g></svg>