<svg xmlns="http://www.w3.org/2000/svg" viewBox="0 0 128 128"><defs><style>.cls-1{fill:#a0aec0;}</style></defs><title>Wheelchair</title><g id="Wheelchair"><path class="cls-1" d="M90.42,53.84A36.58,36.58,0,1,0,127,90.42,36.58,36.58,0,0,0,90.42,53.84Zm0,65a28.45,28.45,0,1,1,28.45-28.45A28.45,28.45,0,0,1,90.42,118.87Z"/><circle class="cls-1" cx="90.42" cy="90.42" r="3"/><path class="cls-1" d="M90.42,82.29a8.13,8.13,0,1,0,8.13,8.13A8.13,8.13,0,0,0,90.42,82.29Zm0,13.13a5,5,0,1,1,5-5A5,5,0,0,1,90.42,95.42Z"/><path class="cls-1" d="M89.42,100.5v16.35c.88,0,1.12,0,2,0V100.5A9.55,9.55,0,0,1,89.42,100.5Z"/><path class="cls-1" d="M67,78.07l14.15,8.17a10.54,10.54,0,0,1,1-1.73L68.05,76.34A20,20,0,0,0,67,78.07Z"/><path class="cls-1" d="M98.65,96.33l14.14,8.16a19.83,19.83,0,0,0,1-1.72L99.65,94.6A10.54,10.54,0,0,1,98.65,96.33Z"/><path class="cls-1" d="M99.65,86.24l14.15-8.17a20,20,0,0,0-1-1.73L98.65,84.51A10.54,10.54,0,0,1,99.65,86.24Z"/><path class="cls-1" d="M67,102.77a19.83,19.83,0,0,0,1,1.72l14.14-8.16a10.54,10.54,0,0,1-1-1.73Z"/><circle class="cls-1" cx="31.48" cy="116.84" r="3"/><path class="cls-1" d="M23.35,110.77l2.72-16.32c-1.58,0-1.86,0-2,0l-3.56,21.4H1a1,1,0,0,0,0,2H21.37a10.16,10.16,0,0,0,20.28-1C41.65,107.15,29.22,102.92,23.35,110.77Zm8.13,11.07a5,5,0,1,1,5-5A5,5,0,0,1,31.48,121.84Z"/><path class="cls-1" d="M24.37,82.29a5.08,5.08,0,0,0,0,10.16H51.89a38.43,38.43,0,0,1,.82-10.16Z"/><rect class="cls-1" x="30.48" y="55.84" width="2" height="24.45"/><path class="cls-1" d="M91.42,80.34V64c-.88,0-1.12,0-2,0V80.34A9.55,9.55,0,0,1,91.42,80.34Z"/><path class="cls-1" d="M91.42,51.85V45.71H35.55a8.13,8.13,0,0,0-8.13,8.13H78.15A38.48,38.48,0,0,1,91.42,51.85Z"/><path class="cls-1" d="M89.42,43.71h2V13.19a7.14,7.14,0,0,1,7.13-7.13h8.13V9.13h16.26a4.07,4.07,0,0,0,0-8.13H106.68V4.06H98.55a9.14,9.14,0,0,0-9.13,9.2,8.12,8.12,0,0,0-7.13,8.06V43.71Z"/></g></svg>