<svg xmlns="http://www.w3.org/2000/svg" viewBox="0 0 128 128"><defs><style>.cls-1{fill:#a0aec0;}</style></defs><title>Xray</title><g id="Xray"><path class="cls-1" d="M60.18,34.47c.47,5.15.75,17,.75,20.31,0,1.87,1.17,5.3,3.07,5.3s3.07-3.43,3.07-5.3c0-2.86.29-15.75.75-20.32.59-7,1.4-5.44.76-6.61A9.84,9.84,0,0,0,64,24.36a10,10,0,0,0-4.57,3.49C58.8,29,59.6,27.55,60.18,34.47Z"/><path class="cls-1" d="M51,56.9a24.3,24.3,0,0,0,7.94-4.14c0-1.92-.08-4.25-.15-6.69-3.08,2.81-8,4.64-10.86,4.64a7.73,7.73,0,0,1-5.68-2.39,55.76,55.76,0,0,0,.4,7C43.29,56.08,46,58.63,51,56.9Z"/><path class="cls-1" d="M77,50.22a19.63,19.63,0,0,1-7.74-4.15c-.07,2.44-.12,4.77-.15,6.69a24.49,24.49,0,0,0,8,4.14c4.93,1.73,7.68-.82,8.34-1.54a56,56,0,0,0,.4-7C83.37,50.76,80.26,51.21,77,50.22Z"/><path class="cls-1" d="M58.67,43.22c-.08-2.07-.18-4.13-.3-6-3.07,2.85-10.06,5.86-14.53,2.36a33,33,0,0,0-1.37,5.75C45.94,52.13,56.09,46.84,58.67,43.22Z"/><path class="cls-1" d="M69.63,37.22c-.12,1.87-.22,3.93-.3,6,2.59,3.63,12.73,8.9,16.2,2.11a33,33,0,0,0-1.37-5.75C79.65,43.11,72.57,40,69.63,37.22Z"/><path class="cls-1" d="M55.87,93.45c-3,0-2.64,4.7.45,6.24,4.19,2.09,4,4,7.68,4s3.5-1.87,7.68-4c3-1.53,3.43-6.24.45-6.24-3.55,0-5.33,6.1-8.13,6.1S59.38,93.45,55.87,93.45Z"/><path class="cls-1" d="M78.84,82C71,82,69.67,90.11,64,90.11S57,82,49.16,82c-4.63,0-6.51,2.44-6.51,8.42,0,7.67,8.12,8.23,8.12,13.71,0,4.14,2.75,5.61,5.1,5.61s3.68-2.75,5.29-4.54c-2.1-.78-2.82-2.27-5.74-3.72-5-2.52-4.68-10,.45-10,4.43,0,7,6.1,8.13,6.1s3.68-6.1,8.13-6.1c5.16,0,5.45,7.52.45,10-2.89,1.44-3.65,3-5.74,3.72,1.62,1.79,2.92,4.54,5.29,4.54s5.1-1.47,5.1-5.61c0-5.47,8.12-6,8.12-13.71C85.35,84.44,83.47,82,78.84,82Z"/><path class="cls-1" d="M80.22,59.48c-3.39,0-8.58-2.44-11.17-4.22a9.94,9.94,0,0,1-1.89,5.16c1.74,2.93,9.94,6.64,13.1,6.64A2.9,2.9,0,0,0,83.43,65,50.45,50.45,0,0,0,85,58.18,9.15,9.15,0,0,1,80.22,59.48Z"/><rect class="cls-1" x="95.48" y="107.68" width="16.29" height="8.16"/><path class="cls-1" d="M5.06,1V127H122.94V1ZM62,16.26H66a1,1,0,0,1,0,2H62A1,1,0,0,1,62,16.26Zm-30.49,4H15.23a1,1,0,0,1,0-2H31.48A1,1,0,0,1,31.48,20.29Zm0-8.13H15.23a1,1,0,0,1,0-2H31.48A1,1,0,0,1,31.48,12.16Zm47.75,92c0,5.23-3.68,7.61-7.1,7.61-4.57,0-6.25-6.09-8.13-6.09s-3.56,6.09-8.13,6.09c-3.42,0-7.1-2.38-7.1-7.61,0-3.94-8.12-5.21-8.12-13.71,0-7,2.78-10.42,8.51-10.42,8.49,0,10.62,8.11,14.84,8.11S70.29,80,78.84,80c5.73,0,8.51,3.41,8.51,10.42C87.35,98.92,79.23,100.19,79.23,104.13ZM62,73.16H66a1,1,0,0,1,0,2H62A1,1,0,0,1,62,73.16Zm0-6.1H66a1,1,0,0,1,0,2H62A1,1,0,0,1,62,67.06Zm0,12.2H66a1,1,0,0,1,0,2H62A1,1,0,0,1,62,79.26ZM87.42,23.62c-.54-.53-3.91-1.3-11.23-1.3-1.65,0-3,1.52-3.89,2.95,8.52-2,15.48,13.6,15.48,23.24a60.07,60.07,0,0,1-2.43,17.05c-.27,1.25-1.66,3.5-5.09,3.5s-12-3.6-14.63-7.37a3.57,3.57,0,0,1-3.26,0c-2.59,3.77-11.19,7.37-14.63,7.37s-4.82-2.25-5.09-3.5a60.07,60.07,0,0,1-2.43-17.05c0-9.69,7-25.24,15.49-23.24-.94-1.48-2.31-2.95-3.9-2.95-7.32,0-10.69.77-11.23,1.3a1,1,0,0,1-1.95-.44c.15-.85.49-2.86,13.18-2.86,3.42,0,5.62,3.66,6.54,5.6,1.58-1.89,4.5-3.57,5.65-3.57s4.07,1.68,5.65,3.57c.92-1.94,3.12-5.6,6.54-5.6,12.69,0,13,2,13.18,2.86A1,1,0,0,1,87.42,23.62Zm26.35,93.22a1,1,0,0,1-1,1H94.48a1,1,0,0,1-1-1V106.68a1,1,0,0,1,1-1h18.29a1,1,0,0,1,1,1Z"/><path class="cls-1" d="M58.17,34.37a20.51,20.51,0,0,0-.69-4.68,2.58,2.58,0,0,1-.25-1.52C52,24.36,47,31.56,44.58,37.56,48.26,41.46,56.53,37.34,58.17,34.37Z"/><path class="cls-1" d="M70.52,29.69a20.51,20.51,0,0,0-.69,4.68c1.64,3,9.89,7.09,13.58,3.19-2.41-6-7.44-13.2-12.64-9.39A2.58,2.58,0,0,1,70.52,29.69Z"/><path class="cls-1" d="M59,55.26c-2.62,1.79-7.79,4.22-11.17,4.22A9.15,9.15,0,0,1,43,58.18,50.45,50.45,0,0,0,44.57,65a2.91,2.91,0,0,0,3.17,2.07c3.16,0,11.36-3.71,13.1-6.64A9.94,9.94,0,0,1,59,55.26Z"/></g></svg>