<svg xmlns="http://www.w3.org/2000/svg" xmlns:xlink="http://www.w3.org/1999/xlink" viewBox="0 0 128 128"><defs><style>.cls-1{fill:url(#linear-gradient);}.cls-2{fill:url(#linear-gradient-2);}.cls-3{fill:#dd4e6a;}.cls-4{fill:url(#linear-gradient-3);}.cls-5{fill:#47566a;}</style><linearGradient id="linear-gradient" x1="78.89" y1="79.1" x2="78.89" y2="7.1" gradientUnits="userSpaceOnUse"><stop offset="0" stop-color="#da5466"/><stop offset="1" stop-color="#e87092"/></linearGradient><linearGradient id="linear-gradient-2" x1="38.6" y1="127" x2="38.6" y2="79.1" xlink:href="#linear-gradient"/><linearGradient id="linear-gradient-3" x1="74.51" y1="127" x2="74.51" y2="7.1" xlink:href="#linear-gradient"/></defs><title>Aids</title><g id="Aids"><path class="cls-1" d="M92.86,38.9c-3,14.32-9,27.77-16.32,40.2L64,62.31c7.35-10.93,15.26-25.18,18.7-37.84,2.19-8.09,2.17-14.28-.41-17.37,0,0,4.06,2,8.13,10.16S94.26,32.09,92.86,38.9Z"/><path class="cls-2" d="M64,97.72C55.42,109.15,44.09,121.24,37.58,127l-6.1-12.19H13.19A197.66,197.66,0,0,0,51.46,79.1Z"/><path class="cls-3" d="M82.7,24.47A44.43,44.43,0,0,0,64,19.29a44.43,44.43,0,0,0-18.7,5.18c-2.19-8.09-2.17-14.28.41-17.37,0,0,6.1-6.1,18.29-6.1S82.29,7.1,82.29,7.1C84.87,10.19,84.89,16.38,82.7,24.47Z"/><path class="cls-3" d="M51.46,79.1,64,97.72c-.85,1.13-1.73,2.25-2.56,3.33A203.38,203.38,0,0,1,48.68,82.37C49.63,81.27,50.57,80.2,51.46,79.1Z"/><path class="cls-3" d="M78.71,75.34c-.71,1.28-1.44,2.52-2.17,3.76L64,62.31c.83-1.24,1.65-2.48,2.44-3.72A194.88,194.88,0,0,0,78.71,75.34Z"/><path class="cls-4" d="M114.81,114.81H96.52L90.42,127C66.64,106,41.68,70.59,35.14,38.9c-1.4-6.81-1.62-13.51,2.44-21.64S45.71,7.1,45.71,7.1C35.39,19.45,65.38,80.15,114.81,114.81Z"/><path class="cls-5" d="M115.38,114A195.14,195.14,0,0,1,77.76,79c8-13.62,13.43-27,16.08-39.89,1.3-6.34,1.9-13.43-2.53-22.29C87.52,9.22,83.68,6.74,82.89,6.29c-8.75-8.24-28.6-8.51-37.75,0-.74.42-4.62,2.88-8.45,10.54-4.43,8.86-3.83,16-2.53,22.29C36.81,52,42.22,65.37,50.24,79a195.14,195.14,0,0,1-37.62,35,1,1,0,0,0,.57,1.82H30.87l5.82,11.64a1,1,0,0,0,1.55.3A222.35,222.35,0,0,0,64,99.36C74.79,113.44,89.23,128,90.42,128c.86,0,.48.27,6.71-12.19h17.68A1,1,0,0,0,115.38,114ZM89.52,17.71c4.16,8.31,3.59,15,2.36,21-2.57,12.43-7.77,25.43-15.47,38.64-4-5-7.8-10-11.2-15C73.08,50.48,87.74,24.61,85,10.74A31.66,31.66,0,0,1,89.52,17.71ZM64,60.5C55.58,47.75,49.4,35.22,46.49,25c5.87-3.05,13.3-4.69,17.51-4.69S75.64,21.93,81.51,25C78.6,35.22,72.42,47.75,64,60.5ZM81.52,7.74c2.89,3.45,1.6,10.9.52,15.26a45,45,0,0,0-18-4.71A45.11,45.11,0,0,0,46,23c-1.09-4.37-2.34-11.78.51-15.23C46.89,7.36,52.79,2,64,2,75.58,2,81.52,7.74,81.52,7.74ZM37.88,125.37c-5.85-11.7-5.53-11.56-6.4-11.56H16.31a198.4,198.4,0,0,0,35-33A196.92,196.92,0,0,0,62.75,97.7,229,229,0,0,1,37.88,125.37Zm58.64-11.56c-.88,0-.55-.14-6.4,11.56-23.47-21.77-47.45-54.93-54-86.67-1.23-6-1.8-12.68,2.36-21a32,32,0,0,1,4.56-7c-3.82,19,25.52,71.68,68.65,103.08Z"/></g></svg>