<svg xmlns="http://www.w3.org/2000/svg" xmlns:xlink="http://www.w3.org/1999/xlink" viewBox="0 0 128 128"><defs><style>.cls-1{fill:url(#linear-gradient);}.cls-2{fill:#c7cdd8;}.cls-3{fill:url(#linear-gradient-2);}.cls-4{fill:url(#linear-gradient-3);}.cls-5{fill:#42455e;}.cls-6{fill:url(#linear-gradient-4);}.cls-7{fill:url(#linear-gradient-5);}.cls-8{fill:url(#linear-gradient-6);}.cls-9{fill:url(#linear-gradient-7);}.cls-10{fill:#77cacb;}.cls-11{fill:#dd4e6a;}.cls-12{fill:url(#linear-gradient-8);}.cls-13{fill:url(#linear-gradient-9);}.cls-14{fill:#47566a;}</style><linearGradient id="linear-gradient" x1="64" y1="94.48" x2="64" y2="29.46" gradientUnits="userSpaceOnUse"><stop offset="0" stop-color="#d4d8e1"/><stop offset="1" stop-color="#f3f4f5"/></linearGradient><linearGradient id="linear-gradient-2" x1="102.6" y1="106.67" x2="102.6" y2="82.29" gradientUnits="userSpaceOnUse"><stop offset="0" stop-color="#454b60"/><stop offset="1" stop-color="#575f7c"/></linearGradient><linearGradient id="linear-gradient-3" x1="25.38" y1="106.67" x2="25.38" y2="82.29" xlink:href="#linear-gradient-2"/><linearGradient id="linear-gradient-4" x1="53.83" y1="29.46" x2="53.83" y2="21.33" gradientUnits="userSpaceOnUse"><stop offset="0" stop-color="#da5466"/><stop offset="1" stop-color="#e87092"/></linearGradient><linearGradient id="linear-gradient-5" x1="29.45" y1="61.97" x2="29.45" y2="39.62" gradientUnits="userSpaceOnUse"><stop offset="0" stop-color="#9dd5df"/><stop offset="1" stop-color="#c3e1f5"/></linearGradient><linearGradient id="linear-gradient-6" x1="5.06" y1="86.35" x2="5.06" y2="74.16" gradientTransform="translate(10.13 160.51) rotate(-180)" gradientUnits="userSpaceOnUse"><stop offset="0" stop-color="#fbcc88"/><stop offset="1" stop-color="#ffe5c3"/></linearGradient><linearGradient id="linear-gradient-7" x1="100.56" y1="61.97" x2="100.56" y2="37.58" xlink:href="#linear-gradient-4"/><linearGradient id="linear-gradient-8" x1="102.61" y1="99.48" x2="102.61" y2="89.48" gradientUnits="userSpaceOnUse"><stop offset="0" stop-color="#949aaf"/><stop offset="1" stop-color="#c6ccda"/></linearGradient><linearGradient id="linear-gradient-9" x1="25.39" y1="99.48" x2="25.39" y2="89.48" xlink:href="#linear-gradient-8"/></defs><title>Ambulance</title><g id="Ambulance"><path class="cls-1" d="M127,94.48H1V71.88a8.11,8.11,0,0,1,5.57-7.7L13.19,62l14-28a8.16,8.16,0,0,1,7.28-4.49h82.8a8.12,8.12,0,0,1,8.1,7.68C127.3,71.81,127,58.66,127,94.48Z"/><rect class="cls-2" x="1" y="88.38" width="125.98" height="6.1"/><circle class="cls-3" cx="102.6" cy="94.48" r="12.19"/><circle class="cls-4" cx="25.38" cy="94.48" r="12.19"/><path class="cls-5" d="M102.6,106.67a12.18,12.18,0,0,1-12-14.22c2.23,13.49,21.78,13.48,24,0A12.19,12.19,0,0,1,102.6,106.67Z"/><path class="cls-5" d="M25.38,106.67a12.18,12.18,0,0,1-12-14.22c2.24,13.49,21.79,13.48,24,0A12.18,12.18,0,0,1,25.38,106.67Z"/><polygon class="cls-6" points="66.02 29.46 41.64 29.46 45.7 21.33 61.96 21.33 66.02 29.46"/><polygon class="cls-7" points="45.7 39.62 45.7 61.97 13.19 61.97 24.37 39.62 45.7 39.62"/><path class="cls-8" d="M5.06,74.16H9.13a0,0,0,0,1,0,0V86.35a0,0,0,0,1,0,0H5.06A4.06,4.06,0,0,1,1,82.29V78.22A4.06,4.06,0,0,1,5.06,74.16Z" transform="translate(10.13 160.51) rotate(180)"/><polygon class="cls-9" points="88.37 45.71 96.5 45.71 96.5 37.59 104.63 37.59 104.63 45.71 112.76 45.71 112.76 53.84 104.63 53.84 104.63 61.97 96.5 61.97 96.5 53.84 88.37 53.84 88.37 45.71"/><polygon class="cls-10" points="45.7 55.87 45.7 61.97 13.19 61.97 16.24 55.87 45.7 55.87"/><polygon class="cls-11" points="66.02 29.46 41.64 29.46 43.67 25.39 63.99 25.39 66.02 29.46"/><rect class="cls-11" x="96.5" y="55.87" width="8.13" height="6.1"/><circle class="cls-12" cx="102.61" cy="94.48" r="5"/><circle class="cls-13" cx="25.39" cy="94.48" r="5"/><path class="cls-14" d="M102.61,88.48a6,6,0,1,0,6,6A6,6,0,0,0,102.61,88.48Zm0,10a4,4,0,1,1,4-4A4,4,0,0,1,102.61,98.48Z"/><path class="cls-14" d="M25.39,88.48a6,6,0,1,0,6,6A6,6,0,0,0,25.39,88.48Zm0,10a4,4,0,1,1,4-4A4,4,0,0,1,25.39,98.48Z"/><path class="cls-14" d="M126.39,37.08a9.13,9.13,0,0,0-9.1-8.63H66.65l-3.79-7.57c-.39-.79.28-.56-17.15-.56-.84,0-.55-.14-4.68,8.13H34.47A9.23,9.23,0,0,0,26.3,33.5L12.48,61.15,6.26,63.23A9.08,9.08,0,0,0,0,71.89V94.48a1,1,0,0,0,1,1H12.24a13.18,13.18,0,0,0,26.29,0H89.47a13.18,13.18,0,0,0,26.29,0H127a1,1,0,0,0,1-1C128,59.71,128.33,72,126.39,37.08Zm-2,.11c1.84,33.17,1.6,27.65,1.6,31.91H54.84V30.45h62.45A7.14,7.14,0,0,1,124.4,37.19ZM46.33,22.32h15l3.06,6.13H43.26ZM25,40.61H44.71V61H14.81ZM2,75.16H5.06a3.08,3.08,0,0,1,3.07,3.07v4.06a3.07,3.07,0,0,1-3.07,3.06H2ZM2,87.35H5.06a5.07,5.07,0,0,0,5.07-5.06V78.23a5.07,5.07,0,0,0-5.07-5.07H2V71.89a7.09,7.09,0,0,1,4.89-6.76L13.36,63H45.71a1,1,0,0,0,1-1V39.61a1,1,0,0,0-1-1H26l2.11-4.22a7.21,7.21,0,0,1,6.38-3.94H52.84v63H38.53a13.18,13.18,0,0,0-26.29,0H2Zm23.39,18.33a11.2,11.2,0,1,1,11.19-11.2A11.21,11.21,0,0,1,25.39,105.68Zm77.22,0a11.2,11.2,0,1,1,11.2-11.2A11.21,11.21,0,0,1,102.61,105.68Zm13.15-12.2a13.18,13.18,0,0,0-26.29,0H54.84V71.1H126V93.48Z"/><path class="cls-14" d="M41.65,71.1h4.06a1,1,0,0,0,0-2H41.65A1,1,0,0,0,41.65,71.1Z"/><path class="cls-14" d="M88.39,54.84h7.13V62a1,1,0,0,0,1,1h8.13a1,1,0,0,0,1-1V54.84h7.12a1,1,0,0,0,1-1V45.71a1,1,0,0,0-1-1h-7.12V37.58a1,1,0,0,0-1-1H96.52a1,1,0,0,0-1,1v7.13H88.39a1,1,0,0,0-1,1v8.13A1,1,0,0,0,88.39,54.84Zm1-8.13h7.13a1,1,0,0,0,1-1V38.58h6.13v7.13a1,1,0,0,0,1,1h7.12v6.13h-7.12a1,1,0,0,0-1,1V61H97.52V53.84a1,1,0,0,0-1-1H89.39Z"/></g></svg>