<svg xmlns="http://www.w3.org/2000/svg" xmlns:xlink="http://www.w3.org/1999/xlink" viewBox="0 0 128 128"><defs><style>.cls-1{fill:url(#linear-gradient);}.cls-2{fill:url(#linear-gradient-2);}.cls-3{fill:url(#linear-gradient-3);}.cls-4{fill:#cba07a;}.cls-5{fill:url(#linear-gradient-4);}.cls-6{fill:#47566a;}</style><linearGradient id="linear-gradient" x1="64" y1="126.95" x2="64" y2="1.06" gradientUnits="userSpaceOnUse"><stop offset="0" stop-color="#d1a788"/><stop offset="1" stop-color="#f2d3b8"/></linearGradient><linearGradient id="linear-gradient-2" x1="64" y1="126.95" x2="64" y2="1.06" xlink:href="#linear-gradient"/><linearGradient id="linear-gradient-3" x1="64" y1="126.95" x2="64" y2="1.03" xlink:href="#linear-gradient"/><linearGradient id="linear-gradient-4" x1="64" y1="85.85" x2="64" y2="42.16" gradientTransform="translate(-26.51 64) rotate(-45)" gradientUnits="userSpaceOnUse"><stop offset="0" stop-color="#9b756d"/><stop offset="1" stop-color="#bc9388"/></linearGradient></defs><title>Band Aids</title><g id="Band_Aids" data-name="Band Aids"><path class="cls-1" d="M127,102.54c0,21.86-26.46,32.47-41.67,17.26C1.21,35.73,5.49,41,2.92,34.8A24.4,24.4,0,0,1,42.72,8.2c84.35,84.35,79.86,79,82.36,85A24.26,24.26,0,0,1,127,102.54Z"/><path class="cls-2" d="M25.46,127C3.75,127-7.08,100.57,8.2,85.28L85.28,8.21a24.39,24.39,0,0,1,17.26-7.15c21.71,0,32.54,26.38,17.26,41.66L42.72,119.8A24.39,24.39,0,0,1,25.46,127Z"/><path class="cls-3" d="M127,25.46a24.51,24.51,0,0,1-7.15,17.26L42.72,119.8C27.51,135,1.05,124.39,1.05,102.54A24.52,24.52,0,0,1,8.2,85.28L85.28,8.2C100.7-7.22,127,3.91,127,25.46Z"/><path class="cls-4" d="M85.28,119.8,61,95.48,95.47,61l3,3L67.05,95.48l18.23,18.23c14.39,14.39,39,5.74,41.46-14.21C130,122.19,101.75,136.27,85.28,119.8Z"/><path class="cls-4" d="M119.8,42.72,42.72,119.8C26.29,136.23-2,122.23,1.26,99.5c2.45,20,27.07,28.6,41.46,14.21,84.35-84.35,79.83-78.88,82.36-85a23.94,23.94,0,0,0,1.66-6.29A24.39,24.39,0,0,1,119.8,42.72Z"/><path class="cls-4" d="M61.14,26.62,32.71,55.05a4.31,4.31,0,0,1-6.09,0L8.2,36.63A24.4,24.4,0,0,1,1.26,22.42,24.16,24.16,0,0,0,2.92,34.8C5.36,40.68,6.57,41.09,29.48,64L64,29.48Z"/><rect class="cls-5" x="48.21" y="43.9" width="31.59" height="40.2" rx="8.54" transform="translate(64 -26.51) rotate(45)"/><path class="cls-6" d="M94.48,15.76a1.5,1.5,0,0,0,0,3A1.5,1.5,0,0,0,94.48,15.76Z"/><path class="cls-6" d="M102.61,23.89a1.5,1.5,0,0,0,0,3A1.5,1.5,0,0,0,102.61,23.89Z"/><path class="cls-6" d="M110.74,32a1.5,1.5,0,0,0,0,3A1.5,1.5,0,0,0,110.74,32Z"/><path class="cls-6" d="M78.23,35a1.5,1.5,0,0,0,0-3A1.5,1.5,0,0,0,78.23,35Z"/><path class="cls-6" d="M86.35,40.15a1.5,1.5,0,0,0,0,3A1.5,1.5,0,0,0,86.35,40.15Z"/><path class="cls-6" d="M94.48,48.27a1.5,1.5,0,0,0,0,3A1.5,1.5,0,0,0,94.48,48.27Z"/><path class="cls-6" d="M90.42,28a1.5,1.5,0,0,0,0,3A1.5,1.5,0,0,0,90.42,28Z"/><path class="cls-6" d="M98.55,36.08a1.5,1.5,0,0,0,0,3A1.5,1.5,0,0,0,98.55,36.08Z"/><path class="cls-6" d="M33.52,76.73a1.5,1.5,0,0,0,0,3A1.5,1.5,0,0,0,33.52,76.73Z"/><path class="cls-6" d="M41.65,84.85a1.5,1.5,0,0,0,0,3A1.5,1.5,0,0,0,41.65,84.85Z"/><path class="cls-6" d="M49.77,93a1.5,1.5,0,0,0,0,3A1.5,1.5,0,0,0,49.77,93Z"/><path class="cls-6" d="M17.26,93a1.5,1.5,0,0,0,0,3A1.5,1.5,0,0,0,17.26,93Z"/><path class="cls-6" d="M25.39,101.11a1.5,1.5,0,0,0,0,3A1.5,1.5,0,0,0,25.39,101.11Z"/><path class="cls-6" d="M33.52,109.24a1.5,1.5,0,0,0,0,3A1.5,1.5,0,0,0,33.52,109.24Z"/><path class="cls-6" d="M29.45,88.92a1.5,1.5,0,0,0,0,3A1.5,1.5,0,0,0,29.45,88.92Z"/><path class="cls-6" d="M37.58,97.05a1.5,1.5,0,0,0,0,3A1.5,1.5,0,0,0,37.58,97.05Z"/><path class="cls-6" d="M73.8,43.93a9.56,9.56,0,0,0-13.5,0L43.93,60.3a9.56,9.56,0,0,0,0,13.5L54.2,84.07a9.56,9.56,0,0,0,13.5,0L84.07,67.7a9.56,9.56,0,0,0,0-13.5Zm8.85,22.36L66.29,82.65a7.55,7.55,0,0,1-10.67,0L45.35,72.38a7.54,7.54,0,0,1,0-10.67L61.71,45.35a7.54,7.54,0,0,1,10.67,0L82.65,55.62A7.54,7.54,0,0,1,82.65,66.29Z"/><path class="cls-6" d="M120.55,84.59,100,64l20.59-20.59c16-16,4.51-43.41-18-43.41a25.27,25.27,0,0,0-18,7.45L64,28,43.41,7.45C27.53-8.43,0,2.72,0,25.43a25.52,25.52,0,0,0,7.45,18L28,64,7.45,84.59c-16,16-4.51,43.41,18,43.41a25.27,25.27,0,0,0,18-7.45L64,100l20.59,20.59a25.58,25.58,0,0,0,18,7.45C125.1,128,136.55,100.59,120.55,84.59ZM8.86,42C-5.77,27.36,4.51,2,25.43,2A23.61,23.61,0,0,1,42,8.86L62.59,29.45,29.45,62.59ZM42,119.14C27.27,133.86,2,123.3,2,102.57A23.31,23.31,0,0,1,8.86,86L86,8.86c14.73-14.72,40-4.16,40,16.57A23.31,23.31,0,0,1,119.14,42ZM102.57,126A23.61,23.61,0,0,1,86,119.14L65.41,98.55,98.55,65.41,119.14,86C133.85,100.72,123.32,126,102.57,126Z"/><path class="cls-6" d="M33.52,15.76a1.5,1.5,0,0,0,0,3A1.5,1.5,0,0,0,33.52,15.76Z"/><path class="cls-6" d="M25.39,23.89a1.5,1.5,0,0,0,0,3A1.5,1.5,0,0,0,25.39,23.89Z"/><path class="cls-6" d="M17.26,32a1.5,1.5,0,0,0,0,3A1.5,1.5,0,0,0,17.26,32Z"/><path class="cls-6" d="M49.77,32a1.5,1.5,0,0,0,0,3A1.5,1.5,0,0,0,49.77,32Z"/><path class="cls-6" d="M41.65,40.15a1.5,1.5,0,0,0,0,3A1.5,1.5,0,0,0,41.65,40.15Z"/><path class="cls-6" d="M33.52,48.27a1.5,1.5,0,0,0,0,3A1.5,1.5,0,0,0,33.52,48.27Z"/><path class="cls-6" d="M37.58,28a1.5,1.5,0,0,0,0,3A1.5,1.5,0,0,0,37.58,28Z"/><path class="cls-6" d="M29.45,36.08a1.5,1.5,0,0,0,0,3A1.5,1.5,0,0,0,29.45,36.08Z"/><path class="cls-6" d="M94.48,76.73a1.5,1.5,0,0,0,0,3A1.5,1.5,0,0,0,94.48,76.73Z"/><path class="cls-6" d="M86.35,84.85a1.5,1.5,0,0,0,0,3A1.5,1.5,0,0,0,86.35,84.85Z"/><path class="cls-6" d="M78.23,93a1.5,1.5,0,0,0,0,3A1.5,1.5,0,0,0,78.23,93Z"/><path class="cls-6" d="M110.74,93a1.5,1.5,0,0,0,0,3A1.5,1.5,0,0,0,110.74,93Z"/><path class="cls-6" d="M102.61,101.11a1.5,1.5,0,0,0,0,3A1.5,1.5,0,0,0,102.61,101.11Z"/><path class="cls-6" d="M94.48,109.24a1.5,1.5,0,0,0,0,3A1.5,1.5,0,0,0,94.48,109.24Z"/><path class="cls-6" d="M98.55,88.92a1.5,1.5,0,0,0,0,3A1.5,1.5,0,0,0,98.55,88.92Z"/><path class="cls-6" d="M90.42,97.05a1.5,1.5,0,0,0,0,3A1.5,1.5,0,0,0,90.42,97.05Z"/></g></svg>