<svg xmlns="http://www.w3.org/2000/svg" xmlns:xlink="http://www.w3.org/1999/xlink" viewBox="0 0 128 128"><defs><style>.cls-1{fill:url(#linear-gradient);}.cls-2{fill:#dd4e6a;}.cls-3{fill:url(#linear-gradient-2);}.cls-4{fill:#c7cdd8;}.cls-5{fill:url(#linear-gradient-3);}.cls-6{fill:#47566a;}</style><linearGradient id="linear-gradient" x1="64" y1="127" x2="64" y2="1" gradientUnits="userSpaceOnUse"><stop offset="0" stop-color="#da5466"/><stop offset="1" stop-color="#e87092"/></linearGradient><linearGradient id="linear-gradient-2" x1="64" y1="106.68" x2="64" y2="49.77" gradientUnits="userSpaceOnUse"><stop offset="0" stop-color="#d4d8e1"/><stop offset="1" stop-color="#f3f4f5"/></linearGradient><linearGradient id="linear-gradient-3" y1="94.48" x2="64" y2="61.97" xlink:href="#linear-gradient"/></defs><title>Blood</title><g id="Blood"><path class="cls-1" d="M15.23,78.23C15.23,37.58,64,1,64,1s48.77,36.58,48.77,77.23a48.77,48.77,0,0,1-97.54,0Z"/><path class="cls-2" d="M64,127A48.77,48.77,0,0,1,15.33,75.18a48.77,48.77,0,0,0,97.34,0A48.77,48.77,0,0,1,64,127Z"/><circle class="cls-3" cx="64" cy="78.23" r="28.45"/><path class="cls-4" d="M64,106.68a28.46,28.46,0,0,1-28.29-31.5,28.45,28.45,0,0,0,56.58,0A28.46,28.46,0,0,1,64,106.68Z"/><polygon class="cls-5" points="80.26 74.16 68.06 74.16 68.06 61.97 59.94 61.97 59.94 74.16 47.74 74.16 47.74 82.29 59.94 82.29 59.94 94.48 68.06 94.48 68.06 82.29 80.26 82.29 80.26 74.16"/><rect class="cls-2" x="59.94" y="88.39" width="8.13" height="6.1"/><path class="cls-6" d="M64.6.2a1,1,0,0,0-1.2,0c-.49.37-49.17,37.35-49.17,78a49.77,49.77,0,0,0,99.54,0C113.77,37.55,65.09.57,64.6.2ZM64,126A47.82,47.82,0,0,1,16.23,78.23c0-37.25,42.2-71.6,47.77-76,5.57,4.37,47.77,38.72,47.77,76A47.82,47.82,0,0,1,64,126Z"/><path class="cls-6" d="M64,48.77A29.46,29.46,0,1,0,93.45,78.23,29.49,29.49,0,0,0,64,48.77Zm0,56.91A27.46,27.46,0,1,1,91.45,78.23,27.48,27.48,0,0,1,64,105.68Z"/><path class="cls-6" d="M80.26,73.16H69.06V62a1,1,0,0,0-1-1H59.94a1,1,0,0,0-1,1V73.16H47.74a1,1,0,0,0-1,1v8.13a1,1,0,0,0,1,1h11.2V94.48a1,1,0,0,0,1,1h8.12a1,1,0,0,0,1-1V83.29h11.2a1,1,0,0,0,1-1V74.16A1,1,0,0,0,80.26,73.16Zm-1,8.13H68.06a1,1,0,0,0-1,1V93.48H60.94V82.29a1,1,0,0,0-1-1H48.74V75.16h11.2a1,1,0,0,0,1-1V63h6.12V74.16a1,1,0,0,0,1,1h11.2Z"/></g></svg>