<svg xmlns="http://www.w3.org/2000/svg" xmlns:xlink="http://www.w3.org/1999/xlink" viewBox="0 0 128 128"><defs><style>.cls-1{fill:url(#linear-gradient);}.cls-2{fill:#dd4e6a;}.cls-3{fill:url(#linear-gradient-2);}.cls-4{fill:#8288a1;}.cls-5{fill:url(#linear-gradient-3);}.cls-6{fill:url(#linear-gradient-4);}.cls-7{fill:url(#linear-gradient-6);}.cls-8{fill:url(#linear-gradient-7);}.cls-9{fill:url(#linear-gradient-8);}.cls-10{fill:#c7cdd8;}.cls-11{fill:#f6b756;}.cls-12{fill:none;}.cls-13{fill:#47566a;}</style><linearGradient id="linear-gradient" x1="64" y1="29.45" x2="64" y2="1" gradientUnits="userSpaceOnUse"><stop offset="0" stop-color="#da5466"/><stop offset="1" stop-color="#e87092"/></linearGradient><linearGradient id="linear-gradient-2" x1="64.01" y1="127" x2="64.01" y2="29.45" gradientUnits="userSpaceOnUse"><stop offset="0" stop-color="#949aaf"/><stop offset="1" stop-color="#c6ccda"/></linearGradient><linearGradient id="linear-gradient-3" x1="98.25" y1="53.84" x2="98.25" y2="29.45" gradientUnits="userSpaceOnUse"><stop offset="0" stop-color="#d4d8e1"/><stop offset="1" stop-color="#f3f4f5"/></linearGradient><linearGradient id="linear-gradient-4" x1="29.75" y1="53.84" x2="29.75" y2="29.45" xlink:href="#linear-gradient-3"/><linearGradient id="linear-gradient-6" x1="79.28" y1="73.14" x2="79.28" y2="61.59" gradientUnits="userSpaceOnUse"><stop offset="0" stop-color="#fbcc88"/><stop offset="1" stop-color="#ffe5c3"/></linearGradient><linearGradient id="linear-gradient-7" x1="60.95" y1="107.59" x2="60.95" y2="66.11" xlink:href="#linear-gradient-6"/><linearGradient id="linear-gradient-8" x1="58.77" y1="122.91" x2="58.77" y2="100.76" xlink:href="#linear-gradient-6"/></defs><title>Caduceus</title><g id="Caduceus"><circle class="cls-1" cx="64" cy="15.23" r="14.23"/><path class="cls-2" d="M64,29.45c-9.09,0-15.53-8.44-14.06-16.26a14.2,14.2,0,0,0,28.12,0C79.53,21,73.11,29.45,64,29.45Z"/><path class="cls-3" d="M70.1,35.55c0,8.25.51-4.38-3.13,72-.92,19-.59,18.25-1.77,19a2.05,2.05,0,0,1-2.58-.14c-.93-.75-.68-.3-1.3-13,0-6.66-3.42-62.07-3.42-77.91a6.1,6.1,0,1,1,12.2,0Z"/><path class="cls-4" d="M68.08,84.1c-.48,9.89-.36,7.29-.56,11.68L60.42,95c-.2-4.86-.08-2.2-.57-12.15C61.36,83.05,66.11,83.76,68.08,84.1Z"/><path class="cls-5" d="M127,29.45a8.13,8.13,0,0,1-8.13,8.13,8.13,8.13,0,0,1-8.13,8.13,8.13,8.13,0,0,1-8.13,8.13H69.51l.4-8.15a14.69,14.69,0,0,0,12.38-8.11,14.72,14.72,0,0,1,13.15-8.13Z"/><path class="cls-6" d="M58.09,45.69a14.71,14.71,0,0,1-12.38-8.11,14.72,14.72,0,0,0-13.15-8.13H1a8.13,8.13,0,0,0,8.13,8.13,8.13,8.13,0,0,0,8.13,8.13,8.13,8.13,0,0,0,8.13,8.13h33.1"/><path class="cls-6" d="M58.49,53.84H25.39a8.13,8.13,0,0,1-8.13-8.13,8.13,8.13,0,0,1-8.13-8.13A8.13,8.13,0,0,1,1,29.45H32.56a14.72,14.72,0,0,1,13.15,8.13,14.68,14.68,0,0,0,12.38,8.11Z"/><path class="cls-7" d="M88,69c-4.83,2.66-13.34,3.46-19.39,4.16L69,64.89c16.15-1.76,14.3-3.56,17.23-3.27A4,4,0,0,1,88,69Z"/><path class="cls-8" d="M82.29,94.48c0,8-7.51,11.16-15.32,13.11l.4-8.51c2.34-.7,6.79-2.17,6.79-4.6C71,89.89,39.61,93.75,39.61,78.23c0-8.71,10.83-10.85,19.45-12.12l.39,8.19c-2.16.33-11.71,1.75-11.71,3.93,0,3.6,14.57,4.88,20.34,5.87C75,85.32,82.29,87.54,82.29,94.48Z"/><path class="cls-4" d="M66.38,120c-.23,4.85,0,5.85-1.18,6.62-3.92-.18-3.22.8-3.66-8.61C63.17,118.69,64.83,119.38,66.38,120Z"/><path class="cls-9" d="M73.86,122.91c-9.67-.75-30.18.54-30.18-10.14,0-8.08,9.22-10.21,17-12l.4,8.23c-1.6.41-9.3,2.17-9.3,3.78C52.73,114.93,71.61,122.06,73.86,122.91Z"/><path class="cls-10" d="M39.61,43.68H18.38a5.61,5.61,0,0,1-5.5-4c-.05-.2-.65,0,18.6,0a2,2,0,0,0,0-4.06H10.89a6.3,6.3,0,0,1-6.41-6c0-.2.2-.07-3.48-.07a8.15,8.15,0,0,0,8.13,8.13,8.14,8.14,0,0,0,8.13,8.13,8.13,8.13,0,0,0,8.13,8.13h3.47A8.1,8.1,0,0,1,21,47.74H39.61A2,2,0,0,0,39.61,43.68Z"/><path class="cls-10" d="M123.52,29.45a6.3,6.3,0,0,1-6.41,6.1H96.52a2,2,0,0,0,0,4.06h18.61c-1,4-5.23,4.07-5.51,4.07H88.39a2,2,0,0,0,0,4.06H107a8.1,8.1,0,0,1-7.86,6.1h3.47a8.13,8.13,0,0,0,8.13-8.13,8.15,8.15,0,0,0,8.13-8.13A8.15,8.15,0,0,0,127,29.45Z"/><path class="cls-10" d="M58.09,45.69l.4,8.15H54.41l-.43-9A14.77,14.77,0,0,0,58.09,45.69Z"/><path class="cls-10" d="M74,44.88l-.43,9H69.51l.4-8.15A14.77,14.77,0,0,0,74,44.88Z"/><path class="cls-11" d="M59.45,74.3c-4.66.7-4,.94-4.07.21L55,66.78c1.3-.26,2.66-.46,4-.67Z"/><path class="cls-11" d="M61.11,109c-1.22.31-2.66.67-4,1.06-.05-1.16,0,.43-.41-8.33,1.35-.35,2.71-.65,4-1Z"/><path class="cls-11" d="M67.37,99.08a24.72,24.72,0,0,0,4.15-1.59c-.1,2.26,0,.37-.43,8.92-1.34.45-2.74.84-4.12,1.18Z"/><path class="cls-11" d="M73.1,64.39c0,1,0-.41-.4,8.27l-4.11.48L69,64.89C70.3,64.75,71.7,64.59,73.1,64.39Z"/><path class="cls-12" d="M74.16,96.52l-18.29-2"/><path class="cls-13" d="M70.1,14.23H65V9.13a1,1,0,0,0-2,0v5.1H57.9a1,1,0,0,0,0,2H63v5.09a1,1,0,0,0,2,0V16.23h5.1A1,1,0,0,0,70.1,14.23Z"/><path class="cls-13" d="M127,28.45H95.44a15.64,15.64,0,0,0-14,8.68A13.74,13.74,0,0,1,71,44.58c.17-3.7.14-1.71.14-9a7.07,7.07,0,0,0-2.89-5.7,15.23,15.23,0,1,0-8.42,0,7.07,7.07,0,0,0-2.89,5.7c0,7.37,0,5.39.14,9A13.74,13.74,0,0,1,46.6,37.13a15.64,15.64,0,0,0-14-8.68H1a1,1,0,0,0-1,1,9.15,9.15,0,0,0,8.18,9.08,9.13,9.13,0,0,0,8.13,8.13,9.13,9.13,0,0,0,9.08,8.18H57.53L58,65.26c-10.2,1.53-19.41,4.26-19.41,13,0,10.39,12.14,12.5,20.69,13.77l.38,8c-7.78,1.8-17,4.21-17,12.8,0,8,10.07,9.86,18.11,10.51l.08,1.74a3.13,3.13,0,0,0,6.26,0l.07-1.39c8.44.31,6.16.29,6.66.29a1,1,0,0,0,.35-1.94s-3-1.14-6.8-2.65l.51-11c7.72-2,15.37-5.33,15.37-13.89,0-7.33-7-9.83-14.16-11.2L69.56,74c7.15-.81,14.42-1.72,18.9-4.19a4.94,4.94,0,0,0-2.13-9.22c-3.67-.37-.42,1.3-16.28,3.14l.42-8.93h32.14a9.13,9.13,0,0,0,9.08-8.18,9.13,9.13,0,0,0,8.13-8.13A9.15,9.15,0,0,0,128,29.45,1,1,0,0,0,127,28.45ZM50.77,15.23A13.23,13.23,0,1,1,64,28.45,13.25,13.25,0,0,1,50.77,15.23ZM58.9,35.55a5.1,5.1,0,1,1,10.2,0c0,9.36-.22,10.59-2,47.39-2.36-.38-5.27-.82-6.33-1C58.6,35.24,58.9,43.68,58.9,35.55Zm-.1,46.1c-9-1.51-10.06-2.88-10.07-3.35.07-.15.92-1.4,9.77-2.83ZM25.39,52.84a7.13,7.13,0,0,1-7-6.13H39.61a1,1,0,0,0,0-2H17.26a7.13,7.13,0,0,1-7-6.13H31.48a1,1,0,0,0,0-2H9.13a7.14,7.14,0,0,1-7.06-6.13H32.56A13.63,13.63,0,0,1,44.81,38a15.77,15.77,0,0,0,12.33,8.58l.29,6.23ZM68.62,93.51a16,16,0,0,1,4.47,1.34c-.25.67-1.29,1.68-4.66,2.84Zm-3.18,25-2.93-1.22-1.19-25c1.75.25,3.57.52,5.32.84Zm-5-2.1a44.7,44.7,0,0,1-7.4-3.75c.6-.42,2.31-1.22,7.1-2.43Zm2.4,8.48-.08-1.51,2.42.13-.08,1.37A1.13,1.13,0,0,1,62.87,124.92ZM44.68,112.77c0-6.47,6.46-8.72,15.1-10.76l.29,6.21c-2.82.71-10.28,2.46-9.18,5s14.54,7.51,16.94,8.47C59.7,121.36,44.68,120.9,44.68,112.77ZM81.29,94.48c0,7-6.22,9.89-13.27,11.8l.31-6.45c3.31-1,6.83-2.6,6.83-5.35,0-2.47-10.45-3.72-13.19-4.11-9.23-1.32-21.36-2.87-21.36-12.14,0-7.16,8.28-9.56,17.51-11l.29,6.19c-10.21,1.63-11.67,3.25-11.67,4.77,0,3,5.18,4.39,13,5.6C68.84,85.14,81.29,86.15,81.29,94.48ZM84.14,63a3.29,3.29,0,0,1,4.75,2A2.78,2.78,0,0,1,87.5,68.1c-4.08,2.25-11,3.13-17.84,3.92L70,65.79C75.67,65.13,81.64,64.27,84.14,63Zm34.73-26.37H96.52a1,1,0,0,0,0,2h21.27a7.13,7.13,0,0,1-7.05,6.13H88.39a1,1,0,0,0,0,2h21.27a7.13,7.13,0,0,1-7,6.13h-32l.29-6.23A15.74,15.74,0,0,0,83.18,38a13.67,13.67,0,0,1,12.26-7.58h30.49A7.14,7.14,0,0,1,118.87,36.58Z"/></g></svg>