<svg xmlns="http://www.w3.org/2000/svg" xmlns:xlink="http://www.w3.org/1999/xlink" viewBox="0 0 128 128"><defs><style>.cls-1{fill:url(#linear-gradient);}.cls-2{fill:#c7cdd8;}.cls-3{fill:url(#linear-gradient-2);}.cls-4{fill:url(#linear-gradient-3);}.cls-5{fill:url(#linear-gradient-4);}.cls-6{fill:url(#linear-gradient-5);}.cls-7{fill:url(#linear-gradient-6);}.cls-8{fill:url(#linear-gradient-7);}.cls-9{fill:url(#linear-gradient-8);}.cls-10{fill:url(#linear-gradient-9);}.cls-11{fill:#f6b756;}.cls-12{fill:#47566a;}</style><linearGradient id="linear-gradient" x1="64" y1="127" x2="64" y2="1" gradientUnits="userSpaceOnUse"><stop offset="0" stop-color="#d4d8e1"/><stop offset="1" stop-color="#f3f4f5"/></linearGradient><linearGradient id="linear-gradient-2" x1="80.26" y1="31.48" x2="80.26" y2="11.16" gradientUnits="userSpaceOnUse"><stop offset="0" stop-color="#fbcc88"/><stop offset="1" stop-color="#ffe5c3"/></linearGradient><linearGradient id="linear-gradient-3" x1="80.26" y1="59.94" x2="80.26" y2="39.61" xlink:href="#linear-gradient-2"/><linearGradient id="linear-gradient-4" x1="47.74" y1="31.48" x2="47.74" y2="11.16" xlink:href="#linear-gradient-2"/><linearGradient id="linear-gradient-5" x1="47.74" y1="59.94" x2="47.74" y2="39.61" xlink:href="#linear-gradient-2"/><linearGradient id="linear-gradient-6" x1="80.26" y1="88.39" x2="80.26" y2="68.06" xlink:href="#linear-gradient-2"/><linearGradient id="linear-gradient-7" x1="80.26" y1="116.84" x2="80.26" y2="96.52" xlink:href="#linear-gradient-2"/><linearGradient id="linear-gradient-8" x1="47.74" y1="88.39" x2="47.74" y2="68.06" xlink:href="#linear-gradient-2"/><linearGradient id="linear-gradient-9" x1="47.74" y1="116.84" x2="47.74" y2="96.52" xlink:href="#linear-gradient-2"/></defs><title>Capsule</title><g id="Capsule"><rect class="cls-1" x="27.42" y="1" width="73.16" height="126" rx="8.13"/><path class="cls-2" d="M90.42,20.91c0,3.14-1.33,3.71-10.51,12.89-4.45,4.45-11.73-.59-9.43-6.08a5.79,5.79,0,0,0,5.37,3.7c3.13,0,3.71-1.33,12.88-10.51A5.31,5.31,0,0,0,90,18.86,5.54,5.54,0,0,1,90.42,20.91Z"/><path class="cls-2" d="M90.42,49.36c0,3.14-1.33,3.71-10.51,12.89-4.45,4.45-11.73-.59-9.43-6.08a5.78,5.78,0,0,0,5.37,3.7c3.13,0,3.71-1.33,12.88-10.51a5.31,5.31,0,0,0,1.3-2A5.54,5.54,0,0,1,90.42,49.36Z"/><path class="cls-2" d="M57.9,20.91c0,3.14-1.33,3.71-10.5,12.89-4.46,4.45-11.74-.59-9.43-6.08a5.77,5.77,0,0,0,5.36,3.7c3.14,0,3.71-1.33,12.89-10.51a5.43,5.43,0,0,0,1.3-2.05A5.75,5.75,0,0,1,57.9,20.91Z"/><path class="cls-2" d="M57.9,49.36c0,3.14-1.33,3.71-10.5,12.89-4.46,4.45-11.74-.59-9.43-6.08a5.76,5.76,0,0,0,5.36,3.7c3.14,0,3.71-1.33,12.89-10.51a5.43,5.43,0,0,0,1.3-2A5.75,5.75,0,0,1,57.9,49.36Z"/><path class="cls-2" d="M90.42,77.82c0,3.13-1.33,3.7-10.51,12.88-4.45,4.45-11.73-.58-9.43-6.08a5.78,5.78,0,0,0,5.37,3.7c3.13,0,3.71-1.33,12.88-10.5A5.27,5.27,0,0,0,90,75.76,5.55,5.55,0,0,1,90.42,77.82Z"/><path class="cls-2" d="M90.42,106.27c0,3.13-1.33,3.71-10.51,12.88-4.45,4.45-11.73-.58-9.43-6.07a5.79,5.79,0,0,0,5.37,3.69c3.13,0,3.71-1.33,12.88-10.5a5.27,5.27,0,0,0,1.3-2.06A5.59,5.59,0,0,1,90.42,106.27Z"/><path class="cls-2" d="M57.9,77.82c0,3.13-1.33,3.7-10.5,12.88-4.46,4.45-11.74-.58-9.43-6.08a5.76,5.76,0,0,0,5.36,3.7c3.14,0,3.71-1.33,12.89-10.5a5.39,5.39,0,0,0,1.3-2.06A5.76,5.76,0,0,1,57.9,77.82Z"/><path class="cls-2" d="M57.9,106.27c0,3.13-1.33,3.71-10.5,12.88-4.46,4.45-11.74-.58-9.43-6.07a5.76,5.76,0,0,0,5.36,3.69c3.14,0,3.71-1.33,12.89-10.5a5.39,5.39,0,0,0,1.3-2.06A5.8,5.8,0,0,1,57.9,106.27Z"/><path class="cls-2" d="M100.58,112.77v6.1A8.13,8.13,0,0,1,92.45,127H35.55a8.13,8.13,0,0,1-8.13-8.13v-6.1a8.12,8.12,0,0,0,8.13,8.13h56.9A8.12,8.12,0,0,0,100.58,112.77Z"/><path class="cls-3" d="M75.84,31.48a5.76,5.76,0,0,1-4.06-9.81c8.93-8.93,9.72-10.51,12.89-10.51A5.76,5.76,0,0,1,88.74,21C79.8,29.91,79,31.48,75.84,31.48Z"/><path class="cls-4" d="M75.84,59.94a5.76,5.76,0,0,1-4.06-9.82c8.93-8.93,9.72-10.51,12.89-10.51a5.76,5.76,0,0,1,4.07,9.82C79.8,58.36,79,59.94,75.84,59.94Z"/><path class="cls-5" d="M43.33,31.48a5.76,5.76,0,0,1-4.07-9.81C48.2,12.74,49,11.16,52.16,11.16A5.76,5.76,0,0,1,56.22,21C47.29,29.91,46.5,31.48,43.33,31.48Z"/><path class="cls-6" d="M43.33,59.94a5.76,5.76,0,0,1-4.07-9.82C48.2,41.19,49,39.61,52.16,39.61a5.76,5.76,0,0,1,4.06,9.82C47.29,58.36,46.5,59.94,43.33,59.94Z"/><path class="cls-7" d="M75.84,88.39a5.76,5.76,0,0,1-4.06-9.82c8.93-8.93,9.72-10.51,12.89-10.51a5.76,5.76,0,0,1,4.07,9.82C79.8,86.81,79,88.39,75.84,88.39Z"/><path class="cls-8" d="M75.84,116.84A5.76,5.76,0,0,1,71.78,107c8.93-8.94,9.72-10.51,12.89-10.51a5.76,5.76,0,0,1,4.07,9.81C79.8,115.26,79,116.84,75.84,116.84Z"/><path class="cls-9" d="M43.33,88.39a5.76,5.76,0,0,1-4.07-9.82C48.2,69.64,49,68.06,52.16,68.06a5.76,5.76,0,0,1,4.06,9.82C47.29,86.81,46.5,88.39,43.33,88.39Z"/><path class="cls-10" d="M43.33,116.84A5.76,5.76,0,0,1,39.26,107C48.2,98.09,49,96.52,52.16,96.52a5.76,5.76,0,0,1,4.06,9.81C47.29,115.26,46.5,116.84,43.33,116.84Z"/><path class="cls-11" d="M90.42,16.91c0,3.14-1.33,3.71-10.51,12.89-4.45,4.45-11.73-.59-9.43-6.08a5.79,5.79,0,0,0,5.37,3.7c3.13,0,3.71-1.33,12.88-10.51A5.31,5.31,0,0,0,90,14.86,5.54,5.54,0,0,1,90.42,16.91Z"/><path class="cls-11" d="M90.42,45.36c0,3.14-1.33,3.71-10.51,12.89-4.45,4.45-11.73-.59-9.43-6.08a5.78,5.78,0,0,0,5.37,3.7c3.13,0,3.71-1.33,12.88-10.51a5.31,5.31,0,0,0,1.3-2A5.54,5.54,0,0,1,90.42,45.36Z"/><path class="cls-11" d="M57.9,16.91c0,3.14-1.33,3.71-10.5,12.89-4.46,4.45-11.74-.59-9.43-6.08a5.77,5.77,0,0,0,5.36,3.7c3.14,0,3.71-1.33,12.89-10.51a5.43,5.43,0,0,0,1.3-2.05A5.75,5.75,0,0,1,57.9,16.91Z"/><path class="cls-11" d="M57.9,45.36c0,3.14-1.33,3.71-10.5,12.89-4.46,4.45-11.74-.59-9.43-6.08a5.76,5.76,0,0,0,5.36,3.7c3.14,0,3.71-1.33,12.89-10.51a5.43,5.43,0,0,0,1.3-2A5.75,5.75,0,0,1,57.9,45.36Z"/><path class="cls-11" d="M90.42,73.82c0,3.13-1.33,3.7-10.51,12.88-4.45,4.45-11.73-.58-9.43-6.08a5.78,5.78,0,0,0,5.37,3.7c3.13,0,3.71-1.33,12.88-10.5A5.27,5.27,0,0,0,90,71.76,5.55,5.55,0,0,1,90.42,73.82Z"/><path class="cls-11" d="M90.42,102.27c0,3.13-1.33,3.71-10.51,12.88-4.45,4.45-11.73-.58-9.43-6.07a5.79,5.79,0,0,0,5.37,3.69c3.13,0,3.71-1.33,12.88-10.5a5.27,5.27,0,0,0,1.3-2.06A5.59,5.59,0,0,1,90.42,102.27Z"/><path class="cls-11" d="M57.9,73.82c0,3.13-1.33,3.7-10.5,12.88-4.46,4.45-11.74-.58-9.43-6.08a5.76,5.76,0,0,0,5.36,3.7c3.14,0,3.71-1.33,12.89-10.5a5.39,5.39,0,0,0,1.3-2.06A5.76,5.76,0,0,1,57.9,73.82Z"/><path class="cls-11" d="M57.9,102.27c0,3.13-1.33,3.71-10.5,12.88-4.46,4.45-11.74-.58-9.43-6.07a5.76,5.76,0,0,0,5.36,3.69c3.14,0,3.71-1.33,12.89-10.5a5.39,5.39,0,0,0,1.3-2.06A5.8,5.8,0,0,1,57.9,102.27Z"/><path class="cls-12" d="M92.45,0H35.55a9.14,9.14,0,0,0-9.13,9.13V118.87A9.14,9.14,0,0,0,35.55,128h56.9a9.14,9.14,0,0,0,9.13-9.13V9.13A9.14,9.14,0,0,0,92.45,0Zm7.13,118.87A7.14,7.14,0,0,1,92.45,126H35.55a7.14,7.14,0,0,1-7.13-7.13V9.13A7.14,7.14,0,0,1,35.55,2h56.9a7.14,7.14,0,0,1,7.13,7.13Z"/><path class="cls-12" d="M84.67,10.16a6.68,6.68,0,0,0-4.77,2L71.07,21a6.75,6.75,0,0,0,9.55,9.55l8.82-8.83A6.75,6.75,0,0,0,84.67,10.16ZM88,20.27,79.2,29.09a4.69,4.69,0,0,1-3.36,1.39,4.75,4.75,0,0,1-3.35-8.1l8.82-8.83A4.75,4.75,0,0,1,88,20.27Z"/><path class="cls-12" d="M84.67,38.61a6.68,6.68,0,0,0-4.77,2l-8.83,8.83A6.75,6.75,0,1,0,80.62,59l8.82-8.83A6.76,6.76,0,0,0,84.67,38.61ZM88,48.72,79.2,57.54a4.7,4.7,0,0,1-3.36,1.4,4.76,4.76,0,0,1-3.35-8.11L81.31,42A4.75,4.75,0,0,1,88,48.72Z"/><path class="cls-12" d="M52.16,10.16a6.7,6.7,0,0,0-4.78,2L38.56,21a6.75,6.75,0,0,0,9.54,9.55l8.83-8.83A6.76,6.76,0,0,0,52.16,10.16Zm3.35,10.11-8.82,8.82A4.75,4.75,0,0,1,40,22.38l8.83-8.83a4.75,4.75,0,1,1,6.71,6.72Z"/><path class="cls-12" d="M52.16,38.61a6.7,6.7,0,0,0-4.78,2l-8.82,8.83A6.75,6.75,0,1,0,48.1,59l8.83-8.83A6.76,6.76,0,0,0,52.16,38.61Zm3.35,10.11-8.82,8.82A4.75,4.75,0,1,1,40,50.83L48.8,42a4.75,4.75,0,1,1,6.71,6.72Z"/><path class="cls-12" d="M84.67,67.06a6.72,6.72,0,0,0-4.77,2l-8.83,8.83a6.75,6.75,0,1,0,9.55,9.54l8.82-8.83A6.76,6.76,0,0,0,84.67,67.06ZM88,77.17,79.2,86a4.75,4.75,0,1,1-6.71-6.72l8.82-8.82A4.75,4.75,0,1,1,88,77.17Z"/><path class="cls-12" d="M84.67,95.52a6.71,6.71,0,0,0-4.77,2l-8.83,8.83a6.75,6.75,0,1,0,9.55,9.54L89.44,107A6.76,6.76,0,0,0,84.67,95.52ZM88,105.62l-8.83,8.83a4.75,4.75,0,1,1-6.71-6.72l8.82-8.82A4.75,4.75,0,0,1,88,105.62Z"/><path class="cls-12" d="M52.16,67.06a6.74,6.74,0,0,0-4.78,2l-8.82,8.83a6.76,6.76,0,0,0,4.77,11.52,6.68,6.68,0,0,0,4.77-2l8.83-8.83A6.76,6.76,0,0,0,52.16,67.06Zm3.35,10.11L46.69,86A4.75,4.75,0,0,1,40,79.28l8.83-8.82a4.7,4.7,0,0,1,3.36-1.4A4.76,4.76,0,0,1,55.51,77.17Z"/><path class="cls-12" d="M52.16,95.52a6.73,6.73,0,0,0-4.78,2l-8.82,8.83a6.75,6.75,0,0,0,4.77,11.52,6.68,6.68,0,0,0,4.77-2L56.93,107A6.76,6.76,0,0,0,52.16,95.52Zm3.35,10.1-8.82,8.83A4.75,4.75,0,0,1,40,107.73l8.83-8.82a4.69,4.69,0,0,1,3.36-1.39A4.75,4.75,0,0,1,55.51,105.62Z"/></g></svg>