<svg xmlns="http://www.w3.org/2000/svg" xmlns:xlink="http://www.w3.org/1999/xlink" viewBox="0 0 128 128"><defs><style>.cls-1{fill:url(#linear-gradient);}.cls-2{fill:#c7cdd8;}.cls-3{fill:url(#linear-gradient-2);}.cls-4{fill:#77cacb;}.cls-5{fill:url(#linear-gradient-3);}.cls-6{fill:#8288a1;}.cls-7{fill:url(#linear-gradient-4);}.cls-8{fill:url(#linear-gradient-5);}.cls-9{fill:url(#linear-gradient-6);}.cls-10{fill:#adb3c4;}.cls-11{fill:#47566a;}</style><linearGradient id="linear-gradient" x1="64" y1="118.87" x2="64" y2="1" gradientUnits="userSpaceOnUse"><stop offset="0" stop-color="#d4d8e1"/><stop offset="1" stop-color="#f3f4f5"/></linearGradient><linearGradient id="linear-gradient-2" x1="64" y1="90.42" x2="64" y2="9.13" gradientUnits="userSpaceOnUse"><stop offset="0" stop-color="#9dd5df"/><stop offset="1" stop-color="#c3e1f5"/></linearGradient><linearGradient id="linear-gradient-3" x1="23.35" y1="110.74" x2="23.35" y2="98.55" gradientUnits="userSpaceOnUse"><stop offset="0" stop-color="#949aaf"/><stop offset="1" stop-color="#c6ccda"/></linearGradient><linearGradient id="linear-gradient-4" x1="108.71" y1="110.74" x2="108.71" y2="98.55" xlink:href="#linear-gradient-3"/><linearGradient id="linear-gradient-5" x1="49.77" y1="110.74" x2="49.77" y2="102.61" xlink:href="#linear-gradient-3"/><linearGradient id="linear-gradient-6" x1="68.06" y1="110.74" x2="68.06" y2="102.61" xlink:href="#linear-gradient-3"/></defs><title>Cardiogram</title><g id="Cardiogram"><rect class="cls-1" x="1" y="1" width="126" height="117.87" rx="4.06"/><path class="cls-2" d="M127,108.71v6.1a4.08,4.08,0,0,1-4.06,4.06H5.06A4.08,4.08,0,0,1,1,114.81v-6.1a4.07,4.07,0,0,0,4.06,4.06H122.94A4.07,4.07,0,0,0,127,108.71Z"/><rect class="cls-3" x="9.13" y="9.13" width="109.74" height="81.29"/><rect class="cls-4" x="9.13" y="84.32" width="109.74" height="6.1"/><rect class="cls-5" x="13.19" y="98.55" width="20.32" height="12.19"/><rect class="cls-6" x="21.32" y="98.55" width="4.06" height="12.19"/><circle class="cls-7" cx="108.71" cy="104.65" r="6.1"/><circle class="cls-8" cx="49.77" cy="106.68" r="4.06"/><circle class="cls-9" cx="68.06" cy="106.68" r="4.06"/><rect class="cls-10" x="9.13" y="118.87" width="109.74" height="8.13"/><path class="cls-11" d="M122.94,0H5.06A5.07,5.07,0,0,0,0,5.06V114.81a5.07,5.07,0,0,0,5.06,5.06H8.13V127a1,1,0,0,0,1,1H118.87a1,1,0,0,0,1-1v-7.13h3.07a5.07,5.07,0,0,0,5.06-5.06V5.06A5.07,5.07,0,0,0,122.94,0Zm-5.07,126H10.13v-6.13H117.87ZM126,114.81a3.06,3.06,0,0,1-3.06,3.06H5.06A3.07,3.07,0,0,1,2,114.81V5.06A3.07,3.07,0,0,1,5.06,2H122.94A3.07,3.07,0,0,1,126,5.06Z"/><path class="cls-11" d="M118.87,8.13H9.13a1,1,0,0,0-1,1V90.42a1,1,0,0,0,1,1H118.87a1,1,0,0,0,1-1V9.13A1,1,0,0,0,118.87,8.13Zm-1,81.29H10.13V49.76c11.89,0,11.63.2,12-.49l4.24-7.06V61a1,1,0,0,0,1,1c.86,0,.45.33,6.71-12.19,4.31,0,3.3,0,3.56,0,.77-.09.65-.3,5-7.53V61a1,1,0,0,0,1.89.45l5.82-11.64h3.45c.78,0,.62-.09,5.1-7.55V61a1,1,0,0,0,1,1c.86,0,.45.33,6.71-12.19H78.23a1,1,0,0,0,0-2H66c-.85,0-.65.07-5.09,9V38.6a1,1,0,0,0-1.86-.52l-5.81,9.68c-3.46,0-4-.19-4.39.55l-4.2,8.4V38.6a1,1,0,0,0-1.86-.52L37,47.76H33.52c-.86,0-.66.07-5.1,9V38.6a1,1,0,0,0-1.86-.52l-5.8,9.68H10.13V10.13H117.87Z"/><path class="cls-11" d="M33.52,97.55H13.19a1,1,0,0,0-1,1v12.19a1,1,0,0,0,1,1H33.52a1,1,0,0,0,1-1V98.55A1,1,0,0,0,33.52,97.55Zm-19.33,2h8.16v10.19H14.19Zm18.33,10.19H24.35V99.55h8.17Z"/><path class="cls-11" d="M108.71,97.55a7.1,7.1,0,1,0,7.1,7.1A7.11,7.11,0,0,0,108.71,97.55Zm0,12.19a5.1,5.1,0,1,1,5.1-5.09A5.1,5.1,0,0,1,108.71,109.74Z"/><path class="cls-11" d="M49.77,101.61a5.07,5.07,0,1,0,5.07,5.07A5.07,5.07,0,0,0,49.77,101.61Zm0,8.13a3.07,3.07,0,1,1,3.07-3.06A3.06,3.06,0,0,1,49.77,109.74Z"/><path class="cls-11" d="M68.06,101.61a5.07,5.07,0,1,0,5.07,5.07A5.07,5.07,0,0,0,68.06,101.61Zm0,8.13a3.07,3.07,0,1,1,3.07-3.06A3.07,3.07,0,0,1,68.06,109.74Z"/><path class="cls-11" d="M90.42,101.61h-6.1a1,1,0,0,0,0,2h6.1A1,1,0,0,0,90.42,101.61Z"/><path class="cls-11" d="M90.42,109.74h-6.1a1,1,0,0,0,0,2h6.1A1,1,0,0,0,90.42,109.74Z"/><path class="cls-11" d="M102.61,36.55h8.13a1,1,0,0,0,1-1V27.42a1,1,0,0,0-1-1h-7.13V20.29h7.13a1,1,0,0,0,0-2h-8.13a1,1,0,0,0-1,1V35.55A1,1,0,0,0,102.61,36.55Zm7.13-2h-6.13V28.42h6.13Z"/><path class="cls-11" d="M86.35,34.55a1,1,0,0,0,0,2h8.13a1,1,0,0,0,1-1V19.29a1,1,0,0,0-1-1H86.35a1,1,0,0,0-1,1v8.13a1,1,0,0,0,1,1h7.13v6.13Zm1-14.26h6.13v6.13H87.35Z"/><path class="cls-11" d="M102.61,56.87h8.13a1,1,0,0,0,0-2h-8.13A1,1,0,0,0,102.61,56.87Z"/><path class="cls-11" d="M86.35,56.87h8.13a1,1,0,0,0,0-2H86.35A1,1,0,0,0,86.35,56.87Z"/><path class="cls-11" d="M86.35,67h24.39a1,1,0,0,0,0-2H86.35A1,1,0,0,0,86.35,67Z"/><path class="cls-11" d="M86.35,77.19h16.26a1,1,0,0,0,0-2H86.35A1,1,0,0,0,86.35,77.19Z"/></g></svg>