<svg xmlns="http://www.w3.org/2000/svg" xmlns:xlink="http://www.w3.org/1999/xlink" viewBox="0 0 128 128"><defs><style>.cls-1{fill:url(#linear-gradient);}.cls-2{fill:url(#linear-gradient-2);}.cls-3{fill:url(#linear-gradient-3);}.cls-4{fill:url(#linear-gradient-4);}.cls-5{fill:url(#linear-gradient-5);}.cls-6{fill:url(#linear-gradient-6);}.cls-7{fill:#8a6762;}.cls-8{fill:#47566a;}</style><linearGradient id="linear-gradient" x1="33.52" y1="127" x2="33.52" y2="118.91" gradientUnits="userSpaceOnUse"><stop offset="0" stop-color="#9b756d"/><stop offset="1" stop-color="#bc9388"/></linearGradient><linearGradient id="linear-gradient-2" x1="94.49" y1="127" x2="94.49" y2="118.91" xlink:href="#linear-gradient"/><linearGradient id="linear-gradient-3" x1="33.52" y1="45.71" x2="33.52" y2="37.58" gradientUnits="userSpaceOnUse"><stop offset="0" stop-color="#d1a788"/><stop offset="1" stop-color="#f2d3b8"/></linearGradient><linearGradient id="linear-gradient-4" x1="94.49" y1="45.71" x2="94.49" y2="37.58" xlink:href="#linear-gradient-3"/><linearGradient id="linear-gradient-5" x1="33.52" y1="13.19" x2="33.52" y2="1" xlink:href="#linear-gradient"/><linearGradient id="linear-gradient-6" x1="94.48" y1="13.19" x2="94.48" y2="1" xlink:href="#linear-gradient"/></defs><title>Crutches</title><g id="Crutches"><path class="cls-1" d="M37.58,122.94V127H29.45v-4.06C29.45,117.53,37.58,117.61,37.58,122.94Z"/><path class="cls-2" d="M98.55,122.94V127H90.42v-4.06C90.42,117.53,98.55,117.61,98.55,122.94Z"/><rect class="cls-3" x="19.29" y="37.58" width="28.45" height="8.13"/><rect class="cls-4" x="80.26" y="37.58" width="28.45" height="8.13"/><path class="cls-5" d="M49.78,1H17.26c-6.9,0-4.6,12.19,4.07,12.19H45.71C54.42,13.19,56.65,1,49.78,1Z"/><path class="cls-6" d="M110.74,1H78.23c-6.91,0-4.61,12.19,4.06,12.19h24.39C115.38,13.19,117.62,1,110.74,1Z"/><path class="cls-7" d="M45.71,13.19H21.33c-5.95,0-8.9-5.74-7.94-9.34a8.07,8.07,0,0,0,7.94,6.34H45.71a8,8,0,0,0,7.93-6.32C54.6,7.47,51.67,13.19,45.71,13.19Z"/><path class="cls-7" d="M106.68,13.19H82.29c-6,0-8.9-5.74-7.93-9.34a8.06,8.06,0,0,0,7.93,6.34h24.39a8,8,0,0,0,7.93-6.32C115.57,7.47,112.64,13.19,106.68,13.19Z"/><path class="cls-8" d="M49.77,0H17.26a5.07,5.07,0,0,0-5.07,5.06,9.13,9.13,0,0,0,6.1,8.6c0,43.82-1.77,43,10.16,66.83v.8h-1a1,1,0,0,0,0,2h1V94.48a5.08,5.08,0,0,0,4.07,5V118a5.08,5.08,0,0,0-4.07,5V127a1,1,0,0,0,1,1h8.13a1,1,0,0,0,1-1v-4.06a5.08,5.08,0,0,0-4.06-5V99.45a5.08,5.08,0,0,0,4.06-5V83.29h1a1,1,0,0,0,0-2c-1.75,0-1.82.78,2.8-8.46a60.21,60.21,0,0,0,6.33-27.12v-32a9.13,9.13,0,0,0,6.1-8.6A5.07,5.07,0,0,0,49.77,0Zm-3,44.71H20.29V38.58H46.74ZM36.58,122.94V126H30.45v-3.06a3.07,3.07,0,1,1,6.13,0Zm0-28.46a3.07,3.07,0,1,1-6.13,0V83.29h6.13Zm4.05-22.55c-4.64,9.28-4.05,7.67-4.05,9.36H30.45c0-1.2,0-1.22-.1-1.48-4.88-9.75-9.86-18.23-10-33.1H46.72A58.23,58.23,0,0,1,40.63,71.93Zm6.11-57.74V36.58H20.29V14.19Zm-1-2H21.32C14,12.19,11.78,2,17.26,2H49.77C55.19,2,53.09,12.19,45.71,12.19Z"/><path class="cls-8" d="M115.81,5.06A5.07,5.07,0,0,0,110.74,0H78.23a5.07,5.07,0,0,0-5.07,5.06,9.13,9.13,0,0,0,6.1,8.6V45.71a60.21,60.21,0,0,0,6.33,27.12c4.61,9.23,4.55,8.46,2.8,8.46a1,1,0,0,0,0,2h1V94.48a5.08,5.08,0,0,0,4.06,5V118a5.08,5.08,0,0,0-4.06,5V127a1,1,0,0,0,1,1h8.13a1,1,0,0,0,1-1v-4.06a5.08,5.08,0,0,0-4.07-5V99.45a5.08,5.08,0,0,0,4.07-5V83.29h1a1,1,0,0,0,0-2h-1v-.8c12-24,10.16-23.11,10.16-66.83A9.13,9.13,0,0,0,115.81,5.06Zm-8.1,39.65H81.26V38.58h26.45ZM97.55,122.94V126H91.42v-3.06a3.07,3.07,0,1,1,6.13,0Zm0-28.46a3.07,3.07,0,1,1-6.13,0V83.29h6.13Zm4-22.55c-4.64,9.28-4,7.67-4,9.36H91.42c0-1.2,0-1.22-.11-1.48-4.87-9.75-9.85-18.23-10-33.1h26.41A58.24,58.24,0,0,1,101.59,71.93Zm6.12-57.74V36.58H81.26V14.19Zm-1-2H82.29C75,12.19,72.75,2,78.23,2h32.51C116.16,2,114.06,12.19,106.68,12.19Z"/></g></svg>