<svg xmlns="http://www.w3.org/2000/svg" xmlns:xlink="http://www.w3.org/1999/xlink" viewBox="0 0 128 128"><defs><style>.cls-1{fill:url(#linear-gradient);}.cls-2{fill:#c7cdd8;}.cls-3{fill:url(#linear-gradient-2);}.cls-4{fill:#dd4e6a;}.cls-5{fill:#47566a;}</style><linearGradient id="linear-gradient" x1="64" y1="127" x2="64" y2="1" gradientUnits="userSpaceOnUse"><stop offset="0" stop-color="#d4d8e1"/><stop offset="1" stop-color="#f3f4f5"/></linearGradient><linearGradient id="linear-gradient-2" x1="94.48" y1="43.68" x2="94.48" y2="15.23" gradientUnits="userSpaceOnUse"><stop offset="0" stop-color="#da5466"/><stop offset="1" stop-color="#e87092"/></linearGradient></defs><title>Dental</title><g id="Dental"><path class="cls-1" d="M108.71,78.23c6.1,28.45-1.87,48.77-14.23,48.77C80.26,127,84.32,80.26,64,80.26S47.74,127,33.52,127c-12.36,0-20.33-20.32-14.23-48.77C21.85,66.3,5.07,49.77,5.07,33.52,5.07,9.13,19.29,1,35.55,1c19.5,0,19.92,7.84,31.86,5.83,5.9-1,8.72-4.61,18.5-5.5a2,2,0,0,1,.49-.06C110.68-1,122.93,11,122.93,33.52,122.93,49.77,106.15,66.3,108.71,78.23Z"/><path class="cls-2" d="M110.72,93.83c.81,20-6.28,33.17-16.24,33.17C80.26,127,84.32,80.26,64,80.26S47.74,127,33.52,127c-10,0-17.05-13.17-16.24-33.17.71,16.53,7.34,27.07,16.24,27.07,14.22,0,10.16-46.74,30.48-46.74S80.26,120.9,94.48,120.9C103.38,120.9,110,110.36,110.72,93.83Z"/><polygon class="cls-3" points="108.71 25.39 98.55 25.39 98.55 15.23 90.42 15.23 90.42 25.39 80.26 25.39 80.26 33.52 90.42 33.52 90.42 43.68 98.55 43.68 98.55 33.52 108.71 33.52 108.71 25.39"/><rect class="cls-4" x="90.42" y="37.58" width="8.13" height="6.1"/><path class="cls-5" d="M123.94,33.52c0-22.39-11.78-34-33.4-33.5a32.8,32.8,0,0,0-5.78.43C73.57,1.87,72.19,6.1,64,6.1,54.33,6.1,53.87,0,35.55,0,23.79,0,4.06,4.35,4.06,33.52c0,16.42,16.69,33.14,14.25,44.5-6.07,28.32,1.66,50,15.21,50,15.41,0,11-46.74,30.48-46.74S79.12,128,94.48,128c3.92,0,7.51-1.88,10.38-5.43,7-8.67,8.86-25.74,4.83-44.55C107.24,66.6,123.94,50,123.94,33.52ZM107.73,78.44c5.8,27-1.32,47.56-13.25,47.56-13,0-9.36-46.74-30.48-46.74S46.5,126,33.52,126c-3.29,0-6.34-1.62-8.82-4.69-6.64-8.21-8.34-24.64-4.43-42.87C22.94,66,6.06,49.52,6.06,33.52,6.06,6.09,24.54,2,35.55,2,54.68,2,55.16,9.78,67.42,7.83A50.89,50.89,0,0,0,55,20.81a1,1,0,0,0,1.72,1C56.84,21.65,67,5.07,85.38,2.38c22.75-2.68,36.56,7.7,36.56,31.14C121.94,49.35,105.08,66.1,107.73,78.44Z"/><path class="cls-5" d="M108.71,24.39H99.55V15.23a1,1,0,0,0-1-1H90.42a1,1,0,0,0-1,1v9.16H80.26a1,1,0,0,0-1,1v8.13a1,1,0,0,0,1,1h9.16v9.16a1,1,0,0,0,1,1h8.13a1,1,0,0,0,1-1V34.52h9.16a1,1,0,0,0,1-1V25.39A1,1,0,0,0,108.71,24.39Zm-1,8.13H98.55a1,1,0,0,0-1,1v9.16H91.42V33.52a1,1,0,0,0-1-1H81.26V26.39h9.16a1,1,0,0,0,1-1V16.23h6.13v9.16a1,1,0,0,0,1,1h9.16Z"/></g></svg>