<svg xmlns="http://www.w3.org/2000/svg" xmlns:xlink="http://www.w3.org/1999/xlink" viewBox="0 0 128 128"><defs><style>.cls-1{fill:url(#linear-gradient);}.cls-2{fill:#5b8dc9;}.cls-3{fill:url(#linear-gradient-2);}.cls-4{fill:url(#linear-gradient-3);}.cls-5{fill:url(#linear-gradient-4);}.cls-6{fill:url(#linear-gradient-5);}.cls-7{fill:url(#linear-gradient-6);}.cls-8{fill:url(#linear-gradient-7);}.cls-9{fill:url(#linear-gradient-8);}.cls-10{fill:#47566a;}</style><linearGradient id="linear-gradient" x1="64" y1="126.99" x2="64" y2="1" gradientUnits="userSpaceOnUse"><stop offset="0" stop-color="#7aa8d7"/><stop offset="1" stop-color="#96c8ea"/></linearGradient><linearGradient id="linear-gradient-2" y1="127" x2="64" y2="1" xlink:href="#linear-gradient"/><linearGradient id="linear-gradient-3" x1="78.22" y1="9.13" x2="78.22" y2="1" gradientUnits="userSpaceOnUse"><stop offset="0" stop-color="#6ab891"/><stop offset="1" stop-color="#85cba9"/></linearGradient><linearGradient id="linear-gradient-4" x1="51.81" y1="25.39" x2="51.81" y2="17.26" xlink:href="#linear-gradient-3"/><linearGradient id="linear-gradient-5" x1="64" y1="41.64" x2="64" y2="33.52" xlink:href="#linear-gradient-3"/><linearGradient id="linear-gradient-6" x1="49.78" y1="126.99" x2="49.78" y2="118.86" xlink:href="#linear-gradient-3"/><linearGradient id="linear-gradient-7" x1="76.19" y1="110.74" x2="76.19" y2="102.61" xlink:href="#linear-gradient-3"/><linearGradient id="linear-gradient-8" x1="64" y1="94.48" x2="64" y2="86.35" xlink:href="#linear-gradient-3"/></defs><title>DNA</title><g id="DNA"><path class="cls-1" d="M108.71,127h-8.13c0-1.4-.55-33-32.86-55.74-5.61-3.89-10-6.18-14.71-9.77C19.72,36.42,19.29,2.53,19.29,1h8.13c0,1.4.55,33,32.86,55.74,5.61,3.9,10,6.18,14.71,9.78C108.28,91.57,108.71,125.47,108.71,127Z"/><path class="cls-2" d="M75,66.52c-4.11,2.94-7,4.51-7.27,4.73-5.61-3.89-10-6.18-14.71-9.77,2.13-1.53,4.41-3,6.8-4.45.71-.44-.15-.57,4.19,2.19C69.94,63,71.92,64.17,75,66.52Z"/><path class="cls-3" d="M19.29,127c0-1.67.49-41.2,42.62-66.48C100,37.68,100.57,2.48,100.58,1h8.13c0,1.67-.49,41.2-42.62,66.48C28,90.31,27.43,125.52,27.42,127Z"/><circle class="cls-4" cx="78.22" cy="5.07" r="4.06"/><circle class="cls-5" cx="51.81" cy="21.32" r="4.06"/><circle class="cls-6" cx="64" cy="37.58" r="4.06"/><circle class="cls-7" cx="49.78" cy="122.93" r="4.06"/><circle class="cls-8" cx="76.19" cy="106.67" r="4.06"/><circle class="cls-9" cx="64" cy="90.41" r="4.06"/><path class="cls-10" d="M73.23,64c36-25.52,36.48-61.41,36.48-63a1,1,0,0,0-2,0c0,1.58-.44,37.17-36.72,62.14-.22.13-2.22,1.57-5.41,3.49A85.26,85.26,0,0,0,40,89.85C31.1,102.2,26.47,117.19,26.42,127a1,1,0,0,0,2,0c0-.24,0-1.33.2-3.08H44.81a5.07,5.07,0,0,0,9.93,0H99.39c.17,1.74.19,2.83.19,3.06a1,1,0,0,0,2,0c0-1.43-.44-35-35.72-58.18,2.21-1.35,3.66-2.25,5.63-3.59,35.79,24.94,36.22,60.27,36.22,61.77a1,1,0,0,0,2,0C109.71,125.46,109.26,89.52,73.23,64ZM59,91.42a5.06,5.06,0,0,0,9.92,0H86.77a73,73,0,0,1,7.89,14.25H81.16a5.07,5.07,0,0,0-9.93,0H33.39a73.14,73.14,0,0,1,7.88-14.25Zm1.9-1A3.06,3.06,0,1,1,64,93.48,3.07,3.07,0,0,1,60.94,90.42Zm18.32,16.25a3.07,3.07,0,1,1-3.07-3.06A3.08,3.08,0,0,1,79.26,106.67ZM49.78,126a3.07,3.07,0,1,1,3.06-3.06A3.07,3.07,0,0,1,49.78,126Zm5-4.06a5.07,5.07,0,0,0-9.93,0H28.87a67.73,67.73,0,0,1,3.73-14.26H71.23a5.07,5.07,0,0,0,9.93,0H95.45a66.87,66.87,0,0,1,3.7,14.26ZM85.3,89.42H69a5.06,5.06,0,0,0-9.92,0H42.73A82.37,82.37,0,0,1,64,70,82.39,82.39,0,0,1,85.3,89.42Z"/><path class="cls-10" d="M57,64.89c.11-.06,2-1.47,5.46-3.52C73.69,54.61,80.81,47.67,88,38.18,97,25.7,101.53,10.69,101.58,1a1,1,0,0,0-2,0c0,.23,0,1.32-.2,3.07H83.19a5.07,5.07,0,0,0-9.93,0H28.61c-.17-1.75-.19-2.84-.19-3.07a1,1,0,0,0-2,0c0,1.44.44,35,35.72,58.19C59.21,61,58,61.8,56.51,62.77,20.72,37.83,20.29,2.5,20.29,1a1,1,0,0,0-2,0c0,1.54.45,37.48,36.48,63-36,25.52-36.48,61.41-36.48,63a1,1,0,0,0,2,0C20.29,125.42,20.73,89.85,57,64.89ZM69,36.58a5.06,5.06,0,0,0-9.92,0H41.23a73,73,0,0,1-7.89-14.26h13.5a5.07,5.07,0,0,0,9.93,0H94.61a73,73,0,0,1-7.88,14.26Zm-1.9,1A3.06,3.06,0,1,1,64,34.52,3.06,3.06,0,0,1,67.06,37.58ZM48.74,21.32a3.07,3.07,0,1,1,3.07,3.07A3.07,3.07,0,0,1,48.74,21.32ZM78.22,2a3.07,3.07,0,1,1-3.06,3.07A3.08,3.08,0,0,1,78.22,2Zm-5,4.07a5.07,5.07,0,0,0,9.93,0H99.13A66.6,66.6,0,0,1,95.4,20.32H56.77a5.07,5.07,0,0,0-9.93,0H32.55a66.81,66.81,0,0,1-3.7-14.25ZM42.7,38.58H59a5.06,5.06,0,0,0,9.92,0H85.27A82.37,82.37,0,0,1,64,58,82.57,82.57,0,0,1,42.7,38.58Z"/></g></svg>