<svg xmlns="http://www.w3.org/2000/svg" xmlns:xlink="http://www.w3.org/1999/xlink" viewBox="0 0 128 128"><defs><style>.cls-1{fill:url(#linear-gradient);}.cls-2{fill:#5b8dc9;}.cls-3{fill:#86b8e0;}.cls-4{fill:url(#linear-gradient-2);}.cls-5{fill:#c7cdd8;}.cls-6{fill:url(#linear-gradient-3);}.cls-7{fill:url(#linear-gradient-4);}.cls-8{fill:url(#linear-gradient-5);}.cls-9{fill:url(#linear-gradient-6);}.cls-10{fill:url(#linear-gradient-7);}.cls-11{fill:url(#linear-gradient-8);}.cls-12{fill:#dfe3ea;}.cls-13{fill:url(#linear-gradient-9);}.cls-14{fill:#77cacb;}.cls-15{fill:#47566a;}</style><linearGradient id="linear-gradient" x1="39.63" y1="127" x2="39.63" y2="49.77" gradientUnits="userSpaceOnUse"><stop offset="0" stop-color="#7aa8d7"/><stop offset="1" stop-color="#96c8ea"/></linearGradient><linearGradient id="linear-gradient-2" x1="39.63" y1="49.77" x2="39.63" y2="33.52" gradientTransform="translate(79.27 83.29) rotate(180)" gradientUnits="userSpaceOnUse"><stop offset="0" stop-color="#d4d8e1"/><stop offset="1" stop-color="#f3f4f5"/></linearGradient><linearGradient id="linear-gradient-3" x1="39.64" y1="33.52" x2="39.64" y2="25.39" gradientTransform="matrix(1, 0, 0, 1, 0, 0)" xlink:href="#linear-gradient-2"/><linearGradient id="linear-gradient-4" x1="39.63" y1="25.39" x2="39.63" y2="1" xlink:href="#linear-gradient"/><linearGradient id="linear-gradient-5" x1="102.63" y1="37.58" x2="102.63" y2="1" xlink:href="#linear-gradient"/><linearGradient id="linear-gradient-6" x1="102.63" y1="45.71" x2="102.63" y2="37.58" xlink:href="#linear-gradient"/><linearGradient id="linear-gradient-7" x1="102.63" y1="127" x2="102.63" y2="45.71" gradientTransform="matrix(1, 0, 0, 1, 0, 0)" xlink:href="#linear-gradient-2"/><linearGradient id="linear-gradient-8" x1="39.63" y1="114.81" x2="39.63" y2="74.16" gradientTransform="translate(79.27 188.97) rotate(180)" xlink:href="#linear-gradient-2"/><linearGradient id="linear-gradient-9" x1="39.63" y1="106.68" x2="39.63" y2="84.32" gradientUnits="userSpaceOnUse"><stop offset="0" stop-color="#9dd5df"/><stop offset="1" stop-color="#c3e1f5"/></linearGradient></defs><title>Droper</title><g id="Droper"><path class="cls-1" d="M23.38,49.77H55.89c0,5.8-.49,7.78,1.7,9.35l9.12,6.51a8.13,8.13,0,0,1,3.41,6.62v50.69A4.07,4.07,0,0,1,66.05,127H13.21a4.06,4.06,0,0,1-4.06-4.06V72.25a8.15,8.15,0,0,1,3.4-6.62C24.94,56.79,23.38,59.7,23.38,49.77Z"/><path class="cls-2" d="M70.12,116.84v6.1A4.08,4.08,0,0,1,66.05,127H13.21a4.08,4.08,0,0,1-4.06-4.06v-6.1a4.08,4.08,0,0,0,4.06,4.06H66.05A4.08,4.08,0,0,0,70.12,116.84Z"/><rect class="cls-3" x="23.38" y="49.77" width="32.52" height="6.1"/><rect class="cls-4" x="19.31" y="33.52" width="40.65" height="16.26" transform="translate(79.27 83.29) rotate(-180)"/><rect class="cls-5" x="19.31" y="33.52" width="40.65" height="4.06" transform="translate(79.27 71.1) rotate(-180)"/><path class="cls-6" d="M23.38,33.52c34.17,0,32.51-.21,32.51,0a8.13,8.13,0,0,0-8.13-8.13H31.5A8.12,8.12,0,0,0,23.38,33.52Z"/><path class="cls-7" d="M31.5,25.39H47.76V9.13a8.13,8.13,0,1,0-16.26,0Z"/><path class="cls-8" d="M92.47,37.58h20.32V11.16a10.16,10.16,0,0,0-20.32,0Z"/><path class="cls-9" d="M114.83,37.58H90.44c-5.41,0-5.33,8.13,0,8.13h24.39C120.23,45.71,120.15,37.58,114.83,37.58Z"/><path class="cls-10" d="M110.76,45.71v63l-4.06,10.16V127l-8.13-4.06c0-5.42.81-2-4.07-14.23v-63Z"/><rect class="cls-11" x="9.15" y="74.16" width="60.97" height="40.65" transform="translate(79.27 188.97) rotate(-180)"/><rect class="cls-12" x="9.15" y="74.16" width="60.97" height="4.06" transform="translate(79.27 152.39) rotate(-180)"/><path class="cls-13" d="M31.5,98.55a8.13,8.13,0,1,0,16.26,0c0-6.1-8.13-14.23-8.13-14.23S31.5,92.45,31.5,98.55Z"/><path class="cls-14" d="M39.63,106.68a8.11,8.11,0,0,1-7.86-10.16c2.06,8.09,13.67,8.1,15.73,0A8.12,8.12,0,0,1,39.63,106.68Z"/><rect class="cls-2" x="31.5" y="21.32" width="16.26" height="4.06"/><rect class="cls-2" x="92.47" y="33.52" width="20.32" height="4.06"/><rect class="cls-5" x="94.5" y="45.71" width="16.26" height="6.1"/><path class="cls-15" d="M67.27,64.82l-9.12-6.51c-1.61-1.16-1.28-2.35-1.28-7.54h3.07a1,1,0,0,0,1-1V33.52a1,1,0,0,0-1-1H56.81a9.14,9.14,0,0,0-8.07-8.08V9.13a9.13,9.13,0,0,0-18.26,0V24.44a9.16,9.16,0,0,0-8.07,8.08H19.29a1,1,0,0,0-1,1V49.77a1,1,0,0,0,1,1h3.06c0,4.79.42,6.32-1.28,7.54L12,64.82a9.16,9.16,0,0,0-3.82,7.43v50.69A5.07,5.07,0,0,0,13.19,128H66a5.07,5.07,0,0,0,5.07-5.06V72.25A9.14,9.14,0,0,0,67.27,64.82ZM32.48,9.13a7.13,7.13,0,1,1,14.26,0V24.39H32.48Zm-1,17.26H47.74a7.14,7.14,0,0,1,7.06,6.13H24.42A7.14,7.14,0,0,1,31.48,26.39ZM20.29,34.52H58.94V48.77H20.29ZM69.1,113.81h-59V75.16h59ZM66,126H13.19a3.06,3.06,0,0,1-3.06-3.06v-7.13h59v7.13A3.07,3.07,0,0,1,66,126ZM69.1,73.16h-59v-.91a7.15,7.15,0,0,1,3-5.8l9.12-6.52a5.07,5.07,0,0,0,2.12-4.12v-5H54.87v5A5.07,5.07,0,0,0,57,59.93l9.12,6.52a7.13,7.13,0,0,1,3,5.8Z"/><path class="cls-15" d="M114.81,36.58h-1V11.16a11.16,11.16,0,1,0-22.32,0V36.58h-1a5.07,5.07,0,1,0,0,10.13h3.06v62c0,.28-.3-.56,4.07,10.35v3.88a1,1,0,0,0,.55.89c9,4.47,8.24,4.17,8.58,4.17a1,1,0,0,0,1-1v-7.94l4-10c.11-.27.07,4.23.07-62.37h3.07a5.07,5.07,0,0,0,0-10.13ZM93.45,11.16a9.16,9.16,0,1,1,18.32,0V36.58H93.45Zm16.29,47.78h-3.06a1,1,0,0,0,0,2h3.06V69.1h-7.13a1,1,0,0,0,0,2h7.13v8.16h-3.06a1,1,0,0,0,0,2h3.06v8.16h-7.13a1,1,0,0,0,0,2h7.13v8.16h-3.06a1,1,0,0,0,0,2h3.06v6.94l-4,10c-.1.26-.07-.21-.07,6.88l-6.13-3.06v-3.45c0-.28.3.56-4.07-10.35V46.71h14.26Zm5.07-14.23H90.42a3.07,3.07,0,1,1,0-6.13h24.39a3.07,3.07,0,0,1,0,6.13Z"/><path class="cls-15" d="M39.61,107.68a9.14,9.14,0,0,0,9.13-9.13c0-6.44-8.08-14.59-8.42-14.93a1,1,0,0,0-1.41,0c-.35.34-8.43,8.49-8.43,14.93A9.15,9.15,0,0,0,39.61,107.68Zm0-21.9c1.93,2.09,7.13,8.18,7.13,12.77a7.13,7.13,0,1,1-14.26,0C32.48,94,37.69,87.87,39.61,85.78Z"/><path class="cls-15" d="M44.68,43.68V39.61a1,1,0,0,0-2,0v4.07A1,1,0,0,0,44.68,43.68Z"/><path class="cls-15" d="M52.81,43.68V39.61a1,1,0,0,0-2,0v4.07A1,1,0,0,0,52.81,43.68Z"/><path class="cls-15" d="M36.55,43.68V39.61a1,1,0,0,0-2,0v4.07A1,1,0,0,0,36.55,43.68Z"/><path class="cls-15" d="M28.42,43.68V39.61a1,1,0,0,0-2,0v4.07A1,1,0,0,0,28.42,43.68Z"/></g></svg>