<svg xmlns="http://www.w3.org/2000/svg" xmlns:xlink="http://www.w3.org/1999/xlink" viewBox="0 0 128 128"><defs><style>.cls-1{fill:url(#linear-gradient);}.cls-2{fill:#5b8dc9;}.cls-3{fill:url(#linear-gradient-2);}.cls-4{fill:#c7cdd8;}.cls-5{fill:url(#linear-gradient-3);}.cls-6{fill:#dd4e6a;}.cls-7{fill:url(#linear-gradient-4);}.cls-8{fill:url(#linear-gradient-5);}.cls-9{fill:#47566a;}</style><linearGradient id="linear-gradient" x1="52.56" y1="126.99" x2="52.56" y2="23.9" gradientUnits="userSpaceOnUse"><stop offset="0" stop-color="#7aa8d7"/><stop offset="1" stop-color="#96c8ea"/></linearGradient><linearGradient id="linear-gradient-2" x1="90.42" y1="74.16" x2="90.42" y2="1" gradientUnits="userSpaceOnUse"><stop offset="0" stop-color="#d4d8e1"/><stop offset="1" stop-color="#f3f4f5"/></linearGradient><linearGradient id="linear-gradient-3" x1="90.42" y1="61.97" x2="90.42" y2="13.2" gradientUnits="userSpaceOnUse"><stop offset="0" stop-color="#da5466"/><stop offset="1" stop-color="#e87092"/></linearGradient><linearGradient id="linear-gradient-4" x1="90.42" y1="51.81" x2="90.42" y2="23.36" xlink:href="#linear-gradient-2"/><linearGradient id="linear-gradient-5" x1="90.42" y1="51.81" x2="90.42" y2="47.74" xlink:href="#linear-gradient-2"/></defs><title>Emergency Call</title><g id="Emergency_Call" data-name="Emergency Call"><path class="cls-1" d="M102.92,114.18l-8.62,8.61c-9.53,9.53-42.94,3-67.55-21.54S-4.32,43.23,5.21,33.7c7.65-7.62.36-.37,8.62-8.61a4.06,4.06,0,0,1,5.75,0L39.7,45.2a4.08,4.08,0,0,1,0,5.75C29,61.61,26.27,64.39,25.33,65.32,17.59,73,55,110.42,62.68,102.67c9.42-9.42,13.24-13.25,14.37-14.36a4.06,4.06,0,0,1,5.75,0l20.12,20.11A4.09,4.09,0,0,1,102.92,114.18Z"/><path class="cls-2" d="M25,65.69c-1.07-3-1-5.2.29-6.46L39.53,45A4.11,4.11,0,0,1,39.7,51C24.42,66.23,25.17,65.44,25,65.69Z"/><path class="cls-2" d="M102.92,114.18l-8.62,8.61c-9.53,9.53-42.94,3-67.55-21.54C8.1,82.6-.13,58.86,1.13,44.33c1.05,14.51,9.38,34.59,25.62,50.82,24.61,24.59,58,31.08,67.55,21.55l8.45-8.44A4.11,4.11,0,0,1,102.92,114.18Z"/><path class="cls-3" d="M90.42,1C56.6,1,40.87,43.32,66.68,65.38L57.9,74.16H90.42A36.58,36.58,0,0,0,90.42,1Z"/><path class="cls-4" d="M90.42,74.16H57.9l8.78-8.78A36.5,36.5,0,0,1,54,34.54a36.59,36.59,0,0,0,72.92,0A36.59,36.59,0,0,1,90.42,74.16Z"/><circle class="cls-5" cx="90.42" cy="37.58" r="24.39"/><path class="cls-6" d="M90.42,62C75.48,62,64.23,48.61,66.24,34.54a24.37,24.37,0,0,0,48.36,0C116.62,48.65,105.34,62,90.42,62Z"/><polygon class="cls-7" points="104.64 33.52 94.48 33.52 94.48 23.36 86.35 23.36 86.35 33.52 76.19 33.52 76.19 41.65 86.35 41.65 86.35 51.81 94.48 51.81 94.48 41.65 104.64 41.65 104.64 33.52"/><rect class="cls-8" x="86.35" y="47.74" width="8.13" height="4.06"/><path class="cls-9" d="M83.5,87.61a5.06,5.06,0,0,0-7.16,0L62,102C55.23,108.71,19.32,72.73,26,66L40.39,51.66a5.06,5.06,0,0,0,0-7.16L20.28,24.38a5.07,5.07,0,0,0-7.17,0L4.49,33C-5.95,43.45,2.1,78,26.05,102c23.49,23.49,58.29,32.22,69,21.56l8.62-8.62a5.07,5.07,0,0,0,0-7.17Zm-69-61.82a3.07,3.07,0,0,1,4.33,0c21.69,21.69,21,20.51,21,22.29s-1,2.22-4.72,6L10.71,29.61Zm79.06,96.3c-8.92,8.92-41.41,3.17-66.13-21.55-25-25-30.32-57.36-21.55-66.13L9.29,31,33.74,55.48l-9.13,9.13c-3.92,3.92,1.16,14.07,12.93,25.85s21.93,16.85,25.85,12.93l9.13-9.13L97,118.71Zm4.8-4.8L73.93,92.84,77.76,89a3.13,3.13,0,0,1,4.33,0c21.73,21.73,21,20.51,21,22.29S102.25,113.43,98.39,117.29Z"/><path class="cls-9" d="M90.42,0C56.29,0,39.73,42.36,65.22,65.43c-8.47,8.47-8.6,8.25-8.24,9.11s-1.93.62,33.44.62A37.58,37.58,0,0,0,90.42,0Zm0,73.16H60.32l7.07-7.07a1,1,0,0,0-.06-1.47,35.55,35.55,0,1,1,23.09,8.54Z"/><path class="cls-9" d="M90.42,12.19a25.39,25.39,0,1,0,25.39,25.39A25.42,25.42,0,0,0,90.42,12.19Zm0,48.78a23.39,23.39,0,1,1,23.39-23.39A23.41,23.41,0,0,1,90.42,61Z"/><path class="cls-9" d="M104.65,32.52H95.48V23.35a1,1,0,0,0-1-1H86.35a1,1,0,0,0-1,1v9.17H76.19a1,1,0,0,0-1,1v8.13a1,1,0,0,0,1,1h9.16v9.16a1,1,0,0,0,1,1h8.13a1,1,0,0,0,1-1V42.65h9.17a1,1,0,0,0,1-1V33.52A1,1,0,0,0,104.65,32.52Zm-1,8.13H94.48a1,1,0,0,0-1,1v9.16H87.35V41.65a1,1,0,0,0-1-1H77.19V34.52h9.16a1,1,0,0,0,1-1V24.35h6.13v9.17a1,1,0,0,0,1,1h9.17Z"/></g></svg>