<svg xmlns="http://www.w3.org/2000/svg" xmlns:xlink="http://www.w3.org/1999/xlink" viewBox="0 0 128 128"><defs><style>.cls-1{fill:url(#linear-gradient);}.cls-2{fill:#5b8dc9;}.cls-3{fill:#d4d8e1;}.cls-4{fill:url(#linear-gradient-2);}.cls-5{fill:#c7cdd8;}.cls-6{fill:url(#linear-gradient-3);}.cls-7{fill:#dd4e6a;}.cls-8{fill:url(#linear-gradient-4);}.cls-9{fill:#47566a;}</style><linearGradient id="linear-gradient" x1="64" y1="127" x2="64" y2="1" gradientUnits="userSpaceOnUse"><stop offset="0" stop-color="#7aa8d7"/><stop offset="1" stop-color="#96c8ea"/></linearGradient><linearGradient id="linear-gradient-2" x1="64" y1="116.29" x2="64" y2="15.73" gradientUnits="userSpaceOnUse"><stop offset="0" stop-color="#d4d8e1"/><stop offset="1" stop-color="#f3f4f5"/></linearGradient><linearGradient id="linear-gradient-3" x1="64" y1="82.29" x2="64" y2="33.52" gradientUnits="userSpaceOnUse"><stop offset="0" stop-color="#da5466"/><stop offset="1" stop-color="#e87092"/></linearGradient><linearGradient id="linear-gradient-4" y1="72.13" y2="43.68" xlink:href="#linear-gradient-2"/></defs><title>Healthy Insurance</title><g id="Healthy_Insurance" data-name="Healthy Insurance"><path class="cls-1" d="M64,127A74.85,74.85,0,0,1,11.16,55.46V9.13C29.74,9.13,45.93,7,64,1c18.06,6,34.25,8.13,52.84,8.13V55.46A74.85,74.85,0,0,1,64,127Z"/><path class="cls-2" d="M116.84,51.4v4.06A74.86,74.86,0,0,1,64,127,74.86,74.86,0,0,1,11.16,55.46V51.4A74.87,74.87,0,0,0,64,122.94,74.87,74.87,0,0,0,116.84,51.4Z"/><path class="cls-3" d="M106.68,19.13v4.06A167.58,167.58,0,0,1,64,15.73a167.58,167.58,0,0,1-42.68,7.46V19.13A167.58,167.58,0,0,0,64,11.67,167.58,167.58,0,0,0,106.68,19.13Z"/><path class="cls-4" d="M106.68,23.19V55.46A64.35,64.35,0,0,1,64,116.29,64.35,64.35,0,0,1,21.32,55.46V23.19A167.58,167.58,0,0,0,64,15.73,167.58,167.58,0,0,0,106.68,23.19Z"/><path class="cls-5" d="M106.68,51.4v4.06A64.35,64.35,0,0,1,64,116.29,64.35,64.35,0,0,1,21.32,55.46V51.4A64.35,64.35,0,0,0,64,112.23,64.35,64.35,0,0,0,106.68,51.4Z"/><circle class="cls-6" cx="64" cy="57.9" r="24.39"/><path class="cls-7" d="M64,82.29A24.4,24.4,0,0,1,39.69,55.87a24.4,24.4,0,0,0,48.62,0A24.39,24.39,0,0,1,64,82.29Z"/><polygon class="cls-8" points="78.23 53.84 68.06 53.84 68.06 43.68 59.94 43.68 59.94 53.84 49.77 53.84 49.77 61.97 59.94 61.97 59.94 72.13 68.06 72.13 68.06 61.97 78.23 61.97 78.23 53.84"/><rect class="cls-5" x="59.94" y="66.03" width="8.13" height="6.1"/><path class="cls-9" d="M116.84,8.13C99.33,8.13,83.09,6.31,64.32.05,62.13-.68,47.19,8.13,11.16,8.13a1,1,0,0,0-1,1V55.46A75.48,75.48,0,0,0,63.71,128a1.14,1.14,0,0,0,.58,0,75.48,75.48,0,0,0,53.55-72.5V9.13A1,1,0,0,0,116.84,8.13Zm-1,47.33A73.47,73.47,0,0,1,64,126,73.47,73.47,0,0,1,12.16,55.46V10.13A159.36,159.36,0,0,0,64,2.05a159.28,159.28,0,0,0,51.84,8.08Z"/><path class="cls-9" d="M106.72,18.13c-26.25-1.15-41.86-7.77-43-7.41a167.13,167.13,0,0,1-42.42,7.41,1,1,0,0,0-1,1V55.46a65,65,0,0,0,43.34,61.77,1,1,0,0,0,.68,0,65,65,0,0,0,43.34-61.77V19.13A1,1,0,0,0,106.72,18.13Zm-1,37.33A63,63,0,0,1,64,115.23,63,63,0,0,1,22.32,55.46V20.08A169.21,169.21,0,0,0,64,12.72a169.29,169.29,0,0,0,41.68,7.36Z"/><path class="cls-9" d="M38.61,57.9A25.39,25.39,0,1,0,64,32.52,25.42,25.42,0,0,0,38.61,57.9Zm48.78,0A23.39,23.39,0,1,1,64,34.52,23.41,23.41,0,0,1,87.39,57.9Z"/><path class="cls-9" d="M58.94,43.68v9.16H49.77a1,1,0,0,0-1,1V62a1,1,0,0,0,1,1h9.17v9.16a1,1,0,0,0,1,1h8.12a1,1,0,0,0,1-1V63h9.17a1,1,0,0,0,1-1V53.84a1,1,0,0,0-1-1H69.06V43.68a1,1,0,0,0-1-1H59.94A1,1,0,0,0,58.94,43.68Zm2,10.16V44.68h6.12v9.16a1,1,0,0,0,1,1h9.17V61H68.06a1,1,0,0,0-1,1v9.16H60.94V62a1,1,0,0,0-1-1H50.77V54.84h9.17A1,1,0,0,0,60.94,53.84Z"/></g></svg>