<svg xmlns="http://www.w3.org/2000/svg" xmlns:xlink="http://www.w3.org/1999/xlink" viewBox="0 0 128 128"><defs><style>.cls-1{fill:url(#linear-gradient);}.cls-2{fill:url(#linear-gradient-2);}.cls-3{fill:#4da67f;}.cls-4{fill:url(#linear-gradient-3);}.cls-5{fill:#c7cdd8;}.cls-6{fill:url(#linear-gradient-4);}.cls-7{fill:#dd4e6a;}.cls-8{fill:url(#linear-gradient-5);}.cls-9{fill:url(#linear-gradient-6);}.cls-10{fill:#8288a1;}.cls-11{fill:#47566a;}</style><linearGradient id="linear-gradient" x1="25.39" y1="53.84" x2="25.39" y2="25.39" gradientUnits="userSpaceOnUse"><stop offset="0" stop-color="#6ab891"/><stop offset="1" stop-color="#85cba9"/></linearGradient><linearGradient id="linear-gradient-2" x1="57.9" y1="53.84" x2="57.9" y2="29.45" gradientTransform="translate(115.81 83.29) rotate(-180)" xlink:href="#linear-gradient"/><linearGradient id="linear-gradient-3" x1="64" y1="118.85" x2="64" y2="53.79" gradientUnits="userSpaceOnUse"><stop offset="0" stop-color="#d4d8e1"/><stop offset="1" stop-color="#f3f4f5"/></linearGradient><linearGradient id="linear-gradient-4" x1="64.03" y1="110.73" x2="64.03" y2="61.98" gradientUnits="userSpaceOnUse"><stop offset="0" stop-color="#da5466"/><stop offset="1" stop-color="#e87092"/></linearGradient><linearGradient id="linear-gradient-5" x1="64.03" y1="100.57" x2="64.03" y2="72.13" xlink:href="#linear-gradient-3"/><linearGradient id="linear-gradient-6" x1="93.78" y1="53.85" x2="93.78" y2="1.02" gradientUnits="userSpaceOnUse"><stop offset="0" stop-color="#949aaf"/><stop offset="1" stop-color="#c6ccda"/></linearGradient></defs><title>Herbal</title><g id="Herbal"><path class="cls-1" d="M7.1,25.39H17.34A26.34,26.34,0,0,1,43.68,51.73v2.11a0,0,0,0,1,0,0H33.44A26.34,26.34,0,0,1,7.1,27.5V25.39A0,0,0,0,1,7.1,25.39Z"/><path class="cls-2" d="M65.72,29.45h6.41a0,0,0,0,1,0,0V31.8a22,22,0,0,1-22,22H43.68a0,0,0,0,1,0,0V51.49a22,22,0,0,1,22-22Z" transform="translate(115.81 83.29) rotate(180)"/><path class="cls-3" d="M43.68,53.84H33.44A26.34,26.34,0,0,1,7.1,27.5c0-2.41,0-2.11.07-2.11A26.32,26.32,0,0,0,33.44,49.84H43.61C43.69,50.86,43.68,51.42,43.68,53.84Z"/><path class="cls-3" d="M72.13,31.8a22,22,0,0,1-22,22H43.68c0-2.24,0-3,.07-4h6.34a22,22,0,0,0,22-20.39C72.16,29.45,72.13,29.18,72.13,31.8Z"/><path class="cls-4" d="M84.35,118.85H43.72A42.65,42.65,0,0,1,1.07,76.2c0-20.19-.17-22.35,0-22.35,125.56,0,125.9-.17,125.9,0V76.2A42.66,42.66,0,0,1,84.35,118.85Z"/><path class="cls-5" d="M123.16,93.89a42.63,42.63,0,0,1-38.81,25H43.72a42.63,42.63,0,0,1-38.81-25A43.89,43.89,0,0,0,41,112.76h46A43.89,43.89,0,0,0,123.16,93.89Z"/><rect class="cls-5" x="43.72" y="118.85" width="40.62" height="8.12"/><circle class="cls-6" cx="64.03" cy="86.35" r="24.37"/><path class="cls-7" d="M64,110.73c-14.92,0-26.19-13.36-24.18-27.44a24.37,24.37,0,0,0,48.37,0C90.23,97.4,79,110.73,64,110.73Z"/><polygon class="cls-8" points="78.25 82.29 68.1 82.29 68.1 72.13 59.97 72.13 59.97 82.29 49.81 82.29 49.81 90.41 59.97 90.41 59.97 100.57 68.1 100.57 68.1 90.41 78.25 90.41 78.25 82.29"/><rect class="cls-5" x="59.97" y="94.48" width="8.12" height="6.09"/><path class="cls-9" d="M106.63,27c-5,25-3.76,18.9-5.32,26.85H74.76c2.77-8.14.62-1.84,11-32.44A14.22,14.22,0,0,1,102.28,1.53C114.08,4.68,116.55,20.21,106.63,27Z"/><polygon class="cls-10" points="102.5 47.76 101.31 53.85 74.76 53.85 76.83 47.76 102.5 47.76"/><path class="cls-11" d="M127,52.84H102.51l5-25.28a15.24,15.24,0,0,0,4.26-19.94c-6.75-11.7-24.4-9.37-27.9,3.67a15.23,15.23,0,0,0,.83,10.15L74,52.84H59.46a23.06,23.06,0,0,0,13.67-21V29.45a1,1,0,0,0-1-1H65.72a23.07,23.07,0,0,0-22,16.15A27.38,27.38,0,0,0,17.34,24.39H7.1a1,1,0,0,0-1,1V27.5A27.39,27.39,0,0,0,23.19,52.84H1a1.06,1.06,0,0,0-1,1V76.19a43.73,43.73,0,0,0,42.68,43.66V127a1,1,0,0,0,1,1H84.32a1,1,0,0,0,1-1v-7.15A43.73,43.73,0,0,0,128,76.19V53.87A1.06,1.06,0,0,0,127,52.84ZM86.69,21a13.14,13.14,0,0,1-.87-9.14C88.85.47,104.18-1.54,110,8.61a13.24,13.24,0,0,1-4,17.54c-.5.34.06-1.75-5.58,26.69H76.13C87.62,19.09,87,21.5,86.69,21Zm-21,9.5h5.41V31.8a21.07,21.07,0,0,1-21,21H46.31L62.63,38.33a1,1,0,0,0-1.33-1.5L44.68,51.61A21.05,21.05,0,0,1,65.72,30.45ZM8.1,26.39h9.24A25.36,25.36,0,0,1,42.68,51.84L19.89,34.75a1,1,0,0,0-1.2,1.6l22,16.49H33.44C20.44,52.84,8.1,42.83,8.1,26.39ZM83.32,126H44.68v-6.13H83.32ZM126,76.19a41.73,41.73,0,0,1-41.68,41.68H43.68A41.73,41.73,0,0,1,2,76.19V54.84H126Z"/><path class="cls-11" d="M64,61A25.39,25.39,0,1,0,89.39,86.35,25.42,25.42,0,0,0,64,61Zm0,48.77A23.39,23.39,0,1,1,87.39,86.35,23.41,23.41,0,0,1,64,109.74Z"/><path class="cls-11" d="M78.23,81.29H69.06V72.13a1,1,0,0,0-1-1H59.94a1,1,0,0,0-1,1v9.16H49.77a1,1,0,0,0-1,1v8.13a1,1,0,0,0,1,1h9.17v9.16a1,1,0,0,0,1,1h8.12a1,1,0,0,0,1-1V91.42h9.17a1,1,0,0,0,1-1V82.29A1,1,0,0,0,78.23,81.29Zm-1,8.13H68.06a1,1,0,0,0-1,1v9.16H60.94V90.42a1,1,0,0,0-1-1H50.77V83.29h9.17a1,1,0,0,0,1-1V73.13h6.12v9.16a1,1,0,0,0,1,1h9.17Z"/></g></svg>