<svg xmlns="http://www.w3.org/2000/svg" xmlns:xlink="http://www.w3.org/1999/xlink" viewBox="0 0 128 128"><defs><style>.cls-1{fill:url(#linear-gradient);}.cls-2{fill:url(#linear-gradient-2);}.cls-3{fill:url(#linear-gradient-3);}.cls-4{fill:#c7cdd8;}.cls-5{fill:url(#linear-gradient-4);}.cls-6{fill:url(#linear-gradient-5);}.cls-7{fill:url(#linear-gradient-6);}.cls-8{fill:url(#linear-gradient-7);}.cls-9{fill:url(#linear-gradient-8);}.cls-10{fill:url(#linear-gradient-9);}.cls-11{fill:url(#linear-gradient-10);}.cls-12{fill:url(#linear-gradient-11);}.cls-13{fill:url(#linear-gradient-12);}.cls-14{fill:#8288a1;}.cls-15{fill:url(#linear-gradient-13);}.cls-16{fill:url(#linear-gradient-14);}.cls-17{fill:url(#linear-gradient-15);}.cls-18{fill:url(#linear-gradient-16);}.cls-19{fill:url(#linear-gradient-17);}.cls-20{fill:url(#linear-gradient-18);}.cls-21{fill:url(#linear-gradient-19);}.cls-22{fill:url(#linear-gradient-20);}.cls-23{fill:url(#linear-gradient-21);}.cls-24{fill:#dd4e6a;}.cls-25{fill:#47566a;}</style><linearGradient id="linear-gradient" x1="34.54" y1="25.39" x2="34.54" y2="17.26" gradientUnits="userSpaceOnUse"><stop offset="0" stop-color="#949aaf"/><stop offset="1" stop-color="#c6ccda"/></linearGradient><linearGradient id="linear-gradient-2" x1="93.46" y1="25.39" x2="93.46" y2="17.26" xlink:href="#linear-gradient"/><linearGradient id="linear-gradient-3" x1="64" y1="118.84" x2="64" y2="25.39" gradientUnits="userSpaceOnUse"><stop offset="0" stop-color="#d4d8e1"/><stop offset="1" stop-color="#f3f4f5"/></linearGradient><linearGradient id="linear-gradient-4" x1="64" y1="118.84" x2="64" y2="92.43" gradientUnits="userSpaceOnUse"><stop offset="0" stop-color="#9dd5df"/><stop offset="1" stop-color="#c3e1f5"/></linearGradient><linearGradient id="linear-gradient-5" y1="51.8" y2="39.61" xlink:href="#linear-gradient-4"/><linearGradient id="linear-gradient-6" x1="86.35" y1="51.8" x2="86.35" y2="39.61" xlink:href="#linear-gradient-4"/><linearGradient id="linear-gradient-7" x1="41.65" y1="51.8" x2="41.65" y2="39.61" xlink:href="#linear-gradient-4"/><linearGradient id="linear-gradient-8" y1="74.15" y2="61.96" xlink:href="#linear-gradient-4"/><linearGradient id="linear-gradient-9" x1="86.35" y1="74.15" x2="86.35" y2="61.96" xlink:href="#linear-gradient-4"/><linearGradient id="linear-gradient-10" x1="41.65" y1="74.15" x2="41.65" y2="61.96" xlink:href="#linear-gradient-4"/><linearGradient id="linear-gradient-11" x1="114.79" y1="126.97" x2="114.79" y2="41.64" xlink:href="#linear-gradient"/><linearGradient id="linear-gradient-12" x1="13.21" y1="126.97" x2="13.21" y2="41.64" xlink:href="#linear-gradient"/><linearGradient id="linear-gradient-13" x1="114.79" y1="59.93" x2="114.79" y2="51.8" xlink:href="#linear-gradient-4"/><linearGradient id="linear-gradient-14" x1="114.79" y1="78.21" x2="114.79" y2="70.08" xlink:href="#linear-gradient-4"/><linearGradient id="linear-gradient-15" x1="114.79" y1="96.49" x2="114.79" y2="88.37" xlink:href="#linear-gradient-4"/><linearGradient id="linear-gradient-16" x1="13.21" y1="59.93" x2="13.21" y2="51.8" xlink:href="#linear-gradient-4"/><linearGradient id="linear-gradient-17" x1="13.21" y1="78.21" x2="13.21" y2="70.08" xlink:href="#linear-gradient-4"/><linearGradient id="linear-gradient-18" x1="13.21" y1="96.49" x2="13.21" y2="88.37" xlink:href="#linear-gradient-4"/><linearGradient id="linear-gradient-19" x1="64" y1="126.97" x2="64" y2="118.84" gradientUnits="userSpaceOnUse"><stop offset="0" stop-color="#9b756d"/><stop offset="1" stop-color="#bc9388"/></linearGradient><linearGradient id="linear-gradient-20" x1="64" y1="92.43" x2="64" y2="84.31" xlink:href="#linear-gradient"/><linearGradient id="linear-gradient-21" x1="64" y1="29.45" x2="64" y2="1.01" gradientUnits="userSpaceOnUse"><stop offset="0" stop-color="#da5466"/><stop offset="1" stop-color="#e87092"/></linearGradient></defs><title>Hospital</title><g id="Hospital"><rect class="cls-1" x="21.34" y="17.26" width="26.41" height="8.13"/><rect class="cls-2" x="80.25" y="17.26" width="26.41" height="8.13"/><polyline class="cls-3" points="80.25 25.39 102.6 25.39 102.6 118.84 25.4 118.84 25.4 25.39 47.75 25.39"/><polyline class="cls-4" points="80.25 112.75 102.6 112.75 102.6 118.84 25.4 118.84 25.4 112.75 47.75 112.75"/><rect class="cls-5" x="47.75" y="92.43" width="32.51" height="26.41"/><rect class="cls-6" x="57.91" y="39.61" width="12.19" height="12.19"/><rect class="cls-7" x="80.25" y="39.61" width="12.19" height="12.19"/><rect class="cls-8" x="35.56" y="39.61" width="12.19" height="12.19"/><rect class="cls-9" x="57.91" y="61.96" width="12.19" height="12.19"/><rect class="cls-10" x="80.25" y="61.96" width="12.19" height="12.19"/><rect class="cls-11" x="35.56" y="61.96" width="12.19" height="12.19"/><path class="cls-12" d="M102.6,41.64H127V127H102.6Z"/><path class="cls-13" d="M25.4,41.64H1V127H25.4Z"/><path class="cls-14" d="M102.6,126.39v-5.52H127V127C99.71,127,102.6,127.24,102.6,126.39Z"/><path class="cls-14" d="M25.4,126.39v-5.52H1V127C28.29,127,25.4,127.24,25.4,126.39Z"/><rect class="cls-15" x="110.58" y="51.8" width="8.42" height="8.13"/><rect class="cls-16" x="110.58" y="70.08" width="8.42" height="8.13"/><rect class="cls-17" x="110.58" y="88.37" width="8.42" height="8.13"/><rect class="cls-18" x="9.42" y="51.8" width="7.58" height="8.13"/><rect class="cls-19" x="9.42" y="70.08" width="7.58" height="8.13"/><rect class="cls-20" x="9.42" y="88.37" width="7.58" height="8.13"/><rect class="cls-21" x="17.27" y="118.84" width="93.45" height="8.13"/><rect class="cls-22" x="43.68" y="84.31" width="40.63" height="8.13"/><rect class="cls-23" x="47.75" y="1.01" width="32.51" height="28.44"/><rect class="cls-24" x="47.75" y="23.36" width="32.51" height="6.09"/><rect class="cls-4" x="25.4" y="25.39" width="22.35" height="4.06"/><rect class="cls-4" x="80.25" y="25.39" width="22.35" height="4.06"/><path class="cls-25" d="M57.9,16.23H63v5.09a1,1,0,0,0,2,0V16.23h5.1a1,1,0,0,0,0-2H65V9.13a1,1,0,0,0-2,0v5.1H57.9A1,1,0,0,0,57.9,16.23Z"/><path class="cls-25" d="M57.9,52.81H70.1a1,1,0,0,0,1-1V39.61a1,1,0,0,0-1-1H57.9a1,1,0,0,0-1,1v12.2A1,1,0,0,0,57.9,52.81Zm1-12.2H69.1v10.2H58.9Z"/><path class="cls-25" d="M80.26,52.81H92.45a1,1,0,0,0,1-1V39.61a1,1,0,0,0-1-1H80.26a1,1,0,0,0-1,1v12.2A1,1,0,0,0,80.26,52.81Zm1-12.2H91.45v10.2H81.26Z"/><path class="cls-25" d="M35.55,52.81H47.74a1,1,0,0,0,1-1V39.61a1,1,0,0,0-1-1H35.55a1,1,0,0,0-1,1v12.2A1,1,0,0,0,35.55,52.81Zm1-12.2H46.74v10.2H36.55Z"/><path class="cls-25" d="M57.9,75.16H70.1a1,1,0,0,0,1-1V62a1,1,0,0,0-1-1H57.9a1,1,0,0,0-1,1V74.16A1,1,0,0,0,57.9,75.16ZM58.9,63H69.1V73.16H58.9Z"/><path class="cls-25" d="M80.26,75.16H92.45a1,1,0,0,0,1-1V62a1,1,0,0,0-1-1H80.26a1,1,0,0,0-1,1V74.16A1,1,0,0,0,80.26,75.16Zm1-12.19H91.45V73.16H81.26Z"/><path class="cls-25" d="M35.55,75.16H47.74a1,1,0,0,0,1-1V62a1,1,0,0,0-1-1H35.55a1,1,0,0,0-1,1V74.16A1,1,0,0,0,35.55,75.16Zm1-12.19H46.74V73.16H36.55Z"/><path class="cls-25" d="M127,40.65H103.61V26.39h3.07a1,1,0,0,0,1-1V17.26a1,1,0,0,0-1-1H81.26V1a1,1,0,0,0-1-1H47.74a1,1,0,0,0-1,1V16.26H21.32a1,1,0,0,0-1,1v8.13a1,1,0,0,0,1,1h3.07V40.65H1a1,1,0,0,0-1,1V127a1,1,0,0,0,1,1H127a1,1,0,0,0,1-1V41.65A1,1,0,0,0,127,40.65ZM105.68,18.26v6.13H81.26V18.26ZM48.74,2H79.26V28.45H48.74ZM22.32,18.26H46.74v6.13H22.32Zm24.42,8.13v3.06a1,1,0,0,0,1,1H80.26a1,1,0,0,0,1-1V26.39h20.35v91.48H81.26V93.45h3.06a1,1,0,0,0,1-1V84.32a1,1,0,0,0-1-1H43.68a1,1,0,0,0-1,1v8.13a1,1,0,0,0,1,1h3.06v24.42H26.39V26.39Zm2,91.48V93.45H63v24.42ZM44.68,91.45V85.32H83.32v6.13Zm20.32,2H79.26v24.42H65ZM2,42.65H24.39v75.22H17.26a1,1,0,0,0-1,1V126H2ZM18.26,126v-6.13h91.48V126ZM126,126H111.74v-7.13a1,1,0,0,0-1-1h-7.13V42.65H126Z"/><path class="cls-25" d="M110.74,60.94h8.13a1,1,0,0,0,1-1V51.81a1,1,0,0,0-1-1h-8.13a1,1,0,0,0-1,1v8.13A1,1,0,0,0,110.74,60.94Zm1-8.13h6.13v6.13h-6.13Z"/><path class="cls-25" d="M110.74,79.23h8.13a1,1,0,0,0,1-1V70.1a1,1,0,0,0-1-1h-8.13a1,1,0,0,0-1,1v8.13A1,1,0,0,0,110.74,79.23Zm1-8.13h6.13v6.13h-6.13Z"/><path class="cls-25" d="M110.74,97.52h8.13a1,1,0,0,0,1-1V88.39a1,1,0,0,0-1-1h-8.13a1,1,0,0,0-1,1v8.13A1,1,0,0,0,110.74,97.52Zm1-8.13h6.13v6.13h-6.13Z"/><path class="cls-25" d="M9.13,60.94h8.13a1,1,0,0,0,1-1V51.81a1,1,0,0,0-1-1H9.13a1,1,0,0,0-1,1v8.13A1,1,0,0,0,9.13,60.94Zm1-8.13h6.13v6.13H10.13Z"/><path class="cls-25" d="M9.13,79.23h8.13a1,1,0,0,0,1-1V70.1a1,1,0,0,0-1-1H9.13a1,1,0,0,0-1,1v8.13A1,1,0,0,0,9.13,79.23Zm1-8.13h6.13v6.13H10.13Z"/><path class="cls-25" d="M17.26,97.52a1,1,0,0,0,1-1V88.39a1,1,0,0,0-1-1H9.13a1,1,0,0,0-1,1v8.13a1,1,0,0,0,1,1Zm-7.13-8.13h6.13v6.13H10.13Z"/></g></svg>