<svg xmlns="http://www.w3.org/2000/svg" xmlns:xlink="http://www.w3.org/1999/xlink" viewBox="0 0 128 128"><defs><style>.cls-1{fill:url(#linear-gradient);}.cls-2{fill:url(#linear-gradient-2);}.cls-3{fill:#c7cdd8;}.cls-4{fill:#dd4e6a;}.cls-5{fill:url(#linear-gradient-3);}.cls-6{fill:#77cacb;}.cls-7{fill:url(#linear-gradient-4);}.cls-8{fill:url(#linear-gradient-5);}.cls-9{fill:url(#linear-gradient-6);}.cls-10{fill:#f6b756;}.cls-11{fill:url(#linear-gradient-7);}.cls-12{fill:#47566a;}</style><linearGradient id="linear-gradient" x1="101.59" y1="127" x2="101.59" y2="96.52" gradientUnits="userSpaceOnUse"><stop offset="0" stop-color="#d4d8e1"/><stop offset="1" stop-color="#f3f4f5"/></linearGradient><linearGradient id="linear-gradient-2" x1="106.18" y1="117.85" x2="106.18" y2="96.52" gradientUnits="userSpaceOnUse"><stop offset="0" stop-color="#da5466"/><stop offset="1" stop-color="#e87092"/></linearGradient><linearGradient id="linear-gradient-3" x1="43.68" y1="127" x2="43.68" y2="17.26" gradientUnits="userSpaceOnUse"><stop offset="0" stop-color="#9dd5df"/><stop offset="1" stop-color="#c3e1f5"/></linearGradient><linearGradient id="linear-gradient-4" x1="43.68" y1="106.68" x2="43.68" y2="57.9" xlink:href="#linear-gradient"/><linearGradient id="linear-gradient-5" x1="43.68" y1="98.55" x2="43.68" y2="66.03" xlink:href="#linear-gradient-2"/><linearGradient id="linear-gradient-6" x1="84.32" y1="114.81" x2="84.32" y2="90.42" gradientUnits="userSpaceOnUse"><stop offset="0" stop-color="#fbcc88"/><stop offset="1" stop-color="#ffe5c3"/></linearGradient><linearGradient id="linear-gradient-7" x1="43.68" y1="17.26" x2="43.68" y2="1" xlink:href="#linear-gradient"/></defs><title>Medicine</title><g id="Medicine"><path class="cls-1" d="M108.22,96.52a8.62,8.62,0,0,1,8.62,8.61c0,4.71-3,6.56-9.15,12.72S99.55,127,95,127a8.63,8.63,0,0,1-7.66-12.58C102.45,98.32,103.68,96.52,108.22,96.52Z"/><path class="cls-2" d="M116.84,105.13c0,4.71-3,6.56-9.15,12.72L95.52,105.68c5.91-6.21,8.31-9.16,12.7-9.16A8.64,8.64,0,0,1,116.84,105.13Z"/><path class="cls-3" d="M107.69,117.85C101.44,124.11,99.55,127,95,127a8.59,8.59,0,0,1-8.43-6.93,8.51,8.51,0,0,0,6.4,2.87c4.63,0,6.54-3,11.71-8.13Z"/><path class="cls-4" d="M116.84,105.13c0,4.71-3,6.56-9.15,12.72l-3-3,7.64-7.64a8.57,8.57,0,0,0,2.33-7.79A8.54,8.54,0,0,1,116.84,105.13Z"/><path class="cls-5" d="M76.19,111.68v11.26A4.08,4.08,0,0,1,72.13,127H15.23a4.08,4.08,0,0,1-4.07-4.06V47.27A16.23,16.23,0,0,1,22.28,31.85l7.17-2.4V17.26H57.9V29.45l7.18,2.4A16.23,16.23,0,0,1,76.19,47.27V93.55"/><path class="cls-6" d="M76.19,116.84v6.1A4.08,4.08,0,0,1,72.13,127H15.23a4.08,4.08,0,0,1-4.07-4.06v-6.1a4.08,4.08,0,0,0,4.07,4.06h56.9A4.08,4.08,0,0,0,76.19,116.84Z"/><polyline class="cls-7" points="72.84 106.68 11.16 106.68 11.16 57.9 76.19 57.9 76.19 93.55"/><polyline class="cls-3" points="72.84 106.68 11.16 106.68 11.16 100.58 76.19 100.58 76.19 105.04"/><circle class="cls-8" cx="43.68" cy="82.29" r="16.26"/><path class="cls-4" d="M43.68,98.55A16.26,16.26,0,0,1,27.54,80.26a16.26,16.26,0,0,0,32.27,0A16.26,16.26,0,0,1,43.68,98.55Z"/><circle class="cls-9" cx="84.32" cy="102.61" r="12.19"/><path class="cls-10" d="M84.32,114.81a12.19,12.19,0,0,1-12-14.23c2.23,13.49,21.79,13.48,24,0A12.19,12.19,0,0,1,84.32,114.81Z"/><rect class="cls-11" x="25.39" y="1" width="36.58" height="16.26"/><rect class="cls-3" x="25.39" y="11.16" width="36.58" height="6.1"/><rect class="cls-6" x="29.45" y="17.26" width="28.45" height="6.1"/><path class="cls-12" d="M51.81,81.29H44.68V74.16a1,1,0,0,0-2,0v7.13H35.55a1,1,0,0,0,0,2h7.13v7.13a1,1,0,0,0,2,0V83.29h7.13A1,1,0,0,0,51.81,81.29Z"/><path class="cls-12" d="M43.68,65A17.26,17.26,0,1,0,60.94,82.29,17.28,17.28,0,0,0,43.68,65Zm0,32.52A15.26,15.26,0,1,1,58.94,82.29,15.28,15.28,0,0,1,43.68,97.55Z"/><path class="cls-12" d="M115,98.32a9.64,9.64,0,0,0-13.6,0l-3.92,3.92A13.19,13.19,0,0,0,77.19,91.53V47.27A17.23,17.23,0,0,0,65.39,30.9L58.9,28.73V18.26H62a1,1,0,0,0,1-1V1a1,1,0,0,0-1-1H25.39a1,1,0,0,0-1,1V17.26a1,1,0,0,0,1,1h3.06V28.73L22,30.9a17.23,17.23,0,0,0-11.8,16.37v75.67A5.07,5.07,0,0,0,15.23,128h56.9a5.07,5.07,0,0,0,5.06-5.06V113.7a13.12,13.12,0,0,0,7.13,2.11c2.38,0,1-.76,1,2.57a9.65,9.65,0,0,0,16.43,6.81L115,111.94A9.65,9.65,0,0,0,115,98.32ZM71.5,105.68H12.16V58.9h63V93.11A13.13,13.13,0,0,0,71.5,105.68ZM26.39,2H61V16.26H26.39Zm-3.8,30.8,7.18-2.4a1,1,0,0,0,.68-.95V18.26H56.9V29.45a1,1,0,0,0,.69.95l7.17,2.4A15.24,15.24,0,0,1,75.19,47.27V56.9h-63V47.27A15.24,15.24,0,0,1,22.59,32.8Zm52.6,90.14A3.06,3.06,0,0,1,72.13,126H15.23a3.07,3.07,0,0,1-3.07-3.06V107.68h60a13.54,13.54,0,0,0,3,4.44Zm-2.06-20.33A11.2,11.2,0,1,1,87,113.47C81.18,115.46,73.13,110.48,73.13,102.61Zm27.23,21.16c-5.84,5.85-15.79-.67-12.33-8.5A13.26,13.26,0,0,0,96.38,108l9.9,9.9Zm13.25-13.25-5.92,5.92L97.1,105.85c.17-.67-.48.1,5.73-6.11a7.62,7.62,0,0,1,10.78,10.78Z"/><path class="cls-12" d="M89.71,95.81,77.52,108a1,1,0,0,0,.71,1.71c.6,0-.18.59,12.9-12.49A1,1,0,0,0,89.71,95.81Z"/></g></svg>