<svg xmlns="http://www.w3.org/2000/svg" xmlns:xlink="http://www.w3.org/1999/xlink" viewBox="0 0 128 128"><defs><style>.cls-1{fill:url(#linear-gradient);}.cls-2{fill:#c7cdd8;}.cls-3{fill:url(#linear-gradient-2);}.cls-4{fill:url(#linear-gradient-3);}.cls-5{fill:#cba07a;}.cls-6{fill:url(#linear-gradient-5);}.cls-7{fill:#dd4e6a;}.cls-8{fill:url(#linear-gradient-6);}.cls-9{fill:url(#linear-gradient-7);}.cls-10{fill:url(#linear-gradient-8);}.cls-11{fill:url(#linear-gradient-9);}.cls-12{fill:#f6b756;}.cls-13{fill:#5b8dc9;}.cls-14{fill:url(#linear-gradient-10);}.cls-15{fill:#47566a;}</style><linearGradient id="linear-gradient" x1="118.87" y1="127" x2="118.87" y2="41.65" gradientUnits="userSpaceOnUse"><stop offset="0" stop-color="#9b756d"/><stop offset="1" stop-color="#bc9388"/></linearGradient><linearGradient id="linear-gradient-2" x1="55.87" y1="57.9" x2="55.87" y2="1" gradientUnits="userSpaceOnUse"><stop offset="0" stop-color="#d4d8e1"/><stop offset="1" stop-color="#f3f4f5"/></linearGradient><linearGradient id="linear-gradient-3" x1="59.94" y1="127" x2="59.94" y2="51.81" gradientUnits="userSpaceOnUse"><stop offset="0" stop-color="#d1a788"/><stop offset="1" stop-color="#f2d3b8"/></linearGradient><linearGradient id="linear-gradient-5" x1="55.87" y1="116.84" x2="55.87" y2="68.06" gradientUnits="userSpaceOnUse"><stop offset="0" stop-color="#da5466"/><stop offset="1" stop-color="#e87092"/></linearGradient><linearGradient id="linear-gradient-6" x1="55.87" y1="106.68" x2="55.87" y2="78.23" xlink:href="#linear-gradient-2"/><linearGradient id="linear-gradient-7" x1="33.52" y1="43.68" x2="33.52" y2="11.16" gradientUnits="userSpaceOnUse"><stop offset="0" stop-color="#fbcc88"/><stop offset="1" stop-color="#ffe5c3"/></linearGradient><linearGradient id="linear-gradient-8" x1="33.52" y1="30.38" x2="33.52" y2="17.07" gradientUnits="userSpaceOnUse"><stop offset="0" stop-color="#7aa8d7"/><stop offset="1" stop-color="#96c8ea"/></linearGradient><linearGradient id="linear-gradient-9" x1="33.52" y1="43.68" x2="33.52" y2="30.38" xlink:href="#linear-gradient-8"/><linearGradient id="linear-gradient-10" x1="76.19" y1="21.32" x2="76.19" y2="13.19" gradientUnits="userSpaceOnUse"><stop offset="0" stop-color="#9dd5df"/><stop offset="1" stop-color="#c3e1f5"/></linearGradient></defs><title>Medical History</title><g id="Medical_History" data-name="Medical History"><path class="cls-1" d="M110.74,41.65v77.22a8.13,8.13,0,1,0,16.26,0V41.65Z"/><path class="cls-2" d="M104.65,118.87h14.22V9.13H104.65Z"/><rect class="cls-3" x="7.1" y="1" width="97.55" height="56.9"/><polygon class="cls-2" points="104.64 53.84 104.64 57.9 7.1 57.9 7.1 47.74 37.23 47.74 43.33 53.84 104.64 53.84"/><path class="cls-4" d="M110.74,118.87v-61H41.65l-6.1-6.09H1v67.06A8.13,8.13,0,0,0,9.13,127H118.87A8.13,8.13,0,0,1,110.74,118.87Z"/><path class="cls-4" d="M110.74,118.87v-61H41.65l-6.1-6.09H1v67.06A8.13,8.13,0,0,0,9.13,127H118.87A8.13,8.13,0,0,1,110.74,118.87Z"/><path class="cls-5" d="M118.87,127H9.13A8.13,8.13,0,0,1,1,118.87v-6.1a8.12,8.12,0,0,0,8.13,8.13H111A8.1,8.1,0,0,0,118.87,127Z"/><circle class="cls-6" cx="55.87" cy="92.45" r="24.39"/><path class="cls-7" d="M55.87,116.84c-14.94,0-26.19-13.36-24.18-27.44a24.37,24.37,0,0,0,48.36,0C82.07,103.52,70.79,116.84,55.87,116.84Z"/><polygon class="cls-8" points="70.1 88.39 59.94 88.39 59.94 78.23 51.81 78.23 51.81 88.39 41.65 88.39 41.65 96.52 51.81 96.52 51.81 106.68 59.94 106.68 59.94 96.52 70.1 96.52 70.1 88.39"/><circle class="cls-9" cx="33.52" cy="27.42" r="16.26"/><path class="cls-10" d="M33.52,30.38a5.92,5.92,0,0,1-5.92-5.92V23a5.92,5.92,0,1,1,11.83,0v1.47A5.92,5.92,0,0,1,33.52,30.38Z"/><path class="cls-11" d="M44.06,39.8A16.28,16.28,0,0,1,23,39.8a27.11,27.11,0,0,1,1.12-3.19,10.25,10.25,0,0,1,18.86,0A29,29,0,0,1,44.06,39.8Z"/><path class="cls-12" d="M24.09,36.61A29.86,29.86,0,0,0,23,39.8a16.25,16.25,0,0,1-5.59-14.41A16.29,16.29,0,0,0,24.09,36.61Z"/><path class="cls-12" d="M44.06,39.8l-.81-2.42c-.33-1.09-.61-.46.81-1.65a16.25,16.25,0,0,0,5.59-10.34A16.23,16.23,0,0,1,44.06,39.8Z"/><path class="cls-13" d="M44.06,39.8A16.28,16.28,0,0,1,23,39.8a27.11,27.11,0,0,1,1.12-3.19,16.3,16.3,0,0,0,18.86,0A29,29,0,0,1,44.06,39.8Z"/><rect class="cls-14" x="57.9" y="13.19" width="36.58" height="8.13"/><rect class="cls-2" x="51.81" y="100.58" width="8.13" height="6.1"/><path class="cls-15" d="M127,40.65h-7.13V9.13a1,1,0,0,0-1-1H105.65V1a1,1,0,0,0-1-1H7.1a1,1,0,0,0-1,1V50.81H1a1,1,0,0,0-1,1v67.06A9.14,9.14,0,0,0,9.13,128H118.87a9.13,9.13,0,0,0,9.13-9.13V41.65A1,1,0,0,0,127,40.65Zm-9.13-30.52V117.87h-6.13v-60a1,1,0,0,0-1-1h-5.09V10.13ZM8.1,2h95.55V56.9H42.06l-5.8-5.8c-.43-.42,1.73-.29-28.16-.29ZM113.17,126H9.13A7.14,7.14,0,0,1,2,118.87V52.81H35.13c6.34,6.33,5.87,5.91,6.13,6s-4.35.07,68.48.07v60A9.22,9.22,0,0,0,113.17,126ZM126,118.87a7.12,7.12,0,0,1-14.18,1h7.05a1,1,0,0,0,1-1V42.65H126Z"/><path class="cls-15" d="M55.87,67.06A25.39,25.39,0,1,0,81.26,92.45,25.42,25.42,0,0,0,55.87,67.06Zm0,48.78A23.39,23.39,0,1,1,79.26,92.45,23.42,23.42,0,0,1,55.87,115.84Z"/><path class="cls-15" d="M70.1,87.39H60.94V78.23a1,1,0,0,0-1-1H51.81a1,1,0,0,0-1,1v9.16H41.65a1,1,0,0,0-1,1v8.13a1,1,0,0,0,1,1h9.16v9.16a1,1,0,0,0,1,1h8.13a1,1,0,0,0,1-1V97.52H70.1a1,1,0,0,0,1-1V88.39A1,1,0,0,0,70.1,87.39Zm-1,8.13H59.94a1,1,0,0,0-1,1v9.16H52.81V96.52a1,1,0,0,0-1-1H42.65V89.39h9.16a1,1,0,0,0,1-1V79.23h6.13v9.16a1,1,0,0,0,1,1H69.1Z"/><path class="cls-15" d="M44.71,40.56c12.14-10.35,4.85-30.4-11.19-30.4s-23.37,20-11.19,30.41a17.34,17.34,0,0,0,12.71,4A16.69,16.69,0,0,0,44.71,40.56ZM33.52,12.16C47,12.16,53.77,28.37,44.5,38l-.31-.93a11.18,11.18,0,0,0-6.7-7,6.91,6.91,0,0,0,2.94-5.65V23A6.92,6.92,0,1,0,26.6,23v1.47a6.94,6.94,0,0,0,2.94,5.65,11.19,11.19,0,0,0-6.7,7l-.31.94C13.26,28.37,20.05,12.16,33.52,12.16ZM28.6,24.46V23a4.92,4.92,0,1,1,9.83,0v1.47a4.92,4.92,0,1,1-9.83,0Zm-4.45,15,.59-1.75a9.26,9.26,0,0,1,17.55,0l.59,1.75A15.2,15.2,0,0,1,24.15,39.45Z"/><path class="cls-15" d="M59.94,22.32H92.45a1,1,0,0,0,1-1V13.19a1,1,0,0,0-1-1H59.94a1,1,0,0,0-1,1v8.13A1,1,0,0,0,59.94,22.32Zm1-8.13H91.45v6.13H60.94Z"/><path class="cls-15" d="M59.94,32.48H66a1,1,0,0,0,0-2H59.94A1,1,0,0,0,59.94,32.48Z"/><path class="cls-15" d="M92.45,30.48H74.16a1,1,0,0,0,0,2H92.45A1,1,0,0,0,92.45,30.48Z"/><path class="cls-15" d="M59.94,40.61H66a1,1,0,0,0,0-2H59.94A1,1,0,0,0,59.94,40.61Z"/><path class="cls-15" d="M92.45,38.61H74.16a1,1,0,0,0,0,2H92.45A1,1,0,0,0,92.45,38.61Z"/><path class="cls-15" d="M59.94,48.74H66a1,1,0,0,0,0-2H59.94A1,1,0,0,0,59.94,48.74Z"/><path class="cls-15" d="M92.45,46.74H74.16a1,1,0,0,0,0,2H92.45A1,1,0,0,0,92.45,46.74Z"/></g></svg>