<svg xmlns="http://www.w3.org/2000/svg" xmlns:xlink="http://www.w3.org/1999/xlink" viewBox="0 0 128 128"><defs><style>.cls-1{fill:url(#linear-gradient);}.cls-2{fill:url(#linear-gradient-2);}.cls-3{fill:#c7cdd8;}.cls-4{fill:url(#linear-gradient-3);}.cls-5{fill:#dd4e6a;}.cls-6{fill:url(#linear-gradient-4);}.cls-7{fill:url(#linear-gradient-5);}.cls-8{fill:url(#linear-gradient-6);}.cls-9{fill:url(#linear-gradient-7);}.cls-10{fill:url(#linear-gradient-8);}.cls-11{fill:url(#linear-gradient-9);}.cls-12{fill:#8288a1;}.cls-13{fill:#47566a;}</style><linearGradient id="linear-gradient" x1="64" y1="49.77" x2="64" y2="25.39" gradientUnits="userSpaceOnUse"><stop offset="0" stop-color="#d4d8e1"/><stop offset="1" stop-color="#f3f4f5"/></linearGradient><linearGradient id="linear-gradient-2" y1="127" y2="49.77" xlink:href="#linear-gradient"/><linearGradient id="linear-gradient-3" x1="64" y1="116.84" x2="64" y2="68.06" gradientUnits="userSpaceOnUse"><stop offset="0" stop-color="#da5466"/><stop offset="1" stop-color="#e87092"/></linearGradient><linearGradient id="linear-gradient-4" y1="106.68" y2="78.23" xlink:href="#linear-gradient"/><linearGradient id="linear-gradient-5" x1="31.48" y1="74.16" x2="31.48" y2="53.84" gradientUnits="userSpaceOnUse"><stop offset="0" stop-color="#949aaf"/><stop offset="1" stop-color="#c6ccda"/></linearGradient><linearGradient id="linear-gradient-6" x1="96.52" y1="74.16" x2="96.52" y2="53.84" xlink:href="#linear-gradient-5"/><linearGradient id="linear-gradient-7" x1="64" y1="9.13" x2="64" y2="1" xlink:href="#linear-gradient-5"/><linearGradient id="linear-gradient-8" x1="31.48" y1="53.84" x2="31.48" y2="45.71" xlink:href="#linear-gradient-5"/><linearGradient id="linear-gradient-9" x1="96.52" y1="53.84" x2="96.52" y2="45.71" xlink:href="#linear-gradient-5"/></defs><title>Medical Kit</title><g id="Medical_Kit" data-name="Medical Kit"><path class="cls-1" d="M21.32,49.77H1V33.52a8.12,8.12,0,0,1,8.13-8.13H118.87A8.12,8.12,0,0,1,127,33.52V49.77H106.68"/><path class="cls-2" d="M106.68,49.77h16.26v69.1a8.13,8.13,0,0,1-8.13,8.13H13.19a8.13,8.13,0,0,1-8.13-8.13V49.77H21.32"/><path class="cls-3" d="M122.94,112.77v6.1a8.13,8.13,0,0,1-8.13,8.13H13.19a8.13,8.13,0,0,1-8.13-8.13v-6.1a8.12,8.12,0,0,0,8.13,8.13H114.81A8.12,8.12,0,0,0,122.94,112.77Z"/><rect class="cls-3" x="5.06" y="49.77" width="117.87" height="6.1"/><circle class="cls-4" cx="64" cy="92.45" r="24.39"/><path class="cls-5" d="M64,116.84c-14.93,0-26.2-13.36-24.18-27.44a24.37,24.37,0,0,0,48.36,0C90.2,103.52,78.92,116.84,64,116.84Z"/><polygon class="cls-6" points="78.23 88.39 68.06 88.39 68.06 78.23 59.94 78.23 59.94 88.39 49.77 88.39 49.77 96.52 59.94 96.52 59.94 106.68 68.06 106.68 68.06 96.52 78.23 96.52 78.23 88.39"/><path class="cls-7" d="M31.48,74.16A8.13,8.13,0,0,1,23.35,66V53.84H39.61V66A8.13,8.13,0,0,1,31.48,74.16Z"/><path class="cls-8" d="M96.52,74.16A8.13,8.13,0,0,1,88.39,66V53.84h16.26V66A8.13,8.13,0,0,1,96.52,74.16Z"/><path class="cls-9" d="M82.29,9.13H45.71c-5.41,0-5.33-8.13,0-8.13H82.29C87.7,1,87.62,9.13,82.29,9.13Z"/><rect class="cls-10" x="21.32" y="45.71" width="20.32" height="8.13"/><rect class="cls-11" x="86.35" y="45.71" width="20.32" height="8.13"/><rect class="cls-12" x="23.35" y="53.84" width="16.26" height="4.06"/><rect class="cls-12" x="88.39" y="53.84" width="16.26" height="4.06"/><rect class="cls-3" x="59.94" y="100.58" width="8.13" height="6.1"/><path class="cls-13" d="M118.87,24.39H97.34L94.63,10.85a8.46,8.46,0,0,0-7.37-6.73,5.07,5.07,0,0,0-5-4.12H45.71a5.07,5.07,0,0,0-5,4.12,8.46,8.46,0,0,0-7.37,6.73L30.66,24.39H9.13A9.14,9.14,0,0,0,0,33.52V49.77a1,1,0,0,0,1,1H4.06v68.1A9.15,9.15,0,0,0,13.19,128H114.81a9.15,9.15,0,0,0,9.13-9.13V50.77H127a1,1,0,0,0,1-1V33.52A9.14,9.14,0,0,0,118.87,24.39ZM45.71,2H82.29a3.07,3.07,0,0,1,0,6.13H45.71a3.07,3.07,0,0,1,0-6.13ZM35.33,11.24a6.44,6.44,0,0,1,5.44-5.1,5.06,5.06,0,0,0,4.94,4H82.29a5.06,5.06,0,0,0,4.94-4,6.44,6.44,0,0,1,5.44,5.1L95.3,24.39H32.7Zm86.61,107.63a7.14,7.14,0,0,1-7.13,7.13H13.19a7.14,7.14,0,0,1-7.13-7.13V50.77H20.32v3.07a1,1,0,0,0,1,1h1V66a9.13,9.13,0,0,0,18.26,0V54.84h1a1,1,0,0,0,1-1V50.77h42.7v3.07a1,1,0,0,0,1,1h1V66a9.13,9.13,0,0,0,18.26,0V54.84h1a1,1,0,0,0,1-1V50.77h14.26Zm-81.29-66H22.32V46.71H40.65Zm-16.3,2H38.61V66a7.13,7.13,0,0,1-14.26,0Zm81.33-2H87.35V46.71h18.33Zm-16.29,2h14.26V66a7.13,7.13,0,1,1-14.26,0ZM126,48.77H107.68V45.71a1,1,0,0,0-1-1H86.35a1,1,0,0,0-1,1v3.06H42.65V45.71a1,1,0,0,0-1-1H21.32a1,1,0,0,0-1,1v3.06H2V33.52a7.14,7.14,0,0,1,7.13-7.13H118.87A7.14,7.14,0,0,1,126,33.52Z"/><path class="cls-13" d="M64,67.06A25.39,25.39,0,1,0,89.39,92.45,25.42,25.42,0,0,0,64,67.06Zm0,48.78A23.39,23.39,0,1,1,87.39,92.45,23.41,23.41,0,0,1,64,115.84Z"/><path class="cls-13" d="M78.23,87.39H69.06V78.23a1,1,0,0,0-1-1H59.94a1,1,0,0,0-1,1v9.16H49.77a1,1,0,0,0-1,1v8.13a1,1,0,0,0,1,1h9.17v9.16a1,1,0,0,0,1,1h8.12a1,1,0,0,0,1-1V97.52h9.17a1,1,0,0,0,1-1V88.39A1,1,0,0,0,78.23,87.39Zm-1,8.13H68.06a1,1,0,0,0-1,1v9.16H60.94V96.52a1,1,0,0,0-1-1H50.77V89.39h9.17a1,1,0,0,0,1-1V79.23h6.12v9.16a1,1,0,0,0,1,1h9.17Z"/></g></svg>