<svg xmlns="http://www.w3.org/2000/svg" xmlns:xlink="http://www.w3.org/1999/xlink" viewBox="0 0 128 128"><defs><style>.cls-1{fill:url(#linear-gradient);}.cls-2{fill:#5b8dc9;}.cls-3{fill:url(#linear-gradient-2);}.cls-4{fill:url(#linear-gradient-3);}.cls-5{fill:url(#linear-gradient-4);}.cls-6{fill:url(#linear-gradient-5);}.cls-7{fill:#c7cdd8;}.cls-8{fill:url(#linear-gradient-6);}.cls-9{fill:url(#linear-gradient-7);}.cls-10{fill:url(#linear-gradient-8);}.cls-11{fill:url(#linear-gradient-9);}.cls-12{fill:#8288a1;}.cls-13{fill:#47566a;}</style><linearGradient id="linear-gradient" x1="64.31" y1="63.52" x2="64.31" y2="23.75" gradientUnits="userSpaceOnUse"><stop offset="0" stop-color="#7aa8d7"/><stop offset="1" stop-color="#96c8ea"/></linearGradient><linearGradient id="linear-gradient-2" x1="59.1" y1="69.07" x2="59.1" y2="53.09" gradientUnits="userSpaceOnUse"><stop offset="0" stop-color="#d4d8e1"/><stop offset="1" stop-color="#f3f4f5"/></linearGradient><linearGradient id="linear-gradient-3" x1="54.93" y1="75.31" x2="54.93" y2="63.51" gradientTransform="translate(130.29 115.84) rotate(160)" gradientUnits="userSpaceOnUse"><stop offset="0" stop-color="#949aaf"/><stop offset="1" stop-color="#c6ccda"/></linearGradient><linearGradient id="linear-gradient-4" x1="70.06" y1="34.18" x2="70.06" y2="18.52" gradientTransform="translate(146.27 25.19) rotate(160)" xlink:href="#linear-gradient-3"/><linearGradient id="linear-gradient-5" x1="75.43" y1="24.45" x2="75.43" y2="1.71" gradientTransform="translate(150.79 -0.43) rotate(160)" xlink:href="#linear-gradient-2"/><linearGradient id="linear-gradient-6" x1="60.95" y1="127" x2="60.95" y2="90.42" xlink:href="#linear-gradient"/><linearGradient id="linear-gradient-7" x1="44.7" y1="100.58" x2="44.7" y2="92.45" xlink:href="#linear-gradient-2"/><linearGradient id="linear-gradient-8" x1="92.28" y1="104.26" x2="92.28" y2="46.81" xlink:href="#linear-gradient"/><linearGradient id="linear-gradient-9" x1="80.26" y1="57.91" x2="80.26" y2="41.65" gradientTransform="matrix(1, 0, 0, 1, 0, 0)" xlink:href="#linear-gradient-3"/></defs><title>Microscope</title><g id="Microscope"><path class="cls-1" d="M74.38,63.52c-5-1.81-25.42-9.26-30.56-11.12L54.25,23.75c5,1.81,25.42,9.26,30.56,11.12C78.16,53.18,80.07,47.83,74.38,63.52Z"/><path class="cls-2" d="M76,59.23l-1.57,4.29c-5-1.81-25.58-9.32-30.56-11.12,1.74-4.75,1.49-4.31,1.69-4.24Z"/><polygon class="cls-3" points="45.74 53.09 72.47 62.82 65.87 69.06 46.77 62.12 45.74 53.09"/><rect class="cls-4" x="48.84" y="65.35" width="12.19" height="8.13" transform="translate(82.81 153.42) rotate(-160)"/><path class="cls-5" d="M56.69,21.43H85.14a0,0,0,0,1,0,0v2a6.1,6.1,0,0,1-6.1,6.1H62.79a6.1,6.1,0,0,1-6.1-6.1v-2a0,0,0,0,1,0,0Z" transform="translate(128.84 73.7) rotate(-160)"/><rect class="cls-6" x="67.31" y="3.94" width="16.26" height="18.29" transform="translate(141.84 51.17) rotate(-160)"/><rect class="cls-7" x="64.88" y="17.72" width="16.26" height="4.08" transform="translate(134.85 63.29) rotate(-160)"/><path class="cls-8" d="M80.26,90.42H64v16.26a8.13,8.13,0,0,1-8.13,8.12H33.52a8.13,8.13,0,0,0-8.13,8.13V127H96.51V114.8Z"/><rect class="cls-9" x="25.39" y="92.45" width="38.61" height="8.13"/><rect class="cls-7" x="59.94" y="92.45" width="4.06" height="8.13"/><path class="cls-10" d="M102.61,76.2a36.47,36.47,0,0,1-13.13,28.06L82.67,94A24.42,24.42,0,0,0,82,57.73l5.83-10.92C88.2,46.81,102.61,57.39,102.61,76.2Z"/><path class="cls-2" d="M92.39,50.86A12.2,12.2,0,0,1,85.09,61,22.91,22.91,0,0,0,82,57.73c5.93-11.09,5.65-10.92,5.85-10.92A34.56,34.56,0,0,1,92.39,50.86Z"/><circle class="cls-11" cx="80.26" cy="49.78" r="8.13"/><rect class="cls-2" x="25.39" y="122.93" width="71.12" height="4.06"/><path class="cls-2" d="M92.49,101.43a36.72,36.72,0,0,1-3,2.83L82.67,94a26.14,26.14,0,0,0,2.81-3.13Z"/><circle class="cls-12" cx="80.26" cy="49.77" r="3"/><path class="cls-13" d="M90.8,104.43a37.57,37.57,0,0,0-2.15-58.24,9.16,9.16,0,0,0-5.1-4.92l2.2-6.07a1,1,0,0,0-.6-1.28l-1-.36.35-1a7.08,7.08,0,0,0-3.33-8.68L86.8,8.54l1,.35A1,1,0,0,0,88.45,7L69.36.06a1,1,0,0,0-.69,1.88l1,.35L64,17.67a7,7,0,0,0-4.46.51c-2.6,1.21-3.36,3.18-4,5l-1-.35a1,1,0,0,0-1.27.6C42,54.49,42.65,52.26,42.91,52.82s.57.51,1.9,1c1.06,9.22.84,9,1.62,9.23l2.88,1-2.44,6.7a1,1,0,0,0,.6,1.28C59.8,76.57,59,76.31,59.27,76.31c.94,0,.77-.19,3.38-7.36,3.24,1.18,3,1.11,3.22,1.11.56,0,.24.16,6.83-6.09,2.82,1,2.1,1.34,4.6-5.57a8.84,8.84,0,0,0,4.35.39,23.4,23.4,0,0,1,1.18,33.69C81,89.7,81,89.42,80.26,89.42H64a1,1,0,0,0-1,1v1H25.39a1,1,0,0,0-1,1v8.13a1,1,0,0,0,1,1H63v5.1a7.14,7.14,0,0,1-7.13,7.13H33.52a9.13,9.13,0,0,0-9.13,9.13V127a1,1,0,0,0,1,1H96.52a1,1,0,0,0,1-1c0-13.24.07-12.39-.17-12.75ZM71.52,3l13.4,4.87L79.35,23.16,66,18.29ZM60.43,20a5.12,5.12,0,0,1,3.9-.17L79.6,25.38a5.1,5.1,0,0,1,3.05,6.54l-.35,1-24.86-9C58,22.35,58.44,20.92,60.43,20ZM58.67,74l-9.58-3.49,2.1-5.76,9.58,3.49Zm7-6.12L47.69,61.38l-.78-6.8L70.6,63.2Zm8.16-5.68L45.1,51.8,54.84,25,83.53,35.46l-1.93,5.3C71.88,39.31,67,52.32,75.49,57.54Zm3.34-6.06-.07,0h0c-6.71-3.42-4.2-13.48,3.22-13.48a7.33,7.33,0,0,1,1.68.2,7.12,7.12,0,1,1-4.81,13.32Zm6.76,2a9.13,9.13,0,0,0,5.48-8.8,35.54,35.54,0,0,1,.31,53.4L84,94.17A25.4,25.4,0,0,0,83.89,58.15ZM26.39,99.58V93.45H63v6.13ZM95.52,126H26.39v-3.06a7.13,7.13,0,0,1,7.13-7.13H55.87A9.15,9.15,0,0,0,65,106.68V91.42H79.72l15.8,23.69Z"/><path class="cls-13" d="M73.15,98.06a1.5,1.5,0,0,0,0,3A1.5,1.5,0,0,0,73.15,98.06Z"/><path class="cls-13" d="M80.26,45.77a4,4,0,1,0,4,4A4,4,0,0,0,80.26,45.77Zm0,6a2,2,0,1,1,2-2A2,2,0,0,1,80.26,51.77Z"/></g></svg>