<svg xmlns="http://www.w3.org/2000/svg" xmlns:xlink="http://www.w3.org/1999/xlink" viewBox="0 0 128 128"><defs><style>.cls-1{fill:url(#linear-gradient);}.cls-2{fill:url(#linear-gradient-2);}.cls-3{fill:url(#linear-gradient-3);}.cls-4{fill:url(#linear-gradient-4);}.cls-5{fill:url(#linear-gradient-5);}.cls-6{fill:#dd4e6a;}.cls-7{fill:#77cacb;}.cls-8{fill:#47566a;}</style><linearGradient id="linear-gradient" x1="64" y1="127" x2="64" y2="1" gradientUnits="userSpaceOnUse"><stop offset="0" stop-color="#949aaf"/><stop offset="1" stop-color="#c6ccda"/></linearGradient><linearGradient id="linear-gradient-2" x1="64" y1="118.87" x2="64" y2="9.13" gradientUnits="userSpaceOnUse"><stop offset="0" stop-color="#9dd5df"/><stop offset="1" stop-color="#c3e1f5"/></linearGradient><linearGradient id="linear-gradient-3" x1="64" y1="82.29" x2="64" y2="72.13" gradientUnits="userSpaceOnUse"><stop offset="0" stop-color="#d4d8e1"/><stop offset="1" stop-color="#f3f4f5"/></linearGradient><linearGradient id="linear-gradient-4" y1="102.61" y2="92.45" xlink:href="#linear-gradient-3"/><linearGradient id="linear-gradient-5" x1="64" y1="57.9" x2="64" y2="25.39" gradientUnits="userSpaceOnUse"><stop offset="0" stop-color="#da5466"/><stop offset="1" stop-color="#e87092"/></linearGradient></defs><title>Mobile Apps</title><g id="Mobile_Apps" data-name="Mobile Apps"><rect class="cls-1" x="25.39" y="1" width="77.23" height="126" rx="8.13"/><path class="cls-2" d="M94.48,9.13H80.26a4.08,4.08,0,0,1-4.07,4.06c-25.83,0-25.63.47-27.25-1.2a4,4,0,0,1-1.2-2.86H33.52V118.87h61Z"/><rect class="cls-3" x="45.71" y="72.13" width="36.58" height="10.16"/><rect class="cls-4" x="45.71" y="92.45" width="36.58" height="10.16"/><circle class="cls-5" cx="64" cy="41.65" r="16.26"/><path class="cls-6" d="M64,57.9A16.27,16.27,0,0,1,47.86,39.61a16.27,16.27,0,0,0,32.28,0A16.26,16.26,0,0,1,64,57.9Z"/><rect class="cls-7" x="33.52" y="112.77" width="60.97" height="6.1"/><path class="cls-8" d="M94.48,0h-61a9.14,9.14,0,0,0-9.13,9.13V118.87A9.14,9.14,0,0,0,33.52,128h61a9.14,9.14,0,0,0,9.13-9.13V9.13A9.14,9.14,0,0,0,94.48,0Zm7.13,118.87A7.13,7.13,0,0,1,94.48,126h-61a7.13,7.13,0,0,1-7.13-7.13V9.13A7.13,7.13,0,0,1,33.52,2h61a7.13,7.13,0,0,1,7.13,7.13Z"/><path class="cls-8" d="M94.48,8.13H80.26a1,1,0,0,0-1,1,3.07,3.07,0,0,1-3.07,3.06H51.81a3.08,3.08,0,0,1-3.07-3.06,1,1,0,0,0-1-1H33.52a1,1,0,0,0-1,1V118.87a1,1,0,0,0,1,1h61a1,1,0,0,0,1-1V9.13A1,1,0,0,0,94.48,8.13Zm-1,109.74h-59V10.13H46.84a5.08,5.08,0,0,0,5,4.06H76.19a5.08,5.08,0,0,0,5-4.06H93.48Z"/><path class="cls-8" d="M55.87,8.6a1.5,1.5,0,0,0,0-3A1.5,1.5,0,0,0,55.87,8.6Z"/><path class="cls-8" d="M72.13,40.65H65V33.52a1,1,0,0,0-2,0v7.13H55.87a1,1,0,0,0,0,2H63v7.12a1,1,0,0,0,2,0V42.65h7.13A1,1,0,0,0,72.13,40.65Z"/><path class="cls-8" d="M64,24.39A17.26,17.26,0,1,0,81.26,41.65,17.28,17.28,0,0,0,64,24.39ZM64,56.9A15.26,15.26,0,1,1,79.26,41.65,15.27,15.27,0,0,1,64,56.9Z"/><path class="cls-8" d="M72.13,8.6a1.5,1.5,0,0,0,0-3A1.5,1.5,0,0,0,72.13,8.6Z"/><path class="cls-8" d="M44.71,72.13V82.29a1,1,0,0,0,1,1H82.29a1,1,0,0,0,1-1V72.13a1,1,0,0,0-1-1H45.71A1,1,0,0,0,44.71,72.13Zm2,1H81.29v8.16H46.71Z"/><path class="cls-8" d="M82.29,91.45H45.71a1,1,0,0,0-1,1v10.16a1,1,0,0,0,1,1H82.29a1,1,0,0,0,1-1V92.45A1,1,0,0,0,82.29,91.45Zm-1,10.16H46.71V93.45H81.29Z"/></g></svg>