<svg xmlns="http://www.w3.org/2000/svg" xmlns:xlink="http://www.w3.org/1999/xlink" viewBox="0 0 128 128"><defs><style>.cls-1{fill:url(#linear-gradient);}.cls-2{fill:#f6b756;}.cls-3{fill:url(#linear-gradient-2);}.cls-4{fill:url(#linear-gradient-3);}.cls-5{fill:none;}.cls-6{fill:url(#linear-gradient-4);}.cls-7{fill:#c7cdd8;}.cls-8{fill:url(#linear-gradient-5);}.cls-9{fill:url(#linear-gradient-6);}.cls-10{fill:url(#linear-gradient-7);}.cls-11{fill:#8288a1;}.cls-12{fill:#dd4e6a;}.cls-13{fill:#47566a;}</style><linearGradient id="linear-gradient" x1="23.42" y1="29.48" x2="23.42" y2="9.17" gradientUnits="userSpaceOnUse"><stop offset="0" stop-color="#fbcc88"/><stop offset="1" stop-color="#ffe5c3"/></linearGradient><linearGradient id="linear-gradient-2" x1="51.85" y1="45.73" x2="51.85" y2="21.35" gradientUnits="userSpaceOnUse"><stop offset="0" stop-color="#d4d8e1"/><stop offset="1" stop-color="#f3f4f5"/></linearGradient><linearGradient id="linear-gradient-3" x1="55.4" y1="38.62" x2="55.4" y2="21.34" gradientUnits="userSpaceOnUse"><stop offset="0" stop-color="#da5466"/><stop offset="1" stop-color="#e87092"/></linearGradient><linearGradient id="linear-gradient-4" x1="64" y1="118.85" x2="64" y2="53.79" xlink:href="#linear-gradient-2"/><linearGradient id="linear-gradient-5" x1="64.03" y1="110.73" x2="64.03" y2="61.98" xlink:href="#linear-gradient-3"/><linearGradient id="linear-gradient-6" x1="64.03" y1="100.57" x2="64.03" y2="72.13" xlink:href="#linear-gradient-2"/><linearGradient id="linear-gradient-7" x1="93.78" y1="53.85" x2="93.78" y2="1.02" gradientUnits="userSpaceOnUse"><stop offset="0" stop-color="#949aaf"/><stop offset="1" stop-color="#c6ccda"/></linearGradient></defs><title>Mortar</title><g id="Mortar"><path class="cls-1" d="M33.57,19.32a10.18,10.18,0,0,1-12.69,9.84s0,0,0,0a10,10,0,0,1-3.94-2c-7.17-5.87-3.12-18,6.49-18A10.15,10.15,0,0,1,33.57,19.32Z"/><path class="cls-2" d="M31.25,25.78a10.16,10.16,0,0,1-17.68-3.92,10,10,0,0,1-.11-4.55c2.31,10.71,17.68,10.76,19.9,0A9.73,9.73,0,0,1,31.25,25.78Z"/><path class="cls-3" d="M46.84,45.73a7.19,7.19,0,0,1-5.08-12.26C51.9,23.33,52.89,21.35,56.85,21.35a7.19,7.19,0,0,1,5.08,12.26C51.8,43.75,50.8,45.73,46.84,45.73Z"/><path class="cls-4" d="M64,28.54c0,3.73-2.06,5-7.11,10.08L46.77,28.46l5-5A7.18,7.18,0,0,1,64,28.54Z"/><line class="cls-5" x1="56.92" y1="38.62" x2="46.77" y2="28.46"/><path class="cls-6" d="M84.35,118.85H43.72A42.65,42.65,0,0,1,1.07,76.2c0-20.19-.17-22.35,0-22.35,125.56,0,125.9-.17,125.9,0V76.2A42.66,42.66,0,0,1,84.35,118.85Z"/><path class="cls-7" d="M123.16,93.89a42.63,42.63,0,0,1-38.81,25H43.72a42.63,42.63,0,0,1-38.81-25A43.89,43.89,0,0,0,41,112.76h46A43.89,43.89,0,0,0,123.16,93.89Z"/><rect class="cls-7" x="43.72" y="118.85" width="40.62" height="8.12"/><circle class="cls-8" cx="64.03" cy="86.35" r="24.37"/><polygon class="cls-9" points="78.25 82.29 68.1 82.29 68.1 72.13 59.97 72.13 59.97 82.29 49.81 82.29 49.81 90.41 59.97 90.41 59.97 100.57 68.1 100.57 68.1 90.41 78.25 90.41 78.25 82.29"/><rect class="cls-7" x="59.97" y="94.48" width="8.12" height="6.09"/><path class="cls-10" d="M106.63,27c-5,25-3.76,18.9-5.32,26.85H74.76c2.77-8.14.62-1.84,11-32.44A14.22,14.22,0,0,1,102.28,1.53C114.08,4.68,116.55,20.21,106.63,27Z"/><polygon class="cls-11" points="102.5 47.76 101.31 53.85 74.76 53.85 76.83 47.76 102.5 47.76"/><path class="cls-7" d="M56.92,38.62c-4.89,4.9-6.34,7.11-10.07,7.11a7.17,7.17,0,0,1-7.11-6.18,7.16,7.16,0,0,0,5.08,2.12c3.78,0,5.42-2.46,9.06-6.1Z"/><path class="cls-12" d="M64,28.54c0,3.73-2.06,5-7.11,10.08l-3-3,6-6a7.12,7.12,0,0,0,2-6.09A7.13,7.13,0,0,1,64,28.54Z"/><path class="cls-12" d="M64,110.73c-14.92,0-26.19-13.36-24.18-27.44a24.37,24.37,0,0,0,48.37,0C90.23,97.4,79,110.73,64,110.73Z"/><path class="cls-13" d="M127,52.84H102.51l5-25.28a15.24,15.24,0,0,0,4.26-19.94c-6.75-11.7-24.4-9.37-27.9,3.67a15.23,15.23,0,0,0,.83,10.15L74,52.84H1a1.06,1.06,0,0,0-1,1V76.19a43.73,43.73,0,0,0,42.68,43.66V127a1,1,0,0,0,1,1H84.32a1,1,0,0,0,1-1v-7.15A43.73,43.73,0,0,0,128,76.19V53.87A1.06,1.06,0,0,0,127,52.84ZM86.69,21a13.14,13.14,0,0,1-.87-9.14C88.86.47,104.18-1.54,110,8.61a13.24,13.24,0,0,1-4,17.54c-.5.34.06-1.75-5.58,26.69H76.13C87.62,19.09,87,21.5,86.69,21ZM83.32,126H44.68v-6.13H83.32ZM126,76.19a41.73,41.73,0,0,1-41.68,41.68H43.68A41.73,41.73,0,0,1,2,76.19V54.84H126Z"/><path class="cls-13" d="M64,61A25.39,25.39,0,1,0,89.39,86.35,25.42,25.42,0,0,0,64,61Zm0,48.77A23.39,23.39,0,1,1,87.39,86.35,23.41,23.41,0,0,1,64,109.74Z"/><path class="cls-13" d="M78.23,81.29H69.06V72.13a1,1,0,0,0-1-1H59.94a1,1,0,0,0-1,1v9.16H49.77a1,1,0,0,0-1,1v8.13a1,1,0,0,0,1,1h9.17v9.16a1,1,0,0,0,1,1h8.12a1,1,0,0,0,1-1V91.42h9.17a1,1,0,0,0,1-1V82.29A1,1,0,0,0,78.23,81.29Zm-1,8.13H68.06a1,1,0,0,0-1,1v9.16H60.94V90.42a1,1,0,0,0-1-1H50.77V83.29h9.17a1,1,0,0,0,1-1V73.13h6.12v9.16a1,1,0,0,0,1,1h9.17Z"/><path class="cls-13" d="M23.35,30.45A11.16,11.16,0,1,0,12.19,19.29,11.18,11.18,0,0,0,23.35,30.45Zm0-20.32a9.16,9.16,0,1,1-5.72,16.3l10.5-10.5a1,1,0,0,0-1.42-1.41L16.21,25A9.17,9.17,0,0,1,23.35,10.13Z"/><path class="cls-13" d="M52.59,44.31l10-10a8.2,8.2,0,0,0-5.79-14A8.1,8.1,0,0,0,51,22.72C40.56,33.18,38.61,34.17,38.61,38.52A8.2,8.2,0,0,0,52.59,44.31Zm-.15-20.18A6.2,6.2,0,0,1,63,28.51c0,3.34-2.13,4.69-6.11,8.67l-8.75-8.74Zm-10,10,4.31-4.3,8.74,8.75c-4,4-5.4,6.11-8.67,6.11A6.2,6.2,0,0,1,42.42,34.15Z"/></g></svg>