<svg xmlns="http://www.w3.org/2000/svg" xmlns:xlink="http://www.w3.org/1999/xlink" viewBox="0 0 128 128"><defs><style>.cls-1{fill:url(#linear-gradient);}.cls-2{fill:#c7cdd8;}.cls-3{fill:url(#linear-gradient-2);}.cls-4{fill:url(#linear-gradient-3);}.cls-5{fill:#42455e;}.cls-6{fill:url(#linear-gradient-4);}.cls-7{fill:#86b8e0;}.cls-8{fill:url(#linear-gradient-5);}.cls-9{fill:url(#linear-gradient-6);}.cls-10{fill:url(#linear-gradient-7);}.cls-11{fill:#949aaf;}.cls-12{fill:#47566a;}</style><linearGradient id="linear-gradient" x1="63.98" y1="86.03" x2="63.98" y2="1" gradientUnits="userSpaceOnUse"><stop offset="0" stop-color="#d4d8e1"/><stop offset="1" stop-color="#f3f4f5"/></linearGradient><linearGradient id="linear-gradient-2" x1="63.98" y1="71.68" x2="63.98" y2="23.35" gradientUnits="userSpaceOnUse"><stop offset="0" stop-color="#949aaf"/><stop offset="1" stop-color="#c6ccda"/></linearGradient><linearGradient id="linear-gradient-3" x1="63.98" y1="65.18" x2="63.98" y2="31.48" gradientUnits="userSpaceOnUse"><stop offset="0" stop-color="#454b60"/><stop offset="1" stop-color="#575f7c"/></linearGradient><linearGradient id="linear-gradient-4" x1="63.98" y1="102.61" x2="63.98" y2="88.39" gradientUnits="userSpaceOnUse"><stop offset="0" stop-color="#7aa8d7"/><stop offset="1" stop-color="#96c8ea"/></linearGradient><linearGradient id="linear-gradient-5" x1="63.98" y1="88.39" x2="63.98" y2="64" xlink:href="#linear-gradient-4"/><linearGradient id="linear-gradient-6" x1="63.98" y1="114.81" x2="63.98" y2="102.61" xlink:href="#linear-gradient-2"/><linearGradient id="linear-gradient-7" x1="63.98" y1="127" x2="63.98" y2="114.81" xlink:href="#linear-gradient-2"/></defs><title>MRI</title><g id="MRI"><path class="cls-1" d="M100.62,86,27.4,86c-23-26-12-66.72,20.32-78.1V5.06A4.08,4.08,0,0,1,51.78,1H76.17a4.08,4.08,0,0,1,4.07,4.06V7.85C112.88,19.39,123.29,60.21,100.62,86Z"/><path class="cls-2" d="M100.62,86,27.4,86A48.33,48.33,0,0,1,15.24,51.81c0,15.51,13.86,30.08,31.63,30.1l34,0C97.51,82,112,69.1,112.69,51.81,112.69,50.66,114.82,69.84,100.62,86Z"/><path class="cls-3" d="M88.67,71.68C103,52.05,89.18,23.35,64,23.35s-39,28.71-24.69,48.33"/><path class="cls-4" d="M83.24,65.18c8.69-14.69-1.82-33.7-19.26-33.7a22.38,22.38,0,0,0-19.27,33.7"/><path class="cls-5" d="M86.13,56.93a22.35,22.35,0,0,0-44.3,0,22.36,22.36,0,1,1,44.3,0Z"/><rect class="cls-6" x="25.36" y="88.39" width="77.23" height="14.23"/><rect class="cls-7" x="25.36" y="88.39" width="77.23" height="4.06"/><path class="cls-8" d="M102.59,88.39H25.36c19.7-23.65,15.8-19,20.33-24.39H82.27C86.67,69.27,82.76,64.59,102.59,88.39Z"/><path class="cls-9" d="M98.53,102.61a19,19,0,0,1-.19,4.07,9.91,9.91,0,0,1-9.77,8.13H39.39a10,10,0,0,1-10-10v-2.24Z"/><rect class="cls-10" x="39.59" y="114.81" width="48.77" height="12.19"/><rect class="cls-11" x="39.59" y="114.81" width="48.77" height="4.06"/><path class="cls-11" d="M98.53,102.61a19,19,0,0,1-.19,4.07H29.61a19.78,19.78,0,0,1-.18-4.07Z"/><path class="cls-12" d="M55.87,14.19H72.13a1,1,0,0,0,0-2H55.87A1,1,0,0,0,55.87,14.19Z"/><path class="cls-12" d="M103.54,88c-.09-.22,0-.08-1.59-2,22.49-26.49,11.42-67-20.69-78.88V5.06A5.07,5.07,0,0,0,76.19,0H51.81a5.07,5.07,0,0,0-5.07,5.06V7.15C14,19.21,3.86,59.87,26.11,86c-1.67,2-1.56,1.86-1.64,2s-.08-.55-.08,14.62a1,1,0,0,0,1,1h3.06v1.24a11,11,0,0,0,10.16,10.92V127a1,1,0,0,0,2,0V115.81H87.39V127a1,1,0,0,0,2,0V115.77a11,11,0,0,0,10.16-10.92v-1.24h3.06a1,1,0,0,0,1-1C103.61,87.37,103.65,88.29,103.54,88ZM46.18,65H81.82l18.66,22.39h-73Zm38.29.06a23.35,23.35,0,1,0-40.94,0l-4.14,5C26.62,50.83,40.33,24.35,64,24.35S101.38,50.84,88.61,70ZM45.71,63a1,1,0,0,0-.81.4,21.36,21.36,0,1,1,38.2,0C82.59,62.79,85.48,63,45.71,63Zm44.23,8.62a30.88,30.88,0,0,0,5.5-16.78h16.31a47.76,47.76,0,0,1-11.1,29.63ZM48.08,8.79c.83-.29.66-.83.66-3.73A3.07,3.07,0,0,1,51.81,2H76.19a3.07,3.07,0,0,1,3.07,3.06c0,2.58-.22,3.42.66,3.73a47.86,47.86,0,0,1,31.83,44.05H95.46a31.48,31.48,0,0,0-62.92,0H16.24A47.5,47.5,0,0,1,48.08,8.79ZM16.24,54.84H32.56a30.88,30.88,0,0,0,5.5,16.78L27.41,84.39A47.49,47.49,0,0,1,16.24,54.84Zm81.31,50a9,9,0,0,1-9.16,9h-49a9,9,0,0,1-9-9v-1.24h67.1Zm4.06-3.24H26.39V89.39h75.22Z"/></g></svg>