<svg xmlns="http://www.w3.org/2000/svg" xmlns:xlink="http://www.w3.org/1999/xlink" viewBox="0 0 128 128"><defs><style>.cls-1{fill:url(#linear-gradient);}.cls-2{fill:#8a6762;}.cls-3{fill:url(#linear-gradient-2);}.cls-4{fill:#f2c4b0;}.cls-5{fill:#eab39b;}.cls-6{fill:url(#linear-gradient-3);}.cls-7{fill:url(#linear-gradient-4);}.cls-8{fill:url(#linear-gradient-5);}.cls-9{fill:url(#linear-gradient-6);}.cls-10{fill:#c7cdd8;}.cls-11{fill:url(#linear-gradient-7);}.cls-12{fill:url(#linear-gradient-8);}.cls-13{fill:#d96bb0;}.cls-14{fill:#47566a;}</style><linearGradient id="linear-gradient" x1="64" y1="86.35" x2="64" y2="14.68" gradientUnits="userSpaceOnUse"><stop offset="0" stop-color="#9b756d"/><stop offset="1" stop-color="#bc9388"/></linearGradient><linearGradient id="linear-gradient-2" x1="64" y1="80.26" x2="64" y2="31.87" gradientUnits="userSpaceOnUse"><stop offset="0" stop-color="#f2c4b0"/><stop offset="1" stop-color="#ffe3d7"/></linearGradient><linearGradient id="linear-gradient-3" x1="64" y1="127" x2="64" y2="86.35" gradientUnits="userSpaceOnUse"><stop offset="0" stop-color="#d4d8e1"/><stop offset="1" stop-color="#f3f4f5"/></linearGradient><linearGradient id="linear-gradient-4" y1="21.32" y2="1" xlink:href="#linear-gradient-3"/><linearGradient id="linear-gradient-5" x1="35.55" y1="57.9" x2="35.55" y2="45.71" xlink:href="#linear-gradient-2"/><linearGradient id="linear-gradient-6" x1="92.45" y1="57.9" x2="92.45" y2="45.71" xlink:href="#linear-gradient-2"/><linearGradient id="linear-gradient-7" y1="104.65" y2="86.35" xlink:href="#linear-gradient-3"/><linearGradient id="linear-gradient-8" y1="100.58" y2="78.86" xlink:href="#linear-gradient-2"/></defs><title>Nurse</title><g id="Nurse"><path class="cls-1" d="M79.57,14.68A23,23,0,0,1,94.48,36.24V86.35h-61V36.24A23,23,0,0,1,48.43,14.68Z"/><rect class="cls-2" x="33.52" y="80.26" width="60.97" height="6.1"/><path class="cls-3" d="M88.39,45.71V55.87a24.39,24.39,0,0,1-48.78,0V46.1s13.78-6.28,14.21-14.23h.34C62.44,41.75,80.36,45.71,88.39,45.71Z"/><path class="cls-4" d="M88.39,45.71v4.06c-6.38,0-21.61-2.56-32.48-10.22-3.55,4.32-12.56,10.61-16.3,10.61V46.1s13.78-6.28,14.21-14.23h.34C62.44,41.75,80.36,45.71,88.39,45.71Z"/><path class="cls-5" d="M88.39,51.81v4.06a24.39,24.39,0,0,1-48.78,0V51.81a24.32,24.32,0,0,0,7.14,17.25C62,84.26,88.39,73.61,88.39,51.81Z"/><path class="cls-6" d="M110.74,127H17.26c0-.17,3-19.75,3-19.88a24.35,24.35,0,0,1,21.4-20.6c2,0-9.25-.17,42-.17a24.4,24.4,0,0,1,24.1,20.77C110.4,124.65,110.17,123.2,110.74,127Z"/><path class="cls-7" d="M81.8,3.48c-3.18,15.85-2.49,12.44-3.57,17.84H49.77c-1-5.22-.27-1.37-3.57-17.84A65.15,65.15,0,0,1,81.8,3.48Z"/><path class="cls-8" d="M39.61,57.9h-2a6.1,6.1,0,1,1,0-12.19h2Z"/><path class="cls-9" d="M88.39,45.71h2a6.1,6.1,0,1,1,0,12.19h-2Z"/><path class="cls-2" d="M88.39,41.65v4.06c-6.81,0-23.7-3.11-33.45-12.13C52.1,39.9,41.49,46.1,39.61,46.1V41.81c4-2,11.91-7,12.18-12.07a2.07,2.07,0,0,1,3.82-1.32C63.49,37.8,80.83,41.65,88.39,41.65Z"/><path class="cls-10" d="M86.35,86.52c0,8.33-3,22.19-14.22,22.19A14.14,14.14,0,0,1,64,106.33a14.14,14.14,0,0,1-8.13,2.38c-11.18,0-14.18-13.86-14.22-22.19C44,86.25,84.05,86.25,86.35,86.52Z"/><path class="cls-11" d="M82.29,86.35s0,18.3-10.16,18.3c-6.1,0-8.13-4.07-8.13-4.07s-2,4.07-8.13,4.07c-10.16,0-10.16-18.3-10.16-18.3Z"/><path class="cls-12" d="M72.13,78.86v7.49L64,100.58,55.87,86.35V78.86A24.33,24.33,0,0,0,72.13,78.86Z"/><path class="cls-10" d="M110.74,127H17.26c.45-3,.15-1,.91-6.1h91.66C110.51,125.52,110.3,124.07,110.74,127Z"/><polygon class="cls-10" points="79.04 17.26 78.23 21.32 49.77 21.32 48.96 17.26 79.04 17.26"/><path class="cls-13" d="M59,69A1,1,0,0,1,60.4,67.6a5.09,5.09,0,0,0,7.2,0A1,1,0,0,1,69,69,7.11,7.11,0,0,1,59,69Z"/><path class="cls-14" d="M50.81,51.81v-2a1,1,0,0,1,2,0v2A1,1,0,0,1,50.81,51.81Z"/><path class="cls-14" d="M73.16,51.81v-2a1,1,0,0,1,2,0v2A1,1,0,0,1,73.16,51.81Z"/><path class="cls-14" d="M67.6,67.6a5.09,5.09,0,0,1-7.2,0A1,1,0,0,0,59,69a7.11,7.11,0,0,0,10,0A1,1,0,0,0,67.6,67.6Z"/><path class="cls-14" d="M50.81,49.77v2a1,1,0,0,0,2,0v-2A1,1,0,0,0,50.81,49.77Z"/><path class="cls-14" d="M73.16,49.77v2a1,1,0,0,0,2,0v-2A1,1,0,0,0,73.16,49.77Z"/><path class="cls-14" d="M108.75,107a25.23,25.23,0,0,0-15.2-19.63h.93a1,1,0,0,0,1-1V56.77a7.08,7.08,0,0,0,0-9.93V36.24A24.13,24.13,0,0,0,80.7,14.07L82.78,3.68a1,1,0,0,0-.68-1.16,66.26,66.26,0,0,0-36.2,0,1,1,0,0,0-.68,1.16L47.3,14.07A24.13,24.13,0,0,0,32.52,36.24v10.6a7.08,7.08,0,0,0,0,9.93V86.35a1,1,0,0,0,1,1h.93A25.23,25.23,0,0,0,19.25,107l-3,19.87a1,1,0,0,0,2,.3l3-19.88a23.26,23.26,0,0,1,23.5-19.92c.17,4,1.44,18.3,11.14,18.3A10.77,10.77,0,0,0,63,103.27V127a1,1,0,0,0,2,0V103.27a10.77,10.77,0,0,0,7.13,2.38c9.7,0,11-14.31,11.14-18.3a23.25,23.25,0,0,1,23.5,19.92l3,19.88a1,1,0,0,0,2-.3ZM90.42,56.9h-1V46.71h1a5.1,5.1,0,1,1,0,10.19ZM71.13,80.24v5.85L64,98.56,56.87,86.09V80.25A25.7,25.7,0,0,0,71.13,80.24Zm.7-2.33C55,83.24,40.61,71,40.61,55.87V46.73c2.5-1.23,12-6.29,13.91-13C63.37,43,79.82,46.4,87.39,46.69v9.18A23.44,23.44,0,0,1,71.83,77.91ZM80.64,4.18,77.41,20.32H50.59L47.36,4.18A64.63,64.63,0,0,1,80.64,4.18ZM47.7,16.07l1.09,5.45a1,1,0,0,0,1,.8H78.23a1,1,0,0,0,1-.8l1.09-5.45A22.12,22.12,0,0,1,93.48,36.24v9.18a7,7,0,0,0-3.06-.71c-12.16,0-28.59-4.83-35.8-13.85a1,1,0,0,0-1.78.62c0,6.34-9.91,11.83-12.83,13.31a1.1,1.1,0,0,0-.4-.08c-2.13,0-3.35-.14-5.09.71V36.24A22.12,22.12,0,0,1,47.7,16.07ZM37.58,46.71h1V56.9h-1a5.1,5.1,0,1,1,0-10.19ZM34.52,85.35V58.2a8.48,8.48,0,0,0,4.28.7A25.3,25.3,0,0,0,54.87,79.57v5.78Zm21.35,18.3c-7.77,0-8.95-12.62-9.13-16.3h8.55l7.54,13.21C62.16,101.5,60.15,103.65,55.87,103.65Zm16.26,0c-4.28,0-6.29-2.16-7-3.09l7.54-13.21h8.55C81.08,91,79.9,103.65,72.13,103.65Zm1-18.3v-5.8A25.44,25.44,0,0,0,89.2,58.9a8.37,8.37,0,0,0,4.28-.7V85.35Z"/><path class="cls-14" d="M59.94,12.16H63v3.07a1,1,0,0,0,2,0V12.16h3.06a1,1,0,0,0,0-2H65V7.1a1,1,0,0,0-2,0v3.06H59.94A1,1,0,0,0,59.94,12.16Z"/><path class="cls-14" d="M94.48,115.84H80.26a1,1,0,0,0,0,2H94.48A1,1,0,0,0,94.48,115.84Z"/></g></svg>