<svg xmlns="http://www.w3.org/2000/svg" xmlns:xlink="http://www.w3.org/1999/xlink" viewBox="0 0 128 128"><defs><style>.cls-1{fill:url(#linear-gradient);}.cls-2{fill:#eab39b;}.cls-3{fill:#ffece6;}.cls-4{fill:url(#linear-gradient-2);}.cls-5{fill:#c7cdd8;}.cls-6{fill:url(#linear-gradient-3);}.cls-7{fill:url(#linear-gradient-4);}.cls-8{fill:#dd4e6a;}.cls-9{fill:#42455e;}.cls-10{fill:#47566a;}</style><linearGradient id="linear-gradient" x1="64" y1="108.7" x2="64" y2="19.3" gradientUnits="userSpaceOnUse"><stop offset="0" stop-color="#f2c4b0"/><stop offset="1" stop-color="#ffe3d7"/></linearGradient><linearGradient id="linear-gradient-2" x1="64" y1="96.51" x2="64" y2="31.49" gradientUnits="userSpaceOnUse"><stop offset="0" stop-color="#d4d8e1"/><stop offset="1" stop-color="#f3f4f5"/></linearGradient><linearGradient id="linear-gradient-3" x1="64" y1="88.39" x2="64" y2="31.48" gradientUnits="userSpaceOnUse"><stop offset="0" stop-color="#454b60"/><stop offset="1" stop-color="#575f7c"/></linearGradient><linearGradient id="linear-gradient-4" x1="64" y1="76.19" x2="64" y2="43.68" gradientUnits="userSpaceOnUse"><stop offset="0" stop-color="#da5466"/><stop offset="1" stop-color="#e87092"/></linearGradient></defs><title>ophthalmologists</title><g id="ophthalmologists"><path class="cls-1" d="M127,64C96.18,123.64,31.78,123.56,1,64,31.82,4.36,96.22,4.44,127,64Z"/><path class="cls-2" d="M127,64C96.18,123.63,31.79,123.57,1,64,31.82,115.48,96.19,115.46,127,64Z"/><path class="cls-3" d="M1,64C31.82,4.37,96.21,4.43,127,64,96.18,12.52,31.81,12.54,1,64Z"/><path class="cls-4" d="M127,64C96.18,107.38,31.78,107.31,1,64,31.82,20.62,96.22,20.69,127,64Z"/><path class="cls-5" d="M127,64C96.18,107.37,31.79,107.32,1,64,31.86,99.26,96.21,99.18,127,64Z"/><path class="cls-5" d="M1,64c30.82-43.37,95.21-43.32,126,0C96.14,28.74,31.79,28.82,1,64Z"/><circle class="cls-6" cx="64" cy="59.94" r="28.45"/><circle class="cls-7" cx="64" cy="59.94" r="16.26"/><path class="cls-8" d="M64,76.19A16.27,16.27,0,0,1,47.86,57.9a16.27,16.27,0,0,0,32.28,0A16.27,16.27,0,0,1,64,76.19Z"/><path class="cls-9" d="M64,88.39c-17,0-29.79-14.85-28.37-30.49a28.44,28.44,0,0,0,56.74,0C93.8,73.59,81,88.39,64,88.39Z"/><path class="cls-10" d="M127.89,63.54C96.74,3.27,31.26,3.27.11,63.54a1.13,1.13,0,0,0,0,.92c31.15,60.27,96.63,60.27,127.78,0A1.13,1.13,0,0,0,127.89,63.54Zm-93.34-3.6A29.45,29.45,0,1,0,77.27,33.65,76.48,76.48,0,0,1,125.77,64c-30.41,42-93.1,42-123.54,0a76.48,76.48,0,0,1,48.5-30.35A29.5,29.5,0,0,0,34.55,59.94ZM64,32.48A27.46,27.46,0,1,1,36.55,59.94,27.48,27.48,0,0,1,64,32.48ZM119.94,54A78.29,78.29,0,0,0,8.06,54C38.27,9.1,89.71,9.06,119.94,54ZM8.06,74a78.29,78.29,0,0,0,111.88,0C89.73,118.9,38.29,118.94,8.06,74Z"/><path class="cls-10" d="M55.87,60.94H63v7.12a1,1,0,0,0,2,0V60.94h7.13a1,1,0,0,0,0-2H65V51.81a1,1,0,0,0-2,0v7.13H55.87A1,1,0,0,0,55.87,60.94Z"/><path class="cls-10" d="M64,77.19A17.26,17.26,0,1,0,46.74,59.94,17.27,17.27,0,0,0,64,77.19Zm0-32.51A15.26,15.26,0,1,1,48.74,59.94,15.28,15.28,0,0,1,64,44.68Z"/></g></svg>