<svg xmlns="http://www.w3.org/2000/svg" xmlns:xlink="http://www.w3.org/1999/xlink" viewBox="0 0 128 128"><defs><style>.cls-1{fill:url(#linear-gradient);}.cls-2{fill:#77cacb;}.cls-3{fill:url(#linear-gradient-2);}.cls-4{fill:url(#linear-gradient-3);}.cls-5{fill:url(#linear-gradient-4);}.cls-6{fill:url(#linear-gradient-5);}.cls-7{fill:url(#linear-gradient-6);}.cls-8{fill:#7ece67;}.cls-9{fill:#4da67f;}.cls-10{fill:#78c19b;}.cls-11{fill:url(#linear-gradient-7);}.cls-12{fill:url(#linear-gradient-8);}.cls-13{fill:#47566a;}</style><linearGradient id="linear-gradient" x1="17.28" y1="35.55" x2="17.28" y2="3.04" gradientUnits="userSpaceOnUse"><stop offset="0" stop-color="#9dd5df"/><stop offset="1" stop-color="#c3e1f5"/></linearGradient><linearGradient id="linear-gradient-2" x1="17.28" y1="29.45" x2="17.28" y2="21.33" gradientUnits="userSpaceOnUse"><stop offset="0" stop-color="#d4d8e1"/><stop offset="1" stop-color="#f3f4f5"/></linearGradient><linearGradient id="linear-gradient-3" x1="120.9" y1="21.33" x2="120.9" y2="9.13" xlink:href="#linear-gradient-2"/><linearGradient id="linear-gradient-4" x1="102.62" y1="126.99" x2="102.62" y2="21.33" gradientUnits="userSpaceOnUse"><stop offset="0" stop-color="#6ab891"/><stop offset="1" stop-color="#85cba9"/></linearGradient><linearGradient id="linear-gradient-5" x1="102.62" y1="21.33" x2="102.62" y2="11.17" gradientTransform="translate(205.23 32.49) rotate(-180)" gradientUnits="userSpaceOnUse"><stop offset="0" stop-color="#949aaf"/><stop offset="1" stop-color="#c6ccda"/></linearGradient><linearGradient id="linear-gradient-6" x1="102.62" y1="108.7" x2="102.62" y2="55.87" gradientTransform="translate(205.23 164.57) rotate(-180)" gradientUnits="userSpaceOnUse"><stop offset="0" stop-color="#8cdd79"/><stop offset="1" stop-color="#d4e6b6"/></linearGradient><linearGradient id="linear-gradient-7" x1="74.17" y1="19.29" x2="74.17" y2="11.17" gradientTransform="translate(148.34 30.46) rotate(-180)" xlink:href="#linear-gradient-5"/><linearGradient id="linear-gradient-8" x1="74.17" y1="39.57" x2="74.17" y2="19.29" xlink:href="#linear-gradient"/></defs><title>Oxygen</title><g id="Oxygen"><path class="cls-1" d="M3.05,24.71c0,7.18,6.37,10.84,14.23,10.84S31.5,31.89,31.5,24.71,25.13,3,17.28,3,3.05,17.53,3.05,24.71Z"/><path class="cls-2" d="M17.28,35.55c-8.52,0-15.22-4.06-14.06-13.07,2,12.09,26.14,12.1,28.12,0C32.48,31.4,25.85,35.55,17.28,35.55Z"/><circle class="cls-3" cx="17.28" cy="25.39" r="4.06"/><circle class="cls-4" cx="120.9" cy="15.23" r="6.1"/><path class="cls-5" d="M96.52,26.45V21.33h12.19v5.12A18.29,18.29,0,0,1,120.9,43.68V127H84.33V43.68A18.29,18.29,0,0,1,96.52,26.45Z"/><rect class="cls-6" x="98.55" y="11.17" width="8.13" height="10.16" transform="translate(205.23 32.49) rotate(180)"/><rect class="cls-7" x="84.33" y="55.87" width="36.57" height="52.83" transform="translate(205.23 164.57) rotate(180)"/><rect class="cls-8" x="84.33" y="102.6" width="36.57" height="6.1" transform="translate(205.23 211.3) rotate(180)"/><rect class="cls-9" x="84.33" y="120.89" width="36.57" height="6.1"/><rect class="cls-10" x="96.52" y="21.33" width="12.19" height="4.06"/><rect class="cls-11" x="68.07" y="11.17" width="12.19" height="8.13" transform="translate(148.34 30.46) rotate(180)"/><path class="cls-12" d="M78.23,19.29H70.11V35.55c0,5.4,8.12,5.32,8.12,0Z"/><rect class="cls-2" x="70.11" y="19.29" width="8.13" height="4.06"/><path class="cls-13" d="M113.89,16.23a7.1,7.1,0,1,0,0-2h-6.21V11.16a1,1,0,0,0-1-1h-3.07V6.06h5.1a1,1,0,0,0,0-2h-5.1V1a1,1,0,0,0-2,0V4.06H96.52a1,1,0,0,0,0,2h5.09v4.1H98.55a1,1,0,0,0-1,1v3.07H81.26V11.16a1,1,0,0,0-1-1h-5.1V1a1,1,0,0,0-2,0v9.16h-5.1a1,1,0,0,0-1,1v3.12A21.32,21.32,0,0,0,46.74,35.55v70.11a14.24,14.24,0,0,1-28.48,0V36.52c8.67-.33,14.22-4.88,14.22-11.81a29.64,29.64,0,0,0-2.92-11.36l4.56-3.42a1,1,0,0,0-1.2-1.6l-4.26,3.19c-6.72-12.62-16.08-12.64-22.8,0L1.6,8.33A1,1,0,0,0,.4,9.93L5,13.35A29.67,29.67,0,0,0,2,24.71c0,6.93,5.56,11.48,14.23,11.81v69.14a16.24,16.24,0,1,0,32.48,0V35.55A19.33,19.33,0,0,1,67.06,16.28v3a1,1,0,0,0,1,1h1V35.55a5.07,5.07,0,0,0,10.13,0V20.29h1a1,1,0,0,0,1-1V16.23H97.55v4.09h-1a1,1,0,0,0-1,1v4.44a19.31,19.31,0,0,0-12.2,17.92V127a1,1,0,0,0,1,1H120.9a1,1,0,0,0,1-1V43.68a19.31,19.31,0,0,0-12.19-17.92V21.32a1,1,0,0,0-1-1h-1V16.23Zm7-6.1a5.1,5.1,0,1,1-5.09,5.1A5.11,5.11,0,0,1,120.9,10.13ZM17.26,28.45a3.07,3.07,0,1,1,3.06-3.06A3.07,3.07,0,0,1,17.26,28.45ZM4,24.71A27.5,27.5,0,0,1,6.6,14.58L8.53,16a1,1,0,0,0,1.2-1.6L7.48,12.74C13.47,1.18,21,1.17,27,12.74l-2.24,1.69A1,1,0,0,0,26,16l1.92-1.45a27.31,27.31,0,0,1,2.57,10.13c0,6.87-6.37,9.54-12.22,9.81V30.35a5.07,5.07,0,1,0-2,0v4.17C10.41,34.25,4,31.58,4,24.71Zm73.2,10.84a3.07,3.07,0,0,1-6.13,0V20.29h6.13Zm2-17.26H69.06V12.16h10.2Zm40.64,89.42H85.32V56.87H119.9ZM85.32,126V109.71H119.9V126Zm23.06-98.61A17.32,17.32,0,0,1,119.9,43.68V54.87H85.32V43.68A17.33,17.33,0,0,1,96.85,27.39c.9-.32.67-.91.67-5.07h10.19C107.71,26.78,107.54,27.09,108.38,27.39Zm-8.83-7.07V12.16h6.13v8.16Z"/></g></svg>