<svg xmlns="http://www.w3.org/2000/svg" xmlns:xlink="http://www.w3.org/1999/xlink" viewBox="0 0 128 128"><defs><style>.cls-1{fill:url(#linear-gradient);}.cls-2{fill:url(#linear-gradient-2);}.cls-3{fill:url(#linear-gradient-3);}.cls-4{fill:#f6b756;}.cls-5{fill:url(#linear-gradient-4);}.cls-6{fill:#ffd39f;}.cls-7{fill:#4da67f;}.cls-8{fill:url(#linear-gradient-5);}.cls-9{fill:#47566a;}</style><linearGradient id="linear-gradient" x1="64" y1="126.98" x2="64" y2="45.74" gradientUnits="userSpaceOnUse"><stop offset="0" stop-color="#fbcc88"/><stop offset="1" stop-color="#ffe5c3"/></linearGradient><linearGradient id="linear-gradient-2" x1="74.16" y1="117.23" x2="74.16" y2="115.3" gradientUnits="userSpaceOnUse"><stop offset="0" stop-color="#6ab891"/><stop offset="1" stop-color="#85cba9"/></linearGradient><linearGradient id="linear-gradient-3" x1="67.99" y1="82.01" x2="67.99" y2="80.96" xlink:href="#linear-gradient-2"/><linearGradient id="linear-gradient-4" x1="69.11" y1="45.74" x2="69.11" y2="0.98" xlink:href="#linear-gradient-2"/><linearGradient id="linear-gradient-5" x1="64" y1="117.24" x2="64" y2="76.68" xlink:href="#linear-gradient-2"/></defs><title>Pharmacy</title><g id="Pharmacy"><path class="cls-1" d="M122.91,45.74C115.47,68,92.47,77.68,69.46,78.19c-1.95,0-1.4-4.32-1.4,42.7L92.44,127H35.56l24.38-6.09V78.21C36.29,78,12.66,68.43,5.09,45.74Z"/><path class="cls-2" d="M68.06,115.3c3.54.59,7.58,1.1,12.19,1.53,0,0-5.36.4-12.19.4Z"/><path class="cls-3" d="M67.92,82c.16-1.15.14-1.52.14.06Z"/><path class="cls-4" d="M68.06,93.77v12.62c-1.49.4-7.67,1.92-8.12,2,0-13.88-.24-12.5.55-12.68C62.86,95.15,65.5,94.5,68.06,93.77Z"/><path class="cls-5" d="M92.44,21.36c0,12.4-13,19.33-24.28,24.38H48.22C59.92,39.66,84.31,33,84.31,21.36c0-8.28-5.91-12.48-14.09-12.19C65,9.34,59,11.67,58.07,17.6a7.12,7.12,0,0,1,1.87,4.78c0,3.92-3.19,11.17-7.11,11.17-4.95,0-11.57-14.1-2.7-17.73C54.17-4.88,92.44-4.72,92.44,21.36Z"/><path class="cls-6" d="M122.91,45.74a42.79,42.79,0,0,1-1.59,4.06H6.68a42.79,42.79,0,0,1-1.59-4.06Z"/><path class="cls-7" d="M76.49,41.67c-2.68,1.49-5.5,2.81-8.33,4.07H48.22C50.88,44.35,53.86,43,57,41.67Z"/><path class="cls-7" d="M55.88,112.56c1.19.37,2.55.73,4.06,1.1V117c-1.36-.08-2.72-.2-4.06-.34Z"/><path class="cls-8" d="M69.45,78.19h0c5.81,2.4,10.79,5.2,10.79,8.17,0,3.23-5.84,5.58-12.2,7.41-2.56.73-5.2,1.38-7.58,2a5.44,5.44,0,0,0-.54.15C49.41,98.47,39.62,101,39.62,108.71c0,5.63,10.16,7.66,20.32,8.29,2.78.16,5.56.24,8.12.24,6.83,0,12.2-.4,12.2-.4-4.62-.43-8.66-.94-12.2-1.53-3.1-.51-5.79-1.07-8.12-1.64-7.85-1.91-11.48-4-12.13-4.94,1.13-1.55,7.25-3.25,12.13-4.49.87-.23,1.72-.43,2.48-.61l5.64-1.42c10.43-2.79,20.32-6.63,20.32-15.85,0-4-1.93-7.1-5-9.68"/><path class="cls-7" d="M76.65,81.79a44.51,44.51,0,0,0-7.19-3.6l13.92-1.5a15.6,15.6,0,0,1,3.13,3.47A74,74,0,0,1,76.65,81.79Z"/><path class="cls-9" d="M123.74,45.13c-.47-.64,2.36-.41-51-.41,10.84-5.25,20.75-12.24,20.75-23.39,0-27-39.38-27.77-44.2-6.25a8.06,8.06,0,0,0-4.54,7.27c0,4.28,3.35,12.17,8.11,12.17s8.12-7.89,8.12-12.17a8.11,8.11,0,0,0-1.8-5.06c1.79-8.17,15.78-9.22,21.21-3.92a10.65,10.65,0,0,1,3,8C83.32,32,60.84,38.1,48,44.72H5.07a1,1,0,0,0-1,1.31C14,75.63,47.36,79,58.94,79.19V95.1c-10.13,2.49-20.32,5.19-20.32,13.61,0,5.17,6.84,8.26,20.32,9.22v2.19L35.31,126a1,1,0,0,0,.24,2h56.9a1,1,0,0,0,.24-2l-23.63-5.91v-1.88c6.31,0,11.22-.4,11.27-.41a1,1,0,0,0,0-2c-4.18-.39-8-.85-11.29-1.38V103c10.65-2.91,20.32-7,20.32-16.61a12.82,12.82,0,0,0-3.93-9.11C105,72.91,118.58,61.89,123.88,46A1,1,0,0,0,123.74,45.13ZM85.32,21.33a12.53,12.53,0,0,0-3.57-9.39c-6.67-6.5-23-4.77-24.67,5.47a1,1,0,0,0,.24.83,6.14,6.14,0,0,1,1.62,4.11c0,3.74-3,10.17-6.12,10.17s-6.11-6.43-6.11-10.17a6.08,6.08,0,0,1,3.79-5.64,1,1,0,0,0,.6-.73C54.92-3.55,91.45-3.53,91.45,21.33c0,11.33-11.27,17.94-23.5,23.39H52.58C65.49,38.8,85.32,32.64,85.32,21.33ZM84.33,126H43.67l16.51-4.13a1,1,0,0,0,.76-1v-2.85c2.06.11,4.14.17,6.12.18,0,2.66-.19,3.4.76,3.64ZM58.94,112.38c-5.57-1.45-8.41-2.84-9.6-3.63,1.17-.69,3.84-1.71,9.6-3.22Zm2-7.36c1.25-.31,1.91-.46,6.12-1.53v10.62c-2.08-.36-4.11-.77-6.12-1.25Zm6.87-3.78c-5.92,1.53-18.83,4.21-20.81,6.9-1.87,2.53,9.65,5.75,12.7,6.5,2.59.63,5.16,1.15,7.85,1.6-6.87,0-26.93-.65-26.93-7.53C40.62,101,53,98.62,61,96.64c6.24-1.55,20.24-4.55,20.24-10.28,0-2.49-2.38-4.83-7.58-7.38a79.93,79.93,0,0,0,9.4-1.23c2.88,2.55,4.3,5.37,4.3,8.61C87.38,94.84,78,98.52,67.81,101.24Zm1.25-22c.51,0,10.2,3.94,10.2,7.16,0,2-3.43,4-10.2,6.07Zm14.13-3.5c-12.82,2.56-16.13.4-16.13,2.51V93c-2.07.58-4.19,1.11-6.12,1.59V78.21a1,1,0,0,0-1-1c-10-.07-43.14-2.49-53.46-30.49h115C114.08,66.81,94.41,73.5,83.19,75.7Z"/></g></svg>