<svg xmlns="http://www.w3.org/2000/svg" xmlns:xlink="http://www.w3.org/1999/xlink" viewBox="0 0 128 128"><defs><style>.cls-1{fill:url(#linear-gradient);}.cls-2{fill:#8288a1;}.cls-3{fill:url(#linear-gradient-2);}.cls-4{fill:url(#linear-gradient-3);}.cls-5{fill:url(#linear-gradient-4);}.cls-6{fill:url(#linear-gradient-5);}.cls-7{fill:#5b8dc9;}.cls-8{fill:#47566a;}</style><linearGradient id="linear-gradient" x1="107.71" y1="53.84" x2="107.71" y2="29.45" gradientUnits="userSpaceOnUse"><stop offset="0" stop-color="#949aaf"/><stop offset="1" stop-color="#c6ccda"/></linearGradient><linearGradient id="linear-gradient-2" x1="34.55" y1="86.35" x2="34.55" y2="45.71" gradientUnits="userSpaceOnUse"><stop offset="0" stop-color="#7aa8d7"/><stop offset="1" stop-color="#96c8ea"/></linearGradient><linearGradient id="linear-gradient-3" x1="23.37" y1="5.06" x2="23.37" y2="1" gradientUnits="userSpaceOnUse"><stop offset="0" stop-color="#d4d8e1"/><stop offset="1" stop-color="#f3f4f5"/></linearGradient><linearGradient id="linear-gradient-4" x1="45.73" y1="5.06" x2="45.73" y2="1" xlink:href="#linear-gradient-3"/><linearGradient id="linear-gradient-5" x1="107.71" y1="45.71" x2="107.71" y2="37.58" xlink:href="#linear-gradient-3"/></defs><title>Phonendoscope</title><g id="Phonendoscope"><circle class="cls-1" cx="107.71" cy="41.65" r="12.19"/><path class="cls-2" d="M107.71,53.84a12.2,12.2,0,0,1-12.1-13.69,12.19,12.19,0,0,0,24.2,0A12.2,12.2,0,0,1,107.71,53.84Z"/><path class="cls-3" d="M63,45.71A28.47,28.47,0,0,1,38.61,73.88V86.35H30.48V73.88A28.49,28.49,0,0,1,6.1,45.71h8.13a20.32,20.32,0,1,0,40.64,0Z"/><path class="cls-4" d="M24.39,5.06h-2a2,2,0,0,1,0-4.06h2A2,2,0,0,1,24.39,5.06Z"/><path class="cls-5" d="M46.74,5.06h-2a2,2,0,0,1,0-4.06h2A2,2,0,0,1,46.74,5.06Z"/><circle class="cls-6" cx="107.71" cy="41.65" r="4.06"/><rect class="cls-7" x="30.48" y="81.35" width="8.13" height="5"/><path class="cls-8" d="M120.9,41.65a13.19,13.19,0,1,0-14.19,13.14V90.42a35.58,35.58,0,1,1-71.16,0V87.35h3.06a1,1,0,0,0,1-1V74.73A29.46,29.46,0,0,0,64,45.71a1,1,0,0,0-1-1H59.94V13.19A11.18,11.18,0,0,0,49.6,2.07,3,3,0,0,0,46.74,0h-2a3,3,0,0,0,0,6.06c1.78,0,4,.35,4.87-2a9.18,9.18,0,0,1,8.36,9.12V44.71H54.87a1,1,0,0,0-1,1,19.32,19.32,0,1,1-38.64,0,1,1,0,0,0-1-1H11.16V13.48a9.17,9.17,0,0,1,8.48-9.13c1,2.06,3,1.71,4.75,1.71a3,3,0,1,0,0-6.06h-2a3,3,0,0,0-3,2.36A11.17,11.17,0,0,0,9.16,13.48V44.71H6.1a1,1,0,0,0-1,1,29.47,29.47,0,0,0,24.38,29V86.35a1,1,0,0,0,1,1h3.07v3.07a37.58,37.58,0,1,0,75.16,0V54.79A13.2,13.2,0,0,0,120.9,41.65ZM46.74,4.06h-2a1,1,0,0,1,0-2.06h2A1,1,0,0,1,46.74,4.06ZM22.35,2h2a1,1,0,0,1,0,2.06h-2A1,1,0,0,1,22.35,2Zm8.28,70.89A27.49,27.49,0,0,1,7.11,46.71h6.14a21.32,21.32,0,0,0,42.6,0H62A27.48,27.48,0,0,1,38.47,72.89a1,1,0,0,0-.86,1V85.35H31.48V73.88A1,1,0,0,0,30.63,72.89Zm77.08-28.18a3.07,3.07,0,1,1,3.06-3.06A3.07,3.07,0,0,1,107.71,44.71Zm1,8.08V46.61a5.06,5.06,0,1,0-2,0v6.18a11.19,11.19,0,1,1,2,0Z"/></g></svg>