<svg xmlns="http://www.w3.org/2000/svg" xmlns:xlink="http://www.w3.org/1999/xlink" viewBox="0 0 128 128"><defs><style>.cls-1{fill:url(#linear-gradient);}.cls-2{fill:#4da67f;}.cls-3{fill:url(#linear-gradient-2);}.cls-4{fill:#5b8dc9;}.cls-5{fill:url(#linear-gradient-3);}.cls-6{fill:#c7cdd8;}.cls-7{fill:url(#linear-gradient-4);}.cls-8{fill:#dd4e6a;}.cls-9{fill:#47566a;}</style><linearGradient id="linear-gradient" x1="64" y1="127" x2="64" y2="84.32" gradientUnits="userSpaceOnUse"><stop offset="0" stop-color="#6ab891"/><stop offset="1" stop-color="#85cba9"/></linearGradient><linearGradient id="linear-gradient-2" x1="64" y1="106.68" x2="64" y2="1" gradientUnits="userSpaceOnUse"><stop offset="0" stop-color="#7aa8d7"/><stop offset="1" stop-color="#96c8ea"/></linearGradient><linearGradient id="linear-gradient-3" x1="64" y1="68.06" x2="64" y2="11.16" gradientUnits="userSpaceOnUse"><stop offset="0" stop-color="#d4d8e1"/><stop offset="1" stop-color="#f3f4f5"/></linearGradient><linearGradient id="linear-gradient-4" x1="64" y1="55.87" x2="64" y2="23.35" gradientUnits="userSpaceOnUse"><stop offset="0" stop-color="#da5466"/><stop offset="1" stop-color="#e87092"/></linearGradient></defs><title>Place Holder</title><g id="Place_Holder" data-name="Place Holder"><path class="cls-1" d="M127,127H1L23.35,84.32h79.26C127.15,127.24,122.28,118.72,127,127Z"/><path class="cls-2" d="M88.18,84.32A189.42,189.42,0,0,1,64,106.68,189.42,189.42,0,0,1,39.82,84.32Z"/><path class="cls-3" d="M25.39,39.61a38.61,38.61,0,0,1,77.22,0c0,32.18-38.61,67.07-38.61,67.07S25.39,71.79,25.39,39.61Z"/><path class="cls-4" d="M64,106.68C46.75,91.09,24.68,62.29,25.43,37.62,26.52,59.09,44,81.41,55,93.5a12.17,12.17,0,0,0,18,0C84,81.41,101.48,59.09,102.57,37.62,103.32,62.5,80.93,91.38,64,106.68Z"/><circle class="cls-5" cx="64" cy="39.61" r="28.45"/><path class="cls-6" d="M92.29,42.66a28.45,28.45,0,0,0-56.58,0,28.45,28.45,0,1,1,56.58,0Z"/><polygon class="cls-7" points="80.26 35.55 68.06 35.55 68.06 23.36 59.94 23.36 59.94 35.55 47.74 35.55 47.74 43.68 59.94 43.68 59.94 55.87 68.06 55.87 68.06 43.68 80.26 43.68 80.26 35.55"/><polygon class="cls-2" points="127 127 1 127 4.19 120.9 123.53 120.9 127 127"/><rect class="cls-8" x="59.94" y="49.77" width="8.13" height="6.1"/><path class="cls-9" d="M127.87,126.5c-26.4-46.19-24.39-43.18-25.26-43.18H86C95.09,70.83,103.61,55,103.61,39.61a39.61,39.61,0,0,0-79.22,0C24.39,55,32.91,70.83,42,83.32H23.35c-.93,0,.69-2.45-23.24,43.22A1,1,0,0,0,1,128c135,0,126.43.26,126.86-.5A1,1,0,0,0,127.87,126.5ZM64,2a37.65,37.65,0,0,1,37.61,37.61c0,29-32.5,60.88-37.61,65.7-5.11-4.82-37.61-36.65-37.61-65.7A37.65,37.65,0,0,1,64,2ZM2.65,126,24,85.32H43.45a170.12,170.12,0,0,0,19.88,22.1,1,1,0,0,0,1.34,0,170.12,170.12,0,0,0,19.88-22.1H102L125.28,126Z"/><path class="cls-9" d="M93.45,39.61A29.45,29.45,0,1,0,64,69.06,29.48,29.48,0,0,0,93.45,39.61Zm-56.9,0A27.45,27.45,0,1,1,64,67.06,27.48,27.48,0,0,1,36.55,39.61Z"/><path class="cls-9" d="M69.06,55.87V44.68h11.2a1,1,0,0,0,1-1V35.55a1,1,0,0,0-1-1H69.06V23.35a1,1,0,0,0-1-1H59.94a1,1,0,0,0-1,1v11.2H47.74a1,1,0,0,0-1,1v8.13a1,1,0,0,0,1,1h11.2V55.87a1,1,0,0,0,1,1h8.12A1,1,0,0,0,69.06,55.87Zm-2-12.19V54.87H60.94V43.68a1,1,0,0,0-1-1H48.74V36.55h11.2a1,1,0,0,0,1-1V24.35h6.12v11.2a1,1,0,0,0,1,1h11.2v6.13H68.06A1,1,0,0,0,67.06,43.68Z"/></g></svg>