<svg xmlns="http://www.w3.org/2000/svg" xmlns:xlink="http://www.w3.org/1999/xlink" viewBox="0 0 128 128"><defs><style>.cls-1{fill:url(#linear-gradient);}.cls-2{fill:#8288a1;}.cls-3{fill:url(#linear-gradient-2);}.cls-4{fill:#f6b756;}.cls-5{fill:url(#linear-gradient-3);}.cls-6{fill:url(#linear-gradient-4);}.cls-7{fill:url(#linear-gradient-5);}.cls-8{fill:#42455e;}.cls-9{fill:url(#linear-gradient-6);}.cls-10{fill:#47566a;}</style><linearGradient id="linear-gradient" x1="64" y1="127" x2="64" y2="1" gradientUnits="userSpaceOnUse"><stop offset="0" stop-color="#949aaf"/><stop offset="1" stop-color="#c6ccda"/></linearGradient><linearGradient id="linear-gradient-2" x1="64" y1="118.87" x2="64" y2="9.13" gradientUnits="userSpaceOnUse"><stop offset="0" stop-color="#fbcc88"/><stop offset="1" stop-color="#ffe5c3"/></linearGradient><linearGradient id="linear-gradient-3" x1="64" y1="49.92" x2="64" y2="17.26" gradientUnits="userSpaceOnUse"><stop offset="0" stop-color="#454b60"/><stop offset="1" stop-color="#575f7c"/></linearGradient><linearGradient id="linear-gradient-4" x1="91.44" y1="104.46" x2="91.44" y2="64" xlink:href="#linear-gradient-3"/><linearGradient id="linear-gradient-5" x1="36.56" y1="104.46" x2="36.56" y2="64" xlink:href="#linear-gradient-3"/><linearGradient id="linear-gradient-6" y1="72.13" y2="55.87" xlink:href="#linear-gradient-3"/></defs><title>Radio Active</title><g id="Radio_Active" data-name="Radio Active"><circle class="cls-1" cx="64" cy="64" r="63"/><path class="cls-2" d="M64,127A63,63,0,0,1,1,62,63,63,0,0,0,127,62,63,63,0,0,1,64,127Z"/><circle class="cls-3" cx="64" cy="64" r="54.87"/><path class="cls-4" d="M110,94c-21.67,33.25-70.28,33.16-91.9,0C40.82,121.78,87.23,121.72,110,94Z"/><path class="cls-5" d="M87.37,23.54,72.13,49.92a16.26,16.26,0,0,0-16.26,0L40.63,23.54A46.61,46.61,0,0,1,87.37,23.54Z"/><path class="cls-6" d="M110.74,64a46.7,46.7,0,0,1-23.37,40.46L72.13,78.08A16.23,16.23,0,0,0,80.26,64Z"/><path class="cls-7" d="M55.87,78.08,40.63,104.46A46.7,46.7,0,0,1,17.26,64H47.74A16.23,16.23,0,0,0,55.87,78.08Z"/><path class="cls-8" d="M110.74,64a46.7,46.7,0,0,1-23.37,40.46c-18.79-32.52-20.91-36.71-2-4.06A46.72,46.72,0,0,0,108.53,64Z"/><path class="cls-8" d="M40.63,104.46A46.7,46.7,0,0,1,17.26,64h2.21a46.72,46.72,0,0,0,23.19,36.4C61.51,67.8,59.45,71.89,40.63,104.46Z"/><circle class="cls-9" cx="64" cy="64" r="8.13"/><path class="cls-8" d="M64,72.13A8.12,8.12,0,0,1,56.14,62c2,8.09,13.66,8.11,15.72,0A8.12,8.12,0,0,1,64,72.13Z"/><path class="cls-10" d="M64,0a64,64,0,1,0,64,64A64.07,64.07,0,0,0,64,0Zm0,126a62,62,0,1,1,62-62A62.07,62.07,0,0,1,64,126Z"/><path class="cls-10" d="M64,8.13A55.87,55.87,0,1,0,119.87,64,55.93,55.93,0,0,0,64,8.13Zm0,109.74A53.87,53.87,0,1,1,117.87,64,53.92,53.92,0,0,1,64,117.87Z"/><path class="cls-10" d="M39.68,23.8l.08.24C56.31,52.68,55,50.73,55.61,50.88a1,1,0,0,0,.76-.1,15.54,15.54,0,0,1,15.26,0,1,1,0,0,0,.76.1c.58-.15-.72,1.83,15.85-26.84a1,1,0,0,0-.09-1.12c-.46-.61-10.87-6.66-24.15-6.66-12.82,0-23.53,5.84-24.15,6.66A.91.91,0,0,0,39.68,23.8ZM86,23.91,71.75,48.57a17.33,17.33,0,0,0-15.5,0L42,23.91A45.65,45.65,0,0,1,86,23.91Z"/><path class="cls-10" d="M110.74,63H80.26a1,1,0,0,0-1,1,15.32,15.32,0,0,1-7.63,13.22c-1.22.7-1.23-.16,14.87,27.74a1.11,1.11,0,0,0,.58.45,1.06,1.06,0,0,0,.79-.08A47.87,47.87,0,0,0,111.74,64,1,1,0,0,0,110.74,63Zm-23,40.09L73.48,78.42A17.34,17.34,0,0,0,81.23,65h28.5A45.87,45.87,0,0,1,87.73,103.09Z"/><path class="cls-10" d="M56.37,77.22A15.32,15.32,0,0,1,48.74,64a1,1,0,0,0-1-1H17.26a1,1,0,0,0-1,1c0,30.34,26.42,42.71,23.9,41.34,1.22.66.53,1,16.58-26.76A1,1,0,0,0,56.37,77.22Zm-16.1,25.87A45.87,45.87,0,0,1,18.27,65h28.5a17.34,17.34,0,0,0,7.75,13.42Z"/><path class="cls-10" d="M64,54.87A9.13,9.13,0,1,0,73.13,64,9.15,9.15,0,0,0,64,54.87Zm0,16.26A7.13,7.13,0,1,1,71.13,64,7.14,7.14,0,0,1,64,71.13Z"/></g></svg>