<svg xmlns="http://www.w3.org/2000/svg" xmlns:xlink="http://www.w3.org/1999/xlink" viewBox="0 0 128 128"><defs><style>.cls-1{fill:#77cacb;}.cls-2{fill:url(#linear-gradient);}.cls-3{fill:url(#linear-gradient-2);}.cls-4{fill:url(#linear-gradient-3);}.cls-5{fill:url(#linear-gradient-4);}.cls-6{fill:url(#linear-gradient-5);}.cls-7{fill:url(#linear-gradient-6);}.cls-8{fill:#dd4e6a;}.cls-9{fill:#f6b756;}.cls-10{fill:#7ece67;}.cls-11{fill:url(#linear-gradient-7);}.cls-12{fill:url(#linear-gradient-8);}.cls-13{fill:url(#linear-gradient-9);}.cls-14{fill:url(#linear-gradient-10);}.cls-15{fill:#cba07a;}.cls-16{fill:#47566a;}</style><linearGradient id="linear-gradient" x1="27.42" y1="102.61" x2="27.42" y2="5.06" gradientUnits="userSpaceOnUse"><stop offset="0" stop-color="#9dd5df"/><stop offset="1" stop-color="#c3e1f5"/></linearGradient><linearGradient id="linear-gradient-2" x1="27.42" y1="102.61" x2="27.42" y2="32.96" gradientUnits="userSpaceOnUse"><stop offset="0" stop-color="#da5466"/><stop offset="1" stop-color="#e87092"/></linearGradient><linearGradient id="linear-gradient-3" x1="64" y1="102.61" x2="64" y2="5.06" xlink:href="#linear-gradient"/><linearGradient id="linear-gradient-4" x1="100.58" y1="102.61" x2="100.58" y2="5.06" xlink:href="#linear-gradient"/><linearGradient id="linear-gradient-5" x1="64" y1="102.61" x2="64" y2="59.38" gradientUnits="userSpaceOnUse"><stop offset="0" stop-color="#fbcc88"/><stop offset="1" stop-color="#ffe5c3"/></linearGradient><linearGradient id="linear-gradient-6" x1="100.58" y1="102.61" x2="100.58" y2="22.8" gradientUnits="userSpaceOnUse"><stop offset="0" stop-color="#8cdd79"/><stop offset="1" stop-color="#d4e6b6"/></linearGradient><linearGradient id="linear-gradient-7" x1="64" y1="127" x2="64" y2="41.65" gradientUnits="userSpaceOnUse"><stop offset="0" stop-color="#d1a788"/><stop offset="1" stop-color="#f2d3b8"/></linearGradient><linearGradient id="linear-gradient-8" x1="27.42" y1="9.13" x2="27.42" y2="1" xlink:href="#linear-gradient"/><linearGradient id="linear-gradient-9" x1="64" y1="9.13" x2="64" y2="1" xlink:href="#linear-gradient"/><linearGradient id="linear-gradient-10" x1="100.58" y1="9.13" x2="100.58" y2="1" xlink:href="#linear-gradient"/></defs><title>Sample Tube</title><g id="Sample_Tube" data-name="Sample Tube"><path class="cls-1" d="M37.58,92.45v4.07a10.16,10.16,0,1,1-20.32,0V92.45a10.16,10.16,0,1,0,20.32,0Z"/><path class="cls-1" d="M74.16,92.45v4.07a10.16,10.16,0,1,1-20.32,0V92.45a10.16,10.16,0,0,0,20.32,0Z"/><path class="cls-1" d="M110.74,92.45v4.07a10.16,10.16,0,0,1-20.32,0V92.45a10.16,10.16,0,0,0,20.32,0Z"/><path class="cls-2" d="M17.26,92.45a10.16,10.16,0,1,0,20.32,0V5.06H17.26Z"/><path class="cls-3" d="M33.52,33.58V96.52a6.1,6.1,0,0,1-12.2,0V33.58C27.42,35.55,27.42,31.48,33.52,33.58Z"/><path class="cls-4" d="M53.84,92.45a10.16,10.16,0,0,0,20.32,0V5.06H53.84Z"/><path class="cls-5" d="M90.42,5.06V92.45a10.16,10.16,0,0,0,20.32,0V5.06Z"/><rect class="cls-1" x="17.26" y="5.06" width="20.32" height="9.07"/><rect class="cls-1" x="53.84" y="5.06" width="20.32" height="9.07"/><rect class="cls-1" x="90.42" y="5.06" width="20.32" height="9.07"/><path class="cls-6" d="M70.1,60V96.52a6.1,6.1,0,0,1-12.2,0V60C64,62,64,57.9,70.1,60Z"/><path class="cls-7" d="M106.68,23.42v73.1a6.1,6.1,0,0,1-12.2,0V23.42C100.58,25.39,100.58,21.32,106.68,23.42Z"/><path class="cls-8" d="M33.52,92.45v4.07a6.1,6.1,0,0,1-12.2,0V92.45a6.1,6.1,0,0,0,12.2,0Z"/><path class="cls-9" d="M70.1,92.45v4.07a6.1,6.1,0,0,1-12.2,0V92.45a6.1,6.1,0,1,0,12.2,0Z"/><path class="cls-10" d="M106.68,92.45v4.07a6.1,6.1,0,0,1-12.2,0V92.45a6.1,6.1,0,0,0,12.2,0Z"/><path class="cls-11" d="M1,41.65V127H127V41.65Zm117.87,77.22H9.13V49.77H118.87Z"/><path class="cls-12" d="M37.58,9.13H17.26c-5.41,0-5.33-8.13,0-8.13H37.58C43,1,42.91,9.13,37.58,9.13Z"/><path class="cls-13" d="M74.16,9.13H53.84c-5.41,0-5.33-8.13,0-8.13H74.16C79.57,1,79.49,9.13,74.16,9.13Z"/><path class="cls-14" d="M110.74,9.13H90.42C85,9.13,85.09,1,90.42,1h20.32C116.15,1,116.07,9.13,110.74,9.13Z"/><rect class="cls-15" x="1" y="122.94" width="126" height="4.06"/><path class="cls-16" d="M127,40.65H111.74V10a5.06,5.06,0,0,0-1-10H90.42a5.06,5.06,0,0,0-1,10V40.65H75.16V10a5.06,5.06,0,0,0-1-10H53.84a5.06,5.06,0,0,0-1,10V40.65H38.58V10a5.06,5.06,0,0,0-1-10H17.26a5.06,5.06,0,0,0-1,10V40.65H1a1,1,0,0,0-1,1V127a1,1,0,0,0,1,1H127a1,1,0,0,0,1-1V41.65A1,1,0,0,0,127,40.65ZM87.35,5.06A3.07,3.07,0,0,1,90.42,2h20.32a3.07,3.07,0,1,1,0,6.13H90.42A3.08,3.08,0,0,1,87.35,5.06Zm4.07,5.07h18.32V40.65H91.42ZM50.77,5.06A3.07,3.07,0,0,1,53.84,2H74.16a3.07,3.07,0,1,1,0,6.13H53.84A3.08,3.08,0,0,1,50.77,5.06Zm4.07,5.07H73.16V40.65H54.84ZM14.19,5.06A3.07,3.07,0,0,1,17.26,2H37.58a3.07,3.07,0,1,1,0,6.13H17.26A3.08,3.08,0,0,1,14.19,5.06Zm4.07,5.07H36.58V40.65H18.26ZM126,126H2V42.65H126Z"/><path class="cls-16" d="M9.13,48.77a1,1,0,0,0-1,1v69.1a1,1,0,0,0,1,1H118.87a1,1,0,0,0,1-1V49.77a1,1,0,0,0-1-1Zm100.61,2V96.52a9.16,9.16,0,0,1-18.32,0V50.77Zm-36.58,0V96.52a9.16,9.16,0,1,1-18.32,0V50.77Zm-36.58,0V96.52a9.16,9.16,0,1,1-18.32,0V50.77Zm81.29,67.1H10.13V50.77h6.13V96.52a11.16,11.16,0,1,0,22.32,0V50.77H52.84V96.52a11.16,11.16,0,1,0,22.32,0V50.77H89.42V96.52a11.16,11.16,0,0,0,22.32,0V50.77h6.13Z"/></g></svg>