<svg id="Sex" xmlns="http://www.w3.org/2000/svg" xmlns:xlink="http://www.w3.org/1999/xlink" viewBox="0 0 128 128"><defs><style>.cls-1{fill:#d96bb0;}.cls-2{fill:#e27dc0;}.cls-3{fill:url(#linear-gradient);}.cls-4{fill:#5b8dc9;}.cls-5{fill:#47566a;}</style><linearGradient id="linear-gradient" x1="84.32" y1="90.42" x2="84.32" y2="5.06" gradientUnits="userSpaceOnUse"><stop offset="0" stop-color="#7aa8d7"/><stop offset="1" stop-color="#96c8ea"/></linearGradient></defs><title>Sex</title><path class="cls-1" d="M39.61,90.16v16.52h8.13v8.13H39.61v8.13H31.48v-8.13H23.35v-8.13h8.13V90.16A34.55,34.55,0,0,1,1,55.87C1,27.25,33.63,11.56,55.87,28c-9.35,6.74-3.06,6.62-9.73,3.72A26.41,26.41,0,1,0,55.87,39,26.44,26.44,0,0,1,62,33.62C79.67,54.61,66.77,87.1,39.61,90.16Z"/><path class="cls-2" d="M58.33,42.46a22,22,0,0,1,6.08-5.57A36.07,36.07,0,0,0,62,33.62,26.44,26.44,0,0,0,55.87,39,27,27,0,0,1,58.33,42.46Z"/><path class="cls-2" d="M55.87,28a31.55,31.55,0,0,0-3.64-2.32A36.75,36.75,0,0,0,46.66,31c-1,1.17-.78.09,3.11,2.62A33.44,33.44,0,0,1,55.87,28Z"/><path class="cls-3" d="M127,23.35l-6-6L103.41,34.63C121,57.12,105.08,90.42,76.19,90.42a34.33,34.33,0,0,1-20.32-6.63c9.36-6.83,3-6.59,9.72-3.72a26.41,26.41,0,1,0-9.72-7.31,26.44,26.44,0,0,1-6.1,5.36A34.53,34.53,0,0,1,97.29,28.56l17.58-17.34-6.16-6.16H127Z"/><path class="cls-4" d="M55.87,83.79a31.55,31.55,0,0,0,3.64,2.32A38.36,38.36,0,0,0,65,80.75c.94-1.15.88-.11-3.11-2.63A33.63,33.63,0,0,1,55.87,83.79Z"/><path class="cls-4" d="M53.43,69.26a22,22,0,0,1-6.09,5.59,34.2,34.2,0,0,0,2.43,3.27,26.44,26.44,0,0,0,6.1-5.36A24.9,24.9,0,0,1,53.43,69.26Z"/><path class="cls-5" d="M128,5.09a1,1,0,0,0-1-1c-19.6,0-18.84-.26-19.2.62s-.21.67,5.66,6.53l-16.24,16a35.3,35.3,0,0,0-41.31-.5C32.58,10.42,0,27.07,0,55.88A35.5,35.5,0,0,0,30.48,91v14.64H23.36a1,1,0,0,0-1,1v8.12a1,1,0,0,0,1,1h7.12v7.13a1,1,0,0,0,1,1h8.13a1,1,0,0,0,1-1v-7.13h7.12a1,1,0,0,0,1-1v-8.12a1,1,0,0,0-1-1H40.61V91a35.23,35.23,0,0,0,15.25-6c23.28,16.34,55.84-.31,55.84-29.11a35.12,35.12,0,0,0-7-21.14l16.22-16c5.74,5.74,5.59,5.9,6.42,5.55s.61-.25.61-12.7C128,11.47,128,12,128,5.09ZM39.5,89.15a1,1,0,0,0-.89,1v16.52a1,1,0,0,0,1,1h7.12v6.12H39.61a1,1,0,0,0-1,1v7.13H32.48v-7.13a1,1,0,0,0-1-1H24.36v-6.12h7.12a1,1,0,0,0,1-1V90.14a1,1,0,0,0-.88-1A33.5,33.5,0,0,1,2,55.88C2,28.94,32.22,13.24,54.16,28a35.54,35.54,0,0,0-4.59,4.34C31.48,21.49,8.14,34.58,8.14,55.88a27.43,27.43,0,0,0,27.41,27.4C58.24,83.28,71.2,57.05,57.17,39A23.36,23.36,0,0,1,61.76,35C78.35,55.75,65.08,86.22,39.5,89.15ZM48.26,33.9a35.5,35.5,0,0,0,0,43.95c-16.68,9.72-38.12-2.29-38.12-22S31.58,24.19,48.26,33.9Zm7.6,6.75a25.31,25.31,0,0,1,0,30.45A25.31,25.31,0,0,1,55.86,40.65Zm7.59-6.75c16.74-9.81,38.27,2.41,38.13,22.15-.14,19.58-21.42,31.49-38.16,21.8A35.41,35.41,0,0,0,63.45,33.9ZM126,21l-4.32-4.33a1,1,0,0,0-1.41,0L102.67,33.94a1,1,0,0,0-.09,1.32,33.2,33.2,0,0,1,7.12,20.62c0,27-30.27,42.59-52.15,27.87a36.44,36.44,0,0,0,4.56-4.33c18,10.72,41.32-2,41.47-23.36C103.74,33.4,77.76,20.4,59.68,34a27.41,27.41,0,0,0-5.13,38.73,22.87,22.87,0,0,1-4.6,4C32.54,55,48.07,22.34,76.17,22.34a33.17,33.17,0,0,1,20.48,7A1,1,0,0,0,98,29.29c19-18.71,17.86-17.42,17.87-18s0-.38-4.74-5.16H126Z"/></svg>