<svg xmlns="http://www.w3.org/2000/svg" xmlns:xlink="http://www.w3.org/1999/xlink" viewBox="0 0 128 128"><defs><style>.cls-1{fill:url(#linear-gradient);}.cls-2{fill:#c7cdd8;}.cls-3{fill:url(#linear-gradient-2);}.cls-4{fill:url(#linear-gradient-3);}.cls-5{fill:url(#linear-gradient-4);}.cls-6{fill:url(#linear-gradient-5);}.cls-7{fill:url(#linear-gradient-6);}.cls-8{fill:url(#linear-gradient-7);}.cls-9{fill:#42455e;}.cls-10{fill:#47566a;}</style><linearGradient id="linear-gradient" x1="64" y1="127" x2="64" y2="85.56" gradientUnits="userSpaceOnUse"><stop offset="0" stop-color="#d4d8e1"/><stop offset="1" stop-color="#f3f4f5"/></linearGradient><linearGradient id="linear-gradient-2" y1="114.93" y2="100.58" xlink:href="#linear-gradient"/><linearGradient id="linear-gradient-3" y1="106.67" y2="92.45" xlink:href="#linear-gradient"/><linearGradient id="linear-gradient-4" y1="98.55" y2="1" xlink:href="#linear-gradient"/><linearGradient id="linear-gradient-5" x1="43.36" y1="72.13" x2="43.36" y2="46.76" gradientUnits="userSpaceOnUse"><stop offset="0" stop-color="#454b60"/><stop offset="1" stop-color="#575f7c"/></linearGradient><linearGradient id="linear-gradient-6" x1="84.64" y1="72.13" x2="84.64" y2="46.76" xlink:href="#linear-gradient-5"/><linearGradient id="linear-gradient-7" x1="64" y1="86.13" x2="64" y2="70.1" xlink:href="#linear-gradient-5"/></defs><title>Skull</title><g id="Skull"><path class="cls-1" d="M84.32,118.87c-4.06,2-6.09,8.13-12.19,8.13H55.87c-6.1,0-8.13-6.1-12.19-8.13-15.63-7.82-14.23-12.19-12.2-16.26,1.6-3.16.67-13.53.35-17H96.17c-.32,3.52-1.25,13.89.35,17C98.55,106.68,100,111.05,84.32,118.87Z"/><path class="cls-2" d="M96.17,85.56c-.12,1.32-.26,3-.39,4.68-1.73.81-4.56,1.69-5.34,2.19,0,2.74-.51,7.85-26.07,10.16a1.84,1.84,0,0,1-.74,0C37.58,100.24,37.58,95,37.58,92.45c0-.24-3.38-1.26-5.36-2.21-.13-1.73-.27-3.36-.39-4.68Z"/><path class="cls-2" d="M84.32,118.87c-4.06,2-6.09,8.13-12.19,8.13H55.87c-6.1,0-8.13-6.1-12.19-8.13-14.57-7.29-14.33-11.58-12.6-15.42,1.42,2.54,5,5.52,12.6,9.32,4.06,2,6.09,8.13,12.19,8.13H72.13c6.1,0,8.13-6.09,12.19-8.13,7.6-3.8,11.18-6.78,12.6-9.32C98.65,107.29,98.89,111.58,84.32,118.87Z"/><path class="cls-3" d="M86.35,100.58l-2,8.13c-8,8-32,8.59-40.64,0l-2-8.13Z"/><path class="cls-4" d="M86.35,92.45v8.13c-8.12,8.12-36.58,8.12-44.7,0V92.45"/><path class="cls-5" d="M102.71,71.82a7.27,7.27,0,0,1,1.94,4.37c0,5.25-4.82,7.64-8.48,9.37-6.58,3.07-9.82,3-9.82,6.89,0,4.07-22.35,6.1-22.35,6.1s-22.35-2-22.35-6.1c0-3.82-3.11-3.76-9.82-6.89-3.66-1.73-8.48-4.12-8.48-9.37a7.27,7.27,0,0,1,1.94-4.37,110.31,110.31,0,0,1-6-34.24C19.29,9.13,41.65,1,64,1s44.71,8.13,44.71,36.58A110.31,110.31,0,0,1,102.71,71.82Z"/><path class="cls-6" d="M41.65,72.13c-10.17,0-12.2-12.19-10.17-18.29s16.26-10.16,22.36-4.07S51.81,72.13,41.65,72.13Z"/><path class="cls-7" d="M86.35,72.13c10.17,0,12.2-12.19,10.17-18.29S80.26,43.68,74.16,49.77,76.19,72.13,86.35,72.13Z"/><path class="cls-8" d="M72.13,84.32c-2,4.07-8.13,0-8.13,0s-6.1,4.07-8.13,0S59.94,70.1,64,70.1,74.16,80.26,72.13,84.32Z"/><path class="cls-9" d="M55.53,58.78c-2.75-9.43-23-6.89-24.49,3a17.31,17.31,0,0,1,.44-8C34.42,45,59.47,42.21,55.53,58.78Z"/><path class="cls-9" d="M97,61.81c-1.49-9.87-21.72-12.55-24.49-3-3.94-16.53,21.11-13.76,24-4.94A17.31,17.31,0,0,1,97,61.81Z"/><path class="cls-9" d="M71.8,84.85c-1.52-4.19-5.1-8.66-7.8-8.66s-6.28,4.47-7.8,8.66C53.31,81,59.83,70.1,64,70.1S74.7,81,71.8,84.85Z"/><path class="cls-10" d="M54.55,49.07c-6.6-6.6-21.73-2.39-24,4.45-2.58,7.73.85,19.61,11.11,19.61C52.81,73.13,61.22,55.74,54.55,49.07Zm-.84,12.1c-4.34,10.46-14.64,12.9-19.4,6.29-2.7-3.75-3.08-9.71-1.88-13.3C35.25,45.72,61.05,43.44,53.71,61.17Z"/><path class="cls-10" d="M109.71,37.58C109.71,4.88,81.07,0,64,0S18.29,4.88,18.29,37.58c0,16.11,4.74,30.79,5.87,34.06a7.77,7.77,0,0,0-1.81,4.55c0,5.71,5.12,8.4,8.54,10,.76,8.1.66,14-.3,16-2.38,4.75-3.2,9.67,12.64,17.6A14.21,14.21,0,0,1,47,123c5.45,5.86,6.51,5,17,5s11.54.9,17-5a14.21,14.21,0,0,1,3.74-3.23c15.84-7.93,15-12.85,12.64-17.61-1-1.9-1.06-7.84-.3-15.94,3.42-1.62,8.54-4.32,8.54-10a7.77,7.77,0,0,0-1.81-4.55C105,68.37,109.71,53.69,109.71,37.58ZM83.88,118c-4.34,2.16-6.16,8-11.75,8H55.87c-5.6,0-7.4-5.85-11.74-8-15.37-7.69-13.45-11.53-11.75-14.92,1.42-2.82,1.06-10.52.6-15.85,8.74,4.16,7.67.34,7.67,13.37,0,1.38,4.81,3.62,6.09,4.15V110a15.73,15.73,0,0,1-2.36-2A1,1,0,0,0,43,109.42c3,3,8.05,6.39,21,6.39s18-3.42,21-6.39A1,1,0,0,0,83.62,108a15.73,15.73,0,0,1-2.36,2v-5.23c1.28-.53,6.09-2.77,6.09-4.15,0-13.07-1.06-9.21,7.67-13.37-.46,5.33-.82,13,.6,15.85C97.32,106.45,99.24,110.29,83.88,118Zm1.47-23v5.12a18.65,18.65,0,0,1-4.09,2.39V96.68A18.8,18.8,0,0,0,85.35,95Zm-6.09,8.32a37.62,37.62,0,0,1-6.13,1.6V98.44c2.08-.33,4.19-.73,6.13-1.21Zm-6.13,9.73V107a40.18,40.18,0,0,0,6.13-1.5v5.65A24.36,24.36,0,0,1,73.13,113.06Zm-24.39-1.94v-5.65a40.18,40.18,0,0,0,6.13,1.5v6.09A24.36,24.36,0,0,1,48.74,111.12Zm8.13-3.86a58.65,58.65,0,0,0,6.13.41v6.12a51.21,51.21,0,0,1-6.13-.42Zm8.13.41a58.65,58.65,0,0,0,6.13-.41v6.11a51.21,51.21,0,0,1-6.13.42Zm6.13-2.44a55.25,55.25,0,0,1-6.13.43v-6.2c1.73-.17,3.86-.4,6.13-.72Zm-8.13.43a55.25,55.25,0,0,1-6.13-.43V98.74c2.27.32,4.4.55,6.13.72Zm-8.13-.74a36.7,36.7,0,0,1-6.13-1.59v-6.1c1.94.48,4,.88,6.13,1.21Zm-8.13-2.4a18.39,18.39,0,0,1-4.09-2.39V95a18.8,18.8,0,0,0,4.09,1.67Zm49-17.86A40.62,40.62,0,0,1,91,86.73c-2.75,1-5.6,2-5.6,5.72,0,1.65-10.16,4.07-21.35,5.09-11.19-1-21.35-3.44-21.35-5.09,0-3.67-2.85-4.71-5.6-5.72a41.24,41.24,0,0,1-4.79-2.07c-4.17-2-7.91-4.1-7.91-8.47a6.46,6.46,0,0,1,1.71-3.73,1.12,1.12,0,0,0,.21-.65c0-1-6-15.41-6-34.23C20.29,6.62,47.68,2,64,2s43.71,4.62,43.71,35.58c0,18.45-6,33.48-6,34.23a1.12,1.12,0,0,0,.21.65,6.46,6.46,0,0,1,1.71,3.73C103.65,80.56,99.91,82.69,95.75,84.66Z"/><path class="cls-10" d="M87.36,46.32C76,43.64,67.6,50.24,72.45,61.93c5.14,12.43,17.39,14.29,22.87,6.7,3.19-4.43,3.48-11.09,2.14-15.11C96.41,50.35,92.44,47.52,87.36,46.32Zm6.33,21.14c-4.81,6.68-15.11,4.06-19.4-6.29-7.43-17.93,18.55-15.21,21.28-7C96.77,57.75,96.39,63.71,93.69,67.46Z"/><path class="cls-10" d="M64,69.1c-4.8,0-11.4,10.92-9,15.67,1.7,3.4,5.74,2.64,9,.73,3.3,1.93,7.33,2.66,9-.73C75.41,80,68.79,69.1,64,69.1ZM69.88,85c-1.76.46-4.44-1-5.33-1.55a1,1,0,0,0-1.1,0c-2,1.35-5.53,2.71-6.68.39-1.72-3.44,4-12.78,7.23-12.78C67.9,71.1,74.71,83.75,69.88,85Z"/></g></svg>