<svg xmlns="http://www.w3.org/2000/svg" xmlns:xlink="http://www.w3.org/1999/xlink" viewBox="0 0 128 128"><defs><style>.cls-1{fill:url(#linear-gradient);}.cls-2{fill:url(#linear-gradient-2);}.cls-3{fill:#adb3c4;}.cls-4{fill:url(#linear-gradient-3);}.cls-5{fill:#9dd5df;}.cls-6{fill:url(#linear-gradient-4);}.cls-7{fill:url(#linear-gradient-5);}.cls-8{fill:#5b8dc9;}.cls-9{fill:#c7cdd8;}.cls-10{fill:#8288a1;}.cls-11{fill:url(#linear-gradient-6);}.cls-12{fill:#47566a;}</style><linearGradient id="linear-gradient" x1="77.02" y1="120.9" x2="77.02" y2="108.71" gradientUnits="userSpaceOnUse"><stop offset="0" stop-color="#d4d8e1"/><stop offset="1" stop-color="#f3f4f5"/></linearGradient><linearGradient id="linear-gradient-2" x1="108.71" y1="47.74" x2="108.71" y2="35.67" xlink:href="#linear-gradient"/><linearGradient id="linear-gradient-3" x1="108.71" y1="33.52" x2="108.71" y2="5.06" gradientUnits="userSpaceOnUse"><stop offset="0" stop-color="#9dd5df"/><stop offset="1" stop-color="#c3e1f5"/></linearGradient><linearGradient id="linear-gradient-4" x1="33.52" y1="61.97" x2="33.52" y2="1" gradientTransform="translate(67.03 62.97) rotate(-180)" gradientUnits="userSpaceOnUse"><stop offset="0" stop-color="#7aa8d7"/><stop offset="1" stop-color="#96c8ea"/></linearGradient><linearGradient id="linear-gradient-5" x1="25.39" y1="61.97" x2="25.39" y2="1" gradientTransform="matrix(1, 0, 0, 1, 0, 0)" xlink:href="#linear-gradient-4"/><linearGradient id="linear-gradient-6" x1="108.71" y1="29.42" x2="108.71" y2="25.42" gradientUnits="userSpaceOnUse"><stop offset="0" stop-color="#da5466"/><stop offset="1" stop-color="#e87092"/></linearGradient></defs><title>Sphygmomanometer</title><g id="Sphygmomanometer"><polyline class="cls-1" points="81.9 120.9 72.13 120.9 72.13 108.71 81.9 108.71"/><polyline class="cls-2" points="116.84 35.67 116.84 47.74 100.58 47.74 100.58 35.67"/><circle class="cls-3" cx="108.71" cy="19.29" r="18.29"/><circle class="cls-4" cx="108.71" cy="19.29" r="14.23"/><path class="cls-5" d="M122.86,20.79a14.23,14.23,0,0,0-28.3,0,14.23,14.23,0,1,1,28.3,0Z"/><rect class="cls-6" x="1" y="1" width="65.03" height="60.97" transform="translate(67.03 62.97) rotate(180)"/><path class="cls-7" d="M49.77,9.13V53.84A8.12,8.12,0,0,1,41.65,62H1V1H41.65A8.12,8.12,0,0,1,49.77,9.13Z"/><path class="cls-8" d="M49.77,9.13V53.84A8.12,8.12,0,0,1,41.65,62h-6.1a8.13,8.13,0,0,0,8.13-8.13V9.13A8.13,8.13,0,0,0,35.55,1h6.1A8.12,8.12,0,0,1,49.77,9.13Z"/><path class="cls-3" d="M92.45,127h12.2a12.2,12.2,0,0,0,0-24.39H92.45a12.2,12.2,0,0,0,0,24.39Z"/><rect class="cls-9" x="72.13" y="116.84" width="9.78" height="4.06"/><path class="cls-10" d="M104.65,127H92.45a12.19,12.19,0,0,1-12-14.23,12.17,12.17,0,0,0,12,10.17h12.2a12.18,12.18,0,0,0,12-10.17A12.19,12.19,0,0,1,104.65,127Z"/><rect class="cls-9" x="100.58" y="41.65" width="16.26" height="6.1"/><path class="cls-11" d="M108.71,29.42a2,2,0,1,1,2-2A2,2,0,0,1,108.71,29.42Zm0-2Z"/><path class="cls-12" d="M128,19.29a19.29,19.29,0,1,0-28.42,17V47.74a1,1,0,0,0,1,1h7.13V72.13A15.28,15.28,0,0,1,92.45,87.39H72.13A15.28,15.28,0,0,1,56.87,72.13V63H66a1,1,0,0,0,1-1V1a1,1,0,0,0-1-1H1A1,1,0,0,0,0,1V62a1,1,0,0,0,1,1H46.74V90.42a25.42,25.42,0,0,0,24.39,25.36v5.12a1,1,0,0,0,1,1h9.22a13.17,13.17,0,0,0,11.1,6.1h12.2a13.2,13.2,0,0,0,0-26.39H92.45a13.19,13.19,0,0,0-11.1,6.1H72.13a1,1,0,0,0-1,1v5.07A23.41,23.41,0,0,1,48.74,90.42V63h6.13v9.16A17.28,17.28,0,0,0,72.13,89.39H92.45a17.28,17.28,0,0,0,17.26-17.26V48.74h7.13a1,1,0,0,0,1-1V36.28A19.31,19.31,0,0,0,128,19.29ZM92.45,103.61h12.2a11.2,11.2,0,0,1,0,22.39H92.45a11.2,11.2,0,0,1,0-22.39Zm-19.32,6.1h7.15a13.19,13.19,0,0,0,0,10.19H73.13ZM2,61V2H41.65a7.13,7.13,0,0,1,7.12,7.13V53.84A7.13,7.13,0,0,1,41.65,61Zm48.77-7.13V9.13A9.09,9.09,0,0,0,47.33,2H65V61H47.33A9.11,9.11,0,0,0,50.77,53.84Zm65.07-7.1H101.58V37.2a19.11,19.11,0,0,0,14.26,0Zm-7.13-10.16A17.29,17.29,0,1,1,126,19.29,17.31,17.31,0,0,1,108.71,36.58Z"/><path class="cls-12" d="M109.71,25.7V17.26a1,1,0,0,0-2,0V25.7a2,2,0,1,0,2,0Z"/></g></svg>