<svg xmlns="http://www.w3.org/2000/svg" xmlns:xlink="http://www.w3.org/1999/xlink" viewBox="0 0 128 128"><defs><style>.cls-1{fill:url(#linear-gradient);}.cls-2{fill:#4da67f;}.cls-3{fill:url(#linear-gradient-2);}.cls-4{fill:url(#linear-gradient-3);}.cls-5{fill:url(#linear-gradient-4);}.cls-6{fill:url(#linear-gradient-5);}.cls-7{fill:url(#linear-gradient-6);}.cls-8{fill:#9dd5df;}.cls-9{fill:#47566a;}</style><linearGradient id="linear-gradient" x1="64" y1="74.16" x2="64" y2="61.97" gradientUnits="userSpaceOnUse"><stop offset="0" stop-color="#6ab891"/><stop offset="1" stop-color="#85cba9"/></linearGradient><linearGradient id="linear-gradient-2" x1="64" y1="82.29" x2="64" y2="74.16" gradientUnits="userSpaceOnUse"><stop offset="0" stop-color="#949aaf"/><stop offset="1" stop-color="#c6ccda"/></linearGradient><linearGradient id="linear-gradient-3" x1="19.29" y1="61.97" x2="19.29" y2="51.81" xlink:href="#linear-gradient"/><linearGradient id="linear-gradient-4" x1="20.29" y1="127" x2="20.29" y2="114.81" gradientUnits="userSpaceOnUse"><stop offset="0" stop-color="#454b60"/><stop offset="1" stop-color="#575f7c"/></linearGradient><linearGradient id="linear-gradient-5" x1="97.52" x2="97.52" y2="114.81" xlink:href="#linear-gradient-4"/><linearGradient id="linear-gradient-6" x1="27.42" y1="27.45" x2="27.42" y2="7.13" gradientUnits="userSpaceOnUse"><stop offset="0" stop-color="#9dd5df"/><stop offset="1" stop-color="#c3e1f5"/></linearGradient></defs><title>Stratcer</title><g id="Stratcer"><path class="cls-1" d="M7.1,62H120.9a6.1,6.1,0,0,1,6.1,6.1v6.1a0,0,0,0,1,0,0H1a0,0,0,0,1,0,0v-6.1A6.1,6.1,0,0,1,7.1,62Z"/><rect class="cls-2" x="1" y="68.06" width="126" height="6.1"/><rect class="cls-3" x="7.1" y="74.16" width="113.81" height="8.13"/><path class="cls-4" d="M26.4,62H12.18a5.08,5.08,0,0,1,0-10.16H26.4A5.08,5.08,0,1,1,26.4,62Z"/><path class="cls-2" d="M26.4,62H12.18a5.09,5.09,0,0,1-4.66-7.12,5.07,5.07,0,0,0,4.66,3c13.47,0,17.2,1,18.88-3A5.09,5.09,0,0,1,26.4,62Z"/><circle class="cls-5" cx="20.29" cy="120.9" r="6.1"/><circle class="cls-6" cx="97.52" cy="120.9" r="6.1"/><path class="cls-7" d="M19.29,7.13H35.55a0,0,0,0,1,0,0V21.35a6.1,6.1,0,0,1-6.1,6.1H25.39a6.1,6.1,0,0,1-6.1-6.1V7.13A0,0,0,0,1,19.29,7.13Z"/><rect class="cls-8" x="19.29" y="7.13" width="16.26" height="4.06"/><path class="cls-9" d="M126,49.77V63.14A7.06,7.06,0,0,0,120.9,61H101.58v-5.1a7.11,7.11,0,0,0-7.1-7.1H49.77a7.11,7.11,0,0,0-7.09,7.1V61H30.9a6.08,6.08,0,0,0-4.5-10.16H12.16V2H26.42V6.1H19.29a1,1,0,0,0-1,1V21.32a7.1,7.1,0,0,0,7.1,7.1h1v5.1a1,1,0,0,0,2,0v-5.1h1a7.11,7.11,0,0,0,7.1-7.1V7.1a1,1,0,0,0-1-1H28.42V1a1,1,0,0,0-1-1H11.16a1,1,0,0,0-1,1V51.16A6.06,6.06,0,0,0,7.68,61,7.18,7.18,0,0,0,2,63.14V49.77a1,1,0,0,0-2,0V74.16a1,1,0,0,0,1,1H6.1v7.13a1,1,0,0,0,1,1H24.39V116a7.09,7.09,0,1,0,2,4.92v-9.46L64,97.58l37.61,13.86V116a7.09,7.09,0,1,0,2,4.92V83.29H120.9a1,1,0,0,0,1-1V75.16H127a1,1,0,0,0,1-1V49.77A1,1,0,0,0,126,49.77ZM34.55,21.32a5.11,5.11,0,0,1-5.1,5.1H25.39a5.11,5.11,0,0,1-5.1-5.1V8.1H34.55ZM19.29,126a5.1,5.1,0,1,1,5.1-5.1A5.11,5.11,0,0,1,19.29,126Zm77.23,0a5.1,5.1,0,1,1,5.09-5.1A5.11,5.11,0,0,1,96.52,126ZM120.9,63a5.1,5.1,0,0,1,5.1,5.09v5.1H101.58V63ZM73.13,73.16V63H85.35V73.16Zm-28.45,0V63H56.9V73.16ZM58.9,63H71.13V73.16H58.9Zm12.23-2H58.9V50.77H71.13Zm2-10.2H85.35V61H73.13ZM87.35,63H99.58V73.16H87.35Zm12.23-7.1V61H87.35V50.77h7.13A5.11,5.11,0,0,1,99.58,55.87Zm-54.9,0a5.1,5.1,0,0,1,5.09-5.1H56.9V61H44.68Zm-36.58,1a4.08,4.08,0,0,1,4.08-4.08H26.4a4.08,4.08,0,1,1,0,8.16H12.18A4.08,4.08,0,0,1,8.1,56.89ZM2,68.06A5.1,5.1,0,0,1,7.1,63H42.68V73.16H2Zm24.39,41.25V83.72l34.72,12.8Zm4.6-26H97L64,95.45Zm35.9,13.23,34.72-12.8v25.59Zm53-15.23H8.1V75.16H119.9Z"/></g></svg>