<svg xmlns="http://www.w3.org/2000/svg" xmlns:xlink="http://www.w3.org/1999/xlink" viewBox="0 0 128 128"><defs><style>.cls-1{fill:url(#linear-gradient);}.cls-2{fill:url(#linear-gradient-2);}.cls-3{fill:url(#linear-gradient-3);}.cls-4{fill:url(#linear-gradient-4);}.cls-5{fill:url(#linear-gradient-5);}.cls-6{fill:url(#linear-gradient-6);}.cls-7{fill:url(#linear-gradient-7);}.cls-8{fill:#c7cdd8;}.cls-9{fill:url(#linear-gradient-8);}.cls-10{fill:url(#linear-gradient-9);}.cls-11{fill:url(#linear-gradient-10);}.cls-12{fill:url(#linear-gradient-11);}.cls-13{fill:#8288a1;}.cls-14{fill:#77cacb;}.cls-15{fill:#47566a;}</style><linearGradient id="linear-gradient" x1="64" y1="127" x2="64" y2="118.87" gradientUnits="userSpaceOnUse"><stop offset="0" stop-color="#949aaf"/><stop offset="1" stop-color="#c6ccda"/></linearGradient><linearGradient id="linear-gradient-2" x1="64" y1="118.87" x2="64" y2="104.65" gradientUnits="userSpaceOnUse"><stop offset="0" stop-color="#d4d8e1"/><stop offset="1" stop-color="#f3f4f5"/></linearGradient><linearGradient id="linear-gradient-3" y1="104.65" y2="86.35" xlink:href="#linear-gradient"/><linearGradient id="linear-gradient-4" y1="86.35" y2="78.23" xlink:href="#linear-gradient"/><linearGradient id="linear-gradient-5" x1="64" y1="78.23" x2="64" y2="66.03" gradientUnits="userSpaceOnUse"><stop offset="0" stop-color="#9dd5df"/><stop offset="1" stop-color="#c3e1f5"/></linearGradient><linearGradient id="linear-gradient-6" y1="78.23" y2="66.03" xlink:href="#linear-gradient-2"/><linearGradient id="linear-gradient-7" y1="23.35" y2="15.23" xlink:href="#linear-gradient-2"/><linearGradient id="linear-gradient-8" y1="15.23" y2="1" xlink:href="#linear-gradient"/><linearGradient id="linear-gradient-9" x1="45.71" y1="29.45" x2="45.71" y2="23.35" gradientUnits="userSpaceOnUse"><stop offset="0" stop-color="#fbcc88"/><stop offset="1" stop-color="#ffe5c3"/></linearGradient><linearGradient id="linear-gradient-10" x1="64" y1="29.45" x2="64" y2="23.35" xlink:href="#linear-gradient-9"/><linearGradient id="linear-gradient-11" x1="82.29" y1="29.45" x2="82.29" y2="23.35" xlink:href="#linear-gradient-9"/></defs><title>Surgery Room</title><g id="Surgery_Room" data-name="Surgery Room"><path class="cls-1" d="M37.58,118.87H90.42a6.1,6.1,0,0,1,6.1,6.1v2a0,0,0,0,1,0,0h-65a0,0,0,0,1,0,0v-2A6.1,6.1,0,0,1,37.58,118.87Z"/><rect class="cls-2" x="45.71" y="104.65" width="36.58" height="14.23"/><rect class="cls-3" x="55.87" y="86.35" width="16.26" height="18.29"/><rect class="cls-4" x="1" y="78.23" width="126" height="8.13"/><path class="cls-5" d="M7.1,66H120.9a6.1,6.1,0,0,1,6.1,6.1v6.1a0,0,0,0,1,0,0H1a0,0,0,0,1,0,0v-6.1A6.1,6.1,0,0,1,7.1,66Z"/><rect class="cls-6" x="37.58" y="66.03" width="52.84" height="12.19"/><rect class="cls-7" x="33.52" y="15.23" width="60.97" height="8.13"/><rect class="cls-8" x="33.52" y="19.29" width="60.97" height="4.06"/><path class="cls-9" d="M90.42,15.23H37.58A14.22,14.22,0,0,1,51.81,1H76.19A14.22,14.22,0,0,1,90.42,15.23Z"/><path class="cls-10" d="M45.71,29.45a6.1,6.1,0,0,1-6.1-6.1h12.2A6.1,6.1,0,0,1,45.71,29.45Z"/><path class="cls-11" d="M64,29.45a6.1,6.1,0,0,1-6.1-6.1H70.1A6.1,6.1,0,0,1,64,29.45Z"/><path class="cls-12" d="M82.29,29.45a6.1,6.1,0,0,1-6.1-6.1h12.2A6.1,6.1,0,0,1,82.29,29.45Z"/><path class="cls-13" d="M90.42,15.23H37.58a13.91,13.91,0,0,1,.59-4.07H89.83A13.91,13.91,0,0,1,90.42,15.23Z"/><rect class="cls-14" x="1" y="74.16" width="36.58" height="4.06"/><rect class="cls-14" x="90.42" y="74.16" width="36.58" height="4.06"/><rect class="cls-8" x="37.58" y="74.16" width="52.84" height="4.06"/><rect class="cls-13" x="55.87" y="86.35" width="16.26" height="4.06"/><rect class="cls-8" x="45.71" y="114.81" width="36.58" height="4.06"/><path class="cls-15" d="M120.9,65H7.1A7.11,7.11,0,0,0,0,72.13V86.35a1,1,0,0,0,1,1H54.87v16.3H45.71a1,1,0,0,0-1,1v13.22H37.58a7.11,7.11,0,0,0-7.1,7.1v2a1,1,0,0,0,1,1h65a1,1,0,0,0,1-1v-2a7.11,7.11,0,0,0-7.1-7.1H83.29V104.65a1,1,0,0,0-1-1H73.13V87.35H127a1,1,0,0,0,1-1V72.13A7.11,7.11,0,0,0,120.9,65Zm5.1,7.1v5.1H91.42V67H120.9A5.11,5.11,0,0,1,126,72.13ZM89.42,67v10.2H38.58V67ZM2,72.13A5.11,5.11,0,0,1,7.1,67H36.58v10.2H2ZM95.52,125v1h-63v-1a5.11,5.11,0,0,1,5.1-5.1H90.42A5.11,5.11,0,0,1,95.52,125Zm-14.23-7.1H46.71V105.65H81.29ZM71.13,103.65H56.87V87.35H71.13ZM126,85.35H2V79.23H126Z"/><path class="cls-15" d="M33.52,24.35h5.17a7.09,7.09,0,0,0,14,0H57a7.09,7.09,0,0,0,14,0h4.25a7.09,7.09,0,0,0,14,0h5.17a1,1,0,0,0,1-1V15.23a1,1,0,0,0-1-1H91.37A15.24,15.24,0,0,0,76.19,0H51.81A15.24,15.24,0,0,0,36.63,14.23H33.52a1,1,0,0,0-1,1v8.12A1,1,0,0,0,33.52,24.35Zm7.19,0h10A5.1,5.1,0,0,1,40.71,24.35Zm18.29,0H69A5.1,5.1,0,0,1,59,24.35Zm18.29,0h10A5.1,5.1,0,0,1,77.29,24.35ZM51.81,2H76.19A13.24,13.24,0,0,1,89.38,14.23H38.62A13.24,13.24,0,0,1,51.81,2ZM34.52,16.23h59v6.12h-59Z"/></g></svg>