<svg xmlns="http://www.w3.org/2000/svg" xmlns:xlink="http://www.w3.org/1999/xlink" viewBox="0 0 128 128"><defs><style>.cls-1{fill:url(#linear-gradient);}.cls-2{fill:#d4d8e1;}.cls-3{fill:url(#linear-gradient-2);}.cls-4{fill:url(#linear-gradient-3);}.cls-5{fill:#adb3c4;}.cls-6{fill:url(#linear-gradient-5);}.cls-7{fill:url(#linear-gradient-6);}.cls-8{fill:#949aaf;}.cls-9{fill:#47566a;}</style><linearGradient id="linear-gradient" x1="72.46" y1="95.03" x2="72.46" y2="16.06" gradientUnits="userSpaceOnUse"><stop offset="0" stop-color="#d4d8e1"/><stop offset="1" stop-color="#f3f4f5"/></linearGradient><linearGradient id="linear-gradient-2" x1="67.11" y1="89.28" x2="67.11" y2="47.21" gradientUnits="userSpaceOnUse"><stop offset="0" stop-color="#fbcc88"/><stop offset="1" stop-color="#ffe5c3"/></linearGradient><linearGradient id="linear-gradient-3" x1="39.56" y1="100.66" x2="39.56" y2="76.22" gradientTransform="translate(-50.95 53.88) rotate(-45)" gradientUnits="userSpaceOnUse"><stop offset="0" stop-color="#949aaf"/><stop offset="1" stop-color="#c6ccda"/></linearGradient><linearGradient id="linear-gradient-5" x1="32.04" y1="103.48" x2="32.04" y2="88.44" xlink:href="#linear-gradient"/><linearGradient id="linear-gradient-6" x1="109.1" y1="32.99" x2="109.1" y2="4.82" gradientTransform="translate(45.32 -71.61) rotate(45)" xlink:href="#linear-gradient-3"/></defs><title>Syringe</title><g id="Syringe"><path class="cls-1" d="M111.94,38.63,55.55,95,33,72.46c57-57,56.3-56.49,56.4-56.39Z"/><rect class="cls-2" x="94.42" y="13.98" width="7.31" height="31.9" transform="translate(7.56 78.12) rotate(-45)"/><path class="cls-3" d="M95.49,49.34C54.34,90.51,61.86,83,55.55,89.28L38.73,72.46c6.33-6.31,1.9-1.88,22.51-22.51C80.8,52.36,81.55,43.26,95.49,49.34Z"/><rect class="cls-4" x="28.93" y="81.8" width="21.27" height="13.29" transform="translate(74.13 -2.07) rotate(45)"/><rect class="cls-4" x="28.93" y="81.8" width="21.27" height="13.29" transform="translate(74.13 -2.07) rotate(45)"/><rect class="cls-5" x="32.32" y="83.2" width="21.27" height="3.69" transform="translate(72.72 -5.47) rotate(45)"/><polygon class="cls-6" points="30.16 103.48 24.52 97.84 30.16 88.44 39.56 97.84 30.16 103.48"/><rect class="cls-7" x="97.16" y="10.93" width="23.88" height="15.95" transform="translate(18.59 82.68) rotate(-45)"/><rect class="cls-8" x="112.95" y="4.39" width="5.38" height="15.95" transform="translate(25.13 85.39) rotate(-45)"/><path class="cls-9" d="M127.71,19.1,108.9.29a1,1,0,0,0-1.41,1.42l3.05,3.05L95,20.27,80.69,5.93a1,1,0,0,0-1.41,1.42L88,16,32.26,71.76a1,1,0,0,0,0,1.41l3.06,3-8.7,8.7a1,1,0,0,0,0,1.41l2.27,2.27-5.24,8.74a1,1,0,0,0,.15,1.22l2.11,2.11L.29,126.29a1,1,0,0,0,1.42,1.42l25.62-25.62c2.15,2.15,2.49,2.77,3.33,2.26l8.74-5.24,2.27,2.27a1,1,0,0,0,1.41,0l8.7-8.7,3,3.06a1,1,0,0,0,1.41,0L112,40c9.42,9.42,8.81,9,9.4,9a1,1,0,0,0,.71-1.71L107.73,33l15.51-15.51c3.32,3.32,3.21,3.35,3.76,3.35A1,1,0,0,0,127.71,19.1ZM30.3,102.23,25.77,97.7l4.58-7.64,7.59,7.59Zm12.07-3L28.74,85.63l8-8L50.36,91.27ZM102.55,46.6l-3-3.05A1,1,0,0,0,98.08,45L101.14,48,95,54.12l-4.94-4.93a1,1,0,0,0-1.41,1.41l4.94,4.94-6.11,6.11-3.06-3.06A1,1,0,0,0,83,60l3,3.05L80,69.17l-4.94-4.94a1,1,0,0,0-1.41,1.42l4.93,4.93-6.11,6.11-3-3A1,1,0,0,0,68,75.05l3.06,3-6.11,6.11L60,79.28a1,1,0,0,0-1.42,1.41l4.94,4.94-8,8L34.38,72.46l55-55,21.15,21.15Zm3.76-15c-6-6.06-3.82-3.82-9.87-9.87L112,6.18l9.87,9.87Z"/></g></svg>