<svg xmlns="http://www.w3.org/2000/svg" xmlns:xlink="http://www.w3.org/1999/xlink" viewBox="0 0 128 128"><defs><style>.cls-1{fill:url(#linear-gradient);}.cls-2{fill:#4da67f;}.cls-3{fill:url(#linear-gradient-2);}.cls-4{fill:#f6b756;}.cls-5{fill:url(#linear-gradient-3);}.cls-6{fill:#8288a1;}.cls-7{fill:url(#linear-gradient-4);}.cls-8{fill:url(#linear-gradient-5);}.cls-9{fill:#dd4e6a;}.cls-10{fill:#c7cdd8;}.cls-11{fill:#47566a;}</style><linearGradient id="linear-gradient" x1="74.16" y1="61.97" x2="74.16" y2="1" gradientUnits="userSpaceOnUse"><stop offset="0" stop-color="#6ab891"/><stop offset="1" stop-color="#85cba9"/></linearGradient><linearGradient id="linear-gradient-2" x1="21.32" y1="84.32" x2="21.32" y2="55.87" gradientUnits="userSpaceOnUse"><stop offset="0" stop-color="#fbcc88"/><stop offset="1" stop-color="#ffe5c3"/></linearGradient><linearGradient id="linear-gradient-3" x1="63.98" y1="127" x2="63.98" y2="102.61" gradientUnits="userSpaceOnUse"><stop offset="0" stop-color="#949aaf"/><stop offset="1" stop-color="#c6ccda"/></linearGradient><linearGradient id="linear-gradient-4" x1="82.29" y1="61.97" x2="82.29" y2="1" gradientTransform="translate(164.58 62.97) rotate(-180)" gradientUnits="userSpaceOnUse"><stop offset="0" stop-color="#d4d8e1"/><stop offset="1" stop-color="#f3f4f5"/></linearGradient><linearGradient id="linear-gradient-5" x1="82.29" y1="47.74" x2="82.29" y2="15.23" gradientUnits="userSpaceOnUse"><stop offset="0" stop-color="#da5466"/><stop offset="1" stop-color="#e87092"/></linearGradient></defs><title>Syrup</title><g id="Syrup"><path class="cls-1" d="M35.12,15.67l3.31-7.43A12.19,12.19,0,0,1,49.57,1h73.36A4.07,4.07,0,0,1,127,5.07V57.9A4.07,4.07,0,0,1,122.93,62H49.57a12.19,12.19,0,0,1-11.14-7.24L35.12,47.3a6.09,6.09,0,0,0-5.57-3.62H21.32V19.29h8.23A6.09,6.09,0,0,0,35.12,15.67Z"/><path class="cls-2" d="M127,51.81V57.9A4.08,4.08,0,0,1,122.93,62H49.57a12.2,12.2,0,0,1-11.14-7.24L35.12,47.3a6.08,6.08,0,0,0-5.57-3.62H21.32v-6.1h12.3a6.06,6.06,0,0,1,5.56,3.62l3.32,7.44a12.19,12.19,0,0,0,11.13,7.23h69.3A4.08,4.08,0,0,0,127,51.81Z"/><path class="cls-3" d="M31.48,74.16c0-10.16-10.16-18.29-10.16-18.29S11.16,64,11.16,74.16a10.16,10.16,0,0,0,20.32,0Z"/><path class="cls-4" d="M21.32,84.32c-5.66,0-11-4.68-10-12.41,2,11.07,18,11.1,20,0C32.37,79.65,26.94,84.32,21.32,84.32Z"/><path class="cls-5" d="M122.93,102.61c5.41,0,5.33,8.13,0,8.13H65.54a12.15,12.15,0,0,0-10.74,6.45c-3.14,6-8.91,9.81-18.24,9.81C8.11,127,1,102.61,1,102.61Z"/><path class="cls-6" d="M122.93,110.74H65.54a12.19,12.19,0,0,0-10.75,6.46c-3.13,5.94-8.9,9.8-18.23,9.8C8.11,127,1,102.61,1,102.61H2.69c3.43,6.93,12.8,20.32,33.87,20.32,9.33,0,15.1-3.86,18.23-9.79a12.19,12.19,0,0,1,10.75-6.46c61.07,0,59.21.79,60.91-2A4.07,4.07,0,0,1,122.93,110.74Z"/><rect class="cls-7" x="57.9" y="1" width="48.77" height="60.97" transform="translate(164.58 62.97) rotate(180)"/><circle class="cls-8" cx="82.29" cy="31.48" r="16.26"/><path class="cls-9" d="M82.29,47.74A16.26,16.26,0,0,1,66.15,29.45a16.26,16.26,0,0,0,32.27,0A16.26,16.26,0,0,1,82.29,47.74Z"/><rect class="cls-10" x="57.9" y="55.87" width="48.77" height="6.1" transform="translate(164.58 117.84) rotate(180)"/><path class="cls-11" d="M122.94,0H49.57A13.22,13.22,0,0,0,37.51,7.83l-3.3,7.43a5.1,5.1,0,0,1-4.66,3H22.32v-1a1,1,0,0,0-2,0V45.71a1,1,0,0,0,2,0v-1h7.23a5.11,5.11,0,0,1,4.66,3l3.3,7.43A13.22,13.22,0,0,0,49.57,63h73.37A5.07,5.07,0,0,0,128,57.9V5.06A5.07,5.07,0,0,0,122.94,0ZM39.34,54.32,36,46.89a7.1,7.1,0,0,0-6.49-4.21H22.32V20.29h7.23A7.1,7.1,0,0,0,36,16.08c.1,0-.33.74,3.3-7.43A11.21,11.21,0,0,1,49.57,2H56.9V61H49.57A11.21,11.21,0,0,1,39.34,54.32ZM58.9,61V2h46.78V61ZM126,57.9A3.07,3.07,0,0,1,122.94,61H107.68V2h15.26A3.06,3.06,0,0,1,126,5.06Z"/><path class="cls-11" d="M21.32,85.32A11.16,11.16,0,0,0,32.48,74.16c0-10.52-10.1-18.73-10.53-19.07a1,1,0,0,0-1.25,0c-.43.34-10.54,8.55-10.54,19.07A11.17,11.17,0,0,0,21.32,85.32Zm0-28.13c2.16,1.94,9.16,8.85,9.16,17a9.16,9.16,0,0,1-18.32,0C12.16,66,19.16,59.13,21.32,57.19Z"/><path class="cls-11" d="M122.94,101.61C-5.6,101.61-.51,101,0,102.89.11,103.14,7.7,128,36.56,128c9.07,0,15.5-3.48,19.13-10.34a11.12,11.12,0,0,1,9.86-5.92h57.39a5.07,5.07,0,0,0,0-10.13Zm0,8.13H65.55a13.11,13.11,0,0,0-11.63,7c-3.25,6.15-9.09,9.27-17.36,9.27C12.62,126,4.29,108.59,2.4,103.61H122.94a3.07,3.07,0,0,1,0,6.13Z"/><path class="cls-11" d="M90.42,30.48H83.29V23.35a1,1,0,0,0-2,0v7.13H74.16a1,1,0,0,0,0,2h7.13v7.13a1,1,0,0,0,2,0V32.48h7.13A1,1,0,0,0,90.42,30.48Z"/><path class="cls-11" d="M82.29,14.23A17.26,17.26,0,1,0,99.55,31.48,17.27,17.27,0,0,0,82.29,14.23Zm0,32.51A15.26,15.26,0,1,1,97.55,31.48,15.28,15.28,0,0,1,82.29,46.74Z"/></g></svg>