<svg xmlns="http://www.w3.org/2000/svg" xmlns:xlink="http://www.w3.org/1999/xlink" viewBox="0 0 128 128"><defs><style>.cls-1{fill:url(#linear-gradient);}.cls-2{fill:url(#linear-gradient-2);}.cls-3{fill:url(#linear-gradient-3);}.cls-4{fill:url(#linear-gradient-4);}.cls-5{fill:#c7cdd8;}.cls-6{fill:#5b8dc9;}.cls-7{fill:url(#linear-gradient-5);}.cls-8{fill:#47566a;}</style><linearGradient id="linear-gradient" x1="64" y1="127.02" x2="64" y2="1.02" gradientUnits="userSpaceOnUse"><stop offset="0" stop-color="#d4d8e1"/><stop offset="1" stop-color="#f3f4f5"/></linearGradient><linearGradient id="linear-gradient-2" x1="109.68" y1="35.55" x2="109.68" y2="1.04" gradientUnits="userSpaceOnUse"><stop offset="0" stop-color="#7aa8d7"/><stop offset="1" stop-color="#96c8ea"/></linearGradient><linearGradient id="linear-gradient-3" x1="92.42" y1="41.65" x2="92.42" y2="29.46" gradientUnits="userSpaceOnUse"><stop offset="0" stop-color="#949aaf"/><stop offset="1" stop-color="#c6ccda"/></linearGradient><linearGradient id="linear-gradient-4" x1="70.09" y1="72.1" x2="70.09" y2="43.68" gradientTransform="translate(-20.4 66.52) rotate(-45)" gradientUnits="userSpaceOnUse"><stop offset="0" stop-color="#9dd5df"/><stop offset="1" stop-color="#c3e1f5"/></linearGradient><linearGradient id="linear-gradient-5" x1="8.17" y1="126.92" x2="8.17" y2="112.7" xlink:href="#linear-gradient-3"/></defs><title>Thermometer</title><g id="Thermometer"><path class="cls-1" d="M126.94,18.28a17.21,17.21,0,0,1-5.06,12.18L70.62,81.72A67.34,67.34,0,0,1,45.73,97.48C16.17,108.06,9.78,133.11,2.32,125.66a4.32,4.32,0,0,1,0-6.09C15,106.9,19,103.47,24,95.57c8.89-14.07,7-23,22.26-38.21,55.19-55.19,52.33-53.11,56.86-55A17.26,17.26,0,0,1,126.94,18.28Z"/><path class="cls-2" d="M126.94,18.28c0,8.26-4.87,12-10.15,17.27L92.42,11.19C97.74,5.88,101.37,1,109.7,1A17.23,17.23,0,0,1,126.94,18.28Z"/><circle class="cls-3" cx="92.42" cy="35.55" r="6.09"/><rect class="cls-4" x="62.91" y="44.97" width="14.36" height="25.84" transform="translate(61.46 -32.61) rotate(45)"/><path class="cls-5" d="M116.79,35.55C67,85.33,67.42,85.7,59.05,91c-14.08,8.88-23,7-38.21,22.25-13.1,13.1-13.07,13.69-15.47,13.69a4.31,4.31,0,0,1-4.31-4.31c0-1,.06.25,2.28.25,2.4,0,2-.25,15.47-13.69C34.07,93.91,43.24,95.61,57,86.92c8.36-5.28,7.47-5.16,56.72-54.41Z"/><path class="cls-6" d="M126.94,18.28c0,8.26-4.87,12-10.15,17.27l-3.05-3,6.11-6.11A17.17,17.17,0,0,0,124,8.59,17.18,17.18,0,0,1,126.94,18.28Z"/><path class="cls-7" d="M15.27,118.8c-7.16,7.16-7.54,8.12-9.9,8.12a4.31,4.31,0,0,1-4.31-4.31c0-2.5,1.47-3.26,8.12-9.91Z"/><path class="cls-8" d="M96.85,5.35,45.53,56.67A68.73,68.73,0,0,0,29.53,82c-5.93,16.63-15,24-28,37a5.31,5.31,0,0,0,7.51,7.51c12.75-12.75,20.32-22,37-28a68.23,68.23,0,0,0,25.28-16C127.44,26.36,116,37.84,117.55,36.26c5.54-5.55,10.45-9.32,10.45-18C128,2,108.27-6.07,96.85,5.35ZM5.31,126A3.31,3.31,0,0,1,2,122.69c0-1.81.58-2,7.13-8.5l4.68,4.68C7.31,125.37,7.14,126,5.31,126ZM69.92,81.05A66.23,66.23,0,0,1,45.37,96.59c-15.53,5.56-23.51,14.24-30.14,20.87l-4.69-4.69,4.86-4.86C34.25,89.06,28.47,76.56,47,58.08l45.5-45.5,23,23Zm46.92-46.92-23-23c4.39-4.39,5.94-6.36,9.68-7.94a16.28,16.28,0,0,1,22.45,15C126,26,121.54,29.43,116.84,34.13Z"/><path class="cls-8" d="M92.45,28.45a7.1,7.1,0,1,0,7.1,7.1A7.11,7.11,0,0,0,92.45,28.45Zm0,12.2a5.1,5.1,0,1,1,5.1-5.1A5.11,5.11,0,0,1,92.45,40.65Z"/><path class="cls-8" d="M74.87,43a1,1,0,0,0-1.42,0L55.16,61.26a1,1,0,0,0,0,1.41L65.33,72.84a1,1,0,0,0,1.41,0c20-20,18.58-18.41,18.58-19S85.87,54,74.87,43ZM66,70.71,57.29,62,74.16,45.09l8.75,8.75Z"/><path class="cls-8" d="M53.13,73.45,43,83.62A1,1,0,0,0,44.38,85L54.55,74.87A1,1,0,0,0,53.13,73.45Z"/></g></svg>