<svg xmlns="http://www.w3.org/2000/svg" xmlns:xlink="http://www.w3.org/1999/xlink" viewBox="0 0 128 128"><defs><style>.cls-1{fill:url(#linear-gradient);}.cls-2{fill:#5b8dc9;}.cls-3{fill:url(#linear-gradient-2);}.cls-4{fill:#c7cdd8;}.cls-5{fill:url(#linear-gradient-3);}.cls-6{fill:url(#linear-gradient-4);}.cls-7{fill:#8288a1;}.cls-8{fill:url(#linear-gradient-5);}.cls-9{fill:#aae0e5;}.cls-10{fill:#47566a;}</style><linearGradient id="linear-gradient" x1="64" y1="127" x2="64" y2="9.13" gradientUnits="userSpaceOnUse"><stop offset="0" stop-color="#7aa8d7"/><stop offset="1" stop-color="#96c8ea"/></linearGradient><linearGradient id="linear-gradient-2" x1="64.01" y1="118.87" x2="64.01" y2="17.26" gradientUnits="userSpaceOnUse"><stop offset="0" stop-color="#d4d8e1"/><stop offset="1" stop-color="#f3f4f5"/></linearGradient><linearGradient id="linear-gradient-3" x1="64.01" y1="49.77" x2="64.01" y2="1" xlink:href="#linear-gradient-2"/><linearGradient id="linear-gradient-4" x1="64.01" y1="49.77" x2="64.01" y2="1" gradientUnits="userSpaceOnUse"><stop offset="0" stop-color="#949aaf"/><stop offset="1" stop-color="#c6ccda"/></linearGradient><linearGradient id="linear-gradient-5" x1="64.01" y1="41.65" x2="64.01" y2="9.13" gradientUnits="userSpaceOnUse"><stop offset="0" stop-color="#9dd5df"/><stop offset="1" stop-color="#c3e1f5"/></linearGradient></defs><title>Weight Scale</title><g id="Weight_Scale" data-name="Weight Scale"><path class="cls-1" d="M82.2,9.13h25.48a19.33,19.33,0,0,1,19.23,21.32l-8.25,79.24A19.34,19.34,0,0,1,99.43,127H28.59A19.34,19.34,0,0,1,9.36,109.69C.5,24.6,1,30,1,28.46A19.34,19.34,0,0,1,20.34,9.13H45.82"/><path class="cls-2" d="M118.58,110.32A19.33,19.33,0,0,1,99.43,127H28.59A19.32,19.32,0,0,1,9.44,110.32a19.36,19.36,0,0,0,18.13,12.62h72.88A19.36,19.36,0,0,0,118.58,110.32Z"/><path class="cls-3" d="M87,17.26h20.69a11.21,11.21,0,0,1,11.2,11.2c0,.86.54-4.63-8.31,80.37a11.17,11.17,0,0,1-11.14,10H28.59a11.17,11.17,0,0,1-11.14-10L9.2,29.61A11.21,11.21,0,0,1,20.34,17.26H41"/><path class="cls-4" d="M110.63,108.26c-.75,7-5.91,10.61-11.2,10.61H28.59c-5.35,0-10.46-3.7-11.2-10.61a11.17,11.17,0,0,0,10.18,6.55h72.88A11.17,11.17,0,0,0,110.63,108.26Z"/><path class="cls-4" d="M118.88,28.46a19.63,19.63,0,0,1-.16,2.19,11.22,11.22,0,0,0-11-9.33H20.34a11.22,11.22,0,0,0-11,9.33c-.83-8.49,4.88-13.39,11-13.39h87.34A11.21,11.21,0,0,1,118.88,28.46Z"/><circle class="cls-5" cx="64.01" cy="25.39" r="24.39"/><circle class="cls-6" cx="64.01" cy="25.39" r="24.39"/><path class="cls-7" d="M64,49.77A24.4,24.4,0,0,1,39.7,23.35a24.4,24.4,0,0,0,48.62,0A24.39,24.39,0,0,1,64,49.77Z"/><circle class="cls-8" cx="64.01" cy="25.39" r="16.26"/><path class="cls-9" d="M80.15,27.42a16.27,16.27,0,0,0-32.28,0,16.27,16.27,0,1,1,32.28,0Z"/><path class="cls-10" d="M107.67,8.13H82.6a25.34,25.34,0,0,0-37.2,0H20.33A20.35,20.35,0,0,0,0,28.46c0,1.63-.4-2.77,8.36,81.33A20.29,20.29,0,0,0,28.58,128H99.42a20.29,20.29,0,0,0,20.22-18.21l8.25-79.25A20.33,20.33,0,0,0,107.67,8.13Zm-21.61,9.5C91.64,31.13,81,48.77,64,48.77c-16.79,0-27.68-17.37-22.06-31.14C49.27-3.16,78.73-3.16,86.06,17.63Zm2.3.63h19.31a10.2,10.2,0,0,1,10.2,10.2c0,.8.53-4.52-8.31,80.27a10.15,10.15,0,0,1-10.14,9.14H28.58a10.15,10.15,0,0,1-10.14-9.14L10.18,29.51A10.21,10.21,0,0,1,20.33,18.26H39.64a25.38,25.38,0,1,0,48.72,0ZM125.9,30.34l-8.25,79.24A18.29,18.29,0,0,1,99.42,126H28.58a18.29,18.29,0,0,1-18.23-16.42C1.5,24.59,2,29.87,2,28.46A18.35,18.35,0,0,1,20.33,10.13H43.72a25.29,25.29,0,0,0-3.4,6.13h-20A12.2,12.2,0,0,0,8.2,29.72l8.25,79.21a12.15,12.15,0,0,0,12.13,10.94H99.42a12.15,12.15,0,0,0,12.13-10.93c8.83-84.76,8.32-79.54,8.32-80.48a12.21,12.21,0,0,0-12.2-12.2h-20a25.29,25.29,0,0,0-3.4-6.13h23.39A18.32,18.32,0,0,1,125.9,30.34Z"/><path class="cls-10" d="M64,42.65A17.26,17.26,0,1,0,46.74,25.39,17.28,17.28,0,0,0,64,42.65Zm0-32.52A15.26,15.26,0,1,1,48.74,25.39,15.28,15.28,0,0,1,64,10.13Z"/><path class="cls-10" d="M64,35.52a2,2,0,0,0,.94-3.76c.08-.27.06.76.06-10.44a1,1,0,0,0-2,0c0,11.07,0,10.17.06,10.44A2,2,0,0,0,64,35.52Z"/></g></svg>