<svg xmlns="http://www.w3.org/2000/svg" xmlns:xlink="http://www.w3.org/1999/xlink" viewBox="0 0 128 128"><defs><style>.cls-1{fill:url(#linear-gradient);}.cls-2{fill:url(#linear-gradient-2);}.cls-3{fill:#5b8dc9;}.cls-4{fill:url(#linear-gradient-3);}.cls-5{fill:url(#linear-gradient-4);}.cls-6{fill:url(#linear-gradient-5);}.cls-7{fill:url(#linear-gradient-6);}.cls-8{fill:#c7cdd8;}.cls-9{fill:url(#linear-gradient-7);}.cls-10{fill:#47566a;}</style><linearGradient id="linear-gradient" x1="58.92" y1="53.84" x2="58.92" y2="45.71" gradientUnits="userSpaceOnUse"><stop offset="0" stop-color="#7aa8d7"/><stop offset="1" stop-color="#96c8ea"/></linearGradient><linearGradient id="linear-gradient-2" x1="86.35" y1="45.71" x2="86.35" y2="13.19" xlink:href="#linear-gradient"/><linearGradient id="linear-gradient-3" x1="55.86" y1="92.45" x2="55.86" y2="82.29" xlink:href="#linear-gradient"/><linearGradient id="linear-gradient-4" x1="116.81" y1="9.13" x2="116.81" y2="1" gradientUnits="userSpaceOnUse"><stop offset="0" stop-color="#949aaf"/><stop offset="1" stop-color="#c6ccda"/></linearGradient><linearGradient id="linear-gradient-5" x1="90.41" y1="127" x2="90.41" y2="53.84" xlink:href="#linear-gradient-4"/><linearGradient id="linear-gradient-6" x1="90.41" y1="98.55" x2="90.41" y2="82.29" xlink:href="#linear-gradient-4"/><linearGradient id="linear-gradient-7" x1="31.48" y1="127" x2="31.48" y2="106.68" xlink:href="#linear-gradient-4"/></defs><title>Wheelchair</title><g id="Wheelchair"><path class="cls-1" d="M27.42,53.84h63V45.71H35.55A8.13,8.13,0,0,0,27.42,53.84Z"/><path class="cls-2" d="M90.42,13.19a8.13,8.13,0,0,0-8.13,8.13V45.71h8.13Z"/><rect class="cls-3" x="82.29" y="37.58" width="8.13" height="8.13"/><path class="cls-4" d="M24.36,92.45H92.44V82.29H24.36a5.08,5.08,0,1,0,0,10.16Z"/><path class="cls-3" d="M92.44,88.39v4.06H24.36a5.08,5.08,0,0,1-4.65-7.11C21.48,89.61,22.19,88.39,92.44,88.39Z"/><path class="cls-5" d="M106.67,9.13h16.26c5.4,0,5.32-8.13,0-8.13H106.67Z"/><path class="cls-6" d="M90.41,53.84A36.58,36.58,0,1,0,127,90.42,36.58,36.58,0,0,0,90.41,53.84Zm0,65a28.45,28.45,0,1,1,28.45-28.45A28.45,28.45,0,0,1,90.41,118.87Z"/><circle class="cls-7" cx="90.41" cy="90.42" r="8.13"/><circle class="cls-8" cx="90.42" cy="90.42" r="4"/><circle class="cls-9" cx="31.48" cy="116.84" r="10.16"/><circle class="cls-8" cx="31.48" cy="116.84" r="4"/><path class="cls-10" d="M91.42,52.86V13.19a7.14,7.14,0,0,1,7.13-7.13h7.13V9.13a1,1,0,0,0,1,1h16.26a5.07,5.07,0,0,0,0-10.13H106.68a1,1,0,0,0-1,1V4.06H98.55a9.15,9.15,0,0,0-9.08,8.18,9.15,9.15,0,0,0-8.18,9.08V44.71H35.55c-8.18,0-10.92,10.13-8.13,10.13h3.06V81.29H24.37a6.08,6.08,0,0,0-.16,12.15c-4.75,28.49-3.71,21-3.84,22.4H1a1,1,0,0,0,0,2H20.37a11.16,11.16,0,1,0,3.29-9l2.57-15.44H53A37.58,37.58,0,1,0,91.42,52.86ZM107.68,2h15.26a3.07,3.07,0,0,1,0,6.13H107.68ZM83.29,21.32a7.14,7.14,0,0,1,6.13-7.06V44.71H83.29ZM35.55,46.71H89.42v6.13H28.49A7.14,7.14,0,0,1,35.55,46.71Zm-3.07,8.13H78.35A37.71,37.71,0,0,0,54,81.31c-.31,0-5.88,0-21.48,0Zm-1,52.84a9.16,9.16,0,1,1-9.15,9.22l.51-3.06A9.15,9.15,0,0,1,31.48,107.68ZM52.84,91.45H24.37a4.08,4.08,0,0,1,0-8.16H52.84ZM90.42,126A35.58,35.58,0,1,1,126,90.42,35.62,35.62,0,0,1,90.42,126Z"/><path class="cls-10" d="M90.42,85.42a5,5,0,1,0,5,5A5,5,0,0,0,90.42,85.42Zm0,8a3,3,0,1,1,3-3A3,3,0,0,1,90.42,93.42Z"/><path class="cls-10" d="M115.89,75.67a29.43,29.43,0,0,0-51,29.44c10.07,18.82,39.13,20.45,51,0C121.54,95.27,120.82,83.55,115.89,75.67Zm-2.23.17L97.76,85a9.09,9.09,0,0,0-6.34-3.67V63A27.44,27.44,0,0,1,113.66,75.84ZM90.42,97.55a7.13,7.13,0,1,1,7.13-7.13A7.14,7.14,0,0,1,90.42,97.55ZM89.42,63V81.35A9.09,9.09,0,0,0,83.08,85l-15.9-9.18A27.44,27.44,0,0,1,89.42,63ZM66.17,77.57l15.9,9.18a9.06,9.06,0,0,0,0,7.34l-15.9,9.18A27.38,27.38,0,0,1,66.17,77.57Zm1,27.43,15.9-9.18a9.09,9.09,0,0,0,6.34,3.67v18.36A27.44,27.44,0,0,1,67.18,105Zm24.24,12.85V99.49a9.09,9.09,0,0,0,6.34-3.67l15.9,9.18A27.44,27.44,0,0,1,91.42,117.85Zm23.25-14.58-15.9-9.18a9,9,0,0,0,0-7.34l15.9-9.18A27.38,27.38,0,0,1,114.67,103.27Z"/><path class="cls-10" d="M31.48,121.84a5,5,0,1,0-5-5A5,5,0,0,0,31.48,121.84Zm0-8a3,3,0,1,1-3,3A3,3,0,0,1,31.48,113.84Z"/></g></svg>