<svg xmlns="http://www.w3.org/2000/svg" xmlns:xlink="http://www.w3.org/1999/xlink" viewBox="0 0 128 128"><defs><style>.cls-1{fill:url(#linear-gradient);}.cls-2{fill:url(#linear-gradient-2);}.cls-3{fill:url(#linear-gradient-3);}.cls-4{fill:url(#linear-gradient-4);}.cls-5{fill:#5b8dc9;}.cls-6{fill:url(#linear-gradient-5);}.cls-7{fill:#47566a;}</style><linearGradient id="linear-gradient" x1="64" y1="127" x2="64" y2="1" gradientUnits="userSpaceOnUse"><stop offset="0" stop-color="#7aa8d7"/><stop offset="1" stop-color="#96c8ea"/></linearGradient><linearGradient id="linear-gradient-2" x1="64" y1="68.06" x2="64" y2="26.1" gradientUnits="userSpaceOnUse"><stop offset="0" stop-color="#d4d8e1"/><stop offset="1" stop-color="#f3f4f5"/></linearGradient><linearGradient id="linear-gradient-3" x1="64" y1="61.08" x2="64" y2="23.35" xlink:href="#linear-gradient-2"/><linearGradient id="linear-gradient-4" x1="64" y1="110.74" x2="64" y2="81" xlink:href="#linear-gradient-2"/><linearGradient id="linear-gradient-5" x1="103.63" y1="116.84" x2="103.63" y2="106.68" gradientUnits="userSpaceOnUse"><stop offset="0" stop-color="#9dd5df"/><stop offset="1" stop-color="#c3e1f5"/></linearGradient></defs><title>Xray</title><g id="Xray"><rect class="cls-1" x="5.06" y="1" width="117.87" height="126"/><path class="cls-2" d="M70.1,27.42c8.13-6.1,16.68,10.32,16.68,21.09a59,59,0,0,1-2.4,16.79s-.52,2.76-4.12,2.76S67.19,63.84,66,60.24H62c-1.22,3.6-10.69,7.82-14.29,7.82s-4.12-2.76-4.12-2.76a59,59,0,0,1-2.4-16.79c0-10.77,8.55-27.19,16.68-21.09Z"/><path class="cls-3" d="M69.63,29.24a21.79,21.79,0,0,0-.82,5.31h0c-.21,2.61-.37,5.82-.49,8.95-.14,3.73-.21,7.35-.24,9.68,0,.63,0,1.17,0,1.59A8.5,8.5,0,0,1,66,60.24a2.73,2.73,0,0,1-3.94,0,8.5,8.5,0,0,1-2.1-5.46c0-4.55-.41-23.25-1.56-25.54S62.8,23.35,64,23.35,70.83,26.85,69.63,29.24Z"/><path class="cls-4" d="M86.35,90.42c0,8.13-8.12,9-8.12,13.71s-3.29,6.61-6.1,6.61c-4.15,0-5.38-6.09-8.13-6.09,4.06,0,4.06-2,8.13-4.07s4.06-8.13,0-8.13S66,98.55,64,98.55s-4.06-6.1-8.13-6.1-4.06,6.1,0,8.13,4.07,4.07,8.13,4.07c-2.75,0-4,6.09-8.13,6.09-2.81,0-6.1-1.87-6.1-6.61s-8.12-5.58-8.12-13.71c0-6.1,2-9.42,7.51-9.42C57.38,81,59,89.11,64,89.11S70.62,81,78.84,81C84.32,81,86.35,84.32,86.35,90.42Z"/><rect class="cls-5" x="5.06" y="121" width="117.87" height="6"/><rect class="cls-6" x="94.48" y="106.68" width="18.29" height="10.16"/><path class="cls-7" d="M40.58,23.62c.54-.53,3.91-1.3,11.23-1.3,1.59,0,3,1.47,3.9,2.95-8.55-2-15.49,13.63-15.49,23.24a60.07,60.07,0,0,0,2.43,17.05c.27,1.25,1.66,3.5,5.09,3.5s12-3.6,14.63-7.37a3.57,3.57,0,0,0,3.26,0c2.59,3.77,11.19,7.37,14.63,7.37s4.82-2.25,5.09-3.5a60.07,60.07,0,0,0,2.43-17.05c0-9.71-7-25.23-15.48-23.24.9-1.43,2.24-2.95,3.89-2.95,7.32,0,10.69.77,11.23,1.3a1,1,0,0,0,2-.44c-.15-.85-.49-2.86-13.18-2.86-3.42,0-5.62,3.66-6.54,5.6C68.07,24,65.15,22.35,64,22.35S59.93,24,58.35,25.92c-.92-1.94-3.12-5.6-6.54-5.6-12.69,0-13,2-13.18,2.86A1,1,0,0,0,40.58,23.62Zm2.05,31.73a55.76,55.76,0,0,1-.4-7c2.4,2.45,5.52,2.89,8.8,1.9a19.63,19.63,0,0,0,7.74-4.15c.07,2.44.13,4.77.15,6.69A24.3,24.3,0,0,1,51,56.9C46,58.63,43.29,56.08,42.63,55.35Zm16-12.13c-2.57,3.61-12.73,8.92-16.2,2.11a33,33,0,0,1,1.37-5.75c4.27,3.34,11.14.79,14.53-2.36C58.49,39.09,58.59,41.15,58.67,43.22ZM47.74,67.06A2.91,2.91,0,0,1,44.57,65,50.45,50.45,0,0,1,43,58.18a9.15,9.15,0,0,0,4.76,1.3c3.39,0,8.58-2.44,11.17-4.22a9.94,9.94,0,0,0,1.89,5.16C59.1,63.35,50.9,67.06,47.74,67.06ZM83.43,65a2.9,2.9,0,0,1-3.17,2.07c-3.16,0-11.36-3.71-13.1-6.64a9.94,9.94,0,0,0,1.89-5.16c2.62,1.8,7.79,4.22,11.17,4.22A9.15,9.15,0,0,0,85,58.18,50.45,50.45,0,0,1,83.43,65Zm2.1-19.66c-.49,1-2.72,4.56-8,3-5.47-1.65-7.69-4.33-8.22-5.08.08-2.07.18-4.13.3-6,3.25,3,10.18,5.77,14.53,2.36A33,33,0,0,1,85.53,45.33Zm-.16,10c-.66.72-3.41,3.27-8.34,1.54a24.49,24.49,0,0,1-8-4.14c0-1.92.08-4.25.15-6.69,3.08,2.81,8,4.64,10.86,4.64a7.77,7.77,0,0,0,5.68-2.39A56,56,0,0,1,85.37,55.36Zm-2-17.8c-3.69,3.9-12-.23-13.58-3.19a20.51,20.51,0,0,1,.69-4.68,2.58,2.58,0,0,0,.25-1.52C76,24.36,81,31.56,83.41,37.56Zm-24-9.71A10,10,0,0,1,64,24.36a9.84,9.84,0,0,1,4.59,3.49c.79,1.44-1.09-2.38-1.49,25.27,0,0,0,1.61,0,1.66,0,1.87-1.17,5.3-3.07,5.3s-3.07-3.43-3.07-5.3c0-3.55-.28-15.19-.75-20.31C59.6,27.57,58.8,29,59.42,27.85Zm-2.19.32a2.58,2.58,0,0,0,.25,1.52,20.51,20.51,0,0,1,.69,4.68c-1.68,3-10,7.05-13.59,3.19C47,31.57,52,24.35,57.23,28.17Z"/><path class="cls-7" d="M78.84,80C70.35,80,68.22,88.11,64,88.11S57.71,80,49.16,80c-5.73,0-8.51,3.41-8.51,10.42,0,8.49,8.12,9.77,8.12,13.71,0,5.23,3.68,7.61,7.1,7.61,4.57,0,6.26-6.09,8.13-6.09s3.56,6.09,8.13,6.09c3.42,0,7.1-2.38,7.1-7.61,0-3.93,8.12-5.22,8.12-13.71C87.35,83.41,84.57,80,78.84,80ZM64,99.55c2.74,0,4.62-6.1,8.13-6.1,3,0,2.63,4.7-.45,6.24-4.19,2.09-4.05,4-7.68,4s-3.5-1.87-7.68-4c-3-1.52-3.45-6.24-.45-6.24C59.42,93.45,61.2,99.55,64,99.55Zm13.23,4.58c0,4.14-2.75,5.61-5.1,5.61s-3.68-2.75-5.29-4.54c2.07-.77,2.86-2.29,5.74-3.72,5-2.52,4.69-10-.45-10-4.46,0-7,6.1-8.13,6.1s-3.68-6.1-8.13-6.1c-5.15,0-5.46,7.52-.45,10,2.88,1.43,3.65,3,5.74,3.72-1.62,1.79-2.92,4.54-5.29,4.54s-5.1-1.47-5.1-5.61c0-5.47-8.12-6-8.12-13.71,0-6,1.88-8.42,6.51-8.42,7.78,0,9.18,8.11,14.84,8.11S71.08,82,78.84,82c4.63,0,6.51,2.44,6.51,8.42C85.35,98.09,77.23,98.65,77.23,104.13Z"/><path class="cls-7" d="M62,18.26H66a1,1,0,0,0,0-2H62A1,1,0,0,0,62,18.26Z"/><path class="cls-7" d="M62,69.06H66a1,1,0,0,0,0-2H62A1,1,0,0,0,62,69.06Z"/><path class="cls-7" d="M62,75.16H66a1,1,0,0,0,0-2H62A1,1,0,0,0,62,75.16Z"/><path class="cls-7" d="M62,81.26H66a1,1,0,0,0,0-2H62A1,1,0,0,0,62,81.26Z"/><path class="cls-7" d="M122.94,0H5.06a1,1,0,0,0-1,1V127a1,1,0,0,0,1,1H122.94a1,1,0,0,0,1-1V1A1,1,0,0,0,122.94,0Zm-1,126H6.06V2H121.94Z"/><path class="cls-7" d="M15.23,12.16H31.48a1,1,0,0,0,0-2H15.23A1,1,0,0,0,15.23,12.16Z"/><path class="cls-7" d="M15.23,20.29H31.48a1,1,0,0,0,0-2H15.23A1,1,0,0,0,15.23,20.29Z"/><path class="cls-7" d="M94.48,117.84h18.29a1,1,0,0,0,1-1V106.68a1,1,0,0,0-1-1H94.48a1,1,0,0,0-1,1v10.16A1,1,0,0,0,94.48,117.84Zm1-10.16h16.29v8.16H95.48Z"/></g></svg>