<svg xmlns="http://www.w3.org/2000/svg" viewBox="0 0 128 128"><defs><style>.cls-1{fill:#47566a;}</style></defs><title>Aids</title><g id="Aids"><path class="cls-1" d="M115.38,114A195.14,195.14,0,0,1,77.76,79c8-13.62,13.43-27,16.08-39.89,1.3-6.34,1.9-13.43-2.53-22.29C87.52,9.22,83.68,6.74,82.89,6.29c-8.75-8.24-28.6-8.51-37.75,0-.74.42-4.62,2.88-8.45,10.54-4.43,8.86-3.83,16-2.53,22.29C36.81,52,42.22,65.37,50.24,79a195.14,195.14,0,0,1-37.62,35,1,1,0,0,0,.57,1.82H30.87l5.82,11.64a1,1,0,0,0,1.55.3A222.35,222.35,0,0,0,64,99.36C74.79,113.44,89.23,128,90.42,128c.86,0,.48.27,6.71-12.19h17.68A1,1,0,0,0,115.38,114ZM89.52,17.71c4.16,8.31,3.59,15,2.36,21-2.57,12.43-7.77,25.43-15.47,38.64-4-5-7.8-10-11.2-15C73.08,50.48,87.74,24.61,85,10.74A31.66,31.66,0,0,1,89.52,17.71ZM64,60.5C55.58,47.75,49.4,35.22,46.49,25c5.87-3.05,13.3-4.69,17.51-4.69S75.64,21.93,81.51,25C78.6,35.22,72.42,47.75,64,60.5ZM81.52,7.74c2.89,3.45,1.6,10.9.52,15.26a45,45,0,0,0-18-4.71A45.11,45.11,0,0,0,46,23c-1.09-4.37-2.34-11.78.51-15.23C46.89,7.36,52.79,2,64,2,75.58,2,81.52,7.74,81.52,7.74ZM37.88,125.37c-5.85-11.7-5.53-11.56-6.4-11.56H16.31a198.4,198.4,0,0,0,35-33A196.92,196.92,0,0,0,62.75,97.7,229,229,0,0,1,37.88,125.37Zm58.64-11.56c-.88,0-.55-.14-6.4,11.56-23.47-21.77-47.45-54.93-54-86.67-1.23-6-1.8-12.68,2.36-21a32,32,0,0,1,4.56-7c-3.82,19,25.52,71.68,68.65,103.08Z"/></g></svg>