<svg xmlns="http://www.w3.org/2000/svg" viewBox="0 0 128 128"><defs><style>.cls-1{fill:#47566a;}</style></defs><title>Ambulance</title><g id="Ambulance"><path class="cls-1" d="M102.61,88.48a6,6,0,1,0,6,6A6,6,0,0,0,102.61,88.48Zm0,10a4,4,0,1,1,4-4A4,4,0,0,1,102.61,98.48Z"/><path class="cls-1" d="M25.39,88.48a6,6,0,1,0,6,6A6,6,0,0,0,25.39,88.48Zm0,10a4,4,0,1,1,4-4A4,4,0,0,1,25.39,98.48Z"/><path class="cls-1" d="M126.39,37.08a9.13,9.13,0,0,0-9.1-8.63H66.65l-3.79-7.57c-.39-.79.28-.56-17.15-.56-.84,0-.55-.14-4.68,8.13H34.47A9.23,9.23,0,0,0,26.3,33.5L12.48,61.15,6.26,63.23A9.08,9.08,0,0,0,0,71.89V94.48a1,1,0,0,0,1,1H12.24a13.18,13.18,0,0,0,26.29,0H89.47a13.18,13.18,0,0,0,26.29,0H127a1,1,0,0,0,1-1C128,59.71,128.33,72,126.39,37.08Zm-2,.11c1.84,33.17,1.6,27.65,1.6,31.91H54.84V30.45h62.45A7.14,7.14,0,0,1,124.4,37.19ZM46.33,22.32h15l3.06,6.13H43.26ZM25,40.61H44.71V61H14.81ZM2,75.16H5.06a3.08,3.08,0,0,1,3.07,3.07v4.06a3.07,3.07,0,0,1-3.07,3.06H2ZM2,87.35H5.06a5.07,5.07,0,0,0,5.07-5.06V78.23a5.07,5.07,0,0,0-5.07-5.07H2V71.89a7.09,7.09,0,0,1,4.89-6.76L13.36,63H45.71a1,1,0,0,0,1-1V39.61a1,1,0,0,0-1-1H26l2.11-4.22a7.21,7.21,0,0,1,6.38-3.94H52.84v63H38.53a13.18,13.18,0,0,0-26.29,0H2Zm23.39,18.33a11.2,11.2,0,1,1,11.19-11.2A11.21,11.21,0,0,1,25.39,105.68Zm77.22,0a11.2,11.2,0,1,1,11.2-11.2A11.21,11.21,0,0,1,102.61,105.68Zm13.15-12.2a13.18,13.18,0,0,0-26.29,0H54.84V71.1H126V93.48Z"/><path class="cls-1" d="M41.65,71.1h4.06a1,1,0,0,0,0-2H41.65A1,1,0,0,0,41.65,71.1Z"/><path class="cls-1" d="M88.39,54.84h7.13V62a1,1,0,0,0,1,1h8.13a1,1,0,0,0,1-1V54.84h7.12a1,1,0,0,0,1-1V45.71a1,1,0,0,0-1-1h-7.12V37.58a1,1,0,0,0-1-1H96.52a1,1,0,0,0-1,1v7.13H88.39a1,1,0,0,0-1,1v8.13A1,1,0,0,0,88.39,54.84Zm1-8.13h7.13a1,1,0,0,0,1-1V38.58h6.13v7.13a1,1,0,0,0,1,1h7.12v6.13h-7.12a1,1,0,0,0-1,1V61H97.52V53.84a1,1,0,0,0-1-1H89.39Z"/></g></svg>