<svg xmlns="http://www.w3.org/2000/svg" viewBox="0 0 128 128"><defs><style>.cls-1{fill:#47566a;}</style></defs><title>Bacteria</title><g id="Bacteria"><path class="cls-1" d="M64,0a64,64,0,1,0,64,64A64.07,64.07,0,0,0,64,0Zm0,126a62,62,0,1,1,62-62A62.07,62.07,0,0,1,64,126Z"/><path class="cls-1" d="M64,8.13A55.87,55.87,0,1,0,119.87,64,55.93,55.93,0,0,0,64,8.13Zm0,109.74A53.87,53.87,0,1,1,117.87,64,53.93,53.93,0,0,1,64,117.87Z"/><path class="cls-1" d="M40.67,72.56c4,4,3.79,3.94,4.34,3.94a1,1,0,0,0,.71-1.71l-3.64-3.64A11,11,0,0,0,44.62,65h5.15a1,1,0,0,0,0-2H44.62a11,11,0,0,0-2.54-6.15l3.64-3.64a1,1,0,0,0-1.41-1.41l-3.64,3.64a11.16,11.16,0,0,0-6.15-2.55V47.74a1,1,0,0,0-2,0v5.15a11.1,11.1,0,0,0-6.15,2.55L22.73,51.8a1,1,0,0,0-1.42,1.41L25,56.85A11,11,0,0,0,22.41,63H17.26a1,1,0,0,0,0,2h5.15A11,11,0,0,0,25,71.15l-3.64,3.64A1,1,0,0,0,22,76.5c.56,0,.34.07,4.35-3.94a11.1,11.1,0,0,0,6.15,2.55v5.15a1,1,0,0,0,2,0V75.11A11.16,11.16,0,0,0,40.67,72.56ZM27,57.52a9.16,9.16,0,1,1,0,13A9.17,9.17,0,0,1,27,57.52Z"/><path class="cls-1" d="M31.7,67.93a1.5,1.5,0,0,0-2.12-2.12A1.5,1.5,0,0,0,31.7,67.93Z"/><path class="cls-1" d="M38.89,66.5a1.5,1.5,0,0,0-2.12-2.12A1.5,1.5,0,0,0,38.89,66.5Z"/><path class="cls-1" d="M33.14,60.75A1.5,1.5,0,0,0,31,58.63,1.5,1.5,0,0,0,33.14,60.75Z"/><path class="cls-1" d="M108.52,52.47c-4.29-14.09-14.16-17.22-19.66-17.84a4.87,4.87,0,0,0-4.13,1.54,5,5,0,0,0,3.09,8.44c3.64.4,8.51,2.62,11,10.94a5.07,5.07,0,0,0,9.66-3.08Zm-2.22,3.08a3.07,3.07,0,0,1-5.52-.59c-3-9.85-9.27-12-12.74-12.33a3,3,0,0,1,.6-6c6.12.69,14.21,4.09,18,16.43A3.13,3.13,0,0,1,106.3,55.55Z"/><path class="cls-1" d="M61.61,99.82c-9.09-1-10.77-10.93-11-10.93A5.07,5.07,0,0,0,40.91,92c4.29,14.08,14.16,17.22,19.66,17.83a4.87,4.87,0,0,0,4.13-1.54A5,5,0,0,0,61.61,99.82Zm1.63,7.07a2.85,2.85,0,0,1-2.45.92c-6.12-.68-14.21-4.09-18-16.43a3.05,3.05,0,0,1,2.41-3.92,3,3,0,0,1,3.42,2c3,9.85,9.27,12,12.74,12.34A3,3,0,0,1,63.24,106.89Z"/><path class="cls-1" d="M76.19,56.9A5.07,5.07,0,0,0,71.13,62V74.16a5.07,5.07,0,1,0,10.13,0V62A5.07,5.07,0,0,0,76.19,56.9Zm3.07,17.26a3.07,3.07,0,1,1-6.13,0V62a3.07,3.07,0,1,1,6.13,0Z"/><path class="cls-1" d="M39.37,38.82A5.05,5.05,0,0,0,43,37.34l8.62-8.62a5.06,5.06,0,0,0-7.16-7.16l-8.62,8.62A5.06,5.06,0,0,0,39.37,38.82ZM37.2,31.6c9.37-9.38,9.09-9.52,10.79-9.52a3.05,3.05,0,0,1,3.06,3.06c0,1.7-.15,1.42-9.52,10.79a3.07,3.07,0,0,1-5.23-2.17A3,3,0,0,1,37.2,31.6Z"/><path class="cls-1" d="M93.47,83.32a8.12,8.12,0,1,0,8.11,8.12A8.13,8.13,0,0,0,93.47,83.32Zm0,14.23a6.12,6.12,0,1,1,6.11-6.11A6.12,6.12,0,0,1,93.47,97.55Z"/><path class="cls-1" d="M59.94,38.61A7.1,7.1,0,1,0,67,45.71,7.11,7.11,0,0,0,59.94,38.61Zm0,12.2A5.1,5.1,0,1,1,65,45.71,5.11,5.11,0,0,1,59.94,50.81Z"/><path class="cls-1" d="M74.16,31.42a4,4,0,1,0-4-4A4,4,0,0,0,74.16,31.42Zm0-6a2,2,0,1,1-2,2A2,2,0,0,1,74.16,25.42Z"/><path class="cls-1" d="M96.52,74.1a4,4,0,1,0-4-4A4,4,0,0,0,96.52,74.1Zm0-6a2,2,0,1,1-2,2A2,2,0,0,1,96.52,68.1Z"/><path class="cls-1" d="M63.94,78.23a4,4,0,1,0-4,4A4,4,0,0,0,63.94,78.23Zm-6,0a2,2,0,1,1,2,2A2,2,0,0,1,57.94,78.23Z"/></g></svg>