<svg xmlns="http://www.w3.org/2000/svg" viewBox="0 0 128 128"><defs><style>.cls-1{fill:#47566a;}</style></defs><title>Band Aids</title><g id="Band_Aids" data-name="Band Aids"><path class="cls-1" d="M94.48,15.76a1.5,1.5,0,0,0,0,3A1.5,1.5,0,0,0,94.48,15.76Z"/><path class="cls-1" d="M102.61,23.89a1.5,1.5,0,0,0,0,3A1.5,1.5,0,0,0,102.61,23.89Z"/><path class="cls-1" d="M110.74,32a1.5,1.5,0,0,0,0,3A1.5,1.5,0,0,0,110.74,32Z"/><path class="cls-1" d="M78.23,35a1.5,1.5,0,0,0,0-3A1.5,1.5,0,0,0,78.23,35Z"/><path class="cls-1" d="M86.35,40.15a1.5,1.5,0,0,0,0,3A1.5,1.5,0,0,0,86.35,40.15Z"/><path class="cls-1" d="M94.48,48.27a1.5,1.5,0,0,0,0,3A1.5,1.5,0,0,0,94.48,48.27Z"/><path class="cls-1" d="M90.42,28a1.5,1.5,0,0,0,0,3A1.5,1.5,0,0,0,90.42,28Z"/><path class="cls-1" d="M98.55,36.08a1.5,1.5,0,0,0,0,3A1.5,1.5,0,0,0,98.55,36.08Z"/><path class="cls-1" d="M33.52,76.73a1.5,1.5,0,0,0,0,3A1.5,1.5,0,0,0,33.52,76.73Z"/><path class="cls-1" d="M41.65,84.85a1.5,1.5,0,0,0,0,3A1.5,1.5,0,0,0,41.65,84.85Z"/><path class="cls-1" d="M49.77,93a1.5,1.5,0,0,0,0,3A1.5,1.5,0,0,0,49.77,93Z"/><path class="cls-1" d="M17.26,93a1.5,1.5,0,0,0,0,3A1.5,1.5,0,0,0,17.26,93Z"/><path class="cls-1" d="M25.39,101.11a1.5,1.5,0,0,0,0,3A1.5,1.5,0,0,0,25.39,101.11Z"/><path class="cls-1" d="M33.52,109.24a1.5,1.5,0,0,0,0,3A1.5,1.5,0,0,0,33.52,109.24Z"/><path class="cls-1" d="M29.45,88.92a1.5,1.5,0,0,0,0,3A1.5,1.5,0,0,0,29.45,88.92Z"/><path class="cls-1" d="M37.58,97.05a1.5,1.5,0,0,0,0,3A1.5,1.5,0,0,0,37.58,97.05Z"/><path class="cls-1" d="M73.8,43.93a9.56,9.56,0,0,0-13.5,0L43.93,60.3a9.56,9.56,0,0,0,0,13.5L54.2,84.07a9.56,9.56,0,0,0,13.5,0L84.07,67.7a9.56,9.56,0,0,0,0-13.5Zm8.85,22.36L66.29,82.65a7.55,7.55,0,0,1-10.67,0L45.35,72.38a7.54,7.54,0,0,1,0-10.67L61.71,45.35a7.54,7.54,0,0,1,10.67,0L82.65,55.62A7.54,7.54,0,0,1,82.65,66.29Z"/><path class="cls-1" d="M120.55,84.59,100,64l20.59-20.59c16-16,4.51-43.41-18-43.41a25.27,25.27,0,0,0-18,7.45L64,28,43.41,7.45C27.53-8.43,0,2.72,0,25.43a25.52,25.52,0,0,0,7.45,18L28,64,7.45,84.59c-16,16-4.51,43.41,18,43.41a25.27,25.27,0,0,0,18-7.45L64,100l20.59,20.59a25.58,25.58,0,0,0,18,7.45C125.1,128,136.55,100.59,120.55,84.59ZM8.86,42C-5.77,27.36,4.51,2,25.43,2A23.61,23.61,0,0,1,42,8.86L62.59,29.45,29.45,62.59ZM42,119.14C27.27,133.86,2,123.3,2,102.57A23.31,23.31,0,0,1,8.86,86L86,8.86c14.73-14.72,40-4.16,40,16.57A23.31,23.31,0,0,1,119.14,42ZM102.57,126A23.61,23.61,0,0,1,86,119.14L65.41,98.55,98.55,65.41,119.14,86C133.85,100.72,123.32,126,102.57,126Z"/><path class="cls-1" d="M33.52,15.76a1.5,1.5,0,0,0,0,3A1.5,1.5,0,0,0,33.52,15.76Z"/><path class="cls-1" d="M25.39,23.89a1.5,1.5,0,0,0,0,3A1.5,1.5,0,0,0,25.39,23.89Z"/><path class="cls-1" d="M17.26,32a1.5,1.5,0,0,0,0,3A1.5,1.5,0,0,0,17.26,32Z"/><path class="cls-1" d="M49.77,32a1.5,1.5,0,0,0,0,3A1.5,1.5,0,0,0,49.77,32Z"/><path class="cls-1" d="M41.65,40.15a1.5,1.5,0,0,0,0,3A1.5,1.5,0,0,0,41.65,40.15Z"/><path class="cls-1" d="M33.52,48.27a1.5,1.5,0,0,0,0,3A1.5,1.5,0,0,0,33.52,48.27Z"/><path class="cls-1" d="M37.58,28a1.5,1.5,0,0,0,0,3A1.5,1.5,0,0,0,37.58,28Z"/><path class="cls-1" d="M29.45,36.08a1.5,1.5,0,0,0,0,3A1.5,1.5,0,0,0,29.45,36.08Z"/><path class="cls-1" d="M94.48,76.73a1.5,1.5,0,0,0,0,3A1.5,1.5,0,0,0,94.48,76.73Z"/><path class="cls-1" d="M86.35,84.85a1.5,1.5,0,0,0,0,3A1.5,1.5,0,0,0,86.35,84.85Z"/><path class="cls-1" d="M78.23,93a1.5,1.5,0,0,0,0,3A1.5,1.5,0,0,0,78.23,93Z"/><path class="cls-1" d="M110.74,93a1.5,1.5,0,0,0,0,3A1.5,1.5,0,0,0,110.74,93Z"/><path class="cls-1" d="M102.61,101.11a1.5,1.5,0,0,0,0,3A1.5,1.5,0,0,0,102.61,101.11Z"/><path class="cls-1" d="M94.48,109.24a1.5,1.5,0,0,0,0,3A1.5,1.5,0,0,0,94.48,109.24Z"/><path class="cls-1" d="M98.55,88.92a1.5,1.5,0,0,0,0,3A1.5,1.5,0,0,0,98.55,88.92Z"/><path class="cls-1" d="M90.42,97.05a1.5,1.5,0,0,0,0,3A1.5,1.5,0,0,0,90.42,97.05Z"/></g></svg>