<svg xmlns="http://www.w3.org/2000/svg" viewBox="0 0 128 128"><defs><style>.cls-1{fill:#47566a;}</style></defs><title>Blood</title><g id="Blood"><path class="cls-1" d="M64.6.2a1,1,0,0,0-1.2,0c-.49.37-49.17,37.35-49.17,78a49.77,49.77,0,0,0,99.54,0C113.77,37.55,65.09.57,64.6.2ZM64,126A47.82,47.82,0,0,1,16.23,78.23c0-37.25,42.2-71.6,47.77-76,5.57,4.37,47.77,38.72,47.77,76A47.82,47.82,0,0,1,64,126Z"/><path class="cls-1" d="M64,48.77A29.46,29.46,0,1,0,93.45,78.23,29.49,29.49,0,0,0,64,48.77Zm0,56.91A27.46,27.46,0,1,1,91.45,78.23,27.48,27.48,0,0,1,64,105.68Z"/><path class="cls-1" d="M80.26,73.16H69.06V62a1,1,0,0,0-1-1H59.94a1,1,0,0,0-1,1V73.16H47.74a1,1,0,0,0-1,1v8.13a1,1,0,0,0,1,1h11.2V94.48a1,1,0,0,0,1,1h8.12a1,1,0,0,0,1-1V83.29h11.2a1,1,0,0,0,1-1V74.16A1,1,0,0,0,80.26,73.16Zm-1,8.13H68.06a1,1,0,0,0-1,1V93.48H60.94V82.29a1,1,0,0,0-1-1H48.74V75.16h11.2a1,1,0,0,0,1-1V63h6.12V74.16a1,1,0,0,0,1,1h11.2Z"/></g></svg>