<svg xmlns="http://www.w3.org/2000/svg" viewBox="0 0 128 128"><defs><style>.cls-1{fill:#47566a;}</style></defs><title>Blood Transfusion</title><g id="Blood_Transfusion" data-name="Blood Transfusion"><path class="cls-1" d="M101.54,8.4a9.12,9.12,0,0,0-18.18,0c-14,.85-26.46,3.69-26.46,8.86V90.42c0,4,7.22,6.48,16.26,7.83v2.33a1,1,0,0,0,2,0v-2c4,.5,8.17.8,12.23.93v7.22a1,1,0,0,0,1,1h3A19.32,19.32,0,0,1,72.13,126H59.94a19.35,19.35,0,0,1-19.33-19.32V79.12a5.06,5.06,0,0,0,4.07-5V64a5.06,5.06,0,0,0-4.07-5V40.63a18.28,18.28,0,1,0-36.55,0V95.52H1a1,1,0,0,0-1,1v14.22c0,.88.64.94,4.06,2.65V127a1,1,0,0,0,2,0V113.39c3.57-1.78,4.07-1.81,4.07-2.65V96.52a1,1,0,0,0-1-1H6.06V40.63a16.28,16.28,0,1,1,32.55,0V59a5.06,5.06,0,0,0-4.06,5V74.16a5.06,5.06,0,0,0,4.06,5v27.56A21.35,21.35,0,0,0,59.94,128H72.13A21.33,21.33,0,0,0,93.4,107.68h3.12a1,1,0,0,0,1-1V99.46c4.06-.13,8.27-.43,12.22-.93v2a1,1,0,0,0,2,0V98.25C120.79,96.9,128,94.41,128,90.42V17.26C128,12.09,115.51,9.25,101.54,8.4ZM8.13,110.12l-3.07,1.54L2,110.12V97.52H8.13Zm28.42-36V64a3.07,3.07,0,0,1,6.13,0V74.16a3.07,3.07,0,1,1-6.13,0ZM92.45,2a7.15,7.15,0,0,1,7.08,6.29c-4.66-.21-9.35-.22-14.15,0A7.13,7.13,0,0,1,92.45,2ZM75.16,96.54V90.27a100.52,100.52,0,0,0,12.23,1.06v6.13C82.71,97.31,78.64,97,75.16,96.54Zm20.36,9.14H89.39V90.36c0-1.94-2.68-.27-14.23-2.12V86.35a1,1,0,0,0-2,0v1.54A48,48,0,0,1,67,86.33V30.76c27.53,7.29,23.78-12,50.84-.65V86.33a48,48,0,0,1-6.13,1.56V86.35a1,1,0,0,0-2,0v1.89c-11.55,1.85-14.22.18-14.22,2.12Zm2-8.22V91.33a100.16,100.16,0,0,0,12.22-1.06v6.27C106.26,97,102.19,97.31,97.52,97.46Zm28.48-7c0,1.85-4.52,4.34-14.26,5.83V89.93A51.41,51.41,0,0,0,119.2,88a1,1,0,0,0,.67-.94c0-61.77.34-58.12-.61-58.52-29-12.42-24.9,8-52.95,0a1,1,0,0,0-1.28,1c0,62.2-.32,58.19.67,58.54a51.41,51.41,0,0,0,7.46,1.94v6.32c-9.73-1.49-14.26-4-14.26-5.83V17.26c0-3,11.66-7.13,33.55-7.13S126,14.27,126,17.26Z"/><path class="cls-1" d="M105.65,64c0-12.52-12.05-22.7-12.56-23.12a1,1,0,0,0-1.28,0C91.3,41.3,79.26,51.48,79.26,64a13.2,13.2,0,0,0,26.39,0ZM92.45,75.19A11.2,11.2,0,0,1,81.26,64c0-10,8.73-18.74,11.19-21,2.47,2.28,11.2,11,11.2,21A11.21,11.21,0,0,1,92.45,75.19Z"/></g></svg>