<svg xmlns="http://www.w3.org/2000/svg" viewBox="0 0 128 128"><defs><style>.cls-1{fill:#47566a;}</style></defs><title>Caduceus</title><g id="Caduceus"><path class="cls-1" d="M70.1,14.23H65V9.13a1,1,0,0,0-2,0v5.1H57.9a1,1,0,0,0,0,2H63v5.09a1,1,0,0,0,2,0V16.23h5.1A1,1,0,0,0,70.1,14.23Z"/><path class="cls-1" d="M127,28.45H95.44a15.64,15.64,0,0,0-14,8.68A13.74,13.74,0,0,1,71,44.58c.17-3.7.14-1.71.14-9a7.07,7.07,0,0,0-2.89-5.7,15.23,15.23,0,1,0-8.42,0,7.07,7.07,0,0,0-2.89,5.7c0,7.37,0,5.39.14,9A13.74,13.74,0,0,1,46.6,37.13a15.64,15.64,0,0,0-14-8.68H1a1,1,0,0,0-1,1,9.15,9.15,0,0,0,8.18,9.08,9.13,9.13,0,0,0,8.13,8.13,9.13,9.13,0,0,0,9.08,8.18H57.53L58,65.26c-10.2,1.53-19.41,4.26-19.41,13,0,10.39,12.14,12.5,20.69,13.77l.38,8c-7.78,1.8-17,4.21-17,12.8,0,8,10.07,9.86,18.11,10.51l.08,1.74a3.13,3.13,0,0,0,6.26,0l.07-1.39c8.44.31,6.16.29,6.66.29a1,1,0,0,0,.35-1.94s-3-1.14-6.8-2.65l.51-11c7.72-2,15.37-5.33,15.37-13.89,0-7.33-7-9.83-14.16-11.2L69.56,74c7.15-.81,14.42-1.72,18.9-4.19a4.94,4.94,0,0,0-2.13-9.22c-3.67-.37-.42,1.3-16.28,3.14l.42-8.93h32.14a9.13,9.13,0,0,0,9.08-8.18,9.13,9.13,0,0,0,8.13-8.13A9.15,9.15,0,0,0,128,29.45,1,1,0,0,0,127,28.45ZM50.77,15.23A13.23,13.23,0,1,1,64,28.45,13.25,13.25,0,0,1,50.77,15.23ZM58.9,35.55a5.1,5.1,0,1,1,10.2,0c0,9.36-.22,10.59-2,47.39-2.36-.38-5.27-.82-6.33-1C58.6,35.24,58.9,43.68,58.9,35.55Zm-.1,46.1c-9-1.51-10.06-2.88-10.07-3.35.07-.15.92-1.4,9.77-2.83ZM25.39,52.84a7.13,7.13,0,0,1-7-6.13H39.61a1,1,0,0,0,0-2H17.26a7.13,7.13,0,0,1-7-6.13H31.48a1,1,0,0,0,0-2H9.13a7.14,7.14,0,0,1-7.06-6.13H32.56A13.63,13.63,0,0,1,44.81,38a15.77,15.77,0,0,0,12.33,8.58l.29,6.23ZM68.62,93.51a16,16,0,0,1,4.47,1.34c-.25.67-1.29,1.68-4.66,2.84Zm-3.18,25-2.93-1.22-1.19-25c1.75.25,3.57.52,5.32.84Zm-5-2.1a44.7,44.7,0,0,1-7.4-3.75c.6-.42,2.31-1.22,7.1-2.43Zm2.4,8.48-.08-1.51,2.42.13-.08,1.37A1.13,1.13,0,0,1,62.87,124.92ZM44.68,112.77c0-6.47,6.46-8.72,15.1-10.76l.29,6.21c-2.82.71-10.28,2.46-9.18,5s14.54,7.51,16.94,8.47C59.7,121.36,44.68,120.9,44.68,112.77ZM81.29,94.48c0,7-6.22,9.89-13.27,11.8l.31-6.45c3.31-1,6.83-2.6,6.83-5.35,0-2.47-10.45-3.72-13.19-4.11-9.23-1.32-21.36-2.87-21.36-12.14,0-7.16,8.28-9.56,17.51-11l.29,6.19c-10.21,1.63-11.67,3.25-11.67,4.77,0,3,5.18,4.39,13,5.6C68.84,85.14,81.29,86.15,81.29,94.48ZM84.14,63a3.29,3.29,0,0,1,4.75,2A2.78,2.78,0,0,1,87.5,68.1c-4.08,2.25-11,3.13-17.84,3.92L70,65.79C75.67,65.13,81.64,64.27,84.14,63Zm34.73-26.37H96.52a1,1,0,0,0,0,2h21.27a7.13,7.13,0,0,1-7.05,6.13H88.39a1,1,0,0,0,0,2h21.27a7.13,7.13,0,0,1-7,6.13h-32l.29-6.23A15.74,15.74,0,0,0,83.18,38a13.67,13.67,0,0,1,12.26-7.58h30.49A7.14,7.14,0,0,1,118.87,36.58Z"/></g></svg>