<svg xmlns="http://www.w3.org/2000/svg" viewBox="0 0 128 128"><defs><style>.cls-1{fill:#47566a;}</style></defs><title>Capsule</title><g id="Capsule"><path class="cls-1" d="M92.45,0H35.55a9.14,9.14,0,0,0-9.13,9.13V118.87A9.14,9.14,0,0,0,35.55,128h56.9a9.14,9.14,0,0,0,9.13-9.13V9.13A9.14,9.14,0,0,0,92.45,0Zm7.13,118.87A7.14,7.14,0,0,1,92.45,126H35.55a7.14,7.14,0,0,1-7.13-7.13V9.13A7.14,7.14,0,0,1,35.55,2h56.9a7.14,7.14,0,0,1,7.13,7.13Z"/><path class="cls-1" d="M84.67,10.16a6.68,6.68,0,0,0-4.77,2L71.07,21a6.75,6.75,0,0,0,9.55,9.55l8.82-8.83A6.75,6.75,0,0,0,84.67,10.16ZM88,20.27,79.2,29.09a4.69,4.69,0,0,1-3.36,1.39,4.75,4.75,0,0,1-3.35-8.1l8.82-8.83A4.75,4.75,0,0,1,88,20.27Z"/><path class="cls-1" d="M84.67,38.61a6.68,6.68,0,0,0-4.77,2l-8.83,8.83A6.75,6.75,0,1,0,80.62,59l8.82-8.83A6.76,6.76,0,0,0,84.67,38.61ZM88,48.72,79.2,57.54a4.7,4.7,0,0,1-3.36,1.4,4.76,4.76,0,0,1-3.35-8.11L81.31,42A4.75,4.75,0,0,1,88,48.72Z"/><path class="cls-1" d="M52.16,10.16a6.7,6.7,0,0,0-4.78,2L38.56,21a6.75,6.75,0,0,0,9.54,9.55l8.83-8.83A6.76,6.76,0,0,0,52.16,10.16Zm3.35,10.11-8.82,8.82A4.75,4.75,0,0,1,40,22.38l8.83-8.83a4.75,4.75,0,1,1,6.71,6.72Z"/><path class="cls-1" d="M52.16,38.61a6.7,6.7,0,0,0-4.78,2l-8.82,8.83A6.75,6.75,0,1,0,48.1,59l8.83-8.83A6.76,6.76,0,0,0,52.16,38.61Zm3.35,10.11-8.82,8.82A4.75,4.75,0,1,1,40,50.83L48.8,42a4.75,4.75,0,1,1,6.71,6.72Z"/><path class="cls-1" d="M84.67,67.06a6.72,6.72,0,0,0-4.77,2l-8.83,8.83a6.75,6.75,0,1,0,9.55,9.54l8.82-8.83A6.76,6.76,0,0,0,84.67,67.06ZM88,77.17,79.2,86a4.75,4.75,0,1,1-6.71-6.72l8.82-8.82A4.75,4.75,0,1,1,88,77.17Z"/><path class="cls-1" d="M84.67,95.52a6.71,6.71,0,0,0-4.77,2l-8.83,8.83a6.75,6.75,0,1,0,9.55,9.54L89.44,107A6.76,6.76,0,0,0,84.67,95.52ZM88,105.62l-8.83,8.83a4.75,4.75,0,1,1-6.71-6.72l8.82-8.82A4.75,4.75,0,0,1,88,105.62Z"/><path class="cls-1" d="M52.16,67.06a6.74,6.74,0,0,0-4.78,2l-8.82,8.83a6.76,6.76,0,0,0,4.77,11.52,6.68,6.68,0,0,0,4.77-2l8.83-8.83A6.76,6.76,0,0,0,52.16,67.06Zm3.35,10.11L46.69,86A4.75,4.75,0,0,1,40,79.28l8.83-8.82a4.7,4.7,0,0,1,3.36-1.4A4.76,4.76,0,0,1,55.51,77.17Z"/><path class="cls-1" d="M52.16,95.52a6.73,6.73,0,0,0-4.78,2l-8.82,8.83a6.75,6.75,0,0,0,4.77,11.52,6.68,6.68,0,0,0,4.77-2L56.93,107A6.76,6.76,0,0,0,52.16,95.52Zm3.35,10.1-8.82,8.83A4.75,4.75,0,0,1,40,107.73l8.83-8.82a4.69,4.69,0,0,1,3.36-1.39A4.75,4.75,0,0,1,55.51,105.62Z"/></g></svg>