<svg xmlns="http://www.w3.org/2000/svg" viewBox="0 0 128 128"><defs><style>.cls-1{fill:#47566a;}</style></defs><title>Crutches</title><g id="Crutches"><path class="cls-1" d="M49.77,0H17.26a5.07,5.07,0,0,0-5.07,5.06,9.13,9.13,0,0,0,6.1,8.6c0,43.82-1.77,43,10.16,66.83v.8h-1a1,1,0,0,0,0,2h1V94.48a5.08,5.08,0,0,0,4.07,5V118a5.08,5.08,0,0,0-4.07,5V127a1,1,0,0,0,1,1h8.13a1,1,0,0,0,1-1v-4.06a5.08,5.08,0,0,0-4.06-5V99.45a5.08,5.08,0,0,0,4.06-5V83.29h1a1,1,0,0,0,0-2c-1.75,0-1.82.78,2.8-8.46a60.21,60.21,0,0,0,6.33-27.12v-32a9.13,9.13,0,0,0,6.1-8.6A5.07,5.07,0,0,0,49.77,0Zm-3,44.71H20.29V38.58H46.74ZM36.58,122.94V126H30.45v-3.06a3.07,3.07,0,1,1,6.13,0Zm0-28.46a3.07,3.07,0,1,1-6.13,0V83.29h6.13Zm4.05-22.55c-4.64,9.28-4.05,7.67-4.05,9.36H30.45c0-1.2,0-1.22-.1-1.48-4.88-9.75-9.86-18.23-10-33.1H46.72A58.23,58.23,0,0,1,40.63,71.93Zm6.11-57.74V36.58H20.29V14.19Zm-1-2H21.32C14,12.19,11.78,2,17.26,2H49.77C55.19,2,53.09,12.19,45.71,12.19Z"/><path class="cls-1" d="M115.81,5.06A5.07,5.07,0,0,0,110.74,0H78.23a5.07,5.07,0,0,0-5.07,5.06,9.13,9.13,0,0,0,6.1,8.6V45.71a60.21,60.21,0,0,0,6.33,27.12c4.61,9.23,4.55,8.46,2.8,8.46a1,1,0,0,0,0,2h1V94.48a5.08,5.08,0,0,0,4.06,5V118a5.08,5.08,0,0,0-4.06,5V127a1,1,0,0,0,1,1h8.13a1,1,0,0,0,1-1v-4.06a5.08,5.08,0,0,0-4.07-5V99.45a5.08,5.08,0,0,0,4.07-5V83.29h1a1,1,0,0,0,0-2h-1v-.8c12-24,10.16-23.11,10.16-66.83A9.13,9.13,0,0,0,115.81,5.06Zm-8.1,39.65H81.26V38.58h26.45ZM97.55,122.94V126H91.42v-3.06a3.07,3.07,0,1,1,6.13,0Zm0-28.46a3.07,3.07,0,1,1-6.13,0V83.29h6.13Zm4-22.55c-4.64,9.28-4,7.67-4,9.36H91.42c0-1.2,0-1.22-.11-1.48-4.87-9.75-9.85-18.23-10-33.1h26.41A58.24,58.24,0,0,1,101.59,71.93Zm6.12-57.74V36.58H81.26V14.19Zm-1-2H82.29C75,12.19,72.75,2,78.23,2h32.51C116.16,2,114.06,12.19,106.68,12.19Z"/></g></svg>