<svg xmlns="http://www.w3.org/2000/svg" viewBox="0 0 128 128"><defs><style>.cls-1{fill:#47566a;}</style></defs><title>Dental</title><g id="Dental"><path class="cls-1" d="M123.94,33.52c0-22.39-11.78-34-33.4-33.5a32.8,32.8,0,0,0-5.78.43C73.57,1.87,72.19,6.1,64,6.1,54.33,6.1,53.87,0,35.55,0,23.79,0,4.06,4.35,4.06,33.52c0,16.42,16.69,33.14,14.25,44.5-6.07,28.32,1.66,50,15.21,50,15.41,0,11-46.74,30.48-46.74S79.12,128,94.48,128c3.92,0,7.51-1.88,10.38-5.43,7-8.67,8.86-25.74,4.83-44.55C107.24,66.6,123.94,50,123.94,33.52ZM107.73,78.44c5.8,27-1.32,47.56-13.25,47.56-13,0-9.36-46.74-30.48-46.74S46.5,126,33.52,126c-3.29,0-6.34-1.62-8.82-4.69-6.64-8.21-8.34-24.64-4.43-42.87C22.94,66,6.06,49.52,6.06,33.52,6.06,6.09,24.54,2,35.55,2,54.68,2,55.16,9.78,67.42,7.83A50.89,50.89,0,0,0,55,20.81a1,1,0,0,0,1.72,1C56.84,21.65,67,5.07,85.38,2.38c22.75-2.68,36.56,7.7,36.56,31.14C121.94,49.35,105.08,66.1,107.73,78.44Z"/><path class="cls-1" d="M108.71,24.39H99.55V15.23a1,1,0,0,0-1-1H90.42a1,1,0,0,0-1,1v9.16H80.26a1,1,0,0,0-1,1v8.13a1,1,0,0,0,1,1h9.16v9.16a1,1,0,0,0,1,1h8.13a1,1,0,0,0,1-1V34.52h9.16a1,1,0,0,0,1-1V25.39A1,1,0,0,0,108.71,24.39Zm-1,8.13H98.55a1,1,0,0,0-1,1v9.16H91.42V33.52a1,1,0,0,0-1-1H81.26V26.39h9.16a1,1,0,0,0,1-1V16.23h6.13v9.16a1,1,0,0,0,1,1h9.16Z"/></g></svg>