<svg xmlns="http://www.w3.org/2000/svg" viewBox="0 0 128 128"><defs><style>.cls-1{fill:#47566a;}</style></defs><title>Doctor</title><g id="Doctor"><path class="cls-1" d="M69,60.89a1,1,0,0,0-1.42-1.41,5.11,5.11,0,0,1-7.2,0A1,1,0,0,0,59,60.89,7.1,7.1,0,0,0,69,60.89Z"/><path class="cls-1" d="M50.81,41.65v2a1,1,0,0,0,2,0v-2A1,1,0,0,0,50.81,41.65Z"/><path class="cls-1" d="M75.16,43.68v-2a1,1,0,0,0-2,0v2A1,1,0,0,0,75.16,43.68Z"/><path class="cls-1" d="M109.59,101.84A29.33,29.33,0,0,0,80.26,77.23H73.13V71.42A25.44,25.44,0,0,0,89.2,50.77h1.22a7.09,7.09,0,0,0,5.06-12c0-15.94.35-17.22-1-20.45C98.26,9.37,91.18,0,81.66,0H66.85A27.91,27.91,0,0,0,45.23,10.17,13.2,13.2,0,0,0,32.52,23.35V38.72a7.09,7.09,0,0,0,5.06,12.05H38.8A25.29,25.29,0,0,0,54.87,71.44v5.79H47.46a29.35,29.35,0,0,0-29,24.61l-4.17,25a1,1,0,0,0,2,.32l4.17-25A27.34,27.34,0,0,1,41.24,80a9.12,9.12,0,0,0-2.63,6.4V99.66a7.1,7.1,0,1,0,2,0V86.35a7.14,7.14,0,0,1,6.29-7.07c4.93,29.69,3.06,18.34,8,47.88a1,1,0,0,0,1.25.79,1,1,0,0,0,1.24-.83l3.05-24.42a3.61,3.61,0,0,1,7.16,0l3,24.42a1.36,1.36,0,0,0,2.49,0c10.94-65.68,1.9-11.29,8-47.89a9.16,9.16,0,0,1,8.32,9.12v9.22a9.13,9.13,0,0,0-8.13,9.07v10.16a1,1,0,0,0,1,1h4.06a1,1,0,0,0,0-2H83.29v-9.16a7.13,7.13,0,1,1,14.26,0v9.16H94.48a1,1,0,0,0,0,2h4.07a1,1,0,0,0,1-1V106.68a9.14,9.14,0,0,0-8.13-9.07V88.39a11.14,11.14,0,0,0-3.61-8.2,27.37,27.37,0,0,1,19.81,22l4.17,25a1,1,0,0,0,2-.32Zm-64.88,4.84a5.1,5.1,0,1,1-5.1-5.1A5.1,5.1,0,0,1,44.71,106.68ZM65.63,86.14l6.91-6.91h6.54L76.86,92.55Zm-6,8.24-1.22-3.66L64,87.51l5.62,3.21L68.4,94.38A4.64,4.64,0,0,1,59.6,94.38Zm-8.46-1.83L48.92,79.23h6.54l6.91,6.91C56.82,89.3,71.16,81.11,51.14,92.55Zm32.15-66.2a13.26,13.26,0,0,0,9.87-5.69c.45,1.82.32,1.57.32,17.91A11.22,11.22,0,0,1,83.29,27.42ZM94,47.28c-1.57,1.57-3.17,1.49-4.63,1.49V39.59a13,13,0,0,0,5.1,1A5.09,5.09,0,0,1,94,47.28ZM34.52,23.35A11.2,11.2,0,0,1,45.71,12.16a1,1,0,0,0,.78-.37A26,26,0,0,1,66.85,2H81.66c6.45,0,12,5.16,11.82,11.58A11.22,11.22,0,0,1,82.29,24.39H45.71a1,1,0,0,0-1,1v2A11.22,11.22,0,0,1,34.52,38.57Zm4.09,25.42h-1a5.07,5.07,0,0,1-4-8.16,13.15,13.15,0,0,0,5.07-1Zm2-1V38.52a13.17,13.17,0,0,0,6.1-11.1v-1H81.29v1a13.17,13.17,0,0,0,6.1,11.1v9.22a23.39,23.39,0,0,1-46.78,0ZM71.13,72.11v5.7L64,84.94l-7.13-7.13V72.12A25.7,25.7,0,0,0,71.13,72.11ZM58.44,102.45,56,121.81,51.49,94.66l5.12-2.93c1,3.1,1.41,5.38,4.09,6.92A5.51,5.51,0,0,0,58.44,102.45ZM72,121.81l-2.42-19.36a5.51,5.51,0,0,0-2.26-3.8c2.67-1.54,3-3.76,4.09-6.92l5.12,2.93Z"/></g></svg>