<svg xmlns="http://www.w3.org/2000/svg" viewBox="0 0 128 128"><defs><style>.cls-1{fill:#47566a;}</style></defs><title>Droper</title><g id="Droper"><path class="cls-1" d="M67.27,64.82l-9.12-6.51c-1.61-1.16-1.28-2.35-1.28-7.54h3.07a1,1,0,0,0,1-1V33.52a1,1,0,0,0-1-1H56.81a9.14,9.14,0,0,0-8.07-8.08V9.13a9.13,9.13,0,0,0-18.26,0V24.44a9.16,9.16,0,0,0-8.07,8.08H19.29a1,1,0,0,0-1,1V49.77a1,1,0,0,0,1,1h3.06c0,4.79.42,6.32-1.28,7.54L12,64.82a9.16,9.16,0,0,0-3.82,7.43v50.69A5.07,5.07,0,0,0,13.19,128H66a5.07,5.07,0,0,0,5.07-5.06V72.25A9.14,9.14,0,0,0,67.27,64.82ZM32.48,9.13a7.13,7.13,0,1,1,14.26,0V24.39H32.48Zm-1,17.26H47.74a7.14,7.14,0,0,1,7.06,6.13H24.42A7.14,7.14,0,0,1,31.48,26.39ZM20.29,34.52H58.94V48.77H20.29ZM69.1,113.81h-59V75.16h59ZM66,126H13.19a3.06,3.06,0,0,1-3.06-3.06v-7.13h59v7.13A3.07,3.07,0,0,1,66,126ZM69.1,73.16h-59v-.91a7.15,7.15,0,0,1,3-5.8l9.12-6.52a5.07,5.07,0,0,0,2.12-4.12v-5H54.87v5A5.07,5.07,0,0,0,57,59.93l9.12,6.52a7.13,7.13,0,0,1,3,5.8Z"/><path class="cls-1" d="M114.81,36.58h-1V11.16a11.16,11.16,0,1,0-22.32,0V36.58h-1a5.07,5.07,0,1,0,0,10.13h3.06v62c0,.28-.3-.56,4.07,10.35v3.88a1,1,0,0,0,.55.89c9,4.47,8.24,4.17,8.58,4.17a1,1,0,0,0,1-1v-7.94l4-10c.11-.27.07,4.23.07-62.37h3.07a5.07,5.07,0,0,0,0-10.13ZM93.45,11.16a9.16,9.16,0,1,1,18.32,0V36.58H93.45Zm16.29,47.78h-3.06a1,1,0,0,0,0,2h3.06V69.1h-7.13a1,1,0,0,0,0,2h7.13v8.16h-3.06a1,1,0,0,0,0,2h3.06v8.16h-7.13a1,1,0,0,0,0,2h7.13v8.16h-3.06a1,1,0,0,0,0,2h3.06v6.94l-4,10c-.1.26-.07-.21-.07,6.88l-6.13-3.06v-3.45c0-.28.3.56-4.07-10.35V46.71h14.26Zm5.07-14.23H90.42a3.07,3.07,0,1,1,0-6.13h24.39a3.07,3.07,0,0,1,0,6.13Z"/><path class="cls-1" d="M39.61,107.68a9.14,9.14,0,0,0,9.13-9.13c0-6.44-8.08-14.59-8.42-14.93a1,1,0,0,0-1.41,0c-.35.34-8.43,8.49-8.43,14.93A9.15,9.15,0,0,0,39.61,107.68Zm0-21.9c1.93,2.09,7.13,8.18,7.13,12.77a7.13,7.13,0,1,1-14.26,0C32.48,94,37.69,87.87,39.61,85.78Z"/><path class="cls-1" d="M44.68,43.68V39.61a1,1,0,0,0-2,0v4.07A1,1,0,0,0,44.68,43.68Z"/><path class="cls-1" d="M52.81,43.68V39.61a1,1,0,0,0-2,0v4.07A1,1,0,0,0,52.81,43.68Z"/><path class="cls-1" d="M36.55,43.68V39.61a1,1,0,0,0-2,0v4.07A1,1,0,0,0,36.55,43.68Z"/><path class="cls-1" d="M28.42,43.68V39.61a1,1,0,0,0-2,0v4.07A1,1,0,0,0,28.42,43.68Z"/></g></svg>