<svg xmlns="http://www.w3.org/2000/svg" viewBox="0 0 128 128"><defs><style>.cls-1{fill:#47566a;}</style></defs><title>Emergency Call</title><g id="Emergency_Call" data-name="Emergency Call"><path class="cls-1" d="M83.5,87.61a5.06,5.06,0,0,0-7.16,0L62,102C55.23,108.71,19.32,72.73,26,66L40.39,51.66a5.06,5.06,0,0,0,0-7.16L20.28,24.38a5.07,5.07,0,0,0-7.17,0L4.49,33C-5.95,43.45,2.1,78,26.05,102c23.49,23.49,58.29,32.22,69,21.56l8.62-8.62a5.07,5.07,0,0,0,0-7.17Zm-69-61.82a3.07,3.07,0,0,1,4.33,0c21.69,21.69,21,20.51,21,22.29s-1,2.22-4.72,6L10.71,29.61Zm79.06,96.3c-8.92,8.92-41.41,3.17-66.13-21.55-25-25-30.32-57.36-21.55-66.13L9.29,31,33.74,55.48l-9.13,9.13c-3.92,3.92,1.16,14.07,12.93,25.85s21.93,16.85,25.85,12.93l9.13-9.13L97,118.71Zm4.8-4.8L73.93,92.84,77.76,89a3.13,3.13,0,0,1,4.33,0c21.73,21.73,21,20.51,21,22.29S102.25,113.43,98.39,117.29Z"/><path class="cls-1" d="M90.42,0C56.29,0,39.73,42.36,65.22,65.43c-8.47,8.47-8.6,8.25-8.24,9.11s-1.93.62,33.44.62A37.58,37.58,0,0,0,90.42,0Zm0,73.16H60.32l7.07-7.07a1,1,0,0,0-.06-1.47,35.55,35.55,0,1,1,23.09,8.54Z"/><path class="cls-1" d="M90.42,12.19a25.39,25.39,0,1,0,25.39,25.39A25.42,25.42,0,0,0,90.42,12.19Zm0,48.78a23.39,23.39,0,1,1,23.39-23.39A23.41,23.41,0,0,1,90.42,61Z"/><path class="cls-1" d="M104.65,32.52H95.48V23.35a1,1,0,0,0-1-1H86.35a1,1,0,0,0-1,1v9.17H76.19a1,1,0,0,0-1,1v8.13a1,1,0,0,0,1,1h9.16v9.16a1,1,0,0,0,1,1h8.13a1,1,0,0,0,1-1V42.65h9.17a1,1,0,0,0,1-1V33.52A1,1,0,0,0,104.65,32.52Zm-1,8.13H94.48a1,1,0,0,0-1,1v9.16H87.35V41.65a1,1,0,0,0-1-1H77.19V34.52h9.16a1,1,0,0,0,1-1V24.35h6.13v9.17a1,1,0,0,0,1,1h9.17Z"/></g></svg>