<svg xmlns="http://www.w3.org/2000/svg" viewBox="0 0 128 128"><defs><style>.cls-1{fill:#47566a;}</style></defs><title>Healthy Insurance</title><g id="Healthy_Insurance" data-name="Healthy Insurance"><path class="cls-1" d="M116.84,8.13C99.33,8.13,83.09,6.31,64.32.05,62.13-.68,47.19,8.13,11.16,8.13a1,1,0,0,0-1,1V55.46A75.48,75.48,0,0,0,63.71,128a1.14,1.14,0,0,0,.58,0,75.48,75.48,0,0,0,53.55-72.5V9.13A1,1,0,0,0,116.84,8.13Zm-1,47.33A73.47,73.47,0,0,1,64,126,73.47,73.47,0,0,1,12.16,55.46V10.13A159.36,159.36,0,0,0,64,2.05a159.28,159.28,0,0,0,51.84,8.08Z"/><path class="cls-1" d="M106.72,18.13c-26.25-1.15-41.86-7.77-43-7.41a167.13,167.13,0,0,1-42.42,7.41,1,1,0,0,0-1,1V55.46a65,65,0,0,0,43.34,61.77,1,1,0,0,0,.68,0,65,65,0,0,0,43.34-61.77V19.13A1,1,0,0,0,106.72,18.13Zm-1,37.33A63,63,0,0,1,64,115.23,63,63,0,0,1,22.32,55.46V20.08A169.21,169.21,0,0,0,64,12.72a169.29,169.29,0,0,0,41.68,7.36Z"/><path class="cls-1" d="M38.61,57.9A25.39,25.39,0,1,0,64,32.52,25.42,25.42,0,0,0,38.61,57.9Zm48.78,0A23.39,23.39,0,1,1,64,34.52,23.41,23.41,0,0,1,87.39,57.9Z"/><path class="cls-1" d="M58.94,43.68v9.16H49.77a1,1,0,0,0-1,1V62a1,1,0,0,0,1,1h9.17v9.16a1,1,0,0,0,1,1h8.12a1,1,0,0,0,1-1V63h9.17a1,1,0,0,0,1-1V53.84a1,1,0,0,0-1-1H69.06V43.68a1,1,0,0,0-1-1H59.94A1,1,0,0,0,58.94,43.68Zm2,10.16V44.68h6.12v9.16a1,1,0,0,0,1,1h9.17V61H68.06a1,1,0,0,0-1,1v9.16H60.94V62a1,1,0,0,0-1-1H50.77V54.84h9.17A1,1,0,0,0,60.94,53.84Z"/></g></svg>