<svg xmlns="http://www.w3.org/2000/svg" viewBox="0 0 128 128"><defs><style>.cls-1{fill:#47566a;}</style></defs><title>Hospital</title><g id="Hospital"><path class="cls-1" d="M57.9,16.23H63v5.09a1,1,0,0,0,2,0V16.23h5.1a1,1,0,0,0,0-2H65V9.13a1,1,0,0,0-2,0v5.1H57.9A1,1,0,0,0,57.9,16.23Z"/><path class="cls-1" d="M57.9,52.81H70.1a1,1,0,0,0,1-1V39.61a1,1,0,0,0-1-1H57.9a1,1,0,0,0-1,1v12.2A1,1,0,0,0,57.9,52.81Zm1-12.2H69.1v10.2H58.9Z"/><path class="cls-1" d="M80.26,52.81H92.45a1,1,0,0,0,1-1V39.61a1,1,0,0,0-1-1H80.26a1,1,0,0,0-1,1v12.2A1,1,0,0,0,80.26,52.81Zm1-12.2H91.45v10.2H81.26Z"/><path class="cls-1" d="M35.55,52.81H47.74a1,1,0,0,0,1-1V39.61a1,1,0,0,0-1-1H35.55a1,1,0,0,0-1,1v12.2A1,1,0,0,0,35.55,52.81Zm1-12.2H46.74v10.2H36.55Z"/><path class="cls-1" d="M57.9,75.16H70.1a1,1,0,0,0,1-1V62a1,1,0,0,0-1-1H57.9a1,1,0,0,0-1,1V74.16A1,1,0,0,0,57.9,75.16ZM58.9,63H69.1V73.16H58.9Z"/><path class="cls-1" d="M80.26,75.16H92.45a1,1,0,0,0,1-1V62a1,1,0,0,0-1-1H80.26a1,1,0,0,0-1,1V74.16A1,1,0,0,0,80.26,75.16Zm1-12.19H91.45V73.16H81.26Z"/><path class="cls-1" d="M35.55,75.16H47.74a1,1,0,0,0,1-1V62a1,1,0,0,0-1-1H35.55a1,1,0,0,0-1,1V74.16A1,1,0,0,0,35.55,75.16Zm1-12.19H46.74V73.16H36.55Z"/><path class="cls-1" d="M127,40.65H103.61V26.39h3.07a1,1,0,0,0,1-1V17.26a1,1,0,0,0-1-1H81.26V1a1,1,0,0,0-1-1H47.74a1,1,0,0,0-1,1V16.26H21.32a1,1,0,0,0-1,1v8.13a1,1,0,0,0,1,1h3.07V40.65H1a1,1,0,0,0-1,1V127a1,1,0,0,0,1,1H127a1,1,0,0,0,1-1V41.65A1,1,0,0,0,127,40.65ZM105.68,18.26v6.13H81.26V18.26ZM48.74,2H79.26V28.45H48.74ZM22.32,18.26H46.74v6.13H22.32Zm24.42,8.13v3.06a1,1,0,0,0,1,1H80.26a1,1,0,0,0,1-1V26.39h20.35v91.48H81.26V93.45h3.06a1,1,0,0,0,1-1V84.32a1,1,0,0,0-1-1H43.68a1,1,0,0,0-1,1v8.13a1,1,0,0,0,1,1h3.06v24.42H26.39V26.39Zm2,91.48V93.45H63v24.42ZM44.68,91.45V85.32H83.32v6.13Zm20.32,2H79.26v24.42H65ZM2,42.65H24.39v75.22H17.26a1,1,0,0,0-1,1V126H2ZM18.26,126v-6.13h91.48V126ZM126,126H111.74v-7.13a1,1,0,0,0-1-1h-7.13V42.65H126Z"/><path class="cls-1" d="M110.74,60.94h8.13a1,1,0,0,0,1-1V51.81a1,1,0,0,0-1-1h-8.13a1,1,0,0,0-1,1v8.13A1,1,0,0,0,110.74,60.94Zm1-8.13h6.13v6.13h-6.13Z"/><path class="cls-1" d="M110.74,79.23h8.13a1,1,0,0,0,1-1V70.1a1,1,0,0,0-1-1h-8.13a1,1,0,0,0-1,1v8.13A1,1,0,0,0,110.74,79.23Zm1-8.13h6.13v6.13h-6.13Z"/><path class="cls-1" d="M110.74,97.52h8.13a1,1,0,0,0,1-1V88.39a1,1,0,0,0-1-1h-8.13a1,1,0,0,0-1,1v8.13A1,1,0,0,0,110.74,97.52Zm1-8.13h6.13v6.13h-6.13Z"/><path class="cls-1" d="M9.13,60.94h8.13a1,1,0,0,0,1-1V51.81a1,1,0,0,0-1-1H9.13a1,1,0,0,0-1,1v8.13A1,1,0,0,0,9.13,60.94Zm1-8.13h6.13v6.13H10.13Z"/><path class="cls-1" d="M9.13,79.23h8.13a1,1,0,0,0,1-1V70.1a1,1,0,0,0-1-1H9.13a1,1,0,0,0-1,1v8.13A1,1,0,0,0,9.13,79.23Zm1-8.13h6.13v6.13H10.13Z"/><path class="cls-1" d="M17.26,97.52a1,1,0,0,0,1-1V88.39a1,1,0,0,0-1-1H9.13a1,1,0,0,0-1,1v8.13a1,1,0,0,0,1,1Zm-7.13-8.13h6.13v6.13H10.13Z"/></g></svg>