<svg xmlns="http://www.w3.org/2000/svg" viewBox="0 0 128 128"><defs><style>.cls-1{fill:#47566a;}</style></defs><title>Infusion</title><g id="Infusion"><path class="cls-1" d="M127,99.58h-3.06V1a1,1,0,0,0-1-1H78.23a1,1,0,0,0-1,1A3.07,3.07,0,0,1,71.1,1a1,1,0,0,0-1-1C68,0,69.17,5.16,73.16,6v4.28a7.12,7.12,0,0,0-6,6H53.84a1,1,0,0,0-1,1V66c0,3.81,7.18,5.94,14.22,6.72v5.48a1,1,0,0,0,1,1h5.1v8.26a5.06,5.06,0,0,0-4.06,5v8.13a5.06,5.06,0,0,0,4.06,5v4.19a16.28,16.28,0,0,1-32.55,0V40.63a18.28,18.28,0,1,0-36.55,0V95.52H1a1,1,0,0,0-1,1c0,15.42-.23,14.73.55,15.12l3.51,1.75V127a1,1,0,0,0,2,0V113.39l3.52-1.75c.79-.4.55,0,.55-15.12a1,1,0,0,0-1-1H6.06V40.63a16.28,16.28,0,1,1,32.55,0v69.1a18.28,18.28,0,0,0,36.55,0v-4.19a5.06,5.06,0,0,0,4.07-5V92.45a5.06,5.06,0,0,0-4.07-5V79.23h5.1a1,1,0,0,0,1-1V72.75a47.19,47.19,0,0,0,6.13-1.06v2.47a1,1,0,0,0,2,0v-3C92.93,70,95.48,68.3,95.48,66V17.26a1,1,0,0,0-1-1H81.19a7.1,7.1,0,0,0-6-6V6a5.08,5.08,0,0,0,4-4h42.81V99.58h-3.07a1,1,0,0,0-1,1V127a1,1,0,0,0,2,0V101.58H126V127a1,1,0,0,0,2,0V100.58A1,1,0,0,0,127,99.58ZM8.13,110.12l-3.07,1.54L2,110.12V97.52H8.13Zm69.1-17.67v8.13a3.07,3.07,0,1,1-6.13,0V92.45a3.07,3.07,0,0,1,6.13,0Zm2-75.19a1,1,0,0,0,1,1H93.48V30.48H86.35a1,1,0,0,0,0,2h7.13v6.13H88.39a1,1,0,0,0,0,2h5.09v6.13H86.35a1,1,0,0,0,0,2h7.13v6.13H88.39a1,1,0,0,0,0,2h5.09V66c0,.84-1.31,2-4.09,3v-1a1,1,0,0,0-2,0v1.57c-9.48,2.53-8.13-1.36-8.13,7.6H69.06V71.85a1,1,0,0,0-.9-1C59,70,54.84,67.51,54.84,66V18.26H68.06a1,1,0,0,0,1-1,5.1,5.1,0,0,1,10.2,0Z"/></g></svg>