<svg xmlns="http://www.w3.org/2000/svg" viewBox="0 0 128 128"><defs><style>.cls-1{fill:#47566a;}</style></defs><title>Masker</title><g id="Masker"><path class="cls-1" d="M128,55.87c0-8.17-2.12-13.47-6.29-15.77-6.53-3.58-15.64,1.55-17.33,2.57C86.8,42.5,80.49,26.42,64,26.42S41.26,42.5,23.63,42.67c-1.69-1-10.81-6.15-17.34-2.57C2.12,42.4,0,47.7,0,55.87c0,27.5,15.63,31.41,31.07,31.48,3.86,3.85,14.7,14.23,32.93,14.23S93.07,91.2,96.93,87.35C112.37,87.28,128,83.37,128,55.87ZM64,28.42c15.81,0,22,16.26,40.65,16.26,2.08,0,2.07,4.7,2,6.78a3.13,3.13,0,0,0-2-.65c-17.74,0-24.1-16.26-40.65-16.26S41.19,50.81,23.35,50.81a3.13,3.13,0,0,0-2,.65c-.11-2.08-.12-6.78,2-6.78C42,44.68,48.2,28.42,64,28.42ZM2,55.87C2,41.1,9.33,37.55,21.11,43.57,15.36,49.08,24.66,78,29.43,85.33,12.88,84.93,2,79.38,2,55.87ZM32.19,85.65c-4.81-4.81-9.54-23.4-10.5-30.87.52-2,1.34-2,1.66-2C42,52.81,48.2,36.55,64,36.55s22,16.26,40.65,16.26c.32,0,1.14,0,1.66,2-1.4,10.93-6.71,27.08-10.5,30.87C87,94.47,77.05,99.58,64,99.58,48,99.58,38.17,91.63,32.19,85.65Zm66.38-.32c5-7.61,14-36.35,8.32-41.76,11.77-6,19.11-2.48,19.11,12.3C126,79.38,115.12,84.93,98.57,85.33Z"/><path class="cls-1" d="M92.45,58.94c-5.68,0-14.06-8.13-28.45-8.13s-22.81,8.13-28.45,8.13a1,1,0,0,0,0,2C42,60.94,50,52.81,64,52.81s22,8.13,28.45,8.13A1,1,0,0,0,92.45,58.94Z"/><path class="cls-1" d="M90.66,71.16C90,71,74.17,67.06,64,67.06S38,71,37.34,71.16a1,1,0,0,0,.48,1.94c.16,0,16.26-4,26.18-4s26,4,26.18,4A1,1,0,0,0,90.66,71.16Z"/><path class="cls-1" d="M86.21,83.33c-18,2.63-26.4,2.63-44.42,0a1,1,0,0,0-.29,2c17.85,2.65,27.12,2.66,45,0A1,1,0,0,0,86.21,83.33Z"/></g></svg>