<svg xmlns="http://www.w3.org/2000/svg" viewBox="0 0 128 128"><defs><style>.cls-1{fill:#47566a;}</style></defs><title>Medical History</title><g id="Medical_History" data-name="Medical History"><path class="cls-1" d="M127,40.65h-7.13V9.13a1,1,0,0,0-1-1H105.65V1a1,1,0,0,0-1-1H7.1a1,1,0,0,0-1,1V50.81H1a1,1,0,0,0-1,1v67.06A9.14,9.14,0,0,0,9.13,128H118.87a9.13,9.13,0,0,0,9.13-9.13V41.65A1,1,0,0,0,127,40.65Zm-9.13-30.52V117.87h-6.13v-60a1,1,0,0,0-1-1h-5.09V10.13ZM8.1,2h95.55V56.9H42.06l-5.8-5.8c-.43-.42,1.73-.29-28.16-.29ZM113.17,126H9.13A7.14,7.14,0,0,1,2,118.87V52.81H35.13c6.34,6.33,5.87,5.91,6.13,6s-4.35.07,68.48.07v60A9.22,9.22,0,0,0,113.17,126ZM126,118.87a7.12,7.12,0,0,1-14.18,1h7.05a1,1,0,0,0,1-1V42.65H126Z"/><path class="cls-1" d="M55.87,67.06A25.39,25.39,0,1,0,81.26,92.45,25.42,25.42,0,0,0,55.87,67.06Zm0,48.78A23.39,23.39,0,1,1,79.26,92.45,23.42,23.42,0,0,1,55.87,115.84Z"/><path class="cls-1" d="M70.1,87.39H60.94V78.23a1,1,0,0,0-1-1H51.81a1,1,0,0,0-1,1v9.16H41.65a1,1,0,0,0-1,1v8.13a1,1,0,0,0,1,1h9.16v9.16a1,1,0,0,0,1,1h8.13a1,1,0,0,0,1-1V97.52H70.1a1,1,0,0,0,1-1V88.39A1,1,0,0,0,70.1,87.39Zm-1,8.13H59.94a1,1,0,0,0-1,1v9.16H52.81V96.52a1,1,0,0,0-1-1H42.65V89.39h9.16a1,1,0,0,0,1-1V79.23h6.13v9.16a1,1,0,0,0,1,1H69.1Z"/><path class="cls-1" d="M44.71,40.56c12.14-10.35,4.85-30.4-11.19-30.4s-23.37,20-11.19,30.41a17.34,17.34,0,0,0,12.71,4A16.69,16.69,0,0,0,44.71,40.56ZM33.52,12.16C47,12.16,53.77,28.37,44.5,38l-.31-.93a11.18,11.18,0,0,0-6.7-7,6.91,6.91,0,0,0,2.94-5.65V23A6.92,6.92,0,1,0,26.6,23v1.47a6.94,6.94,0,0,0,2.94,5.65,11.19,11.19,0,0,0-6.7,7l-.31.94C13.26,28.37,20.05,12.16,33.52,12.16ZM28.6,24.46V23a4.92,4.92,0,1,1,9.83,0v1.47a4.92,4.92,0,1,1-9.83,0Zm-4.45,15,.59-1.75a9.26,9.26,0,0,1,17.55,0l.59,1.75A15.2,15.2,0,0,1,24.15,39.45Z"/><path class="cls-1" d="M59.94,22.32H92.45a1,1,0,0,0,1-1V13.19a1,1,0,0,0-1-1H59.94a1,1,0,0,0-1,1v8.13A1,1,0,0,0,59.94,22.32Zm1-8.13H91.45v6.13H60.94Z"/><path class="cls-1" d="M59.94,32.48H66a1,1,0,0,0,0-2H59.94A1,1,0,0,0,59.94,32.48Z"/><path class="cls-1" d="M92.45,30.48H74.16a1,1,0,0,0,0,2H92.45A1,1,0,0,0,92.45,30.48Z"/><path class="cls-1" d="M59.94,40.61H66a1,1,0,0,0,0-2H59.94A1,1,0,0,0,59.94,40.61Z"/><path class="cls-1" d="M92.45,38.61H74.16a1,1,0,0,0,0,2H92.45A1,1,0,0,0,92.45,38.61Z"/><path class="cls-1" d="M59.94,48.74H66a1,1,0,0,0,0-2H59.94A1,1,0,0,0,59.94,48.74Z"/><path class="cls-1" d="M92.45,46.74H74.16a1,1,0,0,0,0,2H92.45A1,1,0,0,0,92.45,46.74Z"/></g></svg>