<svg xmlns="http://www.w3.org/2000/svg" viewBox="0 0 128 128"><defs><style>.cls-1{fill:#47566a;}</style></defs><title>Medical Report</title><g id="Medical_Report" data-name="Medical Report"><path class="cls-1" d="M102.61,4.06h-18A7.11,7.11,0,0,0,78.23,0H49.77a7.11,7.11,0,0,0-6.4,4.06h-18a9.14,9.14,0,0,0-9.13,9.13V118.87A9.14,9.14,0,0,0,25.39,128h77.22a9.14,9.14,0,0,0,9.13-9.13V13.19A9.14,9.14,0,0,0,102.61,4.06ZM49.77,2H78.23a5.1,5.1,0,0,1,0,10.19H49.77A5.1,5.1,0,0,1,49.77,2ZM79.26,14.19v5.1a3.07,3.07,0,0,1-3.07,3.06H71A2.89,2.89,0,0,1,68.46,21a5.06,5.06,0,0,0-8.92,0A2.89,2.89,0,0,1,57,22.35H51.81a3.07,3.07,0,0,1-3.07-3.06v-5.1ZM51.81,24.35H57a4.84,4.84,0,0,0,4.33-2.44,3.06,3.06,0,0,1,5.4,0A4.84,4.84,0,0,0,71,24.35h5.16a5.07,5.07,0,0,0,5.07-5.06v-5.1H99.58V115.84H28.42V14.19H46.74v5.1A5.07,5.07,0,0,0,51.81,24.35Zm57.93,94.52a7.14,7.14,0,0,1-7.13,7.13H25.39a7.14,7.14,0,0,1-7.13-7.13V13.19a7.14,7.14,0,0,1,7.13-7.13H42.76a7,7,0,0,0,2.09,6.13H27.42a1,1,0,0,0-1,1V116.84a1,1,0,0,0,1,1h73.16a1,1,0,0,0,1-1V13.19a1,1,0,0,0-1-1H83.15a7,7,0,0,0,2.09-6.13h17.37a7.14,7.14,0,0,1,7.13,7.13Z"/><path class="cls-1" d="M51.81,8.6a1.5,1.5,0,0,0,0-3A1.5,1.5,0,0,0,51.81,8.6Z"/><path class="cls-1" d="M76.19,8.6a1.5,1.5,0,0,0,0-3A1.5,1.5,0,0,0,76.19,8.6Z"/><path class="cls-1" d="M88.39,83.32H39.61a1,1,0,0,0,0,2H88.39A1,1,0,0,0,88.39,83.32Z"/><path class="cls-1" d="M88.39,93.48H39.61a1,1,0,0,0,0,2H88.39A1,1,0,0,0,88.39,93.48Z"/><path class="cls-1" d="M78.23,103.65H39.61a1,1,0,0,0,0,2H78.23A1,1,0,0,0,78.23,103.65Z"/><path class="cls-1" d="M43.7,52.84H39.61a1,1,0,0,0,0,2h5c5,9.72,18.21,17.73,18.9,18.15a1,1,0,0,0,1,0c.69-.42,13.88-8.43,18.9-18.15h5a1,1,0,0,0,0-2H84.3c5.36-14-11.28-24.65-20.3-14C55,28.22,38.32,38.83,43.7,52.84ZM64,71c-2.41-1.53-12.6-8.3-17.13-16.11H57.29C61.43,63.14,61.14,63,62,63a1,1,0,0,0,1-.76l3.41-13.64,2.85,5.72c.39.77.24.55,11.93.55C76.6,62.65,66.41,69.42,64,71Zm-.82-29.89a1,1,0,0,0,1.64,0C72.1,30.5,87.75,40,82.15,52.84H70.71c-4-8.11-3.85-8.23-4.79-8.12s-.64-.12-4.27,14.38c-3.07-6.15-2.92-6.26-3.75-6.26h-12C40.24,40,55.93,30.55,63.18,41.06Z"/></g></svg>