<svg xmlns="http://www.w3.org/2000/svg" viewBox="0 0 128 128"><defs><style>.cls-1{fill:#47566a;}</style></defs><title>Medicine</title><g id="Medicine"><path class="cls-1" d="M51.81,81.29H44.68V74.16a1,1,0,0,0-2,0v7.13H35.55a1,1,0,0,0,0,2h7.13v7.13a1,1,0,0,0,2,0V83.29h7.13A1,1,0,0,0,51.81,81.29Z"/><path class="cls-1" d="M43.68,65A17.26,17.26,0,1,0,60.94,82.29,17.28,17.28,0,0,0,43.68,65Zm0,32.52A15.26,15.26,0,1,1,58.94,82.29,15.28,15.28,0,0,1,43.68,97.55Z"/><path class="cls-1" d="M115,98.32a9.64,9.64,0,0,0-13.6,0l-3.92,3.92A13.19,13.19,0,0,0,77.19,91.53V47.27A17.23,17.23,0,0,0,65.39,30.9L58.9,28.73V18.26H62a1,1,0,0,0,1-1V1a1,1,0,0,0-1-1H25.39a1,1,0,0,0-1,1V17.26a1,1,0,0,0,1,1h3.06V28.73L22,30.9a17.23,17.23,0,0,0-11.8,16.37v75.67A5.07,5.07,0,0,0,15.23,128h56.9a5.07,5.07,0,0,0,5.06-5.06V113.7a13.12,13.12,0,0,0,7.13,2.11c2.38,0,1-.76,1,2.57a9.65,9.65,0,0,0,16.43,6.81L115,111.94A9.65,9.65,0,0,0,115,98.32ZM71.5,105.68H12.16V58.9h63V93.11A13.13,13.13,0,0,0,71.5,105.68ZM26.39,2H61V16.26H26.39Zm-3.8,30.8,7.18-2.4a1,1,0,0,0,.68-.95V18.26H56.9V29.45a1,1,0,0,0,.69.95l7.17,2.4A15.24,15.24,0,0,1,75.19,47.27V56.9h-63V47.27A15.24,15.24,0,0,1,22.59,32.8Zm52.6,90.14A3.06,3.06,0,0,1,72.13,126H15.23a3.07,3.07,0,0,1-3.07-3.06V107.68h60a13.54,13.54,0,0,0,3,4.44Zm-2.06-20.33A11.2,11.2,0,1,1,87,113.47C81.18,115.46,73.13,110.48,73.13,102.61Zm27.23,21.16c-5.84,5.85-15.79-.67-12.33-8.5A13.26,13.26,0,0,0,96.38,108l9.9,9.9Zm13.25-13.25-5.92,5.92L97.1,105.85c.17-.67-.48.1,5.73-6.11a7.62,7.62,0,0,1,10.78,10.78Z"/><path class="cls-1" d="M89.71,95.81,77.52,108a1,1,0,0,0,.71,1.71c.6,0-.18.59,12.9-12.49A1,1,0,0,0,89.71,95.81Z"/></g></svg>