<svg xmlns="http://www.w3.org/2000/svg" viewBox="0 0 128 128"><defs><style>.cls-1{fill:#47566a;}</style></defs><title>Medical Kit</title><g id="Medical_Kit" data-name="Medical Kit"><path class="cls-1" d="M118.87,24.39H97.34L94.63,10.85a8.46,8.46,0,0,0-7.37-6.73,5.07,5.07,0,0,0-5-4.12H45.71a5.07,5.07,0,0,0-5,4.12,8.46,8.46,0,0,0-7.37,6.73L30.66,24.39H9.13A9.14,9.14,0,0,0,0,33.52V49.77a1,1,0,0,0,1,1H4.06v68.1A9.15,9.15,0,0,0,13.19,128H114.81a9.15,9.15,0,0,0,9.13-9.13V50.77H127a1,1,0,0,0,1-1V33.52A9.14,9.14,0,0,0,118.87,24.39ZM45.71,2H82.29a3.07,3.07,0,0,1,0,6.13H45.71a3.07,3.07,0,0,1,0-6.13ZM35.33,11.24a6.44,6.44,0,0,1,5.44-5.1,5.06,5.06,0,0,0,4.94,4H82.29a5.06,5.06,0,0,0,4.94-4,6.44,6.44,0,0,1,5.44,5.1L95.3,24.39H32.7Zm86.61,107.63a7.14,7.14,0,0,1-7.13,7.13H13.19a7.14,7.14,0,0,1-7.13-7.13V50.77H20.32v3.07a1,1,0,0,0,1,1h1V66a9.13,9.13,0,0,0,18.26,0V54.84h1a1,1,0,0,0,1-1V50.77h42.7v3.07a1,1,0,0,0,1,1h1V66a9.13,9.13,0,0,0,18.26,0V54.84h1a1,1,0,0,0,1-1V50.77h14.26Zm-81.29-66H22.32V46.71H40.65Zm-16.3,2H38.61V66a7.13,7.13,0,0,1-14.26,0Zm81.33-2H87.35V46.71h18.33Zm-16.29,2h14.26V66a7.13,7.13,0,1,1-14.26,0ZM126,48.77H107.68V45.71a1,1,0,0,0-1-1H86.35a1,1,0,0,0-1,1v3.06H42.65V45.71a1,1,0,0,0-1-1H21.32a1,1,0,0,0-1,1v3.06H2V33.52a7.14,7.14,0,0,1,7.13-7.13H118.87A7.14,7.14,0,0,1,126,33.52Z"/><path class="cls-1" d="M64,67.06A25.39,25.39,0,1,0,89.39,92.45,25.42,25.42,0,0,0,64,67.06Zm0,48.78A23.39,23.39,0,1,1,87.39,92.45,23.41,23.41,0,0,1,64,115.84Z"/><path class="cls-1" d="M78.23,87.39H69.06V78.23a1,1,0,0,0-1-1H59.94a1,1,0,0,0-1,1v9.16H49.77a1,1,0,0,0-1,1v8.13a1,1,0,0,0,1,1h9.17v9.16a1,1,0,0,0,1,1h8.12a1,1,0,0,0,1-1V97.52h9.17a1,1,0,0,0,1-1V88.39A1,1,0,0,0,78.23,87.39Zm-1,8.13H68.06a1,1,0,0,0-1,1v9.16H60.94V96.52a1,1,0,0,0-1-1H50.77V89.39h9.17a1,1,0,0,0,1-1V79.23h6.12v9.16a1,1,0,0,0,1,1h9.17Z"/></g></svg>