<svg xmlns="http://www.w3.org/2000/svg" viewBox="0 0 128 128"><defs><style>.cls-1{fill:#47566a;}</style></defs><title>Microscope</title><g id="Microscope"><path class="cls-1" d="M90.8,104.43a37.57,37.57,0,0,0-2.15-58.24,9.16,9.16,0,0,0-5.1-4.92l2.2-6.07a1,1,0,0,0-.6-1.28l-1-.36.35-1a7.08,7.08,0,0,0-3.33-8.68L86.8,8.54l1,.35A1,1,0,0,0,88.45,7L69.36.06a1,1,0,0,0-.69,1.88l1,.35L64,17.67a7,7,0,0,0-4.46.51c-2.6,1.21-3.36,3.18-4,5l-1-.35a1,1,0,0,0-1.27.6C42,54.49,42.65,52.26,42.91,52.82s.57.51,1.9,1c1.06,9.22.84,9,1.62,9.23l2.88,1-2.44,6.7a1,1,0,0,0,.6,1.28C59.8,76.57,59,76.31,59.27,76.31c.94,0,.77-.19,3.38-7.36,3.24,1.18,3,1.11,3.22,1.11.56,0,.24.16,6.83-6.09,2.82,1,2.1,1.34,4.6-5.57a8.84,8.84,0,0,0,4.35.39,23.4,23.4,0,0,1,1.18,33.69C81,89.7,81,89.42,80.26,89.42H64a1,1,0,0,0-1,1v1H25.39a1,1,0,0,0-1,1v8.13a1,1,0,0,0,1,1H63v5.1a7.14,7.14,0,0,1-7.13,7.13H33.52a9.13,9.13,0,0,0-9.13,9.13V127a1,1,0,0,0,1,1H96.52a1,1,0,0,0,1-1c0-13.24.07-12.39-.17-12.75ZM71.52,3l13.4,4.87L79.35,23.16,66,18.29ZM60.43,20a5.12,5.12,0,0,1,3.9-.17L79.6,25.38a5.1,5.1,0,0,1,3.05,6.54l-.35,1-24.86-9C58,22.35,58.44,20.92,60.43,20ZM58.67,74l-9.58-3.49,2.1-5.76,9.58,3.49Zm7-6.12L47.69,61.38l-.78-6.8L70.6,63.2Zm8.16-5.68L45.1,51.8,54.84,25,83.53,35.46l-1.93,5.3C71.88,39.31,67,52.32,75.49,57.54Zm3.34-6.06-.07,0h0c-6.71-3.42-4.2-13.48,3.22-13.48a7.33,7.33,0,0,1,1.68.2,7.12,7.12,0,1,1-4.81,13.32Zm6.76,2a9.13,9.13,0,0,0,5.48-8.8,35.54,35.54,0,0,1,.31,53.4L84,94.17A25.4,25.4,0,0,0,83.89,58.15ZM26.39,99.58V93.45H63v6.13ZM95.52,126H26.39v-3.06a7.13,7.13,0,0,1,7.13-7.13H55.87A9.15,9.15,0,0,0,65,106.68V91.42H79.72l15.8,23.69Z"/><path class="cls-1" d="M73.15,98.06a1.5,1.5,0,0,0,0,3A1.5,1.5,0,0,0,73.15,98.06Z"/><path class="cls-1" d="M80.26,45.77a4,4,0,1,0,4,4A4,4,0,0,0,80.26,45.77Zm0,6a2,2,0,1,1,2-2A2,2,0,0,1,80.26,51.77Z"/></g></svg>