<svg xmlns="http://www.w3.org/2000/svg" viewBox="0 0 128 128"><defs><style>.cls-1{fill:#47566a;}</style></defs><title>Mobile Apps</title><g id="Mobile_Apps" data-name="Mobile Apps"><path class="cls-1" d="M94.48,0h-61a9.14,9.14,0,0,0-9.13,9.13V118.87A9.14,9.14,0,0,0,33.52,128h61a9.14,9.14,0,0,0,9.13-9.13V9.13A9.14,9.14,0,0,0,94.48,0Zm7.13,118.87A7.13,7.13,0,0,1,94.48,126h-61a7.13,7.13,0,0,1-7.13-7.13V9.13A7.13,7.13,0,0,1,33.52,2h61a7.13,7.13,0,0,1,7.13,7.13Z"/><path class="cls-1" d="M94.48,8.13H80.26a1,1,0,0,0-1,1,3.07,3.07,0,0,1-3.07,3.06H51.81a3.08,3.08,0,0,1-3.07-3.06,1,1,0,0,0-1-1H33.52a1,1,0,0,0-1,1V118.87a1,1,0,0,0,1,1h61a1,1,0,0,0,1-1V9.13A1,1,0,0,0,94.48,8.13Zm-1,109.74h-59V10.13H46.84a5.08,5.08,0,0,0,5,4.06H76.19a5.08,5.08,0,0,0,5-4.06H93.48Z"/><path class="cls-1" d="M55.87,8.6a1.5,1.5,0,0,0,0-3A1.5,1.5,0,0,0,55.87,8.6Z"/><path class="cls-1" d="M72.13,40.65H65V33.52a1,1,0,0,0-2,0v7.13H55.87a1,1,0,0,0,0,2H63v7.12a1,1,0,0,0,2,0V42.65h7.13A1,1,0,0,0,72.13,40.65Z"/><path class="cls-1" d="M64,24.39A17.26,17.26,0,1,0,81.26,41.65,17.28,17.28,0,0,0,64,24.39ZM64,56.9A15.26,15.26,0,1,1,79.26,41.65,15.27,15.27,0,0,1,64,56.9Z"/><path class="cls-1" d="M72.13,8.6a1.5,1.5,0,0,0,0-3A1.5,1.5,0,0,0,72.13,8.6Z"/><path class="cls-1" d="M44.71,72.13V82.29a1,1,0,0,0,1,1H82.29a1,1,0,0,0,1-1V72.13a1,1,0,0,0-1-1H45.71A1,1,0,0,0,44.71,72.13Zm2,1H81.29v8.16H46.71Z"/><path class="cls-1" d="M82.29,91.45H45.71a1,1,0,0,0-1,1v10.16a1,1,0,0,0,1,1H82.29a1,1,0,0,0,1-1V92.45A1,1,0,0,0,82.29,91.45Zm-1,10.16H46.71V93.45H81.29Z"/></g></svg>