<svg xmlns="http://www.w3.org/2000/svg" viewBox="0 0 128 128"><defs><style>.cls-1{fill:#47566a;}</style></defs><title>Mortar</title><g id="Mortar"><path class="cls-1" d="M127,52.84H102.51l5-25.28a15.24,15.24,0,0,0,4.26-19.94c-6.75-11.7-24.4-9.37-27.9,3.67a15.23,15.23,0,0,0,.83,10.15L74,52.84H1a1.06,1.06,0,0,0-1,1V76.19a43.73,43.73,0,0,0,42.68,43.66V127a1,1,0,0,0,1,1H84.32a1,1,0,0,0,1-1v-7.15A43.73,43.73,0,0,0,128,76.19V53.87A1.06,1.06,0,0,0,127,52.84ZM86.69,21a13.14,13.14,0,0,1-.87-9.14C88.86.47,104.18-1.54,110,8.61a13.24,13.24,0,0,1-4,17.54c-.5.34.06-1.75-5.58,26.69H76.13C87.62,19.09,87,21.5,86.69,21ZM83.32,126H44.68v-6.13H83.32ZM126,76.19a41.73,41.73,0,0,1-41.68,41.68H43.68A41.73,41.73,0,0,1,2,76.19V54.84H126Z"/><path class="cls-1" d="M64,61A25.39,25.39,0,1,0,89.39,86.35,25.42,25.42,0,0,0,64,61Zm0,48.77A23.39,23.39,0,1,1,87.39,86.35,23.41,23.41,0,0,1,64,109.74Z"/><path class="cls-1" d="M78.23,81.29H69.06V72.13a1,1,0,0,0-1-1H59.94a1,1,0,0,0-1,1v9.16H49.77a1,1,0,0,0-1,1v8.13a1,1,0,0,0,1,1h9.17v9.16a1,1,0,0,0,1,1h8.12a1,1,0,0,0,1-1V91.42h9.17a1,1,0,0,0,1-1V82.29A1,1,0,0,0,78.23,81.29Zm-1,8.13H68.06a1,1,0,0,0-1,1v9.16H60.94V90.42a1,1,0,0,0-1-1H50.77V83.29h9.17a1,1,0,0,0,1-1V73.13h6.12v9.16a1,1,0,0,0,1,1h9.17Z"/><path class="cls-1" d="M23.35,30.45A11.16,11.16,0,1,0,12.19,19.29,11.18,11.18,0,0,0,23.35,30.45Zm0-20.32a9.16,9.16,0,1,1-5.72,16.3l10.5-10.5a1,1,0,0,0-1.42-1.41L16.21,25A9.17,9.17,0,0,1,23.35,10.13Z"/><path class="cls-1" d="M52.59,44.31l10-10a8.2,8.2,0,0,0-5.79-14A8.1,8.1,0,0,0,51,22.72C40.56,33.18,38.61,34.17,38.61,38.52A8.2,8.2,0,0,0,52.59,44.31Zm-.15-20.18A6.2,6.2,0,0,1,63,28.51c0,3.34-2.13,4.69-6.11,8.67l-8.75-8.74Zm-10,10,4.31-4.3,8.74,8.75c-4,4-5.4,6.11-8.67,6.11A6.2,6.2,0,0,1,42.42,34.15Z"/></g></svg>