<svg xmlns="http://www.w3.org/2000/svg" viewBox="0 0 128 128"><defs><style>.cls-1{fill:#47566a;}</style></defs><title>MRI</title><g id="MRI"><path class="cls-1" d="M55.87,14.19H72.13a1,1,0,0,0,0-2H55.87A1,1,0,0,0,55.87,14.19Z"/><path class="cls-1" d="M103.54,88c-.09-.22,0-.08-1.59-2,22.49-26.49,11.42-67-20.69-78.88V5.06A5.07,5.07,0,0,0,76.19,0H51.81a5.07,5.07,0,0,0-5.07,5.06V7.15C14,19.21,3.86,59.87,26.11,86c-1.67,2-1.56,1.86-1.64,2s-.08-.55-.08,14.62a1,1,0,0,0,1,1h3.06v1.24a11,11,0,0,0,10.16,10.92V127a1,1,0,0,0,2,0V115.81H87.39V127a1,1,0,0,0,2,0V115.77a11,11,0,0,0,10.16-10.92v-1.24h3.06a1,1,0,0,0,1-1C103.61,87.37,103.65,88.29,103.54,88ZM46.18,65H81.82l18.66,22.39h-73Zm38.29.06a23.35,23.35,0,1,0-40.94,0l-4.14,5C26.62,50.83,40.33,24.35,64,24.35S101.38,50.84,88.61,70ZM45.71,63a1,1,0,0,0-.81.4,21.36,21.36,0,1,1,38.2,0C82.59,62.79,85.48,63,45.71,63Zm44.23,8.62a30.88,30.88,0,0,0,5.5-16.78h16.31a47.76,47.76,0,0,1-11.1,29.63ZM48.08,8.79c.83-.29.66-.83.66-3.73A3.07,3.07,0,0,1,51.81,2H76.19a3.07,3.07,0,0,1,3.07,3.06c0,2.58-.22,3.42.66,3.73a47.86,47.86,0,0,1,31.83,44.05H95.46a31.48,31.48,0,0,0-62.92,0H16.24A47.5,47.5,0,0,1,48.08,8.79ZM16.24,54.84H32.56a30.88,30.88,0,0,0,5.5,16.78L27.41,84.39A47.49,47.49,0,0,1,16.24,54.84Zm81.31,50a9,9,0,0,1-9.16,9h-49a9,9,0,0,1-9-9v-1.24h67.1Zm4.06-3.24H26.39V89.39h75.22Z"/></g></svg>