<svg xmlns="http://www.w3.org/2000/svg" viewBox="0 0 128 128"><defs><style>.cls-1{fill:#47566a;}</style></defs><title>Nurse</title><g id="Nurse"><path class="cls-1" d="M67.6,67.6a5.09,5.09,0,0,1-7.2,0A1,1,0,0,0,59,69a7.11,7.11,0,0,0,10,0A1,1,0,0,0,67.6,67.6Z"/><path class="cls-1" d="M50.81,49.77v2a1,1,0,0,0,2,0v-2A1,1,0,0,0,50.81,49.77Z"/><path class="cls-1" d="M73.16,49.77v2a1,1,0,0,0,2,0v-2A1,1,0,0,0,73.16,49.77Z"/><path class="cls-1" d="M108.75,107a25.23,25.23,0,0,0-15.2-19.63h.93a1,1,0,0,0,1-1V56.77a7.08,7.08,0,0,0,0-9.93V36.24A24.13,24.13,0,0,0,80.7,14.07L82.78,3.68a1,1,0,0,0-.68-1.16,66.26,66.26,0,0,0-36.2,0,1,1,0,0,0-.68,1.16L47.3,14.07A24.13,24.13,0,0,0,32.52,36.24v10.6a7.08,7.08,0,0,0,0,9.93V86.35a1,1,0,0,0,1,1h.93A25.23,25.23,0,0,0,19.25,107l-3,19.87a1,1,0,0,0,2,.3l3-19.88a23.26,23.26,0,0,1,23.5-19.92c.17,4,1.44,18.3,11.14,18.3A10.77,10.77,0,0,0,63,103.27V127a1,1,0,0,0,2,0V103.27a10.77,10.77,0,0,0,7.13,2.38c9.7,0,11-14.31,11.14-18.3a23.25,23.25,0,0,1,23.5,19.92l3,19.88a1,1,0,0,0,2-.3ZM90.42,56.9h-1V46.71h1a5.1,5.1,0,1,1,0,10.19ZM71.13,80.24v5.85L64,98.56,56.87,86.09V80.25A25.7,25.7,0,0,0,71.13,80.24Zm.7-2.33C55,83.24,40.61,71,40.61,55.87V46.73c2.5-1.23,12-6.29,13.91-13C63.37,43,79.82,46.4,87.39,46.69v9.18A23.44,23.44,0,0,1,71.83,77.91ZM80.64,4.18,77.41,20.32H50.59L47.36,4.18A64.63,64.63,0,0,1,80.64,4.18ZM47.7,16.07l1.09,5.45a1,1,0,0,0,1,.8H78.23a1,1,0,0,0,1-.8l1.09-5.45A22.12,22.12,0,0,1,93.48,36.24v9.18a7,7,0,0,0-3.06-.71c-12.16,0-28.59-4.83-35.8-13.85a1,1,0,0,0-1.78.62c0,6.34-9.91,11.83-12.83,13.31a1.1,1.1,0,0,0-.4-.08c-2.13,0-3.35-.14-5.09.71V36.24A22.12,22.12,0,0,1,47.7,16.07ZM37.58,46.71h1V56.9h-1a5.1,5.1,0,1,1,0-10.19ZM34.52,85.35V58.2a8.48,8.48,0,0,0,4.28.7A25.3,25.3,0,0,0,54.87,79.57v5.78Zm21.35,18.3c-7.77,0-8.95-12.62-9.13-16.3h8.55l7.54,13.21C62.16,101.5,60.15,103.65,55.87,103.65Zm16.26,0c-4.28,0-6.29-2.16-7-3.09l7.54-13.21h8.55C81.08,91,79.9,103.65,72.13,103.65Zm1-18.3v-5.8A25.44,25.44,0,0,0,89.2,58.9a8.37,8.37,0,0,0,4.28-.7V85.35Z"/><path class="cls-1" d="M59.94,12.16H63v3.07a1,1,0,0,0,2,0V12.16h3.06a1,1,0,0,0,0-2H65V7.1a1,1,0,0,0-2,0v3.06H59.94A1,1,0,0,0,59.94,12.16Z"/><path class="cls-1" d="M94.48,115.84H80.26a1,1,0,0,0,0,2H94.48A1,1,0,0,0,94.48,115.84Z"/></g></svg>