<svg xmlns="http://www.w3.org/2000/svg" viewBox="0 0 128 128"><defs><style>.cls-1{fill:#47566a;}</style></defs><title>ophthalmologists</title><g id="ophthalmologists"><path class="cls-1" d="M127.89,63.54C96.74,3.27,31.26,3.27.11,63.54a1.13,1.13,0,0,0,0,.92c31.15,60.27,96.63,60.27,127.78,0A1.13,1.13,0,0,0,127.89,63.54Zm-93.34-3.6A29.45,29.45,0,1,0,77.27,33.65,76.48,76.48,0,0,1,125.77,64c-30.41,42-93.1,42-123.54,0a76.48,76.48,0,0,1,48.5-30.35A29.5,29.5,0,0,0,34.55,59.94ZM64,32.48A27.46,27.46,0,1,1,36.55,59.94,27.48,27.48,0,0,1,64,32.48ZM119.94,54A78.29,78.29,0,0,0,8.06,54C38.27,9.1,89.71,9.06,119.94,54ZM8.06,74a78.29,78.29,0,0,0,111.88,0C89.73,118.9,38.29,118.94,8.06,74Z"/><path class="cls-1" d="M55.87,60.94H63v7.12a1,1,0,0,0,2,0V60.94h7.13a1,1,0,0,0,0-2H65V51.81a1,1,0,0,0-2,0v7.13H55.87A1,1,0,0,0,55.87,60.94Z"/><path class="cls-1" d="M64,77.19A17.26,17.26,0,1,0,46.74,59.94,17.27,17.27,0,0,0,64,77.19Zm0-32.51A15.26,15.26,0,1,1,48.74,59.94,15.28,15.28,0,0,1,64,44.68Z"/></g></svg>