<svg xmlns="http://www.w3.org/2000/svg" viewBox="0 0 128 128"><defs><style>.cls-1{fill:#47566a;}</style></defs><title>Phonendoscope</title><g id="Phonendoscope"><path class="cls-1" d="M120.9,41.65a13.19,13.19,0,1,0-14.19,13.14V90.42a35.58,35.58,0,1,1-71.16,0V87.35h3.06a1,1,0,0,0,1-1V74.73A29.46,29.46,0,0,0,64,45.71a1,1,0,0,0-1-1H59.94V13.19A11.18,11.18,0,0,0,49.6,2.07,3,3,0,0,0,46.74,0h-2a3,3,0,0,0,0,6.06c1.78,0,4,.35,4.87-2a9.18,9.18,0,0,1,8.36,9.12V44.71H54.87a1,1,0,0,0-1,1,19.32,19.32,0,1,1-38.64,0,1,1,0,0,0-1-1H11.16V13.48a9.17,9.17,0,0,1,8.48-9.13c1,2.06,3,1.71,4.75,1.71a3,3,0,1,0,0-6.06h-2a3,3,0,0,0-3,2.36A11.17,11.17,0,0,0,9.16,13.48V44.71H6.1a1,1,0,0,0-1,1,29.47,29.47,0,0,0,24.38,29V86.35a1,1,0,0,0,1,1h3.07v3.07a37.58,37.58,0,1,0,75.16,0V54.79A13.2,13.2,0,0,0,120.9,41.65ZM46.74,4.06h-2a1,1,0,0,1,0-2.06h2A1,1,0,0,1,46.74,4.06ZM22.35,2h2a1,1,0,0,1,0,2.06h-2A1,1,0,0,1,22.35,2Zm8.28,70.89A27.49,27.49,0,0,1,7.11,46.71h6.14a21.32,21.32,0,0,0,42.6,0H62A27.48,27.48,0,0,1,38.47,72.89a1,1,0,0,0-.86,1V85.35H31.48V73.88A1,1,0,0,0,30.63,72.89Zm77.08-28.18a3.07,3.07,0,1,1,3.06-3.06A3.07,3.07,0,0,1,107.71,44.71Zm1,8.08V46.61a5.06,5.06,0,1,0-2,0v6.18a11.19,11.19,0,1,1,2,0Z"/></g></svg>