<svg xmlns="http://www.w3.org/2000/svg" viewBox="0 0 128 128"><defs><style>.cls-1{fill:#47566a;}</style></defs><title>Place Holder</title><g id="Place_Holder" data-name="Place Holder"><path class="cls-1" d="M127.87,126.5c-26.4-46.19-24.39-43.18-25.26-43.18H86C95.09,70.83,103.61,55,103.61,39.61a39.61,39.61,0,0,0-79.22,0C24.39,55,32.91,70.83,42,83.32H23.35c-.93,0,.69-2.45-23.24,43.22A1,1,0,0,0,1,128c135,0,126.43.26,126.86-.5A1,1,0,0,0,127.87,126.5ZM64,2a37.65,37.65,0,0,1,37.61,37.61c0,29-32.5,60.88-37.61,65.7-5.11-4.82-37.61-36.65-37.61-65.7A37.65,37.65,0,0,1,64,2ZM2.65,126,24,85.32H43.45a170.12,170.12,0,0,0,19.88,22.1,1,1,0,0,0,1.34,0,170.12,170.12,0,0,0,19.88-22.1H102L125.28,126Z"/><path class="cls-1" d="M93.45,39.61A29.45,29.45,0,1,0,64,69.06,29.48,29.48,0,0,0,93.45,39.61Zm-56.9,0A27.45,27.45,0,1,1,64,67.06,27.48,27.48,0,0,1,36.55,39.61Z"/><path class="cls-1" d="M69.06,55.87V44.68h11.2a1,1,0,0,0,1-1V35.55a1,1,0,0,0-1-1H69.06V23.35a1,1,0,0,0-1-1H59.94a1,1,0,0,0-1,1v11.2H47.74a1,1,0,0,0-1,1v8.13a1,1,0,0,0,1,1h11.2V55.87a1,1,0,0,0,1,1h8.12A1,1,0,0,0,69.06,55.87Zm-2-12.19V54.87H60.94V43.68a1,1,0,0,0-1-1H48.74V36.55h11.2a1,1,0,0,0,1-1V24.35h6.12v11.2a1,1,0,0,0,1,1h11.2v6.13H68.06A1,1,0,0,0,67.06,43.68Z"/></g></svg>