<svg xmlns="http://www.w3.org/2000/svg" viewBox="0 0 128 128"><defs><style>.cls-1{fill:#47566a;}</style></defs><title>Prescription</title><g id="Prescription"><path class="cls-1" d="M118.87,71.13H95.48V1A1,1,0,0,0,94.05.1L85.94,4,77.82.1c-.61-.29-.35-.25-9,3.86C60.21-.16,60.5-.2,59.89.1L51.79,4,43.68.1c-.61-.29-.35-.25-9,3.86C26.08-.16,26.37-.2,25.75.1L17.65,4,9.56.1A1,1,0,0,0,8.13,1V114.81A13.21,13.21,0,0,0,21.32,128h85.36a13.21,13.21,0,0,0,13.19-13.19V72.13A1,1,0,0,0,118.87,71.13ZM99.68,126H21.32a11.2,11.2,0,0,1-11.19-11.19V2.58L17.22,6c.63.3.34.25,9-3.86,8.64,4.11,8.35,4.15,9,3.86l8.1-3.86L51.36,6c.61.29.34.24,9-3.86C69,6.22,68.67,6.26,69.28,6l8.11-3.86L85.51,6c.59.28.3.26,8-3.39V114.81A13.17,13.17,0,0,0,99.68,126Zm18.19-11.19a11.2,11.2,0,0,1-19.11,7.9,11,11,0,0,1-3.28-7.9V73.13h22.39Z"/><path class="cls-1" d="M43.68,36.55h7.13v7.13a1,1,0,0,0,2,0V36.55h7.13a1,1,0,0,0,0-2H52.81V27.42a1,1,0,0,0-2,0v7.13H43.68A1,1,0,0,0,43.68,36.55Z"/><path class="cls-1" d="M51.81,52.81A17.26,17.26,0,1,0,34.55,35.55,17.28,17.28,0,0,0,51.81,52.81Zm0-32.52A15.26,15.26,0,1,1,36.55,35.55,15.27,15.27,0,0,1,51.81,20.29Z"/><path class="cls-1" d="M21.32,84.85a1.5,1.5,0,0,0,0,3A1.5,1.5,0,0,0,21.32,84.85Z"/><path class="cls-1" d="M82.29,85.35H31.48a1,1,0,0,0,0,2H82.29A1,1,0,0,0,82.29,85.35Z"/><path class="cls-1" d="M21.32,97.05a1.5,1.5,0,0,0,0,3A1.5,1.5,0,0,0,21.32,97.05Z"/><path class="cls-1" d="M82.29,97.55H31.48a1,1,0,0,0,0,2H82.29A1,1,0,0,0,82.29,97.55Z"/><path class="cls-1" d="M21.32,109.24a1.5,1.5,0,0,0,0,3A1.5,1.5,0,0,0,21.32,109.24Z"/><path class="cls-1" d="M82.29,109.74H31.48a1,1,0,0,0,0,2H82.29A1,1,0,0,0,82.29,109.74Z"/><path class="cls-1" d="M82.29,61h-61a1,1,0,0,0-1,1V74.16a1,1,0,0,0,1,1h61a1,1,0,0,0,1-1V62A1,1,0,0,0,82.29,61Zm-1,12.19h-59V63h59Z"/></g></svg>