<svg xmlns="http://www.w3.org/2000/svg" viewBox="0 0 128 128"><defs><style>.cls-1{fill:#47566a;}</style></defs><title>Radio Active</title><g id="Radio_Active" data-name="Radio Active"><path class="cls-1" d="M64,0a64,64,0,1,0,64,64A64.07,64.07,0,0,0,64,0Zm0,126a62,62,0,1,1,62-62A62.07,62.07,0,0,1,64,126Z"/><path class="cls-1" d="M64,8.13A55.87,55.87,0,1,0,119.87,64,55.93,55.93,0,0,0,64,8.13Zm0,109.74A53.87,53.87,0,1,1,117.87,64,53.92,53.92,0,0,1,64,117.87Z"/><path class="cls-1" d="M39.68,23.8l.08.24C56.31,52.68,55,50.73,55.61,50.88a1,1,0,0,0,.76-.1,15.54,15.54,0,0,1,15.26,0,1,1,0,0,0,.76.1c.58-.15-.72,1.83,15.85-26.84a1,1,0,0,0-.09-1.12c-.46-.61-10.87-6.66-24.15-6.66-12.82,0-23.53,5.84-24.15,6.66A.91.91,0,0,0,39.68,23.8ZM86,23.91,71.75,48.57a17.33,17.33,0,0,0-15.5,0L42,23.91A45.65,45.65,0,0,1,86,23.91Z"/><path class="cls-1" d="M110.74,63H80.26a1,1,0,0,0-1,1,15.32,15.32,0,0,1-7.63,13.22c-1.22.7-1.23-.16,14.87,27.74a1.11,1.11,0,0,0,.58.45,1.06,1.06,0,0,0,.79-.08A47.87,47.87,0,0,0,111.74,64,1,1,0,0,0,110.74,63Zm-23,40.09L73.48,78.42A17.34,17.34,0,0,0,81.23,65h28.5A45.87,45.87,0,0,1,87.73,103.09Z"/><path class="cls-1" d="M56.37,77.22A15.32,15.32,0,0,1,48.74,64a1,1,0,0,0-1-1H17.26a1,1,0,0,0-1,1c0,30.34,26.42,42.71,23.9,41.34,1.22.66.53,1,16.58-26.76A1,1,0,0,0,56.37,77.22Zm-16.1,25.87A45.87,45.87,0,0,1,18.27,65h28.5a17.34,17.34,0,0,0,7.75,13.42Z"/><path class="cls-1" d="M64,54.87A9.13,9.13,0,1,0,73.13,64,9.15,9.15,0,0,0,64,54.87Zm0,16.26A7.13,7.13,0,1,1,71.13,64,7.14,7.14,0,0,1,64,71.13Z"/></g></svg>