<svg xmlns="http://www.w3.org/2000/svg" viewBox="0 0 128 128"><defs><style>.cls-1{fill:#47566a;}</style></defs><title>Sample Tube</title><g id="Sample_Tube" data-name="Sample Tube"><path class="cls-1" d="M127,40.65H111.74V10a5.06,5.06,0,0,0-1-10H90.42a5.06,5.06,0,0,0-1,10V40.65H75.16V10a5.06,5.06,0,0,0-1-10H53.84a5.06,5.06,0,0,0-1,10V40.65H38.58V10a5.06,5.06,0,0,0-1-10H17.26a5.06,5.06,0,0,0-1,10V40.65H1a1,1,0,0,0-1,1V127a1,1,0,0,0,1,1H127a1,1,0,0,0,1-1V41.65A1,1,0,0,0,127,40.65ZM87.35,5.06A3.07,3.07,0,0,1,90.42,2h20.32a3.07,3.07,0,1,1,0,6.13H90.42A3.08,3.08,0,0,1,87.35,5.06Zm4.07,5.07h18.32V40.65H91.42ZM50.77,5.06A3.07,3.07,0,0,1,53.84,2H74.16a3.07,3.07,0,1,1,0,6.13H53.84A3.08,3.08,0,0,1,50.77,5.06Zm4.07,5.07H73.16V40.65H54.84ZM14.19,5.06A3.07,3.07,0,0,1,17.26,2H37.58a3.07,3.07,0,1,1,0,6.13H17.26A3.08,3.08,0,0,1,14.19,5.06Zm4.07,5.07H36.58V40.65H18.26ZM126,126H2V42.65H126Z"/><path class="cls-1" d="M9.13,48.77a1,1,0,0,0-1,1v69.1a1,1,0,0,0,1,1H118.87a1,1,0,0,0,1-1V49.77a1,1,0,0,0-1-1Zm100.61,2V96.52a9.16,9.16,0,0,1-18.32,0V50.77Zm-36.58,0V96.52a9.16,9.16,0,1,1-18.32,0V50.77Zm-36.58,0V96.52a9.16,9.16,0,1,1-18.32,0V50.77Zm81.29,67.1H10.13V50.77h6.13V96.52a11.16,11.16,0,1,0,22.32,0V50.77H52.84V96.52a11.16,11.16,0,1,0,22.32,0V50.77H89.42V96.52a11.16,11.16,0,0,0,22.32,0V50.77h6.13Z"/></g></svg>