<svg xmlns="http://www.w3.org/2000/svg" viewBox="0 0 128 128"><defs><style>.cls-1{fill:#47566a;}</style></defs><title>Skull</title><g id="Skull"><path class="cls-1" d="M54.55,49.07c-6.6-6.6-21.73-2.39-24,4.45-2.58,7.73.85,19.61,11.11,19.61C52.81,73.13,61.22,55.74,54.55,49.07Zm-.84,12.1c-4.34,10.46-14.64,12.9-19.4,6.29-2.7-3.75-3.08-9.71-1.88-13.3C35.25,45.72,61.05,43.44,53.71,61.17Z"/><path class="cls-1" d="M109.71,37.58C109.71,4.88,81.07,0,64,0S18.29,4.88,18.29,37.58c0,16.11,4.74,30.79,5.87,34.06a7.77,7.77,0,0,0-1.81,4.55c0,5.71,5.12,8.4,8.54,10,.76,8.1.66,14-.3,16-2.38,4.75-3.2,9.67,12.64,17.6A14.21,14.21,0,0,1,47,123c5.45,5.86,6.51,5,17,5s11.54.9,17-5a14.21,14.21,0,0,1,3.74-3.23c15.84-7.93,15-12.85,12.64-17.61-1-1.9-1.06-7.84-.3-15.94,3.42-1.62,8.54-4.32,8.54-10a7.77,7.77,0,0,0-1.81-4.55C105,68.37,109.71,53.69,109.71,37.58ZM83.88,118c-4.34,2.16-6.16,8-11.75,8H55.87c-5.6,0-7.4-5.85-11.74-8-15.37-7.69-13.45-11.53-11.75-14.92,1.42-2.82,1.06-10.52.6-15.85,8.74,4.16,7.67.34,7.67,13.37,0,1.38,4.81,3.62,6.09,4.15V110a15.73,15.73,0,0,1-2.36-2A1,1,0,0,0,43,109.42c3,3,8.05,6.39,21,6.39s18-3.42,21-6.39A1,1,0,0,0,83.62,108a15.73,15.73,0,0,1-2.36,2v-5.23c1.28-.53,6.09-2.77,6.09-4.15,0-13.07-1.06-9.21,7.67-13.37-.46,5.33-.82,13,.6,15.85C97.32,106.45,99.24,110.29,83.88,118Zm1.47-23v5.12a18.65,18.65,0,0,1-4.09,2.39V96.68A18.8,18.8,0,0,0,85.35,95Zm-6.09,8.32a37.62,37.62,0,0,1-6.13,1.6V98.44c2.08-.33,4.19-.73,6.13-1.21Zm-6.13,9.73V107a40.18,40.18,0,0,0,6.13-1.5v5.65A24.36,24.36,0,0,1,73.13,113.06Zm-24.39-1.94v-5.65a40.18,40.18,0,0,0,6.13,1.5v6.09A24.36,24.36,0,0,1,48.74,111.12Zm8.13-3.86a58.65,58.65,0,0,0,6.13.41v6.12a51.21,51.21,0,0,1-6.13-.42Zm8.13.41a58.65,58.65,0,0,0,6.13-.41v6.11a51.21,51.21,0,0,1-6.13.42Zm6.13-2.44a55.25,55.25,0,0,1-6.13.43v-6.2c1.73-.17,3.86-.4,6.13-.72Zm-8.13.43a55.25,55.25,0,0,1-6.13-.43V98.74c2.27.32,4.4.55,6.13.72Zm-8.13-.74a36.7,36.7,0,0,1-6.13-1.59v-6.1c1.94.48,4,.88,6.13,1.21Zm-8.13-2.4a18.39,18.39,0,0,1-4.09-2.39V95a18.8,18.8,0,0,0,4.09,1.67Zm49-17.86A40.62,40.62,0,0,1,91,86.73c-2.75,1-5.6,2-5.6,5.72,0,1.65-10.16,4.07-21.35,5.09-11.19-1-21.35-3.44-21.35-5.09,0-3.67-2.85-4.71-5.6-5.72a41.24,41.24,0,0,1-4.79-2.07c-4.17-2-7.91-4.1-7.91-8.47a6.46,6.46,0,0,1,1.71-3.73,1.12,1.12,0,0,0,.21-.65c0-1-6-15.41-6-34.23C20.29,6.62,47.68,2,64,2s43.71,4.62,43.71,35.58c0,18.45-6,33.48-6,34.23a1.12,1.12,0,0,0,.21.65,6.46,6.46,0,0,1,1.71,3.73C103.65,80.56,99.91,82.69,95.75,84.66Z"/><path class="cls-1" d="M87.36,46.32C76,43.64,67.6,50.24,72.45,61.93c5.14,12.43,17.39,14.29,22.87,6.7,3.19-4.43,3.48-11.09,2.14-15.11C96.41,50.35,92.44,47.52,87.36,46.32Zm6.33,21.14c-4.81,6.68-15.11,4.06-19.4-6.29-7.43-17.93,18.55-15.21,21.28-7C96.77,57.75,96.39,63.71,93.69,67.46Z"/><path class="cls-1" d="M64,69.1c-4.8,0-11.4,10.92-9,15.67,1.7,3.4,5.74,2.64,9,.73,3.3,1.93,7.33,2.66,9-.73C75.41,80,68.79,69.1,64,69.1ZM69.88,85c-1.76.46-4.44-1-5.33-1.55a1,1,0,0,0-1.1,0c-2,1.35-5.53,2.71-6.68.39-1.72-3.44,4-12.78,7.23-12.78C67.9,71.1,74.71,83.75,69.88,85Z"/></g></svg>