<svg xmlns="http://www.w3.org/2000/svg" viewBox="0 0 128 128"><defs><style>.cls-1{fill:#47566a;}</style></defs><title>Sphygmomanometer</title><g id="Sphygmomanometer"><path class="cls-1" d="M128,19.29a19.29,19.29,0,1,0-28.42,17V47.74a1,1,0,0,0,1,1h7.13V72.13A15.28,15.28,0,0,1,92.45,87.39H72.13A15.28,15.28,0,0,1,56.87,72.13V63H66a1,1,0,0,0,1-1V1a1,1,0,0,0-1-1H1A1,1,0,0,0,0,1V62a1,1,0,0,0,1,1H46.74V90.42a25.42,25.42,0,0,0,24.39,25.36v5.12a1,1,0,0,0,1,1h9.22a13.17,13.17,0,0,0,11.1,6.1h12.2a13.2,13.2,0,0,0,0-26.39H92.45a13.19,13.19,0,0,0-11.1,6.1H72.13a1,1,0,0,0-1,1v5.07A23.41,23.41,0,0,1,48.74,90.42V63h6.13v9.16A17.28,17.28,0,0,0,72.13,89.39H92.45a17.28,17.28,0,0,0,17.26-17.26V48.74h7.13a1,1,0,0,0,1-1V36.28A19.31,19.31,0,0,0,128,19.29ZM92.45,103.61h12.2a11.2,11.2,0,0,1,0,22.39H92.45a11.2,11.2,0,0,1,0-22.39Zm-19.32,6.1h7.15a13.19,13.19,0,0,0,0,10.19H73.13ZM2,61V2H41.65a7.13,7.13,0,0,1,7.12,7.13V53.84A7.13,7.13,0,0,1,41.65,61Zm48.77-7.13V9.13A9.09,9.09,0,0,0,47.33,2H65V61H47.33A9.11,9.11,0,0,0,50.77,53.84Zm65.07-7.1H101.58V37.2a19.11,19.11,0,0,0,14.26,0Zm-7.13-10.16A17.29,17.29,0,1,1,126,19.29,17.31,17.31,0,0,1,108.71,36.58Z"/><path class="cls-1" d="M109.71,25.7V17.26a1,1,0,0,0-2,0V25.7a2,2,0,1,0,2,0Z"/></g></svg>