<svg xmlns="http://www.w3.org/2000/svg" viewBox="0 0 128 128"><defs><style>.cls-1{fill:#47566a;}</style></defs><title>Stratcer</title><g id="Stratcer"><path class="cls-1" d="M126,49.77V63.14A7.06,7.06,0,0,0,120.9,61H101.58v-5.1a7.11,7.11,0,0,0-7.1-7.1H49.77a7.11,7.11,0,0,0-7.09,7.1V61H30.9a6.08,6.08,0,0,0-4.5-10.16H12.16V2H26.42V6.1H19.29a1,1,0,0,0-1,1V21.32a7.1,7.1,0,0,0,7.1,7.1h1v5.1a1,1,0,0,0,2,0v-5.1h1a7.11,7.11,0,0,0,7.1-7.1V7.1a1,1,0,0,0-1-1H28.42V1a1,1,0,0,0-1-1H11.16a1,1,0,0,0-1,1V51.16A6.06,6.06,0,0,0,7.68,61,7.18,7.18,0,0,0,2,63.14V49.77a1,1,0,0,0-2,0V74.16a1,1,0,0,0,1,1H6.1v7.13a1,1,0,0,0,1,1H24.39V116a7.09,7.09,0,1,0,2,4.92v-9.46L64,97.58l37.61,13.86V116a7.09,7.09,0,1,0,2,4.92V83.29H120.9a1,1,0,0,0,1-1V75.16H127a1,1,0,0,0,1-1V49.77A1,1,0,0,0,126,49.77ZM34.55,21.32a5.11,5.11,0,0,1-5.1,5.1H25.39a5.11,5.11,0,0,1-5.1-5.1V8.1H34.55ZM19.29,126a5.1,5.1,0,1,1,5.1-5.1A5.11,5.11,0,0,1,19.29,126Zm77.23,0a5.1,5.1,0,1,1,5.09-5.1A5.11,5.11,0,0,1,96.52,126ZM120.9,63a5.1,5.1,0,0,1,5.1,5.09v5.1H101.58V63ZM73.13,73.16V63H85.35V73.16Zm-28.45,0V63H56.9V73.16ZM58.9,63H71.13V73.16H58.9Zm12.23-2H58.9V50.77H71.13Zm2-10.2H85.35V61H73.13ZM87.35,63H99.58V73.16H87.35Zm12.23-7.1V61H87.35V50.77h7.13A5.11,5.11,0,0,1,99.58,55.87Zm-54.9,0a5.1,5.1,0,0,1,5.09-5.1H56.9V61H44.68Zm-36.58,1a4.08,4.08,0,0,1,4.08-4.08H26.4a4.08,4.08,0,1,1,0,8.16H12.18A4.08,4.08,0,0,1,8.1,56.89ZM2,68.06A5.1,5.1,0,0,1,7.1,63H42.68V73.16H2Zm24.39,41.25V83.72l34.72,12.8Zm4.6-26H97L64,95.45Zm35.9,13.23,34.72-12.8v25.59Zm53-15.23H8.1V75.16H119.9Z"/></g></svg>