<svg xmlns="http://www.w3.org/2000/svg" viewBox="0 0 128 128"><defs><style>.cls-1{fill:#47566a;}</style></defs><title>Surgery Room</title><g id="Surgery_Room" data-name="Surgery Room"><path class="cls-1" d="M120.9,65H7.1A7.11,7.11,0,0,0,0,72.13V86.35a1,1,0,0,0,1,1H54.87v16.3H45.71a1,1,0,0,0-1,1v13.22H37.58a7.11,7.11,0,0,0-7.1,7.1v2a1,1,0,0,0,1,1h65a1,1,0,0,0,1-1v-2a7.11,7.11,0,0,0-7.1-7.1H83.29V104.65a1,1,0,0,0-1-1H73.13V87.35H127a1,1,0,0,0,1-1V72.13A7.11,7.11,0,0,0,120.9,65Zm5.1,7.1v5.1H91.42V67H120.9A5.11,5.11,0,0,1,126,72.13ZM89.42,67v10.2H38.58V67ZM2,72.13A5.11,5.11,0,0,1,7.1,67H36.58v10.2H2ZM95.52,125v1h-63v-1a5.11,5.11,0,0,1,5.1-5.1H90.42A5.11,5.11,0,0,1,95.52,125Zm-14.23-7.1H46.71V105.65H81.29ZM71.13,103.65H56.87V87.35H71.13ZM126,85.35H2V79.23H126Z"/><path class="cls-1" d="M33.52,24.35h5.17a7.09,7.09,0,0,0,14,0H57a7.09,7.09,0,0,0,14,0h4.25a7.09,7.09,0,0,0,14,0h5.17a1,1,0,0,0,1-1V15.23a1,1,0,0,0-1-1H91.37A15.24,15.24,0,0,0,76.19,0H51.81A15.24,15.24,0,0,0,36.63,14.23H33.52a1,1,0,0,0-1,1v8.12A1,1,0,0,0,33.52,24.35Zm7.19,0h10A5.1,5.1,0,0,1,40.71,24.35Zm18.29,0H69A5.1,5.1,0,0,1,59,24.35Zm18.29,0h10A5.1,5.1,0,0,1,77.29,24.35ZM51.81,2H76.19A13.24,13.24,0,0,1,89.38,14.23H38.62A13.24,13.24,0,0,1,51.81,2ZM34.52,16.23h59v6.12h-59Z"/></g></svg>