<svg xmlns="http://www.w3.org/2000/svg" viewBox="0 0 128 128"><defs><style>.cls-1{fill:#47566a;}</style></defs><title>Syringe</title><g id="Syringe"><path class="cls-1" d="M127.71,19.1,108.9.29a1,1,0,0,0-1.41,1.42l3.05,3.05L95,20.27,80.69,5.93a1,1,0,0,0-1.41,1.42L88,16,32.26,71.76a1,1,0,0,0,0,1.41l3.06,3-8.7,8.7a1,1,0,0,0,0,1.41l2.27,2.27-5.24,8.74a1,1,0,0,0,.15,1.22l2.11,2.11L.29,126.29a1,1,0,0,0,1.42,1.42l25.62-25.62c2.15,2.15,2.49,2.77,3.33,2.26l8.74-5.24,2.27,2.27a1,1,0,0,0,1.41,0l8.7-8.7,3,3.06a1,1,0,0,0,1.41,0L112,40c9.42,9.42,8.81,9,9.4,9a1,1,0,0,0,.71-1.71L107.73,33l15.51-15.51c3.32,3.32,3.21,3.35,3.76,3.35A1,1,0,0,0,127.71,19.1ZM30.3,102.23,25.77,97.7l4.58-7.64,7.59,7.59Zm12.07-3L28.74,85.63l8-8L50.36,91.27ZM102.55,46.6l-3-3.05A1,1,0,0,0,98.08,45L101.14,48,95,54.12l-4.94-4.93a1,1,0,0,0-1.41,1.41l4.94,4.94-6.11,6.11-3.06-3.06A1,1,0,0,0,83,60l3,3.05L80,69.17l-4.94-4.94a1,1,0,0,0-1.41,1.42l4.93,4.93-6.11,6.11-3-3A1,1,0,0,0,68,75.05l3.06,3-6.11,6.11L60,79.28a1,1,0,0,0-1.42,1.41l4.94,4.94-8,8L34.38,72.46l55-55,21.15,21.15Zm3.76-15c-6-6.06-3.82-3.82-9.87-9.87L112,6.18l9.87,9.87Z"/></g></svg>