<svg xmlns="http://www.w3.org/2000/svg" viewBox="0 0 128 128"><defs><style>.cls-1{fill:#47566a;}</style></defs><title>Syrup</title><g id="Syrup"><path class="cls-1" d="M122.94,0H49.57A13.22,13.22,0,0,0,37.51,7.83l-3.3,7.43a5.1,5.1,0,0,1-4.66,3H22.32v-1a1,1,0,0,0-2,0V45.71a1,1,0,0,0,2,0v-1h7.23a5.11,5.11,0,0,1,4.66,3l3.3,7.43A13.22,13.22,0,0,0,49.57,63h73.37A5.07,5.07,0,0,0,128,57.9V5.06A5.07,5.07,0,0,0,122.94,0ZM39.34,54.32,36,46.89a7.1,7.1,0,0,0-6.49-4.21H22.32V20.29h7.23A7.1,7.1,0,0,0,36,16.08c.1,0-.33.74,3.3-7.43A11.21,11.21,0,0,1,49.57,2H56.9V61H49.57A11.21,11.21,0,0,1,39.34,54.32ZM58.9,61V2h46.78V61ZM126,57.9A3.07,3.07,0,0,1,122.94,61H107.68V2h15.26A3.06,3.06,0,0,1,126,5.06Z"/><path class="cls-1" d="M21.32,85.32A11.16,11.16,0,0,0,32.48,74.16c0-10.52-10.1-18.73-10.53-19.07a1,1,0,0,0-1.25,0c-.43.34-10.54,8.55-10.54,19.07A11.17,11.17,0,0,0,21.32,85.32Zm0-28.13c2.16,1.94,9.16,8.85,9.16,17a9.16,9.16,0,0,1-18.32,0C12.16,66,19.16,59.13,21.32,57.19Z"/><path class="cls-1" d="M122.94,101.61C-5.6,101.61-.51,101,0,102.89.11,103.14,7.7,128,36.56,128c9.07,0,15.5-3.48,19.13-10.34a11.12,11.12,0,0,1,9.86-5.92h57.39a5.07,5.07,0,0,0,0-10.13Zm0,8.13H65.55a13.11,13.11,0,0,0-11.63,7c-3.25,6.15-9.09,9.27-17.36,9.27C12.62,126,4.29,108.59,2.4,103.61H122.94a3.07,3.07,0,0,1,0,6.13Z"/><path class="cls-1" d="M90.42,30.48H83.29V23.35a1,1,0,0,0-2,0v7.13H74.16a1,1,0,0,0,0,2h7.13v7.13a1,1,0,0,0,2,0V32.48h7.13A1,1,0,0,0,90.42,30.48Z"/><path class="cls-1" d="M82.29,14.23A17.26,17.26,0,1,0,99.55,31.48,17.27,17.27,0,0,0,82.29,14.23Zm0,32.51A15.26,15.26,0,1,1,97.55,31.48,15.28,15.28,0,0,1,82.29,46.74Z"/></g></svg>