<svg xmlns="http://www.w3.org/2000/svg" viewBox="0 0 128 128"><defs><style>.cls-1{fill:#47566a;}</style></defs><title>Thermometer</title><g id="Thermometer"><path class="cls-1" d="M96.85,5.35,45.53,56.67A68.73,68.73,0,0,0,29.53,82c-5.93,16.63-15,24-28,37a5.31,5.31,0,0,0,7.51,7.51c12.75-12.75,20.32-22,37-28a68.23,68.23,0,0,0,25.28-16C127.44,26.36,116,37.84,117.55,36.26c5.54-5.55,10.45-9.32,10.45-18C128,2,108.27-6.07,96.85,5.35ZM5.31,126A3.31,3.31,0,0,1,2,122.69c0-1.81.58-2,7.13-8.5l4.68,4.68C7.31,125.37,7.14,126,5.31,126ZM69.92,81.05A66.23,66.23,0,0,1,45.37,96.59c-15.53,5.56-23.51,14.24-30.14,20.87l-4.69-4.69,4.86-4.86C34.25,89.06,28.47,76.56,47,58.08l45.5-45.5,23,23Zm46.92-46.92-23-23c4.39-4.39,5.94-6.36,9.68-7.94a16.28,16.28,0,0,1,22.45,15C126,26,121.54,29.43,116.84,34.13Z"/><path class="cls-1" d="M92.45,28.45a7.1,7.1,0,1,0,7.1,7.1A7.11,7.11,0,0,0,92.45,28.45Zm0,12.2a5.1,5.1,0,1,1,5.1-5.1A5.11,5.11,0,0,1,92.45,40.65Z"/><path class="cls-1" d="M74.87,43a1,1,0,0,0-1.42,0L55.16,61.26a1,1,0,0,0,0,1.41L65.33,72.84a1,1,0,0,0,1.41,0c20-20,18.58-18.41,18.58-19S85.87,54,74.87,43ZM66,70.71,57.29,62,74.16,45.09l8.75,8.75Z"/><path class="cls-1" d="M53.13,73.45,43,83.62A1,1,0,0,0,44.38,85L54.55,74.87A1,1,0,0,0,53.13,73.45Z"/></g></svg>