<svg xmlns="http://www.w3.org/2000/svg" viewBox="0 0 128 128"><defs><style>.cls-1{fill:#47566a;}</style></defs><title>USG</title><g id="USG"><path class="cls-1" d="M87.35,66V9.13a1,1,0,0,0-1-1H9.13a1,1,0,0,0-1,1V66a1,1,0,0,0,1,1H86.35A1,1,0,0,0,87.35,66Zm-2-1H10.13V10.13H85.35Z"/><path class="cls-1" d="M45.71,95.52H11.16a1,1,0,0,0-1,1v8.13a1,1,0,0,0,1,1H45.71a1,1,0,0,0,1-1V96.52A1,1,0,0,0,45.71,95.52Zm-1,8.13H12.16V97.52H44.71Z"/><path class="cls-1" d="M72.13,95.52H68.06a1,1,0,0,0,0,2h4.07A1,1,0,0,0,72.13,95.52Z"/><path class="cls-1" d="M84.32,95.52H80.26a1,1,0,0,0,0,2h4.06A1,1,0,0,0,84.32,95.52Z"/><path class="cls-1" d="M72.13,103.65H68.06a1,1,0,0,0,0,2h4.07A1,1,0,0,0,72.13,103.65Z"/><path class="cls-1" d="M59.94,95.52H55.87a1,1,0,0,0,0,2h4.07A1,1,0,0,0,59.94,95.52Z"/><path class="cls-1" d="M59.94,103.65H55.87a1,1,0,0,0,0,2h4.07A1,1,0,0,0,59.94,103.65Z"/><path class="cls-1" d="M84.32,103.65H80.26a1,1,0,0,0,0,2h4.06A1,1,0,0,0,84.32,103.65Z"/><path class="cls-1" d="M16.36,42.09c.26.52,6.66,12.75,31.38,12.75S78.86,42.61,79.12,42.09c.41-.82,1.29.68-16.37-21.39a1,1,0,0,0-1.68.18c-2.23,4.47-23.32,4.9-26.66,0a1,1,0,0,0-1.67-.18C15.11,42.73,16,41.27,16.36,42.09Zm17.18-19.2c5.18,4.7,23.21,4.71,28.4,0L77,41.72c-10,14.88-48.54,14.88-58.53,0Z"/><path class="cls-1" d="M17.26,18.26h6.09a1,1,0,0,0,0-2H17.26A1,1,0,0,0,17.26,18.26Z"/><path class="cls-1" d="M78.23,56.9h-6.1a1,1,0,0,0,0,2h6.1A1,1,0,0,0,78.23,56.9Z"/><path class="cls-1" d="M114.81,28.45c-7,0-13.2,4-13.2,7.1V49.77c0,.84-.14.55,8.13,4.69v13.6a5.08,5.08,0,0,0,4.07,5V120.9a5.1,5.1,0,1,1-10.2,0V108.71a9.13,9.13,0,0,0-8.13-9.07V86.35a1,1,0,0,0-1-1H71.1V75.16H94.48a1,1,0,0,0,1-1V1a1,1,0,0,0-1-1H1A1,1,0,0,0,0,1V74.16a1,1,0,0,0,1,1H24.39V85.35H1a1,1,0,0,0-1,1v28.46a1,1,0,0,0,1,1H94.48a1,1,0,0,0,1-1V101.66a7.13,7.13,0,0,1,6.13,7V120.9a7.1,7.1,0,0,0,14.2,0V73a5.08,5.08,0,0,0,4.06-5V54.46l7.58-3.79c.77-.39.55.12.55-15.12C128,32.42,121.79,28.45,114.81,28.45ZM2,2H93.48V73.16H2ZM26.39,75.16H69.1V85.35H26.39Zm67.09,38.65H2V87.35H93.48Zm10.13-78.26c0-1.48,4.85-5.1,11.2-5.1S126,34.07,126,35.55v4.06c0,1.48-4.84,5.1-11.19,5.1s-11.2-3.62-11.2-5.1Zm14.81,17.39c-.77.39-.55-.12-.55,15.12a3.07,3.07,0,1,1-6.13,0c0-15.42.23-14.73-.55-15.12l-7.58-3.78V42.94c5.78,5,16.61,5,22.39,0v6.22Z"/></g></svg>