<svg xmlns="http://www.w3.org/2000/svg" viewBox="0 0 128 128"><defs><style>.cls-1{fill:#47566a;}</style></defs><title>Wheelchair</title><g id="Wheelchair"><path class="cls-1" d="M91.42,52.86V13.19a7.14,7.14,0,0,1,7.13-7.13h7.13V9.13a1,1,0,0,0,1,1h16.26a5.07,5.07,0,0,0,0-10.13H106.68a1,1,0,0,0-1,1V4.06H98.55a9.15,9.15,0,0,0-9.08,8.18,9.15,9.15,0,0,0-8.18,9.08V44.71H35.55c-8.18,0-10.92,10.13-8.13,10.13h3.06V81.29H24.37a6.08,6.08,0,0,0-.16,12.15c-4.75,28.49-3.71,21-3.84,22.4H1a1,1,0,0,0,0,2H20.37a11.16,11.16,0,1,0,3.29-9l2.57-15.44H53A37.58,37.58,0,1,0,91.42,52.86ZM107.68,2h15.26a3.07,3.07,0,0,1,0,6.13H107.68ZM83.29,21.32a7.14,7.14,0,0,1,6.13-7.06V44.71H83.29ZM35.55,46.71H89.42v6.13H28.49A7.14,7.14,0,0,1,35.55,46.71Zm-3.07,8.13H78.35A37.71,37.71,0,0,0,54,81.31c-.31,0-5.88,0-21.48,0Zm-1,52.84a9.16,9.16,0,1,1-9.15,9.22l.51-3.06A9.15,9.15,0,0,1,31.48,107.68ZM52.84,91.45H24.37a4.08,4.08,0,0,1,0-8.16H52.84ZM90.42,126A35.58,35.58,0,1,1,126,90.42,35.62,35.62,0,0,1,90.42,126Z"/><path class="cls-1" d="M90.42,85.42a5,5,0,1,0,5,5A5,5,0,0,0,90.42,85.42Zm0,8a3,3,0,1,1,3-3A3,3,0,0,1,90.42,93.42Z"/><path class="cls-1" d="M115.89,75.67a29.43,29.43,0,0,0-51,29.44c10.07,18.82,39.13,20.45,51,0C121.54,95.27,120.82,83.55,115.89,75.67Zm-2.23.17L97.76,85a9.09,9.09,0,0,0-6.34-3.67V63A27.44,27.44,0,0,1,113.66,75.84ZM90.42,97.55a7.13,7.13,0,1,1,7.13-7.13A7.14,7.14,0,0,1,90.42,97.55ZM89.42,63V81.35A9.09,9.09,0,0,0,83.08,85l-15.9-9.18A27.44,27.44,0,0,1,89.42,63ZM66.17,77.57l15.9,9.18a9.06,9.06,0,0,0,0,7.34l-15.9,9.18A27.38,27.38,0,0,1,66.17,77.57Zm1,27.43,15.9-9.18a9.09,9.09,0,0,0,6.34,3.67v18.36A27.44,27.44,0,0,1,67.18,105Zm24.24,12.85V99.49a9.09,9.09,0,0,0,6.34-3.67l15.9,9.18A27.44,27.44,0,0,1,91.42,117.85Zm23.25-14.58-15.9-9.18a9,9,0,0,0,0-7.34l15.9-9.18A27.38,27.38,0,0,1,114.67,103.27Z"/><path class="cls-1" d="M31.48,121.84a5,5,0,1,0-5-5A5,5,0,0,0,31.48,121.84Zm0-8a3,3,0,1,1-3,3A3,3,0,0,1,31.48,113.84Z"/></g></svg>